%TF.GenerationSoftware,KiCad,Pcbnew,(6.0.0)*%
%TF.CreationDate,2022-03-08T01:27:21+02:00*%
%TF.ProjectId,CDH_ECU1.2,4344485f-4543-4553-912e-322e6b696361,1.2*%
%TF.SameCoordinates,Original*%
%TF.FileFunction,Copper,L3,Inr*%
%TF.FilePolarity,Positive*%
%FSLAX46Y46*%
G04 Gerber Fmt 4.6, Leading zero omitted, Abs format (unit mm)*
G04 Created by KiCad (PCBNEW (6.0.0)) date 2022-03-08 01:27:21*
%MOMM*%
%LPD*%
G01*
G04 APERTURE LIST*
G04 Aperture macros list*
%AMRoundRect*
0 Rectangle with rounded corners*
0 $1 Rounding radius*
0 $2 $3 $4 $5 $6 $7 $8 $9 X,Y pos of 4 corners*
0 Add a 4 corners polygon primitive as box body*
4,1,4,$2,$3,$4,$5,$6,$7,$8,$9,$2,$3,0*
0 Add four circle primitives for the rounded corners*
1,1,$1+$1,$2,$3*
1,1,$1+$1,$4,$5*
1,1,$1+$1,$6,$7*
1,1,$1+$1,$8,$9*
0 Add four rect primitives between the rounded corners*
20,1,$1+$1,$2,$3,$4,$5,0*
20,1,$1+$1,$4,$5,$6,$7,0*
20,1,$1+$1,$6,$7,$8,$9,0*
20,1,$1+$1,$8,$9,$2,$3,0*%
G04 Aperture macros list end*
%TA.AperFunction,ComponentPad*%
%ADD10RoundRect,0.250000X-1.125000X1.125000X-1.125000X-1.125000X1.125000X-1.125000X1.125000X1.125000X0*%
%TD*%
%TA.AperFunction,ComponentPad*%
%ADD11C,2.750000*%
%TD*%
%TA.AperFunction,ComponentPad*%
%ADD12R,1.500000X1.500000*%
%TD*%
%TA.AperFunction,ComponentPad*%
%ADD13C,1.500000*%
%TD*%
%TA.AperFunction,ComponentPad*%
%ADD14R,2.000000X2.000000*%
%TD*%
%TA.AperFunction,ComponentPad*%
%ADD15C,2.000000*%
%TD*%
%TA.AperFunction,ComponentPad*%
%ADD16R,1.190000X1.190000*%
%TD*%
%TA.AperFunction,ComponentPad*%
%ADD17C,1.190000*%
%TD*%
%TA.AperFunction,ComponentPad*%
%ADD18R,1.700000X1.700000*%
%TD*%
%TA.AperFunction,ComponentPad*%
%ADD19O,1.700000X1.700000*%
%TD*%
%TA.AperFunction,ComponentPad*%
%ADD20RoundRect,0.250000X1.125000X1.125000X-1.125000X1.125000X-1.125000X-1.125000X1.125000X-1.125000X0*%
%TD*%
%TA.AperFunction,ComponentPad*%
%ADD21RoundRect,0.249999X-1.300001X-1.300001X1.300001X-1.300001X1.300001X1.300001X-1.300001X1.300001X0*%
%TD*%
%TA.AperFunction,ComponentPad*%
%ADD22C,3.100000*%
%TD*%
%TA.AperFunction,ComponentPad*%
%ADD23O,2.000000X1.000000*%
%TD*%
%TA.AperFunction,ComponentPad*%
%ADD24O,2.100000X1.050000*%
%TD*%
%TA.AperFunction,ComponentPad*%
%ADD25R,1.000000X1.000000*%
%TD*%
%TA.AperFunction,ComponentPad*%
%ADD26O,1.000000X1.000000*%
%TD*%
%TA.AperFunction,ViaPad*%
%ADD27C,0.800000*%
%TD*%
G04 APERTURE END LIST*
D10*
X205486000Y-78232000D03*
D11*
X205486000Y-83632000D03*
D10*
X205232000Y-114648000D03*
D11*
X205232000Y-120048000D03*
D12*
X125095000Y-122555000D03*
D13*
X127635000Y-123825000D03*
X125095000Y-125095000D03*
X127635000Y-126365000D03*
X125095000Y-127635000D03*
X127635000Y-128905000D03*
X125095000Y-130175000D03*
X127635000Y-131445000D03*
D14*
X173736000Y-53512323D03*
D15*
X173736000Y-58512323D03*
D16*
X205711000Y-106172000D03*
D17*
X205711000Y-103522000D03*
X205711000Y-100872000D03*
D18*
X141224000Y-93726000D03*
D19*
X141224000Y-96266000D03*
D20*
X161036000Y-140208000D03*
D11*
X155636000Y-140208000D03*
X182372000Y-47752000D03*
D20*
X187772000Y-47752000D03*
D21*
X150416000Y-47176000D03*
D22*
X156416000Y-47176000D03*
D23*
X113665000Y-56640000D03*
X113665000Y-65280000D03*
D24*
X117845000Y-65280000D03*
X117845000Y-56640000D03*
D25*
X139564000Y-80376000D03*
D26*
X139564000Y-81646000D03*
D27*
X193294000Y-113944400D03*
X190500000Y-78740000D03*
X193040000Y-77470000D03*
X193040000Y-78740000D03*
X189230000Y-78740000D03*
X170180000Y-54610000D03*
X171450000Y-54610000D03*
X192024000Y-113944400D03*
X189484000Y-113944400D03*
X176530000Y-54610000D03*
X192024000Y-115214400D03*
X165100000Y-59690000D03*
X187960000Y-77470000D03*
X165100000Y-58420000D03*
X190754000Y-115214400D03*
X166370000Y-60960000D03*
X166370000Y-62230000D03*
X165100000Y-60960000D03*
X168910000Y-53340000D03*
X187960000Y-78740000D03*
X177800000Y-54610000D03*
X165100000Y-57150000D03*
X191770000Y-78740000D03*
X190500000Y-77470000D03*
X168910000Y-54610000D03*
X166370000Y-59690000D03*
X193294000Y-115214400D03*
X190754000Y-113944400D03*
X170180000Y-53340000D03*
X176530000Y-52070000D03*
X165100000Y-62230000D03*
X189484000Y-115214400D03*
X170180000Y-52070000D03*
X188214000Y-115214400D03*
X177800000Y-52070000D03*
X163830000Y-57150000D03*
X188214000Y-113944400D03*
X176530000Y-53340000D03*
X191770000Y-77470000D03*
X166370000Y-57150000D03*
X189230000Y-77470000D03*
X171450000Y-53340000D03*
X168910000Y-52070000D03*
X171450000Y-52070000D03*
X177800000Y-53340000D03*
X166370000Y-58420000D03*
X204724000Y-59690000D03*
X170180000Y-137160000D03*
X193040000Y-109220000D03*
X162560000Y-121920000D03*
X121285000Y-59690000D03*
X197104000Y-83947000D03*
X200660000Y-68580000D03*
X139700000Y-116840000D03*
X139700000Y-68580000D03*
X197358000Y-118872000D03*
X132080000Y-116840000D03*
X147320000Y-137160000D03*
X185420000Y-137160000D03*
X201676000Y-53340000D03*
X132080000Y-109220000D03*
X139700000Y-45720000D03*
X187960000Y-81280000D03*
X200660000Y-57404000D03*
X198120000Y-84963000D03*
X182880000Y-81280000D03*
X121920000Y-45720000D03*
X198374000Y-118872000D03*
X132842000Y-62738000D03*
X114300000Y-114300000D03*
X132080000Y-137160000D03*
X132080000Y-45720000D03*
X138684000Y-102616000D03*
X159512000Y-103886000D03*
X114300000Y-124460000D03*
X199644000Y-57404000D03*
X172720000Y-109220000D03*
X125984000Y-66548000D03*
X197104000Y-82931000D03*
X197358000Y-119888000D03*
X197358000Y-120904000D03*
X200660000Y-54356000D03*
X208280000Y-91440000D03*
X147320000Y-124714000D03*
X200660000Y-55372000D03*
X200660000Y-137160000D03*
X205740000Y-64516000D03*
X198374000Y-120904000D03*
X149352000Y-76454000D03*
X200660000Y-52324000D03*
X193040000Y-137160000D03*
X175260000Y-68580000D03*
X199644000Y-54356000D03*
X208280000Y-127000000D03*
X208280000Y-96520000D03*
X198120000Y-71120000D03*
X134112000Y-64008000D03*
X114300000Y-104140000D03*
X167640000Y-48768000D03*
X198120000Y-83947000D03*
X208280000Y-134620000D03*
X130048000Y-99822000D03*
X198374000Y-121920000D03*
X147320000Y-119888000D03*
X208280000Y-71120000D03*
X114300000Y-71120000D03*
X187452000Y-55880000D03*
X147066000Y-110490000D03*
X177800000Y-137160000D03*
X199644000Y-56388000D03*
X197358000Y-121920000D03*
X200660000Y-53340000D03*
X173990000Y-125222000D03*
X114300000Y-134620000D03*
X139700000Y-137160000D03*
X201676000Y-54356000D03*
X208280000Y-45720000D03*
X198120000Y-82931000D03*
X154940000Y-114300000D03*
X172466000Y-126492000D03*
X157480000Y-93980000D03*
X198374000Y-119888000D03*
X197104000Y-81915000D03*
X127762000Y-66548000D03*
X200660000Y-96520000D03*
X199644000Y-55372000D03*
X128778000Y-58928000D03*
X201676000Y-57404000D03*
X200660000Y-56388000D03*
X195072000Y-62992000D03*
X157226000Y-76454000D03*
X121285000Y-62865000D03*
X170180000Y-45720000D03*
X201676000Y-52324000D03*
X193040000Y-96520000D03*
X160020000Y-81280000D03*
X198120000Y-81915000D03*
X207518000Y-63246000D03*
X121920000Y-137160000D03*
X201676000Y-56388000D03*
X198628000Y-57658000D03*
X133350000Y-55245000D03*
X201676000Y-55372000D03*
X197104000Y-84963000D03*
X182880000Y-109220000D03*
X120015000Y-60434500D03*
X120015000Y-61909500D03*
X152908000Y-98298000D03*
X209423000Y-60325000D03*
X152908000Y-80264000D03*
X152400000Y-135128000D03*
X177800000Y-103378000D03*
X177800000Y-96012000D03*
X177800000Y-132842000D03*
X135636000Y-121920000D03*
X177800000Y-66294000D03*
X140208000Y-61214000D03*
X133858000Y-57658000D03*
X121412000Y-95504000D03*
X132842000Y-82296000D03*
X148844000Y-100619500D03*
X162306000Y-90932000D03*
X169164000Y-90932000D03*
X141224000Y-121920000D03*
X151892000Y-70104000D03*
X151892000Y-83566000D03*
X169011600Y-70866000D03*
X162712400Y-71120000D03*
X131064000Y-75692000D03*
X130302000Y-78740000D03*
X134112000Y-99314000D03*
X149570500Y-119087286D03*
X149860000Y-71628000D03*
X134112000Y-78486000D03*
X203454000Y-82804000D03*
X180848000Y-90932000D03*
X203454000Y-84836000D03*
X203454000Y-83820000D03*
X204470000Y-85598000D03*
X206502000Y-85598000D03*
X205486000Y-85598000D03*
X204216000Y-121920000D03*
X203454000Y-122682000D03*
X178816000Y-128016000D03*
X205486000Y-123190000D03*
X206502000Y-123190000D03*
X205232000Y-122174000D03*
X203200000Y-121666000D03*
X206248000Y-122174000D03*
X202184000Y-121666000D03*
X204470000Y-122936000D03*
X162763200Y-72694800D03*
X169062400Y-72390000D03*
X160629600Y-77165200D03*
X169113200Y-81534000D03*
X129032000Y-82296000D03*
X149606000Y-102362000D03*
X195285347Y-85944538D03*
X200533000Y-85852000D03*
X196469000Y-57785000D03*
X202946000Y-57785000D03*
X197612000Y-54102000D03*
X198120000Y-50292000D03*
X183134000Y-61976000D03*
X196850000Y-50292000D03*
X194310000Y-123190000D03*
X201930000Y-123190000D03*
X161041714Y-75697714D03*
X169672000Y-75184000D03*
X169672000Y-73710800D03*
X160020000Y-75692000D03*
X192532000Y-49530000D03*
X205994000Y-53848000D03*
X208026000Y-53848000D03*
X196596000Y-46990000D03*
X162052000Y-101346000D03*
X169926000Y-101346000D03*
X131572000Y-82296000D03*
X149570500Y-101346000D03*
X132842000Y-99314000D03*
X132963286Y-105542714D03*
X129794000Y-57912000D03*
X135382000Y-78486000D03*
X133858000Y-60706000D03*
X123952000Y-78486000D03*
X130810000Y-56388000D03*
X122682000Y-78486000D03*
X128778000Y-62992000D03*
X131798000Y-57871000D03*
%TA.AperFunction,Conductor*%
G36*
X211105121Y-44343002D02*
G01*
X211151614Y-44396658D01*
X211163000Y-44449000D01*
X211163000Y-143943000D01*
X211142998Y-144011121D01*
X211089342Y-144057614D01*
X211037000Y-144069000D01*
X111543000Y-144069000D01*
X111474879Y-144048998D01*
X111428386Y-143995342D01*
X111417000Y-143943000D01*
X111417000Y-139807165D01*
X113817866Y-139807165D01*
X113852952Y-140064970D01*
X113925758Y-140314757D01*
X114034686Y-140551039D01*
X114037246Y-140554944D01*
X114037249Y-140554949D01*
X114174775Y-140764712D01*
X114174779Y-140764717D01*
X114177341Y-140768625D01*
X114350591Y-140962735D01*
X114550629Y-141129105D01*
X114773061Y-141264080D01*
X114777375Y-141265889D01*
X114777377Y-141265890D01*
X115008686Y-141362886D01*
X115008691Y-141362888D01*
X115013001Y-141364695D01*
X115017533Y-141365846D01*
X115017536Y-141365847D01*
X115088507Y-141383871D01*
X115265177Y-141428739D01*
X115481286Y-141450500D01*
X115636044Y-141450500D01*
X115638369Y-141450327D01*
X115638375Y-141450327D01*
X115824814Y-141436472D01*
X115824818Y-141436471D01*
X115829466Y-141436126D01*
X116083232Y-141378705D01*
X116087586Y-141377012D01*
X116321370Y-141286098D01*
X116321372Y-141286097D01*
X116325723Y-141284405D01*
X116361285Y-141264080D01*
X116409038Y-141236786D01*
X116551612Y-141155299D01*
X116755936Y-140994223D01*
X116934208Y-140804714D01*
X117082511Y-140590937D01*
X117100258Y-140554949D01*
X117195521Y-140361775D01*
X117195522Y-140361772D01*
X117197586Y-140357587D01*
X117245469Y-140208000D01*
X154055628Y-140208000D01*
X154075085Y-140455225D01*
X154076239Y-140460032D01*
X154076240Y-140460038D01*
X154106660Y-140586744D01*
X154132977Y-140696362D01*
X154134870Y-140700933D01*
X154134871Y-140700935D01*
X154177858Y-140804714D01*
X154227878Y-140925474D01*
X154357452Y-141136919D01*
X154518508Y-141325492D01*
X154707081Y-141486548D01*
X154918526Y-141616122D01*
X154923096Y-141618015D01*
X154923100Y-141618017D01*
X155143065Y-141709129D01*
X155147638Y-141711023D01*
X155231792Y-141731227D01*
X155383962Y-141767760D01*
X155383968Y-141767761D01*
X155388775Y-141768915D01*
X155636000Y-141788372D01*
X155883225Y-141768915D01*
X155888032Y-141767761D01*
X155888038Y-141767760D01*
X156040208Y-141731227D01*
X156124362Y-141711023D01*
X156128935Y-141709129D01*
X156348900Y-141618017D01*
X156348904Y-141618015D01*
X156353474Y-141616122D01*
X156564919Y-141486548D01*
X156681669Y-141386834D01*
X159460500Y-141386834D01*
X159463481Y-141418369D01*
X159508366Y-141546184D01*
X159513958Y-141553754D01*
X159513959Y-141553757D01*
X159558113Y-141613536D01*
X159588850Y-141655150D01*
X159596421Y-141660742D01*
X159690243Y-141730041D01*
X159690246Y-141730042D01*
X159697816Y-141735634D01*
X159825631Y-141780519D01*
X159833277Y-141781242D01*
X159833278Y-141781242D01*
X159839248Y-141781806D01*
X159857166Y-141783500D01*
X162214834Y-141783500D01*
X162232752Y-141781806D01*
X162238722Y-141781242D01*
X162238723Y-141781242D01*
X162246369Y-141780519D01*
X162374184Y-141735634D01*
X162381754Y-141730042D01*
X162381757Y-141730041D01*
X162475579Y-141660742D01*
X162483150Y-141655150D01*
X162513887Y-141613536D01*
X162558041Y-141553757D01*
X162558042Y-141553754D01*
X162563634Y-141546184D01*
X162608519Y-141418369D01*
X162611500Y-141386834D01*
X162611500Y-139807165D01*
X205257866Y-139807165D01*
X205292952Y-140064970D01*
X205365758Y-140314757D01*
X205474686Y-140551039D01*
X205477246Y-140554944D01*
X205477249Y-140554949D01*
X205614775Y-140764712D01*
X205614779Y-140764717D01*
X205617341Y-140768625D01*
X205790591Y-140962735D01*
X205990629Y-141129105D01*
X206213061Y-141264080D01*
X206217375Y-141265889D01*
X206217377Y-141265890D01*
X206448686Y-141362886D01*
X206448691Y-141362888D01*
X206453001Y-141364695D01*
X206457533Y-141365846D01*
X206457536Y-141365847D01*
X206528507Y-141383871D01*
X206705177Y-141428739D01*
X206921286Y-141450500D01*
X207076044Y-141450500D01*
X207078369Y-141450327D01*
X207078375Y-141450327D01*
X207264814Y-141436472D01*
X207264818Y-141436471D01*
X207269466Y-141436126D01*
X207523232Y-141378705D01*
X207527586Y-141377012D01*
X207761370Y-141286098D01*
X207761372Y-141286097D01*
X207765723Y-141284405D01*
X207801285Y-141264080D01*
X207849038Y-141236786D01*
X207991612Y-141155299D01*
X208195936Y-140994223D01*
X208374208Y-140804714D01*
X208522511Y-140590937D01*
X208540258Y-140554949D01*
X208635521Y-140361775D01*
X208635522Y-140361772D01*
X208637586Y-140357587D01*
X208716906Y-140109792D01*
X208758728Y-139852994D01*
X208762134Y-139592835D01*
X208727048Y-139335030D01*
X208654242Y-139085243D01*
X208545314Y-138848961D01*
X208516637Y-138805221D01*
X208405225Y-138635288D01*
X208405221Y-138635283D01*
X208402659Y-138631375D01*
X208229409Y-138437265D01*
X208029371Y-138270895D01*
X207806939Y-138135920D01*
X207802623Y-138134110D01*
X207571314Y-138037114D01*
X207571309Y-138037112D01*
X207566999Y-138035305D01*
X207562467Y-138034154D01*
X207562464Y-138034153D01*
X207437185Y-138002337D01*
X207314823Y-137971261D01*
X207098714Y-137949500D01*
X206943956Y-137949500D01*
X206941631Y-137949673D01*
X206941625Y-137949673D01*
X206755186Y-137963528D01*
X206755182Y-137963529D01*
X206750534Y-137963874D01*
X206496768Y-138021295D01*
X206492416Y-138022987D01*
X206492414Y-138022988D01*
X206258630Y-138113902D01*
X206258628Y-138113903D01*
X206254277Y-138115595D01*
X206250223Y-138117912D01*
X206250221Y-138117913D01*
X206214467Y-138138348D01*
X206028388Y-138244701D01*
X205824064Y-138405777D01*
X205645792Y-138595286D01*
X205540369Y-138747252D01*
X205505176Y-138797983D01*
X205497489Y-138809063D01*
X205495423Y-138813253D01*
X205495421Y-138813256D01*
X205388947Y-139029166D01*
X205382414Y-139042413D01*
X205303094Y-139290208D01*
X205261272Y-139547006D01*
X205257866Y-139807165D01*
X162611500Y-139807165D01*
X162611500Y-139029166D01*
X162608519Y-138997631D01*
X162563634Y-138869816D01*
X162558042Y-138862246D01*
X162558041Y-138862243D01*
X162488742Y-138768421D01*
X162483150Y-138760850D01*
X162410069Y-138706871D01*
X162381757Y-138685959D01*
X162381754Y-138685958D01*
X162374184Y-138680366D01*
X162246369Y-138635481D01*
X162238723Y-138634758D01*
X162238722Y-138634758D01*
X162232752Y-138634194D01*
X162214834Y-138632500D01*
X159857166Y-138632500D01*
X159839248Y-138634194D01*
X159833278Y-138634758D01*
X159833277Y-138634758D01*
X159825631Y-138635481D01*
X159697816Y-138680366D01*
X159690246Y-138685958D01*
X159690243Y-138685959D01*
X159661931Y-138706871D01*
X159588850Y-138760850D01*
X159583258Y-138768421D01*
X159513959Y-138862243D01*
X159513958Y-138862246D01*
X159508366Y-138869816D01*
X159463481Y-138997631D01*
X159460500Y-139029166D01*
X159460500Y-141386834D01*
X156681669Y-141386834D01*
X156753492Y-141325492D01*
X156914548Y-141136919D01*
X157044122Y-140925474D01*
X157094143Y-140804714D01*
X157137129Y-140700935D01*
X157137130Y-140700933D01*
X157139023Y-140696362D01*
X157165340Y-140586744D01*
X157195760Y-140460038D01*
X157195761Y-140460032D01*
X157196915Y-140455225D01*
X157216372Y-140208000D01*
X157196915Y-139960775D01*
X157195761Y-139955968D01*
X157195760Y-139955962D01*
X157140178Y-139724450D01*
X157139023Y-139719638D01*
X157067517Y-139547006D01*
X157046017Y-139495100D01*
X157046015Y-139495096D01*
X157044122Y-139490526D01*
X156914548Y-139279081D01*
X156753492Y-139090508D01*
X156564919Y-138929452D01*
X156353474Y-138799878D01*
X156348904Y-138797985D01*
X156348900Y-138797983D01*
X156128935Y-138706871D01*
X156128933Y-138706870D01*
X156124362Y-138704977D01*
X156021850Y-138680366D01*
X155888038Y-138648240D01*
X155888032Y-138648239D01*
X155883225Y-138647085D01*
X155636000Y-138627628D01*
X155388775Y-138647085D01*
X155383968Y-138648239D01*
X155383962Y-138648240D01*
X155250150Y-138680366D01*
X155147638Y-138704977D01*
X155143067Y-138706870D01*
X155143065Y-138706871D01*
X154923100Y-138797983D01*
X154923096Y-138797985D01*
X154918526Y-138799878D01*
X154707081Y-138929452D01*
X154518508Y-139090508D01*
X154357452Y-139279081D01*
X154227878Y-139490526D01*
X154225985Y-139495096D01*
X154225983Y-139495100D01*
X154204483Y-139547006D01*
X154132977Y-139719638D01*
X154131822Y-139724450D01*
X154076240Y-139955962D01*
X154076239Y-139955968D01*
X154075085Y-139960775D01*
X154055628Y-140208000D01*
X117245469Y-140208000D01*
X117276906Y-140109792D01*
X117318728Y-139852994D01*
X117322134Y-139592835D01*
X117287048Y-139335030D01*
X117214242Y-139085243D01*
X117105314Y-138848961D01*
X117076637Y-138805221D01*
X116965225Y-138635288D01*
X116965221Y-138635283D01*
X116962659Y-138631375D01*
X116789409Y-138437265D01*
X116589371Y-138270895D01*
X116366939Y-138135920D01*
X116362623Y-138134110D01*
X116131314Y-138037114D01*
X116131309Y-138037112D01*
X116126999Y-138035305D01*
X116122467Y-138034154D01*
X116122464Y-138034153D01*
X115997185Y-138002337D01*
X115874823Y-137971261D01*
X115658714Y-137949500D01*
X115503956Y-137949500D01*
X115501631Y-137949673D01*
X115501625Y-137949673D01*
X115315186Y-137963528D01*
X115315182Y-137963529D01*
X115310534Y-137963874D01*
X115056768Y-138021295D01*
X115052416Y-138022987D01*
X115052414Y-138022988D01*
X114818630Y-138113902D01*
X114818628Y-138113903D01*
X114814277Y-138115595D01*
X114810223Y-138117912D01*
X114810221Y-138117913D01*
X114774467Y-138138348D01*
X114588388Y-138244701D01*
X114384064Y-138405777D01*
X114205792Y-138595286D01*
X114100369Y-138747252D01*
X114065176Y-138797983D01*
X114057489Y-138809063D01*
X114055423Y-138813253D01*
X114055421Y-138813256D01*
X113948947Y-139029166D01*
X113942414Y-139042413D01*
X113863094Y-139290208D01*
X113821272Y-139547006D01*
X113817866Y-139807165D01*
X111417000Y-139807165D01*
X111417000Y-135128000D01*
X151794318Y-135128000D01*
X151814956Y-135284762D01*
X151875464Y-135430841D01*
X151971718Y-135556282D01*
X152097159Y-135652536D01*
X152243238Y-135713044D01*
X152400000Y-135733682D01*
X152408188Y-135732604D01*
X152548574Y-135714122D01*
X152556762Y-135713044D01*
X152702841Y-135652536D01*
X152828282Y-135556282D01*
X152924536Y-135430841D01*
X152985044Y-135284762D01*
X153005682Y-135128000D01*
X152985044Y-134971238D01*
X152924536Y-134825159D01*
X152828282Y-134699718D01*
X152702841Y-134603464D01*
X152556762Y-134542956D01*
X152400000Y-134522318D01*
X152243238Y-134542956D01*
X152097159Y-134603464D01*
X151971718Y-134699718D01*
X151875464Y-134825159D01*
X151814956Y-134971238D01*
X151794318Y-135128000D01*
X111417000Y-135128000D01*
X111417000Y-132757095D01*
X116890028Y-132757095D01*
X116915534Y-133024431D01*
X116979364Y-133285285D01*
X116981076Y-133289511D01*
X116981077Y-133289515D01*
X117036782Y-133427044D01*
X117080182Y-133534192D01*
X117215875Y-133765938D01*
X117218728Y-133769505D01*
X117330225Y-133908925D01*
X117383601Y-133975669D01*
X117579846Y-134158991D01*
X117672039Y-134222948D01*
X117796746Y-134309461D01*
X117796751Y-134309464D01*
X117800499Y-134312064D01*
X117804584Y-134314096D01*
X117804587Y-134314098D01*
X117920719Y-134371872D01*
X118040938Y-134431680D01*
X118045272Y-134433101D01*
X118045275Y-134433102D01*
X118291793Y-134513915D01*
X118291798Y-134513916D01*
X118296126Y-134515335D01*
X118300617Y-134516115D01*
X118300618Y-134516115D01*
X118556936Y-134560620D01*
X118556944Y-134560621D01*
X118560717Y-134561276D01*
X118564554Y-134561467D01*
X118643996Y-134565422D01*
X118644004Y-134565422D01*
X118645567Y-134565500D01*
X118813223Y-134565500D01*
X118815491Y-134565335D01*
X118815503Y-134565335D01*
X118945823Y-134555879D01*
X119012846Y-134551016D01*
X119017301Y-134550032D01*
X119017304Y-134550032D01*
X119270620Y-134494105D01*
X119270624Y-134494104D01*
X119275080Y-134493120D01*
X119442617Y-134429646D01*
X119521941Y-134399593D01*
X119521944Y-134399592D01*
X119526211Y-134397975D01*
X119760976Y-134267574D01*
X119903254Y-134158991D01*
X119970833Y-134107417D01*
X119970837Y-134107413D01*
X119974458Y-134104650D01*
X120162185Y-133912614D01*
X120320225Y-133695491D01*
X120407313Y-133529963D01*
X120443140Y-133461868D01*
X120443143Y-133461862D01*
X120445265Y-133457828D01*
X120455756Y-133428122D01*
X120533165Y-133208916D01*
X120533165Y-133208915D01*
X120534688Y-133204603D01*
X120586620Y-132941122D01*
X120591147Y-132850188D01*
X120591555Y-132842000D01*
X177194318Y-132842000D01*
X177214956Y-132998762D01*
X177275464Y-133144841D01*
X177371718Y-133270282D01*
X177497159Y-133366536D01*
X177643238Y-133427044D01*
X177800000Y-133447682D01*
X177808188Y-133446604D01*
X177948574Y-133428122D01*
X177956762Y-133427044D01*
X178102841Y-133366536D01*
X178228282Y-133270282D01*
X178324536Y-133144841D01*
X178385044Y-132998762D01*
X178405682Y-132842000D01*
X178385044Y-132685238D01*
X178379936Y-132672905D01*
X178327696Y-132546789D01*
X178324536Y-132539159D01*
X178228282Y-132413718D01*
X178102841Y-132317464D01*
X177956762Y-132256956D01*
X177800000Y-132236318D01*
X177643238Y-132256956D01*
X177497159Y-132317464D01*
X177371718Y-132413718D01*
X177275464Y-132539159D01*
X177272304Y-132546789D01*
X177220065Y-132672905D01*
X177214956Y-132685238D01*
X177194318Y-132842000D01*
X120591555Y-132842000D01*
X120599745Y-132677474D01*
X120599745Y-132677468D01*
X120599972Y-132672905D01*
X120574466Y-132405569D01*
X120573077Y-132399890D01*
X120511721Y-132149149D01*
X120510636Y-132144715D01*
X120495955Y-132108468D01*
X120411531Y-131900037D01*
X120411531Y-131900036D01*
X120409818Y-131895808D01*
X120274125Y-131664062D01*
X120163211Y-131525371D01*
X120109251Y-131457897D01*
X120109250Y-131457895D01*
X120106399Y-131454331D01*
X120082135Y-131431665D01*
X126679994Y-131431665D01*
X126695592Y-131617414D01*
X126697291Y-131623339D01*
X126728110Y-131730817D01*
X126746971Y-131796595D01*
X126832176Y-131962385D01*
X126947959Y-132108468D01*
X127089912Y-132229279D01*
X127095290Y-132232285D01*
X127095292Y-132232286D01*
X127171270Y-132274748D01*
X127252627Y-132320217D01*
X127429907Y-132377819D01*
X127614998Y-132399890D01*
X127621133Y-132399418D01*
X127621135Y-132399418D01*
X127794710Y-132386062D01*
X127794715Y-132386061D01*
X127800851Y-132385589D01*
X127806781Y-132383933D01*
X127806783Y-132383933D01*
X127974459Y-132337117D01*
X127974458Y-132337117D01*
X127980387Y-132335462D01*
X128146768Y-132251417D01*
X128171255Y-132232286D01*
X128288794Y-132140454D01*
X128288795Y-132140453D01*
X128293655Y-132136656D01*
X128415454Y-131995550D01*
X128507526Y-131833474D01*
X128566364Y-131656601D01*
X128573106Y-131603231D01*
X128589285Y-131475170D01*
X128589286Y-131475163D01*
X128589727Y-131471668D01*
X128590099Y-131445000D01*
X128571909Y-131259487D01*
X128570128Y-131253588D01*
X128570127Y-131253583D01*
X128519814Y-131086939D01*
X128518033Y-131081040D01*
X128466540Y-130984195D01*
X128433416Y-130921898D01*
X128433414Y-130921895D01*
X128430522Y-130916456D01*
X128426632Y-130911686D01*
X128426629Y-130911682D01*
X128316605Y-130776780D01*
X128316602Y-130776777D01*
X128312710Y-130772005D01*
X128307056Y-130767327D01*
X128173834Y-130657116D01*
X128169085Y-130653187D01*
X128005116Y-130564529D01*
X127916082Y-130536969D01*
X127832936Y-130511231D01*
X127832933Y-130511230D01*
X127827049Y-130509409D01*
X127820924Y-130508765D01*
X127820923Y-130508765D01*
X127647796Y-130490568D01*
X127647795Y-130490568D01*
X127641668Y-130489924D01*
X127563549Y-130497033D01*
X127462171Y-130506259D01*
X127462168Y-130506260D01*
X127456032Y-130506818D01*
X127450122Y-130508557D01*
X127450119Y-130508558D01*
X127283421Y-130557621D01*
X127277214Y-130559448D01*
X127112023Y-130645807D01*
X126966752Y-130762608D01*
X126846935Y-130905401D01*
X126843971Y-130910793D01*
X126843968Y-130910797D01*
X126803617Y-130984195D01*
X126757135Y-131068746D01*
X126755274Y-131074613D01*
X126755273Y-131074615D01*
X126702634Y-131240554D01*
X126700772Y-131246424D01*
X126679994Y-131431665D01*
X120082135Y-131431665D01*
X119910154Y-131271009D01*
X119706733Y-131129890D01*
X119693254Y-131120539D01*
X119693249Y-131120536D01*
X119689501Y-131117936D01*
X119685416Y-131115904D01*
X119685413Y-131115902D01*
X119513560Y-131030407D01*
X119449062Y-130998320D01*
X119444728Y-130996899D01*
X119444725Y-130996898D01*
X119198207Y-130916085D01*
X119198202Y-130916084D01*
X119193874Y-130914665D01*
X119171597Y-130910797D01*
X118933064Y-130869380D01*
X118933056Y-130869379D01*
X118929283Y-130868724D01*
X118920622Y-130868293D01*
X118846004Y-130864578D01*
X118845996Y-130864578D01*
X118844433Y-130864500D01*
X118676777Y-130864500D01*
X118674509Y-130864665D01*
X118674497Y-130864665D01*
X118544177Y-130874121D01*
X118477154Y-130878984D01*
X118472699Y-130879968D01*
X118472696Y-130879968D01*
X118219380Y-130935895D01*
X118219376Y-130935896D01*
X118214920Y-130936880D01*
X118166341Y-130955285D01*
X117968059Y-131030407D01*
X117968056Y-131030408D01*
X117963789Y-131032025D01*
X117729024Y-131162426D01*
X117725392Y-131165198D01*
X117519167Y-131322583D01*
X117519163Y-131322587D01*
X117515542Y-131325350D01*
X117327815Y-131517386D01*
X117169775Y-131734509D01*
X117120787Y-131827621D01*
X117046860Y-131968132D01*
X117046857Y-131968138D01*
X117044735Y-131972172D01*
X117043215Y-131976477D01*
X117043213Y-131976481D01*
X116983804Y-132144715D01*
X116955312Y-132225397D01*
X116937216Y-132317210D01*
X116921013Y-132399418D01*
X116903380Y-132488878D01*
X116903153Y-132493431D01*
X116903153Y-132493434D01*
X116893985Y-132677609D01*
X116890028Y-132757095D01*
X111417000Y-132757095D01*
X111417000Y-130161665D01*
X124139994Y-130161665D01*
X124155592Y-130347414D01*
X124157291Y-130353339D01*
X124201140Y-130506259D01*
X124206971Y-130526595D01*
X124292176Y-130692385D01*
X124407959Y-130838468D01*
X124549912Y-130959279D01*
X124555290Y-130962285D01*
X124555292Y-130962286D01*
X124619768Y-130998320D01*
X124712627Y-131050217D01*
X124889907Y-131107819D01*
X125074998Y-131129890D01*
X125081133Y-131129418D01*
X125081135Y-131129418D01*
X125254710Y-131116062D01*
X125254715Y-131116061D01*
X125260851Y-131115589D01*
X125266781Y-131113933D01*
X125266783Y-131113933D01*
X125384592Y-131081040D01*
X125440387Y-131065462D01*
X125606768Y-130981417D01*
X125631255Y-130962286D01*
X125748794Y-130870454D01*
X125748795Y-130870453D01*
X125753655Y-130866656D01*
X125875454Y-130725550D01*
X125967526Y-130563474D01*
X126026364Y-130386601D01*
X126049727Y-130201668D01*
X126050099Y-130175000D01*
X126031909Y-129989487D01*
X126030128Y-129983588D01*
X126030127Y-129983583D01*
X125979814Y-129816939D01*
X125978033Y-129811040D01*
X125926540Y-129714195D01*
X125893416Y-129651898D01*
X125893414Y-129651895D01*
X125890522Y-129646456D01*
X125886632Y-129641686D01*
X125886629Y-129641682D01*
X125776605Y-129506780D01*
X125776602Y-129506777D01*
X125772710Y-129502005D01*
X125767056Y-129497327D01*
X125633834Y-129387116D01*
X125629085Y-129383187D01*
X125465116Y-129294529D01*
X125376083Y-129266969D01*
X125292936Y-129241231D01*
X125292933Y-129241230D01*
X125287049Y-129239409D01*
X125280924Y-129238765D01*
X125280923Y-129238765D01*
X125107796Y-129220568D01*
X125107795Y-129220568D01*
X125101668Y-129219924D01*
X125023549Y-129227033D01*
X124922171Y-129236259D01*
X124922168Y-129236260D01*
X124916032Y-129236818D01*
X124910122Y-129238557D01*
X124910119Y-129238558D01*
X124743421Y-129287621D01*
X124737214Y-129289448D01*
X124572023Y-129375807D01*
X124426752Y-129492608D01*
X124306935Y-129635401D01*
X124303971Y-129640793D01*
X124303968Y-129640797D01*
X124263617Y-129714195D01*
X124217135Y-129798746D01*
X124215274Y-129804613D01*
X124215273Y-129804615D01*
X124197739Y-129859890D01*
X124160772Y-129976424D01*
X124139994Y-130161665D01*
X111417000Y-130161665D01*
X111417000Y-128891665D01*
X126679994Y-128891665D01*
X126695592Y-129077414D01*
X126697291Y-129083339D01*
X126741140Y-129236259D01*
X126746971Y-129256595D01*
X126832176Y-129422385D01*
X126947959Y-129568468D01*
X127089912Y-129689279D01*
X127252627Y-129780217D01*
X127429907Y-129837819D01*
X127614998Y-129859890D01*
X127621133Y-129859418D01*
X127621135Y-129859418D01*
X127794710Y-129846062D01*
X127794715Y-129846061D01*
X127800851Y-129845589D01*
X127806781Y-129843933D01*
X127806783Y-129843933D01*
X127924592Y-129811040D01*
X127980387Y-129795462D01*
X128146768Y-129711417D01*
X128171255Y-129692286D01*
X128288794Y-129600454D01*
X128288795Y-129600453D01*
X128293655Y-129596656D01*
X128415454Y-129455550D01*
X128507526Y-129293474D01*
X128566364Y-129116601D01*
X128589727Y-128931668D01*
X128590099Y-128905000D01*
X128571909Y-128719487D01*
X128570128Y-128713588D01*
X128570127Y-128713583D01*
X128519814Y-128546939D01*
X128518033Y-128541040D01*
X128466540Y-128444195D01*
X128433416Y-128381898D01*
X128433414Y-128381895D01*
X128430522Y-128376456D01*
X128426632Y-128371686D01*
X128426629Y-128371682D01*
X128316605Y-128236780D01*
X128316602Y-128236777D01*
X128312710Y-128232005D01*
X128307056Y-128227327D01*
X128173834Y-128117116D01*
X128169085Y-128113187D01*
X128005116Y-128024529D01*
X127977563Y-128016000D01*
X178210318Y-128016000D01*
X178230956Y-128172762D01*
X178291464Y-128318841D01*
X178387718Y-128444282D01*
X178513159Y-128540536D01*
X178659238Y-128601044D01*
X178816000Y-128621682D01*
X178824188Y-128620604D01*
X178964574Y-128602122D01*
X178972762Y-128601044D01*
X179118841Y-128540536D01*
X179244282Y-128444282D01*
X179340536Y-128318841D01*
X179401044Y-128172762D01*
X179421682Y-128016000D01*
X179401044Y-127859238D01*
X179340536Y-127713159D01*
X179244282Y-127587718D01*
X179118841Y-127491464D01*
X178972762Y-127430956D01*
X178816000Y-127410318D01*
X178659238Y-127430956D01*
X178513159Y-127491464D01*
X178387718Y-127587718D01*
X178291464Y-127713159D01*
X178230956Y-127859238D01*
X178210318Y-128016000D01*
X127977563Y-128016000D01*
X127916082Y-127996969D01*
X127832936Y-127971231D01*
X127832933Y-127971230D01*
X127827049Y-127969409D01*
X127820924Y-127968765D01*
X127820923Y-127968765D01*
X127647796Y-127950568D01*
X127647795Y-127950568D01*
X127641668Y-127949924D01*
X127563549Y-127957033D01*
X127462171Y-127966259D01*
X127462168Y-127966260D01*
X127456032Y-127966818D01*
X127450122Y-127968557D01*
X127450119Y-127968558D01*
X127316749Y-128007812D01*
X127277214Y-128019448D01*
X127112023Y-128105807D01*
X126966752Y-128222608D01*
X126846935Y-128365401D01*
X126843971Y-128370793D01*
X126843968Y-128370797D01*
X126800808Y-128449305D01*
X126757135Y-128528746D01*
X126755274Y-128534613D01*
X126755273Y-128534615D01*
X126727996Y-128620604D01*
X126700772Y-128706424D01*
X126679994Y-128891665D01*
X111417000Y-128891665D01*
X111417000Y-127621665D01*
X124139994Y-127621665D01*
X124155592Y-127807414D01*
X124157291Y-127813339D01*
X124201140Y-127966259D01*
X124206971Y-127986595D01*
X124292176Y-128152385D01*
X124407959Y-128298468D01*
X124549912Y-128419279D01*
X124712627Y-128510217D01*
X124889907Y-128567819D01*
X125074998Y-128589890D01*
X125081133Y-128589418D01*
X125081135Y-128589418D01*
X125254710Y-128576062D01*
X125254715Y-128576061D01*
X125260851Y-128575589D01*
X125266781Y-128573933D01*
X125266783Y-128573933D01*
X125386398Y-128540536D01*
X125440387Y-128525462D01*
X125606768Y-128441417D01*
X125631255Y-128422286D01*
X125748794Y-128330454D01*
X125748795Y-128330453D01*
X125753655Y-128326656D01*
X125875454Y-128185550D01*
X125967526Y-128023474D01*
X126026364Y-127846601D01*
X126049727Y-127661668D01*
X126050099Y-127635000D01*
X126031909Y-127449487D01*
X126030128Y-127443588D01*
X126030127Y-127443583D01*
X125979814Y-127276939D01*
X125978033Y-127271040D01*
X125926540Y-127174195D01*
X125893416Y-127111898D01*
X125893414Y-127111895D01*
X125890522Y-127106456D01*
X125886632Y-127101686D01*
X125886629Y-127101682D01*
X125776605Y-126966780D01*
X125776602Y-126966777D01*
X125772710Y-126962005D01*
X125767056Y-126957327D01*
X125633834Y-126847116D01*
X125629085Y-126843187D01*
X125465116Y-126754529D01*
X125376083Y-126726969D01*
X125292936Y-126701231D01*
X125292933Y-126701230D01*
X125287049Y-126699409D01*
X125280924Y-126698765D01*
X125280923Y-126698765D01*
X125107796Y-126680568D01*
X125107795Y-126680568D01*
X125101668Y-126679924D01*
X125023549Y-126687033D01*
X124922171Y-126696259D01*
X124922168Y-126696260D01*
X124916032Y-126696818D01*
X124910122Y-126698557D01*
X124910119Y-126698558D01*
X124743421Y-126747621D01*
X124737214Y-126749448D01*
X124572023Y-126835807D01*
X124426752Y-126952608D01*
X124306935Y-127095401D01*
X124303971Y-127100793D01*
X124303968Y-127100797D01*
X124263617Y-127174195D01*
X124217135Y-127258746D01*
X124215274Y-127264613D01*
X124215273Y-127264615D01*
X124162634Y-127430554D01*
X124160772Y-127436424D01*
X124139994Y-127621665D01*
X111417000Y-127621665D01*
X111417000Y-126145161D01*
X124409393Y-126145161D01*
X124418687Y-126157175D01*
X124459088Y-126185464D01*
X124468584Y-126190947D01*
X124658113Y-126279326D01*
X124668405Y-126283072D01*
X124870401Y-126337196D01*
X124881196Y-126339099D01*
X125089525Y-126357326D01*
X125100475Y-126357326D01*
X125165178Y-126351665D01*
X126679994Y-126351665D01*
X126695592Y-126537414D01*
X126697291Y-126543339D01*
X126741140Y-126696259D01*
X126746971Y-126716595D01*
X126832176Y-126882385D01*
X126947959Y-127028468D01*
X127089912Y-127149279D01*
X127252627Y-127240217D01*
X127429907Y-127297819D01*
X127614998Y-127319890D01*
X127621133Y-127319418D01*
X127621135Y-127319418D01*
X127794710Y-127306062D01*
X127794715Y-127306061D01*
X127800851Y-127305589D01*
X127806781Y-127303933D01*
X127806783Y-127303933D01*
X127924592Y-127271040D01*
X127980387Y-127255462D01*
X128146768Y-127171417D01*
X128171255Y-127152286D01*
X128288794Y-127060454D01*
X128288795Y-127060453D01*
X128293655Y-127056656D01*
X128415454Y-126915550D01*
X128507526Y-126753474D01*
X128566364Y-126576601D01*
X128589727Y-126391668D01*
X128590099Y-126365000D01*
X128571909Y-126179487D01*
X128570128Y-126173588D01*
X128570127Y-126173583D01*
X128519814Y-126006939D01*
X128518033Y-126001040D01*
X128430522Y-125836456D01*
X128426632Y-125831686D01*
X128426629Y-125831682D01*
X128316605Y-125696780D01*
X128316602Y-125696777D01*
X128312710Y-125692005D01*
X128307056Y-125687327D01*
X128173834Y-125577116D01*
X128169085Y-125573187D01*
X128005116Y-125484529D01*
X127916083Y-125456969D01*
X127832936Y-125431231D01*
X127832933Y-125431230D01*
X127827049Y-125429409D01*
X127820924Y-125428765D01*
X127820923Y-125428765D01*
X127647796Y-125410568D01*
X127647795Y-125410568D01*
X127641668Y-125409924D01*
X127563549Y-125417033D01*
X127462171Y-125426259D01*
X127462168Y-125426260D01*
X127456032Y-125426818D01*
X127450122Y-125428557D01*
X127450119Y-125428558D01*
X127283129Y-125477707D01*
X127277214Y-125479448D01*
X127112023Y-125565807D01*
X126966752Y-125682608D01*
X126846935Y-125825401D01*
X126843971Y-125830793D01*
X126843968Y-125830797D01*
X126769256Y-125966699D01*
X126757135Y-125988746D01*
X126755274Y-125994613D01*
X126755273Y-125994615D01*
X126703706Y-126157175D01*
X126700772Y-126166424D01*
X126679994Y-126351665D01*
X125165178Y-126351665D01*
X125308804Y-126339099D01*
X125319599Y-126337196D01*
X125521595Y-126283072D01*
X125531887Y-126279326D01*
X125721416Y-126190947D01*
X125730912Y-126185464D01*
X125772148Y-126156590D01*
X125780523Y-126146112D01*
X125773457Y-126132668D01*
X125107811Y-125467021D01*
X125093868Y-125459408D01*
X125092034Y-125459539D01*
X125085420Y-125463790D01*
X124415820Y-126133391D01*
X124409393Y-126145161D01*
X111417000Y-126145161D01*
X111417000Y-125100475D01*
X123832674Y-125100475D01*
X123850901Y-125308804D01*
X123852804Y-125319599D01*
X123906928Y-125521595D01*
X123910674Y-125531887D01*
X123999054Y-125721417D01*
X124004534Y-125730907D01*
X124033411Y-125772149D01*
X124043887Y-125780523D01*
X124057334Y-125773455D01*
X124722979Y-125107811D01*
X124729356Y-125096132D01*
X125459408Y-125096132D01*
X125459539Y-125097966D01*
X125463790Y-125104580D01*
X126133391Y-125774180D01*
X126145161Y-125780607D01*
X126157176Y-125771311D01*
X126185466Y-125730907D01*
X126190946Y-125721417D01*
X126279326Y-125531887D01*
X126283072Y-125521595D01*
X126337196Y-125319599D01*
X126339099Y-125308804D01*
X126357326Y-125100475D01*
X126357326Y-125089525D01*
X126339099Y-124881196D01*
X126338035Y-124875161D01*
X126949393Y-124875161D01*
X126958687Y-124887175D01*
X126999088Y-124915464D01*
X127008584Y-124920947D01*
X127198113Y-125009326D01*
X127208405Y-125013072D01*
X127410401Y-125067196D01*
X127421196Y-125069099D01*
X127629525Y-125087326D01*
X127640475Y-125087326D01*
X127848804Y-125069099D01*
X127859599Y-125067196D01*
X128061595Y-125013072D01*
X128071887Y-125009326D01*
X128261416Y-124920947D01*
X128270912Y-124915464D01*
X128312148Y-124886590D01*
X128320523Y-124876112D01*
X128313457Y-124862668D01*
X127647811Y-124197021D01*
X127633868Y-124189408D01*
X127632034Y-124189539D01*
X127625420Y-124193790D01*
X126955820Y-124863391D01*
X126949393Y-124875161D01*
X126338035Y-124875161D01*
X126337196Y-124870401D01*
X126283072Y-124668405D01*
X126279326Y-124658113D01*
X126190946Y-124468583D01*
X126185466Y-124459093D01*
X126156589Y-124417851D01*
X126146113Y-124409477D01*
X126132666Y-124416545D01*
X125467021Y-125082189D01*
X125459408Y-125096132D01*
X124729356Y-125096132D01*
X124730592Y-125093868D01*
X124730461Y-125092034D01*
X124726210Y-125085420D01*
X124056609Y-124415820D01*
X124044839Y-124409393D01*
X124032824Y-124418689D01*
X124004534Y-124459093D01*
X123999054Y-124468583D01*
X123910674Y-124658113D01*
X123906928Y-124668405D01*
X123852804Y-124870401D01*
X123850901Y-124881196D01*
X123832674Y-125089525D01*
X123832674Y-125100475D01*
X111417000Y-125100475D01*
X111417000Y-123349669D01*
X123837001Y-123349669D01*
X123837371Y-123356490D01*
X123842895Y-123407352D01*
X123846521Y-123422604D01*
X123891676Y-123543054D01*
X123900214Y-123558649D01*
X123976715Y-123660724D01*
X123989276Y-123673285D01*
X124091351Y-123749786D01*
X124106946Y-123758324D01*
X124227394Y-123803478D01*
X124242649Y-123807105D01*
X124293514Y-123812631D01*
X124300328Y-123813000D01*
X124333009Y-123813000D01*
X124401130Y-123833002D01*
X124447623Y-123886658D01*
X124457727Y-123956932D01*
X124428233Y-124021512D01*
X124425114Y-124024325D01*
X124409477Y-124043887D01*
X124416545Y-124057334D01*
X125082189Y-124722979D01*
X125096132Y-124730592D01*
X125097966Y-124730461D01*
X125104580Y-124726210D01*
X125774180Y-124056609D01*
X125780607Y-124044839D01*
X125759602Y-124017688D01*
X125763009Y-124015052D01*
X125740388Y-123986747D01*
X125733083Y-123916127D01*
X125765118Y-123852769D01*
X125826322Y-123816788D01*
X125856990Y-123812999D01*
X125889669Y-123812999D01*
X125896490Y-123812629D01*
X125947352Y-123807105D01*
X125962604Y-123803479D01*
X126083054Y-123758324D01*
X126098648Y-123749786D01*
X126172767Y-123694237D01*
X126239273Y-123669389D01*
X126308656Y-123684442D01*
X126358886Y-123734616D01*
X126373853Y-123806042D01*
X126372674Y-123819521D01*
X126372674Y-123830475D01*
X126390901Y-124038804D01*
X126392804Y-124049599D01*
X126446928Y-124251595D01*
X126450674Y-124261887D01*
X126539054Y-124451417D01*
X126544534Y-124460907D01*
X126573411Y-124502149D01*
X126583887Y-124510523D01*
X126597334Y-124503455D01*
X127262979Y-123837811D01*
X127269356Y-123826132D01*
X127999408Y-123826132D01*
X127999539Y-123827966D01*
X128003790Y-123834580D01*
X128673391Y-124504180D01*
X128685161Y-124510607D01*
X128697176Y-124501311D01*
X128725466Y-124460907D01*
X128730946Y-124451417D01*
X128819326Y-124261887D01*
X128823072Y-124251595D01*
X128877196Y-124049599D01*
X128879099Y-124038804D01*
X128897326Y-123830475D01*
X128897326Y-123819525D01*
X128879099Y-123611196D01*
X128877196Y-123600401D01*
X128823072Y-123398405D01*
X128819326Y-123388113D01*
X128730946Y-123198583D01*
X128725990Y-123190000D01*
X193704318Y-123190000D01*
X193724956Y-123346762D01*
X193785464Y-123492841D01*
X193881718Y-123618282D01*
X194007159Y-123714536D01*
X194153238Y-123775044D01*
X194310000Y-123795682D01*
X194318188Y-123794604D01*
X194458574Y-123776122D01*
X194466762Y-123775044D01*
X194612841Y-123714536D01*
X194738282Y-123618282D01*
X194834536Y-123492841D01*
X194895044Y-123346762D01*
X194915682Y-123190000D01*
X201324318Y-123190000D01*
X201344956Y-123346762D01*
X201405464Y-123492841D01*
X201501718Y-123618282D01*
X201627159Y-123714536D01*
X201773238Y-123775044D01*
X201930000Y-123795682D01*
X201938188Y-123794604D01*
X202078574Y-123776122D01*
X202086762Y-123775044D01*
X202232841Y-123714536D01*
X202358282Y-123618282D01*
X202454536Y-123492841D01*
X202515044Y-123346762D01*
X202535682Y-123190000D01*
X202515044Y-123033238D01*
X202454536Y-122887159D01*
X202377938Y-122787334D01*
X202363305Y-122768264D01*
X202358282Y-122761718D01*
X202349878Y-122755269D01*
X202239392Y-122670491D01*
X202232841Y-122665464D01*
X202086762Y-122604956D01*
X201930000Y-122584318D01*
X201773238Y-122604956D01*
X201627159Y-122665464D01*
X201620608Y-122670491D01*
X201510123Y-122755269D01*
X201501718Y-122761718D01*
X201496695Y-122768264D01*
X201482062Y-122787334D01*
X201405464Y-122887159D01*
X201344956Y-123033238D01*
X201324318Y-123190000D01*
X194915682Y-123190000D01*
X194895044Y-123033238D01*
X194834536Y-122887159D01*
X194757938Y-122787334D01*
X194743305Y-122768264D01*
X194738282Y-122761718D01*
X194729878Y-122755269D01*
X194619392Y-122670491D01*
X194612841Y-122665464D01*
X194466762Y-122604956D01*
X194310000Y-122584318D01*
X194153238Y-122604956D01*
X194007159Y-122665464D01*
X194000608Y-122670491D01*
X193890123Y-122755269D01*
X193881718Y-122761718D01*
X193876695Y-122768264D01*
X193862062Y-122787334D01*
X193785464Y-122887159D01*
X193724956Y-123033238D01*
X193704318Y-123190000D01*
X128725990Y-123190000D01*
X128725466Y-123189093D01*
X128696589Y-123147851D01*
X128686113Y-123139477D01*
X128672666Y-123146545D01*
X128007021Y-123812189D01*
X127999408Y-123826132D01*
X127269356Y-123826132D01*
X127270592Y-123823868D01*
X127270461Y-123822034D01*
X127266210Y-123815420D01*
X126596609Y-123145820D01*
X126584839Y-123139393D01*
X126557688Y-123160399D01*
X126555051Y-123156991D01*
X126526769Y-123179603D01*
X126456150Y-123186920D01*
X126392786Y-123154896D01*
X126356795Y-123093699D01*
X126353000Y-123063009D01*
X126353000Y-122827115D01*
X126348525Y-122811876D01*
X126347135Y-122810671D01*
X126339452Y-122809000D01*
X123855116Y-122809000D01*
X123839877Y-122813475D01*
X123838672Y-122814865D01*
X123837001Y-122822548D01*
X123837001Y-123349669D01*
X111417000Y-123349669D01*
X111417000Y-121327095D01*
X116890028Y-121327095D01*
X116915534Y-121594431D01*
X116916619Y-121598865D01*
X116916620Y-121598871D01*
X116977975Y-121849609D01*
X116979364Y-121855285D01*
X116981076Y-121859511D01*
X116981077Y-121859515D01*
X117078469Y-122099963D01*
X117080182Y-122104192D01*
X117215875Y-122335938D01*
X117239480Y-122365454D01*
X117330225Y-122478925D01*
X117383601Y-122545669D01*
X117579846Y-122728991D01*
X117662902Y-122786609D01*
X117796746Y-122879461D01*
X117796751Y-122879464D01*
X117800499Y-122882064D01*
X117804584Y-122884096D01*
X117804587Y-122884098D01*
X117810740Y-122887159D01*
X118040938Y-123001680D01*
X118045272Y-123003101D01*
X118045275Y-123003102D01*
X118291793Y-123083915D01*
X118291798Y-123083916D01*
X118296126Y-123085335D01*
X118300617Y-123086115D01*
X118300618Y-123086115D01*
X118556936Y-123130620D01*
X118556944Y-123130621D01*
X118560717Y-123131276D01*
X118564554Y-123131467D01*
X118643996Y-123135422D01*
X118644004Y-123135422D01*
X118645567Y-123135500D01*
X118813223Y-123135500D01*
X118815491Y-123135335D01*
X118815503Y-123135335D01*
X118945823Y-123125879D01*
X119012846Y-123121016D01*
X119017301Y-123120032D01*
X119017304Y-123120032D01*
X119270620Y-123064105D01*
X119270624Y-123064104D01*
X119275080Y-123063120D01*
X119481694Y-122984841D01*
X119521941Y-122969593D01*
X119521944Y-122969592D01*
X119526211Y-122967975D01*
X119710504Y-122865609D01*
X119756983Y-122839792D01*
X119756984Y-122839792D01*
X119760976Y-122837574D01*
X119844426Y-122773887D01*
X126949477Y-122773887D01*
X126956545Y-122787334D01*
X127622189Y-123452979D01*
X127636132Y-123460592D01*
X127637966Y-123460461D01*
X127644580Y-123456210D01*
X128314180Y-122786609D01*
X128320607Y-122774839D01*
X128311313Y-122762825D01*
X128270912Y-122734536D01*
X128261416Y-122729053D01*
X128071887Y-122640674D01*
X128061595Y-122636928D01*
X127859599Y-122582804D01*
X127848804Y-122580901D01*
X127640475Y-122562674D01*
X127629525Y-122562674D01*
X127421196Y-122580901D01*
X127410401Y-122582804D01*
X127208405Y-122636928D01*
X127198113Y-122640674D01*
X127008583Y-122729054D01*
X126999093Y-122734534D01*
X126957851Y-122763411D01*
X126949477Y-122773887D01*
X119844426Y-122773887D01*
X119858921Y-122762825D01*
X119970833Y-122677417D01*
X119970837Y-122677413D01*
X119974458Y-122674650D01*
X120162185Y-122482614D01*
X120266352Y-122339505D01*
X120307565Y-122282885D01*
X123837000Y-122282885D01*
X123841475Y-122298124D01*
X123842865Y-122299329D01*
X123850548Y-122301000D01*
X124822885Y-122301000D01*
X124838124Y-122296525D01*
X124839329Y-122295135D01*
X124841000Y-122287452D01*
X124841000Y-122282885D01*
X125349000Y-122282885D01*
X125353475Y-122298124D01*
X125354865Y-122299329D01*
X125362548Y-122301000D01*
X126334884Y-122301000D01*
X126350123Y-122296525D01*
X126351328Y-122295135D01*
X126352999Y-122287452D01*
X126352999Y-121920000D01*
X135030318Y-121920000D01*
X135050956Y-122076762D01*
X135111464Y-122222841D01*
X135207718Y-122348282D01*
X135214264Y-122353305D01*
X135228859Y-122364504D01*
X135333159Y-122444536D01*
X135479238Y-122505044D01*
X135636000Y-122525682D01*
X135644188Y-122524604D01*
X135784574Y-122506122D01*
X135792762Y-122505044D01*
X135938841Y-122444536D01*
X136043141Y-122364504D01*
X136057736Y-122353305D01*
X136064282Y-122348282D01*
X136160536Y-122222841D01*
X136221044Y-122076762D01*
X136241682Y-121920000D01*
X140618318Y-121920000D01*
X140638956Y-122076762D01*
X140699464Y-122222841D01*
X140795718Y-122348282D01*
X140802264Y-122353305D01*
X140816859Y-122364504D01*
X140921159Y-122444536D01*
X141067238Y-122505044D01*
X141224000Y-122525682D01*
X141232188Y-122524604D01*
X141372574Y-122506122D01*
X141380762Y-122505044D01*
X141526841Y-122444536D01*
X141631141Y-122364504D01*
X141645736Y-122353305D01*
X141652282Y-122348282D01*
X141748536Y-122222841D01*
X141809044Y-122076762D01*
X141829682Y-121920000D01*
X141809044Y-121763238D01*
X141768767Y-121666000D01*
X201578318Y-121666000D01*
X201598956Y-121822762D01*
X201659464Y-121968841D01*
X201755718Y-122094282D01*
X201762264Y-122099305D01*
X201768633Y-122104192D01*
X201881159Y-122190536D01*
X202027238Y-122251044D01*
X202184000Y-122271682D01*
X202192188Y-122270604D01*
X202231026Y-122265491D01*
X202340762Y-122251044D01*
X202486841Y-122190536D01*
X202612282Y-122094282D01*
X202613760Y-122096208D01*
X202665217Y-122068110D01*
X202736032Y-122073175D01*
X202770779Y-122095506D01*
X202771718Y-122094282D01*
X202890611Y-122185512D01*
X202890613Y-122185513D01*
X202897159Y-122190536D01*
X202898320Y-122191017D01*
X202945076Y-122240055D01*
X202958510Y-122309769D01*
X202936975Y-122364504D01*
X202938621Y-122365454D01*
X202934491Y-122372607D01*
X202929464Y-122379159D01*
X202868956Y-122525238D01*
X202848318Y-122682000D01*
X202868956Y-122838762D01*
X202929464Y-122984841D01*
X203025718Y-123110282D01*
X203151159Y-123206536D01*
X203297238Y-123267044D01*
X203454000Y-123287682D01*
X203462188Y-123286604D01*
X203602574Y-123268122D01*
X203610762Y-123267044D01*
X203756841Y-123206536D01*
X203763393Y-123201509D01*
X203770546Y-123197379D01*
X203771529Y-123199081D01*
X203827733Y-123177355D01*
X203897281Y-123191623D01*
X203944965Y-123237636D01*
X203945464Y-123238841D01*
X203950487Y-123245387D01*
X203950488Y-123245389D01*
X204028274Y-123346762D01*
X204041718Y-123364282D01*
X204167159Y-123460536D01*
X204313238Y-123521044D01*
X204470000Y-123541682D01*
X204478188Y-123540604D01*
X204618574Y-123522122D01*
X204626762Y-123521044D01*
X204772841Y-123460536D01*
X204779393Y-123455509D01*
X204786546Y-123451379D01*
X204787529Y-123453081D01*
X204843733Y-123431355D01*
X204913281Y-123445623D01*
X204960965Y-123491636D01*
X204961464Y-123492841D01*
X204966487Y-123499387D01*
X204966488Y-123499389D01*
X205041522Y-123597175D01*
X205057718Y-123618282D01*
X205183159Y-123714536D01*
X205329238Y-123775044D01*
X205486000Y-123795682D01*
X205494188Y-123794604D01*
X205634574Y-123776122D01*
X205642762Y-123775044D01*
X205788841Y-123714536D01*
X205914282Y-123618282D01*
X205915760Y-123620208D01*
X205967217Y-123592110D01*
X206038032Y-123597175D01*
X206072779Y-123619506D01*
X206073718Y-123618282D01*
X206199159Y-123714536D01*
X206345238Y-123775044D01*
X206502000Y-123795682D01*
X206510188Y-123794604D01*
X206650574Y-123776122D01*
X206658762Y-123775044D01*
X206804841Y-123714536D01*
X206930282Y-123618282D01*
X207026536Y-123492841D01*
X207087044Y-123346762D01*
X207107682Y-123190000D01*
X207087044Y-123033238D01*
X207026536Y-122887159D01*
X206949938Y-122787334D01*
X206935305Y-122768264D01*
X206930282Y-122761718D01*
X206923736Y-122756695D01*
X206811389Y-122670488D01*
X206811387Y-122670487D01*
X206804841Y-122665464D01*
X206803680Y-122664983D01*
X206756924Y-122615945D01*
X206743490Y-122546231D01*
X206765025Y-122491496D01*
X206763379Y-122490546D01*
X206767509Y-122483393D01*
X206772536Y-122476841D01*
X206833044Y-122330762D01*
X206853682Y-122174000D01*
X206833044Y-122017238D01*
X206772536Y-121871159D01*
X206676282Y-121745718D01*
X206550841Y-121649464D01*
X206404762Y-121588956D01*
X206248000Y-121568318D01*
X206222319Y-121571699D01*
X206152171Y-121560760D01*
X206099072Y-121513632D01*
X206079882Y-121445278D01*
X206100693Y-121377400D01*
X206140038Y-121339345D01*
X206156693Y-121329139D01*
X206156704Y-121329131D01*
X206160919Y-121326548D01*
X206349492Y-121165492D01*
X206510548Y-120976919D01*
X206640122Y-120765474D01*
X206659311Y-120719149D01*
X206733129Y-120540935D01*
X206733130Y-120540933D01*
X206735023Y-120536362D01*
X206789717Y-120308547D01*
X206791760Y-120300038D01*
X206791761Y-120300032D01*
X206792915Y-120295225D01*
X206812372Y-120048000D01*
X206792915Y-119800775D01*
X206791761Y-119795968D01*
X206791760Y-119795962D01*
X206744811Y-119600407D01*
X206735023Y-119559638D01*
X206712762Y-119505895D01*
X206642017Y-119335100D01*
X206642015Y-119335096D01*
X206640122Y-119330526D01*
X206510548Y-119119081D01*
X206349492Y-118930508D01*
X206160919Y-118769452D01*
X205949474Y-118639878D01*
X205944904Y-118637985D01*
X205944900Y-118637983D01*
X205724935Y-118546871D01*
X205724933Y-118546870D01*
X205720362Y-118544977D01*
X205636208Y-118524773D01*
X205484038Y-118488240D01*
X205484032Y-118488239D01*
X205479225Y-118487085D01*
X205232000Y-118467628D01*
X204984775Y-118487085D01*
X204979968Y-118488239D01*
X204979962Y-118488240D01*
X204827792Y-118524773D01*
X204743638Y-118544977D01*
X204739067Y-118546870D01*
X204739065Y-118546871D01*
X204519100Y-118637983D01*
X204519096Y-118637985D01*
X204514526Y-118639878D01*
X204303081Y-118769452D01*
X204114508Y-118930508D01*
X203953452Y-119119081D01*
X203823878Y-119330526D01*
X203821985Y-119335096D01*
X203821983Y-119335100D01*
X203751238Y-119505895D01*
X203728977Y-119559638D01*
X203719189Y-119600407D01*
X203672240Y-119795962D01*
X203672239Y-119795968D01*
X203671085Y-119800775D01*
X203651628Y-120048000D01*
X203671085Y-120295225D01*
X203672239Y-120300032D01*
X203672240Y-120300038D01*
X203674283Y-120308547D01*
X203728977Y-120536362D01*
X203730870Y-120540933D01*
X203730871Y-120540935D01*
X203804690Y-120719149D01*
X203823878Y-120765474D01*
X203953452Y-120976919D01*
X203956668Y-120980684D01*
X204094348Y-121141888D01*
X204123379Y-121206678D01*
X204112774Y-121276878D01*
X204065899Y-121330200D01*
X204046758Y-121340125D01*
X203913159Y-121395464D01*
X203906607Y-121400491D01*
X203899454Y-121404621D01*
X203898471Y-121402919D01*
X203842267Y-121424645D01*
X203772719Y-121410377D01*
X203725035Y-121364364D01*
X203724536Y-121363159D01*
X203719510Y-121356608D01*
X203633305Y-121244264D01*
X203628282Y-121237718D01*
X203502841Y-121141464D01*
X203356762Y-121080956D01*
X203200000Y-121060318D01*
X203043238Y-121080956D01*
X202897159Y-121141464D01*
X202771718Y-121237718D01*
X202770240Y-121235792D01*
X202718783Y-121263890D01*
X202647968Y-121258825D01*
X202613221Y-121236494D01*
X202612282Y-121237718D01*
X202493392Y-121146491D01*
X202486841Y-121141464D01*
X202340762Y-121080956D01*
X202184000Y-121060318D01*
X202027238Y-121080956D01*
X201881159Y-121141464D01*
X201755718Y-121237718D01*
X201659464Y-121363159D01*
X201598956Y-121509238D01*
X201578318Y-121666000D01*
X141768767Y-121666000D01*
X141748536Y-121617159D01*
X141652282Y-121491718D01*
X141526841Y-121395464D01*
X141380762Y-121334956D01*
X141344637Y-121330200D01*
X141232188Y-121315396D01*
X141224000Y-121314318D01*
X141215812Y-121315396D01*
X141103364Y-121330200D01*
X141067238Y-121334956D01*
X140921159Y-121395464D01*
X140795718Y-121491718D01*
X140699464Y-121617159D01*
X140638956Y-121763238D01*
X140618318Y-121920000D01*
X136241682Y-121920000D01*
X136221044Y-121763238D01*
X136160536Y-121617159D01*
X136064282Y-121491718D01*
X135938841Y-121395464D01*
X135792762Y-121334956D01*
X135756637Y-121330200D01*
X135644188Y-121315396D01*
X135636000Y-121314318D01*
X135627812Y-121315396D01*
X135515364Y-121330200D01*
X135479238Y-121334956D01*
X135333159Y-121395464D01*
X135207718Y-121491718D01*
X135111464Y-121617159D01*
X135050956Y-121763238D01*
X135030318Y-121920000D01*
X126352999Y-121920000D01*
X126352999Y-121760331D01*
X126352629Y-121753510D01*
X126347105Y-121702648D01*
X126343479Y-121687396D01*
X126298324Y-121566946D01*
X126289786Y-121551351D01*
X126213285Y-121449276D01*
X126200724Y-121436715D01*
X126098649Y-121360214D01*
X126083054Y-121351676D01*
X125962606Y-121306522D01*
X125947351Y-121302895D01*
X125896486Y-121297369D01*
X125889672Y-121297000D01*
X125367115Y-121297000D01*
X125351876Y-121301475D01*
X125350671Y-121302865D01*
X125349000Y-121310548D01*
X125349000Y-122282885D01*
X124841000Y-122282885D01*
X124841000Y-121315116D01*
X124836525Y-121299877D01*
X124835135Y-121298672D01*
X124827452Y-121297001D01*
X124300331Y-121297001D01*
X124293510Y-121297371D01*
X124242648Y-121302895D01*
X124227396Y-121306521D01*
X124106946Y-121351676D01*
X124091351Y-121360214D01*
X123989276Y-121436715D01*
X123976715Y-121449276D01*
X123900214Y-121551351D01*
X123891676Y-121566946D01*
X123846522Y-121687394D01*
X123842895Y-121702649D01*
X123837369Y-121753514D01*
X123837000Y-121760328D01*
X123837000Y-122282885D01*
X120307565Y-122282885D01*
X120317538Y-122269183D01*
X120317540Y-122269180D01*
X120320225Y-122265491D01*
X120407313Y-122099963D01*
X120443140Y-122031868D01*
X120443143Y-122031862D01*
X120445265Y-122027828D01*
X120458486Y-121990391D01*
X120533165Y-121778916D01*
X120533165Y-121778915D01*
X120534688Y-121774603D01*
X120571279Y-121588956D01*
X120585739Y-121515594D01*
X120585740Y-121515588D01*
X120586620Y-121511122D01*
X120591922Y-121404621D01*
X120599745Y-121247474D01*
X120599745Y-121247468D01*
X120599972Y-121242905D01*
X120574466Y-120975569D01*
X120510636Y-120714715D01*
X120438396Y-120536362D01*
X120411531Y-120470037D01*
X120411531Y-120470036D01*
X120409818Y-120465808D01*
X120274125Y-120234062D01*
X120163211Y-120095371D01*
X120109251Y-120027897D01*
X120109250Y-120027895D01*
X120106399Y-120024331D01*
X119910154Y-119841009D01*
X119695201Y-119691890D01*
X119693254Y-119690539D01*
X119693249Y-119690536D01*
X119689501Y-119687936D01*
X119685416Y-119685904D01*
X119685413Y-119685902D01*
X119513560Y-119600407D01*
X119449062Y-119568320D01*
X119444728Y-119566899D01*
X119444725Y-119566898D01*
X119198207Y-119486085D01*
X119198202Y-119486084D01*
X119193874Y-119484665D01*
X119189382Y-119483885D01*
X118933064Y-119439380D01*
X118933056Y-119439379D01*
X118929283Y-119438724D01*
X118920622Y-119438293D01*
X118846004Y-119434578D01*
X118845996Y-119434578D01*
X118844433Y-119434500D01*
X118676777Y-119434500D01*
X118674509Y-119434665D01*
X118674497Y-119434665D01*
X118544177Y-119444121D01*
X118477154Y-119448984D01*
X118472699Y-119449968D01*
X118472696Y-119449968D01*
X118219380Y-119505895D01*
X118219376Y-119505896D01*
X118214920Y-119506880D01*
X118089355Y-119554452D01*
X117968059Y-119600407D01*
X117968056Y-119600408D01*
X117963789Y-119602025D01*
X117729024Y-119732426D01*
X117725392Y-119735198D01*
X117519167Y-119892583D01*
X117519163Y-119892587D01*
X117515542Y-119895350D01*
X117327815Y-120087386D01*
X117325130Y-120091075D01*
X117176533Y-120295225D01*
X117169775Y-120304509D01*
X117167651Y-120308547D01*
X117046860Y-120538132D01*
X117046857Y-120538138D01*
X117044735Y-120542172D01*
X117043215Y-120546477D01*
X117043213Y-120546481D01*
X116983804Y-120714715D01*
X116955312Y-120795397D01*
X116903380Y-121058878D01*
X116903153Y-121063431D01*
X116903153Y-121063434D01*
X116890852Y-121310548D01*
X116890028Y-121327095D01*
X111417000Y-121327095D01*
X111417000Y-119087286D01*
X148964818Y-119087286D01*
X148985456Y-119244048D01*
X149045964Y-119390127D01*
X149142218Y-119515568D01*
X149267659Y-119611822D01*
X149413738Y-119672330D01*
X149570500Y-119692968D01*
X149578688Y-119691890D01*
X149719074Y-119673408D01*
X149727262Y-119672330D01*
X149873341Y-119611822D01*
X149998782Y-119515568D01*
X150095036Y-119390127D01*
X150155544Y-119244048D01*
X150176182Y-119087286D01*
X150155544Y-118930524D01*
X150095036Y-118784445D01*
X149998782Y-118659004D01*
X149873341Y-118562750D01*
X149727262Y-118502242D01*
X149570500Y-118481604D01*
X149413738Y-118502242D01*
X149267659Y-118562750D01*
X149142218Y-118659004D01*
X149045964Y-118784445D01*
X148985456Y-118930524D01*
X148964818Y-119087286D01*
X111417000Y-119087286D01*
X111417000Y-115826834D01*
X203656500Y-115826834D01*
X203659481Y-115858369D01*
X203704366Y-115986184D01*
X203709958Y-115993754D01*
X203709959Y-115993757D01*
X203772335Y-116078206D01*
X203784850Y-116095150D01*
X203792421Y-116100742D01*
X203886243Y-116170041D01*
X203886246Y-116170042D01*
X203893816Y-116175634D01*
X204021631Y-116220519D01*
X204029277Y-116221242D01*
X204029278Y-116221242D01*
X204035248Y-116221806D01*
X204053166Y-116223500D01*
X206410834Y-116223500D01*
X206428752Y-116221806D01*
X206434722Y-116221242D01*
X206434723Y-116221242D01*
X206442369Y-116220519D01*
X206570184Y-116175634D01*
X206577754Y-116170042D01*
X206577757Y-116170041D01*
X206671579Y-116100742D01*
X206679150Y-116095150D01*
X206691665Y-116078206D01*
X206754041Y-115993757D01*
X206754042Y-115993754D01*
X206759634Y-115986184D01*
X206804519Y-115858369D01*
X206807500Y-115826834D01*
X206807500Y-113469166D01*
X206804519Y-113437631D01*
X206759634Y-113309816D01*
X206754042Y-113302246D01*
X206754041Y-113302243D01*
X206684742Y-113208421D01*
X206679150Y-113200850D01*
X206662206Y-113188335D01*
X206577757Y-113125959D01*
X206577754Y-113125958D01*
X206570184Y-113120366D01*
X206442369Y-113075481D01*
X206434723Y-113074758D01*
X206434722Y-113074758D01*
X206428752Y-113074194D01*
X206410834Y-113072500D01*
X204053166Y-113072500D01*
X204035248Y-113074194D01*
X204029278Y-113074758D01*
X204029277Y-113074758D01*
X204021631Y-113075481D01*
X203893816Y-113120366D01*
X203886246Y-113125958D01*
X203886243Y-113125959D01*
X203801794Y-113188335D01*
X203784850Y-113200850D01*
X203779258Y-113208421D01*
X203709959Y-113302243D01*
X203709958Y-113302246D01*
X203704366Y-113309816D01*
X203659481Y-113437631D01*
X203656500Y-113469166D01*
X203656500Y-115826834D01*
X111417000Y-115826834D01*
X111417000Y-115214400D01*
X187608318Y-115214400D01*
X187628956Y-115371162D01*
X187689464Y-115517241D01*
X187785718Y-115642682D01*
X187911159Y-115738936D01*
X188057238Y-115799444D01*
X188214000Y-115820082D01*
X188222188Y-115819004D01*
X188362574Y-115800522D01*
X188370762Y-115799444D01*
X188516841Y-115738936D01*
X188642282Y-115642682D01*
X188738536Y-115517241D01*
X188740728Y-115511950D01*
X188791262Y-115463764D01*
X188860975Y-115450326D01*
X188926886Y-115476712D01*
X188957137Y-115511624D01*
X188959464Y-115517241D01*
X189055718Y-115642682D01*
X189181159Y-115738936D01*
X189327238Y-115799444D01*
X189484000Y-115820082D01*
X189492188Y-115819004D01*
X189632574Y-115800522D01*
X189640762Y-115799444D01*
X189786841Y-115738936D01*
X189912282Y-115642682D01*
X190008536Y-115517241D01*
X190010728Y-115511950D01*
X190061262Y-115463764D01*
X190130975Y-115450326D01*
X190196886Y-115476712D01*
X190227137Y-115511624D01*
X190229464Y-115517241D01*
X190325718Y-115642682D01*
X190451159Y-115738936D01*
X190597238Y-115799444D01*
X190754000Y-115820082D01*
X190762188Y-115819004D01*
X190902574Y-115800522D01*
X190910762Y-115799444D01*
X191056841Y-115738936D01*
X191182282Y-115642682D01*
X191278536Y-115517241D01*
X191280728Y-115511950D01*
X191331262Y-115463764D01*
X191400975Y-115450326D01*
X191466886Y-115476712D01*
X191497137Y-115511624D01*
X191499464Y-115517241D01*
X191595718Y-115642682D01*
X191721159Y-115738936D01*
X191867238Y-115799444D01*
X192024000Y-115820082D01*
X192032188Y-115819004D01*
X192172574Y-115800522D01*
X192180762Y-115799444D01*
X192326841Y-115738936D01*
X192452282Y-115642682D01*
X192548536Y-115517241D01*
X192550728Y-115511950D01*
X192601262Y-115463764D01*
X192670975Y-115450326D01*
X192736886Y-115476712D01*
X192767137Y-115511624D01*
X192769464Y-115517241D01*
X192865718Y-115642682D01*
X192991159Y-115738936D01*
X193137238Y-115799444D01*
X193294000Y-115820082D01*
X193302188Y-115819004D01*
X193442574Y-115800522D01*
X193450762Y-115799444D01*
X193596841Y-115738936D01*
X193722282Y-115642682D01*
X193818536Y-115517241D01*
X193879044Y-115371162D01*
X193899682Y-115214400D01*
X193879044Y-115057638D01*
X193818536Y-114911559D01*
X193722282Y-114786118D01*
X193596841Y-114689864D01*
X193591550Y-114687672D01*
X193543364Y-114637138D01*
X193529926Y-114567425D01*
X193556312Y-114501514D01*
X193591224Y-114471263D01*
X193596841Y-114468936D01*
X193722282Y-114372682D01*
X193818536Y-114247241D01*
X193879044Y-114101162D01*
X193899682Y-113944400D01*
X193879044Y-113787638D01*
X193818536Y-113641559D01*
X193722282Y-113516118D01*
X193596841Y-113419864D01*
X193450762Y-113359356D01*
X193294000Y-113338718D01*
X193137238Y-113359356D01*
X192991159Y-113419864D01*
X192865718Y-113516118D01*
X192769464Y-113641559D01*
X192767272Y-113646850D01*
X192716738Y-113695036D01*
X192647025Y-113708474D01*
X192581114Y-113682088D01*
X192550863Y-113647176D01*
X192548536Y-113641559D01*
X192452282Y-113516118D01*
X192326841Y-113419864D01*
X192180762Y-113359356D01*
X192024000Y-113338718D01*
X191867238Y-113359356D01*
X191721159Y-113419864D01*
X191595718Y-113516118D01*
X191499464Y-113641559D01*
X191497272Y-113646850D01*
X191446738Y-113695036D01*
X191377025Y-113708474D01*
X191311114Y-113682088D01*
X191280863Y-113647176D01*
X191278536Y-113641559D01*
X191182282Y-113516118D01*
X191056841Y-113419864D01*
X190910762Y-113359356D01*
X190754000Y-113338718D01*
X190597238Y-113359356D01*
X190451159Y-113419864D01*
X190325718Y-113516118D01*
X190229464Y-113641559D01*
X190227272Y-113646850D01*
X190176738Y-113695036D01*
X190107025Y-113708474D01*
X190041114Y-113682088D01*
X190010863Y-113647176D01*
X190008536Y-113641559D01*
X189912282Y-113516118D01*
X189786841Y-113419864D01*
X189640762Y-113359356D01*
X189484000Y-113338718D01*
X189327238Y-113359356D01*
X189181159Y-113419864D01*
X189055718Y-113516118D01*
X188959464Y-113641559D01*
X188957272Y-113646850D01*
X188906738Y-113695036D01*
X188837025Y-113708474D01*
X188771114Y-113682088D01*
X188740863Y-113647176D01*
X188738536Y-113641559D01*
X188642282Y-113516118D01*
X188516841Y-113419864D01*
X188370762Y-113359356D01*
X188214000Y-113338718D01*
X188057238Y-113359356D01*
X187911159Y-113419864D01*
X187785718Y-113516118D01*
X187689464Y-113641559D01*
X187628956Y-113787638D01*
X187608318Y-113944400D01*
X187628956Y-114101162D01*
X187689464Y-114247241D01*
X187785718Y-114372682D01*
X187911159Y-114468936D01*
X187916450Y-114471128D01*
X187964636Y-114521662D01*
X187978074Y-114591375D01*
X187951688Y-114657286D01*
X187916776Y-114687537D01*
X187911159Y-114689864D01*
X187785718Y-114786118D01*
X187689464Y-114911559D01*
X187628956Y-115057638D01*
X187608318Y-115214400D01*
X111417000Y-115214400D01*
X111417000Y-106786748D01*
X204915500Y-106786748D01*
X204927133Y-106845231D01*
X204971448Y-106911552D01*
X205037769Y-106955867D01*
X205049938Y-106958288D01*
X205049939Y-106958288D01*
X205090184Y-106966293D01*
X205096252Y-106967500D01*
X206325748Y-106967500D01*
X206331816Y-106966293D01*
X206372061Y-106958288D01*
X206372062Y-106958288D01*
X206384231Y-106955867D01*
X206450552Y-106911552D01*
X206494867Y-106845231D01*
X206506500Y-106786748D01*
X206506500Y-105557252D01*
X206494867Y-105498769D01*
X206450552Y-105432448D01*
X206384231Y-105388133D01*
X206372062Y-105385712D01*
X206372061Y-105385712D01*
X206331816Y-105377707D01*
X206325748Y-105376500D01*
X205096252Y-105376500D01*
X205090184Y-105377707D01*
X205049939Y-105385712D01*
X205049938Y-105385712D01*
X205037769Y-105388133D01*
X204971448Y-105432448D01*
X204927133Y-105498769D01*
X204915500Y-105557252D01*
X204915500Y-106786748D01*
X111417000Y-106786748D01*
X111417000Y-105542714D01*
X132357604Y-105542714D01*
X132378242Y-105699476D01*
X132438750Y-105845555D01*
X132535004Y-105970996D01*
X132660445Y-106067250D01*
X132806524Y-106127758D01*
X132963286Y-106148396D01*
X132971474Y-106147318D01*
X133111860Y-106128836D01*
X133120048Y-106127758D01*
X133266127Y-106067250D01*
X133391568Y-105970996D01*
X133487822Y-105845555D01*
X133548330Y-105699476D01*
X133568968Y-105542714D01*
X133548330Y-105385952D01*
X133487822Y-105239873D01*
X133391568Y-105114432D01*
X133266127Y-105018178D01*
X133120048Y-104957670D01*
X132963286Y-104937032D01*
X132806524Y-104957670D01*
X132660445Y-105018178D01*
X132535004Y-105114432D01*
X132438750Y-105239873D01*
X132378242Y-105385952D01*
X132357604Y-105542714D01*
X111417000Y-105542714D01*
X111417000Y-104459689D01*
X205137672Y-104459689D01*
X205147554Y-104472178D01*
X205177632Y-104492276D01*
X205187749Y-104497770D01*
X205363391Y-104573231D01*
X205374324Y-104576783D01*
X205560776Y-104618973D01*
X205572186Y-104620475D01*
X205763206Y-104627980D01*
X205774688Y-104627379D01*
X205963879Y-104599947D01*
X205975062Y-104597262D01*
X206156084Y-104535813D01*
X206166587Y-104531137D01*
X206275358Y-104470223D01*
X206285220Y-104460147D01*
X206282265Y-104452475D01*
X205723812Y-103894022D01*
X205709868Y-103886408D01*
X205708035Y-103886539D01*
X205701420Y-103890790D01*
X205143868Y-104448342D01*
X205137672Y-104459689D01*
X111417000Y-104459689D01*
X111417000Y-103378000D01*
X177194318Y-103378000D01*
X177195396Y-103386188D01*
X177212886Y-103519035D01*
X177214956Y-103534762D01*
X177275464Y-103680841D01*
X177371718Y-103806282D01*
X177497159Y-103902536D01*
X177643238Y-103963044D01*
X177800000Y-103983682D01*
X177808188Y-103982604D01*
X177948574Y-103964122D01*
X177956762Y-103963044D01*
X178102841Y-103902536D01*
X178228282Y-103806282D01*
X178324536Y-103680841D01*
X178385044Y-103534762D01*
X178387115Y-103519035D01*
X178389783Y-103498769D01*
X204604033Y-103498769D01*
X204616535Y-103689518D01*
X204618336Y-103700888D01*
X204665390Y-103886166D01*
X204669231Y-103897012D01*
X204749265Y-104070619D01*
X204755014Y-104080577D01*
X204760376Y-104088163D01*
X204770965Y-104096552D01*
X204784266Y-104089524D01*
X205338978Y-103534812D01*
X205345356Y-103523132D01*
X206075408Y-103523132D01*
X206075539Y-103524965D01*
X206079790Y-103531580D01*
X206637560Y-104089350D01*
X206649940Y-104096110D01*
X206656520Y-104091184D01*
X206720137Y-103977587D01*
X206724813Y-103967084D01*
X206786262Y-103786062D01*
X206788947Y-103774879D01*
X206816674Y-103583648D01*
X206817304Y-103576265D01*
X206818628Y-103525704D01*
X206818385Y-103518305D01*
X206800705Y-103325887D01*
X206798608Y-103314573D01*
X206746718Y-103130586D01*
X206742596Y-103119847D01*
X206659207Y-102950751D01*
X206652294Y-102945563D01*
X206639875Y-102952335D01*
X206083022Y-103509188D01*
X206075408Y-103523132D01*
X205345356Y-103523132D01*
X205346592Y-103520868D01*
X205346461Y-103519035D01*
X205342210Y-103512420D01*
X204783246Y-102953456D01*
X204770866Y-102946696D01*
X204764900Y-102951162D01*
X204690287Y-103092977D01*
X204685882Y-103103612D01*
X204629195Y-103286172D01*
X204626802Y-103297427D01*
X204604334Y-103487267D01*
X204604033Y-103498769D01*
X178389783Y-103498769D01*
X178404604Y-103386188D01*
X178405682Y-103378000D01*
X178385044Y-103221238D01*
X178324536Y-103075159D01*
X178228282Y-102949718D01*
X178102841Y-102853464D01*
X177956762Y-102792956D01*
X177800000Y-102772318D01*
X177643238Y-102792956D01*
X177497159Y-102853464D01*
X177371718Y-102949718D01*
X177275464Y-103075159D01*
X177214956Y-103221238D01*
X177194318Y-103378000D01*
X111417000Y-103378000D01*
X111417000Y-100619500D01*
X148238318Y-100619500D01*
X148258956Y-100776262D01*
X148319464Y-100922341D01*
X148415718Y-101047782D01*
X148541159Y-101144036D01*
X148687238Y-101204544D01*
X148695426Y-101205622D01*
X148757613Y-101213809D01*
X148843215Y-101225079D01*
X148843216Y-101225079D01*
X148844000Y-101225182D01*
X148843984Y-101225304D01*
X148908017Y-101244106D01*
X148954510Y-101297762D01*
X148964888Y-101345469D01*
X148964818Y-101346000D01*
X148985456Y-101502762D01*
X149045964Y-101648841D01*
X149142218Y-101774282D01*
X149148764Y-101779305D01*
X149154054Y-101784595D01*
X149188080Y-101846907D01*
X149183015Y-101917722D01*
X149164922Y-101950394D01*
X149081464Y-102059159D01*
X149020956Y-102205238D01*
X149000318Y-102362000D01*
X149020956Y-102518762D01*
X149081464Y-102664841D01*
X149177718Y-102790282D01*
X149303159Y-102886536D01*
X149449238Y-102947044D01*
X149457426Y-102948122D01*
X149480517Y-102951162D01*
X149606000Y-102967682D01*
X149614188Y-102966604D01*
X149754574Y-102948122D01*
X149762762Y-102947044D01*
X149908841Y-102886536D01*
X150034282Y-102790282D01*
X150130536Y-102664841D01*
X150163887Y-102584324D01*
X205137436Y-102584324D01*
X205140923Y-102592713D01*
X205698188Y-103149978D01*
X205712132Y-103157592D01*
X205713965Y-103157461D01*
X205720580Y-103153210D01*
X206277655Y-102596135D01*
X206284415Y-102583755D01*
X206278385Y-102575699D01*
X206218782Y-102538092D01*
X206208535Y-102532871D01*
X206030979Y-102462033D01*
X206019941Y-102458763D01*
X205832456Y-102421470D01*
X205821010Y-102420267D01*
X205629871Y-102417766D01*
X205618391Y-102418669D01*
X205429997Y-102451041D01*
X205418877Y-102454021D01*
X205239527Y-102520186D01*
X205229153Y-102525134D01*
X205147033Y-102573991D01*
X205137436Y-102584324D01*
X150163887Y-102584324D01*
X150191044Y-102518762D01*
X150211682Y-102362000D01*
X150191044Y-102205238D01*
X150130536Y-102059159D01*
X150034282Y-101933718D01*
X150027736Y-101928695D01*
X150022446Y-101923405D01*
X149988420Y-101861093D01*
X149993485Y-101790278D01*
X150011578Y-101757606D01*
X150090009Y-101655392D01*
X150095036Y-101648841D01*
X150155544Y-101502762D01*
X150176182Y-101346000D01*
X161446318Y-101346000D01*
X161466956Y-101502762D01*
X161527464Y-101648841D01*
X161623718Y-101774282D01*
X161749159Y-101870536D01*
X161895238Y-101931044D01*
X162052000Y-101951682D01*
X162060188Y-101950604D01*
X162200574Y-101932122D01*
X162208762Y-101931044D01*
X162354841Y-101870536D01*
X162480282Y-101774282D01*
X162576536Y-101648841D01*
X162637044Y-101502762D01*
X162657682Y-101346000D01*
X169320318Y-101346000D01*
X169340956Y-101502762D01*
X169401464Y-101648841D01*
X169497718Y-101774282D01*
X169623159Y-101870536D01*
X169769238Y-101931044D01*
X169926000Y-101951682D01*
X169934188Y-101950604D01*
X170074574Y-101932122D01*
X170082762Y-101931044D01*
X170228841Y-101870536D01*
X170354282Y-101774282D01*
X170450536Y-101648841D01*
X170511044Y-101502762D01*
X170531682Y-101346000D01*
X170511044Y-101189238D01*
X170450536Y-101043159D01*
X170354282Y-100917718D01*
X170280135Y-100860823D01*
X204910544Y-100860823D01*
X204927960Y-101038440D01*
X204984293Y-101207786D01*
X204998554Y-101231334D01*
X205067999Y-101346000D01*
X205076745Y-101360442D01*
X205200720Y-101488822D01*
X205350057Y-101586545D01*
X205356661Y-101589001D01*
X205356663Y-101589002D01*
X205394867Y-101603210D01*
X205517333Y-101648755D01*
X205694235Y-101672358D01*
X205701246Y-101671720D01*
X205701250Y-101671720D01*
X205864949Y-101656822D01*
X205871970Y-101656183D01*
X205878672Y-101654005D01*
X205878674Y-101654005D01*
X206035005Y-101603210D01*
X206035008Y-101603209D01*
X206041704Y-101601033D01*
X206195002Y-101509649D01*
X206324245Y-101386573D01*
X206423008Y-101237922D01*
X206486384Y-101071085D01*
X206488953Y-101052805D01*
X206510671Y-100898275D01*
X206510671Y-100898270D01*
X206511222Y-100894352D01*
X206511534Y-100872000D01*
X206491640Y-100694643D01*
X206464044Y-100615396D01*
X206435263Y-100532748D01*
X206435262Y-100532746D01*
X206432948Y-100526101D01*
X206338373Y-100374750D01*
X206212618Y-100248113D01*
X206115050Y-100186195D01*
X206067874Y-100156256D01*
X206067871Y-100156254D01*
X206061931Y-100152485D01*
X206041989Y-100145384D01*
X205900437Y-100094979D01*
X205900435Y-100094978D01*
X205893803Y-100092617D01*
X205886817Y-100091784D01*
X205886813Y-100091783D01*
X205761418Y-100076831D01*
X205716589Y-100071486D01*
X205709586Y-100072222D01*
X205709585Y-100072222D01*
X205546105Y-100089404D01*
X205546101Y-100089405D01*
X205539097Y-100090141D01*
X205532426Y-100092412D01*
X205376819Y-100145384D01*
X205376816Y-100145385D01*
X205370149Y-100147655D01*
X205218142Y-100241171D01*
X205090631Y-100366039D01*
X204993952Y-100516054D01*
X204991541Y-100522679D01*
X204935322Y-100677138D01*
X204935321Y-100677143D01*
X204932912Y-100683761D01*
X204910544Y-100860823D01*
X170280135Y-100860823D01*
X170228841Y-100821464D01*
X170082762Y-100760956D01*
X169926000Y-100740318D01*
X169769238Y-100760956D01*
X169623159Y-100821464D01*
X169497718Y-100917718D01*
X169401464Y-101043159D01*
X169340956Y-101189238D01*
X169320318Y-101346000D01*
X162657682Y-101346000D01*
X162637044Y-101189238D01*
X162576536Y-101043159D01*
X162480282Y-100917718D01*
X162354841Y-100821464D01*
X162208762Y-100760956D01*
X162052000Y-100740318D01*
X161895238Y-100760956D01*
X161749159Y-100821464D01*
X161623718Y-100917718D01*
X161527464Y-101043159D01*
X161466956Y-101189238D01*
X161446318Y-101346000D01*
X150176182Y-101346000D01*
X150155544Y-101189238D01*
X150095036Y-101043159D01*
X149998782Y-100917718D01*
X149873341Y-100821464D01*
X149727262Y-100760956D01*
X149571285Y-100740421D01*
X149571284Y-100740421D01*
X149570500Y-100740318D01*
X149570516Y-100740196D01*
X149506483Y-100721394D01*
X149459990Y-100667738D01*
X149449612Y-100620031D01*
X149449682Y-100619500D01*
X149429044Y-100462738D01*
X149368536Y-100316659D01*
X149272282Y-100191218D01*
X149146841Y-100094964D01*
X149000762Y-100034456D01*
X148844000Y-100013818D01*
X148687238Y-100034456D01*
X148541159Y-100094964D01*
X148415718Y-100191218D01*
X148319464Y-100316659D01*
X148258956Y-100462738D01*
X148238318Y-100619500D01*
X111417000Y-100619500D01*
X111417000Y-99314000D01*
X132236318Y-99314000D01*
X132256956Y-99470762D01*
X132317464Y-99616841D01*
X132413718Y-99742282D01*
X132539159Y-99838536D01*
X132685238Y-99899044D01*
X132842000Y-99919682D01*
X132850188Y-99918604D01*
X132990574Y-99900122D01*
X132998762Y-99899044D01*
X133144841Y-99838536D01*
X133270282Y-99742282D01*
X133366536Y-99616841D01*
X133368728Y-99611550D01*
X133419262Y-99563364D01*
X133488975Y-99549926D01*
X133554886Y-99576312D01*
X133585137Y-99611224D01*
X133587464Y-99616841D01*
X133683718Y-99742282D01*
X133809159Y-99838536D01*
X133955238Y-99899044D01*
X134112000Y-99919682D01*
X134120188Y-99918604D01*
X134260574Y-99900122D01*
X134268762Y-99899044D01*
X134414841Y-99838536D01*
X134540282Y-99742282D01*
X134636536Y-99616841D01*
X134697044Y-99470762D01*
X134717682Y-99314000D01*
X134697044Y-99157238D01*
X134636536Y-99011159D01*
X134540282Y-98885718D01*
X134414841Y-98789464D01*
X134268762Y-98728956D01*
X134112000Y-98708318D01*
X133955238Y-98728956D01*
X133809159Y-98789464D01*
X133683718Y-98885718D01*
X133587464Y-99011159D01*
X133585272Y-99016450D01*
X133534738Y-99064636D01*
X133465025Y-99078074D01*
X133399114Y-99051688D01*
X133368863Y-99016776D01*
X133366536Y-99011159D01*
X133270282Y-98885718D01*
X133144841Y-98789464D01*
X132998762Y-98728956D01*
X132842000Y-98708318D01*
X132685238Y-98728956D01*
X132539159Y-98789464D01*
X132413718Y-98885718D01*
X132317464Y-99011159D01*
X132256956Y-99157238D01*
X132236318Y-99314000D01*
X111417000Y-99314000D01*
X111417000Y-98298000D01*
X152302318Y-98298000D01*
X152322956Y-98454762D01*
X152383464Y-98600841D01*
X152479718Y-98726282D01*
X152605159Y-98822536D01*
X152751238Y-98883044D01*
X152908000Y-98903682D01*
X152916188Y-98902604D01*
X153056574Y-98884122D01*
X153064762Y-98883044D01*
X153210841Y-98822536D01*
X153336282Y-98726282D01*
X153432536Y-98600841D01*
X153493044Y-98454762D01*
X153513682Y-98298000D01*
X153493044Y-98141238D01*
X153432536Y-97995159D01*
X153336282Y-97869718D01*
X153210841Y-97773464D01*
X153064762Y-97712956D01*
X152908000Y-97692318D01*
X152751238Y-97712956D01*
X152605159Y-97773464D01*
X152479718Y-97869718D01*
X152383464Y-97995159D01*
X152322956Y-98141238D01*
X152302318Y-98298000D01*
X111417000Y-98298000D01*
X111417000Y-96533966D01*
X139892257Y-96533966D01*
X139922565Y-96668446D01*
X139925645Y-96678275D01*
X140005770Y-96875603D01*
X140010413Y-96884794D01*
X140121694Y-97066388D01*
X140127777Y-97074699D01*
X140267213Y-97235667D01*
X140274580Y-97242883D01*
X140438434Y-97378916D01*
X140446881Y-97384831D01*
X140630756Y-97492279D01*
X140640042Y-97496729D01*
X140839001Y-97572703D01*
X140848899Y-97575579D01*
X140952250Y-97596606D01*
X140966299Y-97595410D01*
X140970000Y-97585065D01*
X140970000Y-97584517D01*
X141478000Y-97584517D01*
X141482064Y-97598359D01*
X141495478Y-97600393D01*
X141502184Y-97599534D01*
X141512262Y-97597392D01*
X141716255Y-97536191D01*
X141725842Y-97532433D01*
X141917095Y-97438739D01*
X141925945Y-97433464D01*
X142099328Y-97309792D01*
X142107200Y-97303139D01*
X142258052Y-97152812D01*
X142264730Y-97144965D01*
X142389003Y-96972020D01*
X142394313Y-96963183D01*
X142488670Y-96772267D01*
X142492469Y-96762672D01*
X142554377Y-96558910D01*
X142556555Y-96548837D01*
X142557986Y-96537962D01*
X142555775Y-96523778D01*
X142542617Y-96520000D01*
X141496115Y-96520000D01*
X141480876Y-96524475D01*
X141479671Y-96525865D01*
X141478000Y-96533548D01*
X141478000Y-97584517D01*
X140970000Y-97584517D01*
X140970000Y-96538115D01*
X140965525Y-96522876D01*
X140964135Y-96521671D01*
X140956452Y-96520000D01*
X139907225Y-96520000D01*
X139893694Y-96523973D01*
X139892257Y-96533966D01*
X111417000Y-96533966D01*
X111417000Y-95504000D01*
X120806318Y-95504000D01*
X120826956Y-95660762D01*
X120887464Y-95806841D01*
X120983718Y-95932282D01*
X121109159Y-96028536D01*
X121255238Y-96089044D01*
X121412000Y-96109682D01*
X121420188Y-96108604D01*
X121560574Y-96090122D01*
X121568762Y-96089044D01*
X121714841Y-96028536D01*
X121751791Y-96000183D01*
X139888389Y-96000183D01*
X139889912Y-96008607D01*
X139902292Y-96012000D01*
X142542344Y-96012000D01*
X177194318Y-96012000D01*
X177214956Y-96168762D01*
X177275464Y-96314841D01*
X177371718Y-96440282D01*
X177497159Y-96536536D01*
X177643238Y-96597044D01*
X177800000Y-96617682D01*
X177808188Y-96616604D01*
X177948574Y-96598122D01*
X177956762Y-96597044D01*
X178102841Y-96536536D01*
X178228282Y-96440282D01*
X178324536Y-96314841D01*
X178385044Y-96168762D01*
X178405682Y-96012000D01*
X178385044Y-95855238D01*
X178324536Y-95709159D01*
X178228282Y-95583718D01*
X178102841Y-95487464D01*
X177956762Y-95426956D01*
X177800000Y-95406318D01*
X177643238Y-95426956D01*
X177497159Y-95487464D01*
X177371718Y-95583718D01*
X177275464Y-95709159D01*
X177214956Y-95855238D01*
X177194318Y-96012000D01*
X142542344Y-96012000D01*
X142555875Y-96008027D01*
X142557180Y-95998947D01*
X142515214Y-95831875D01*
X142511894Y-95822124D01*
X142426972Y-95626814D01*
X142422105Y-95617739D01*
X142306426Y-95438926D01*
X142300136Y-95430757D01*
X142156806Y-95273240D01*
X142149273Y-95266215D01*
X141982139Y-95134222D01*
X141973552Y-95128517D01*
X141787117Y-95025599D01*
X141777705Y-95021369D01*
X141777435Y-95021273D01*
X141777341Y-95021205D01*
X141772989Y-95019249D01*
X141773393Y-95018351D01*
X141719899Y-94979679D01*
X141693983Y-94913581D01*
X141707917Y-94843965D01*
X141757276Y-94792934D01*
X141819495Y-94776500D01*
X142093748Y-94776500D01*
X142099816Y-94775293D01*
X142140061Y-94767288D01*
X142140062Y-94767288D01*
X142152231Y-94764867D01*
X142218552Y-94720552D01*
X142262867Y-94654231D01*
X142274500Y-94595748D01*
X142274500Y-92856252D01*
X142262867Y-92797769D01*
X142218552Y-92731448D01*
X142152231Y-92687133D01*
X142140062Y-92684712D01*
X142140061Y-92684712D01*
X142099816Y-92676707D01*
X142093748Y-92675500D01*
X140354252Y-92675500D01*
X140348184Y-92676707D01*
X140307939Y-92684712D01*
X140307938Y-92684712D01*
X140295769Y-92687133D01*
X140229448Y-92731448D01*
X140185133Y-92797769D01*
X140173500Y-92856252D01*
X140173500Y-94595748D01*
X140185133Y-94654231D01*
X140229448Y-94720552D01*
X140295769Y-94764867D01*
X140307938Y-94767288D01*
X140307939Y-94767288D01*
X140348184Y-94775293D01*
X140354252Y-94776500D01*
X140629233Y-94776500D01*
X140697354Y-94796502D01*
X140743847Y-94850158D01*
X140753951Y-94920432D01*
X140724457Y-94985012D01*
X140687413Y-95014263D01*
X140502463Y-95110542D01*
X140493738Y-95116036D01*
X140323433Y-95243905D01*
X140315726Y-95250748D01*
X140168590Y-95404717D01*
X140162104Y-95412727D01*
X140042098Y-95588649D01*
X140037000Y-95597623D01*
X139947338Y-95790783D01*
X139943775Y-95800470D01*
X139888389Y-96000183D01*
X121751791Y-96000183D01*
X121840282Y-95932282D01*
X121936536Y-95806841D01*
X121997044Y-95660762D01*
X122017682Y-95504000D01*
X121997044Y-95347238D01*
X121936536Y-95201159D01*
X121840282Y-95075718D01*
X121714841Y-94979464D01*
X121568762Y-94918956D01*
X121412000Y-94898318D01*
X121255238Y-94918956D01*
X121109159Y-94979464D01*
X120983718Y-95075718D01*
X120887464Y-95201159D01*
X120826956Y-95347238D01*
X120806318Y-95504000D01*
X111417000Y-95504000D01*
X111417000Y-90932000D01*
X161700318Y-90932000D01*
X161720956Y-91088762D01*
X161781464Y-91234841D01*
X161877718Y-91360282D01*
X162003159Y-91456536D01*
X162149238Y-91517044D01*
X162306000Y-91537682D01*
X162314188Y-91536604D01*
X162454574Y-91518122D01*
X162462762Y-91517044D01*
X162608841Y-91456536D01*
X162734282Y-91360282D01*
X162830536Y-91234841D01*
X162891044Y-91088762D01*
X162911682Y-90932000D01*
X168558318Y-90932000D01*
X168578956Y-91088762D01*
X168639464Y-91234841D01*
X168735718Y-91360282D01*
X168861159Y-91456536D01*
X169007238Y-91517044D01*
X169164000Y-91537682D01*
X169172188Y-91536604D01*
X169312574Y-91518122D01*
X169320762Y-91517044D01*
X169466841Y-91456536D01*
X169592282Y-91360282D01*
X169688536Y-91234841D01*
X169749044Y-91088762D01*
X169769682Y-90932000D01*
X180242318Y-90932000D01*
X180262956Y-91088762D01*
X180323464Y-91234841D01*
X180419718Y-91360282D01*
X180545159Y-91456536D01*
X180691238Y-91517044D01*
X180848000Y-91537682D01*
X180856188Y-91536604D01*
X180996574Y-91518122D01*
X181004762Y-91517044D01*
X181150841Y-91456536D01*
X181276282Y-91360282D01*
X181372536Y-91234841D01*
X181433044Y-91088762D01*
X181453682Y-90932000D01*
X181433044Y-90775238D01*
X181372536Y-90629159D01*
X181276282Y-90503718D01*
X181150841Y-90407464D01*
X181004762Y-90346956D01*
X180848000Y-90326318D01*
X180691238Y-90346956D01*
X180545159Y-90407464D01*
X180419718Y-90503718D01*
X180323464Y-90629159D01*
X180262956Y-90775238D01*
X180242318Y-90932000D01*
X169769682Y-90932000D01*
X169749044Y-90775238D01*
X169688536Y-90629159D01*
X169592282Y-90503718D01*
X169466841Y-90407464D01*
X169320762Y-90346956D01*
X169164000Y-90326318D01*
X169007238Y-90346956D01*
X168861159Y-90407464D01*
X168735718Y-90503718D01*
X168639464Y-90629159D01*
X168578956Y-90775238D01*
X168558318Y-90932000D01*
X162911682Y-90932000D01*
X162891044Y-90775238D01*
X162830536Y-90629159D01*
X162734282Y-90503718D01*
X162608841Y-90407464D01*
X162462762Y-90346956D01*
X162306000Y-90326318D01*
X162149238Y-90346956D01*
X162003159Y-90407464D01*
X161877718Y-90503718D01*
X161781464Y-90629159D01*
X161720956Y-90775238D01*
X161700318Y-90932000D01*
X111417000Y-90932000D01*
X111417000Y-85944538D01*
X194679665Y-85944538D01*
X194700303Y-86101300D01*
X194760811Y-86247379D01*
X194857065Y-86372820D01*
X194982506Y-86469074D01*
X195128585Y-86529582D01*
X195285347Y-86550220D01*
X195293535Y-86549142D01*
X195433921Y-86530660D01*
X195442109Y-86529582D01*
X195588188Y-86469074D01*
X195713629Y-86372820D01*
X195809883Y-86247379D01*
X195870391Y-86101300D01*
X195891029Y-85944538D01*
X195878846Y-85852000D01*
X199927318Y-85852000D01*
X199947956Y-86008762D01*
X200008464Y-86154841D01*
X200104718Y-86280282D01*
X200230159Y-86376536D01*
X200376238Y-86437044D01*
X200533000Y-86457682D01*
X200541188Y-86456604D01*
X200681574Y-86438122D01*
X200689762Y-86437044D01*
X200835841Y-86376536D01*
X200961282Y-86280282D01*
X201057536Y-86154841D01*
X201118044Y-86008762D01*
X201138682Y-85852000D01*
X201118044Y-85695238D01*
X201057536Y-85549159D01*
X200961282Y-85423718D01*
X200835841Y-85327464D01*
X200689762Y-85266956D01*
X200533000Y-85246318D01*
X200376238Y-85266956D01*
X200230159Y-85327464D01*
X200104718Y-85423718D01*
X200008464Y-85549159D01*
X199947956Y-85695238D01*
X199927318Y-85852000D01*
X195878846Y-85852000D01*
X195870391Y-85787776D01*
X195809883Y-85641697D01*
X195713629Y-85516256D01*
X195588188Y-85420002D01*
X195442109Y-85359494D01*
X195285347Y-85338856D01*
X195128585Y-85359494D01*
X194982506Y-85420002D01*
X194857065Y-85516256D01*
X194760811Y-85641697D01*
X194700303Y-85787776D01*
X194679665Y-85944538D01*
X111417000Y-85944538D01*
X111417000Y-84836000D01*
X202848318Y-84836000D01*
X202868956Y-84992762D01*
X202929464Y-85138841D01*
X203025718Y-85264282D01*
X203151159Y-85360536D01*
X203297238Y-85421044D01*
X203454000Y-85441682D01*
X203462188Y-85440604D01*
X203602574Y-85422122D01*
X203610762Y-85421044D01*
X203618389Y-85417885D01*
X203618392Y-85417884D01*
X203701957Y-85383270D01*
X203772547Y-85375681D01*
X203836034Y-85407460D01*
X203872261Y-85468519D01*
X203875097Y-85516125D01*
X203864318Y-85598000D01*
X203884956Y-85754762D01*
X203945464Y-85900841D01*
X204041718Y-86026282D01*
X204167159Y-86122536D01*
X204313238Y-86183044D01*
X204470000Y-86203682D01*
X204478188Y-86202604D01*
X204618574Y-86184122D01*
X204626762Y-86183044D01*
X204772841Y-86122536D01*
X204898282Y-86026282D01*
X204899760Y-86028208D01*
X204951217Y-86000110D01*
X205022032Y-86005175D01*
X205056779Y-86027506D01*
X205057718Y-86026282D01*
X205183159Y-86122536D01*
X205329238Y-86183044D01*
X205486000Y-86203682D01*
X205494188Y-86202604D01*
X205634574Y-86184122D01*
X205642762Y-86183044D01*
X205788841Y-86122536D01*
X205914282Y-86026282D01*
X205915760Y-86028208D01*
X205967217Y-86000110D01*
X206038032Y-86005175D01*
X206072779Y-86027506D01*
X206073718Y-86026282D01*
X206199159Y-86122536D01*
X206345238Y-86183044D01*
X206502000Y-86203682D01*
X206510188Y-86202604D01*
X206650574Y-86184122D01*
X206658762Y-86183044D01*
X206804841Y-86122536D01*
X206930282Y-86026282D01*
X207026536Y-85900841D01*
X207087044Y-85754762D01*
X207107682Y-85598000D01*
X207087044Y-85441238D01*
X207026536Y-85295159D01*
X206930282Y-85169718D01*
X206804841Y-85073464D01*
X206658762Y-85012956D01*
X206624176Y-85008403D01*
X206559249Y-84979681D01*
X206520157Y-84920417D01*
X206519312Y-84849425D01*
X206558791Y-84787670D01*
X206603492Y-84749492D01*
X206764548Y-84560919D01*
X206894122Y-84349474D01*
X206989023Y-84120362D01*
X207021667Y-83984391D01*
X207045760Y-83884038D01*
X207045761Y-83884032D01*
X207046915Y-83879225D01*
X207066372Y-83632000D01*
X207046915Y-83384775D01*
X207045761Y-83379968D01*
X207045760Y-83379962D01*
X206990178Y-83148450D01*
X206989023Y-83143638D01*
X206948784Y-83046491D01*
X206896017Y-82919100D01*
X206896015Y-82919096D01*
X206894122Y-82914526D01*
X206764548Y-82703081D01*
X206603492Y-82514508D01*
X206414919Y-82353452D01*
X206203474Y-82223878D01*
X206198904Y-82221985D01*
X206198900Y-82221983D01*
X205978935Y-82130871D01*
X205978933Y-82130870D01*
X205974362Y-82128977D01*
X205890208Y-82108773D01*
X205738038Y-82072240D01*
X205738032Y-82072239D01*
X205733225Y-82071085D01*
X205486000Y-82051628D01*
X205238775Y-82071085D01*
X205233968Y-82072239D01*
X205233962Y-82072240D01*
X205081792Y-82108773D01*
X204997638Y-82128977D01*
X204993067Y-82130870D01*
X204993065Y-82130871D01*
X204773100Y-82221983D01*
X204773096Y-82221985D01*
X204768526Y-82223878D01*
X204557081Y-82353452D01*
X204368508Y-82514508D01*
X204290889Y-82605389D01*
X204243156Y-82661277D01*
X204183705Y-82700086D01*
X204112711Y-82700592D01*
X204052712Y-82662636D01*
X204030936Y-82627664D01*
X203978536Y-82501159D01*
X203882282Y-82375718D01*
X203857456Y-82356668D01*
X203763392Y-82284491D01*
X203756841Y-82279464D01*
X203610762Y-82218956D01*
X203454000Y-82198318D01*
X203297238Y-82218956D01*
X203151159Y-82279464D01*
X203144608Y-82284491D01*
X203050545Y-82356668D01*
X203025718Y-82375718D01*
X202929464Y-82501159D01*
X202868956Y-82647238D01*
X202848318Y-82804000D01*
X202868956Y-82960762D01*
X202929464Y-83106841D01*
X202953157Y-83137718D01*
X203025718Y-83232282D01*
X203023792Y-83233760D01*
X203051890Y-83285217D01*
X203046825Y-83356032D01*
X203024494Y-83390779D01*
X203025718Y-83391718D01*
X202929464Y-83517159D01*
X202868956Y-83663238D01*
X202848318Y-83820000D01*
X202868956Y-83976762D01*
X202929464Y-84122841D01*
X202934491Y-84129392D01*
X203025718Y-84248282D01*
X203023792Y-84249760D01*
X203051890Y-84301217D01*
X203046825Y-84372032D01*
X203024494Y-84406779D01*
X203025718Y-84407718D01*
X202929464Y-84533159D01*
X202868956Y-84679238D01*
X202848318Y-84836000D01*
X111417000Y-84836000D01*
X111417000Y-83566000D01*
X151286318Y-83566000D01*
X151306956Y-83722762D01*
X151367464Y-83868841D01*
X151463718Y-83994282D01*
X151589159Y-84090536D01*
X151735238Y-84151044D01*
X151892000Y-84171682D01*
X151900188Y-84170604D01*
X152040574Y-84152122D01*
X152048762Y-84151044D01*
X152194841Y-84090536D01*
X152320282Y-83994282D01*
X152416536Y-83868841D01*
X152477044Y-83722762D01*
X152497682Y-83566000D01*
X152477044Y-83409238D01*
X152416536Y-83263159D01*
X152320282Y-83137718D01*
X152194841Y-83041464D01*
X152048762Y-82980956D01*
X151892000Y-82960318D01*
X151735238Y-82980956D01*
X151589159Y-83041464D01*
X151463718Y-83137718D01*
X151367464Y-83263159D01*
X151306956Y-83409238D01*
X151286318Y-83566000D01*
X111417000Y-83566000D01*
X111417000Y-82296000D01*
X128426318Y-82296000D01*
X128446956Y-82452762D01*
X128507464Y-82598841D01*
X128603718Y-82724282D01*
X128729159Y-82820536D01*
X128875238Y-82881044D01*
X129032000Y-82901682D01*
X129040188Y-82900604D01*
X129180574Y-82882122D01*
X129188762Y-82881044D01*
X129334841Y-82820536D01*
X129460282Y-82724282D01*
X129556536Y-82598841D01*
X129617044Y-82452762D01*
X129637682Y-82296000D01*
X130966318Y-82296000D01*
X130986956Y-82452762D01*
X131047464Y-82598841D01*
X131143718Y-82724282D01*
X131269159Y-82820536D01*
X131415238Y-82881044D01*
X131572000Y-82901682D01*
X131580188Y-82900604D01*
X131720574Y-82882122D01*
X131728762Y-82881044D01*
X131874841Y-82820536D01*
X132000282Y-82724282D01*
X132096536Y-82598841D01*
X132098728Y-82593550D01*
X132149262Y-82545364D01*
X132218975Y-82531926D01*
X132284886Y-82558312D01*
X132315137Y-82593224D01*
X132317464Y-82598841D01*
X132413718Y-82724282D01*
X132539159Y-82820536D01*
X132685238Y-82881044D01*
X132842000Y-82901682D01*
X132850188Y-82900604D01*
X132990574Y-82882122D01*
X132998762Y-82881044D01*
X133144841Y-82820536D01*
X133270282Y-82724282D01*
X133366536Y-82598841D01*
X133427044Y-82452762D01*
X133447682Y-82296000D01*
X133427044Y-82139238D01*
X133366536Y-81993159D01*
X133304241Y-81911975D01*
X138591601Y-81911975D01*
X138620552Y-82012941D01*
X138625067Y-82024345D01*
X138709794Y-82189207D01*
X138716435Y-82199512D01*
X138831568Y-82344772D01*
X138840091Y-82353598D01*
X138981245Y-82473730D01*
X138991317Y-82480730D01*
X139153116Y-82571156D01*
X139164356Y-82576067D01*
X139292768Y-82617790D01*
X139306867Y-82618193D01*
X139310000Y-82611821D01*
X139310000Y-82603564D01*
X139818000Y-82603564D01*
X139821973Y-82617095D01*
X139830188Y-82618276D01*
X139924337Y-82591989D01*
X139935787Y-82587548D01*
X140101226Y-82503979D01*
X140111585Y-82497404D01*
X140257639Y-82383295D01*
X140266527Y-82374831D01*
X140387643Y-82234517D01*
X140394711Y-82224497D01*
X140486262Y-82063337D01*
X140491256Y-82052121D01*
X140536142Y-81917190D01*
X140536643Y-81903097D01*
X140530454Y-81900000D01*
X139836115Y-81900000D01*
X139820876Y-81904475D01*
X139819671Y-81905865D01*
X139818000Y-81913548D01*
X139818000Y-82603564D01*
X139310000Y-82603564D01*
X139310000Y-81918115D01*
X139305525Y-81902876D01*
X139304135Y-81901671D01*
X139296452Y-81900000D01*
X138606282Y-81900000D01*
X138592751Y-81903973D01*
X138591601Y-81911975D01*
X133304241Y-81911975D01*
X133270282Y-81867718D01*
X133144841Y-81771464D01*
X132998762Y-81710956D01*
X132842000Y-81690318D01*
X132685238Y-81710956D01*
X132539159Y-81771464D01*
X132413718Y-81867718D01*
X132317464Y-81993159D01*
X132315272Y-81998450D01*
X132264738Y-82046636D01*
X132195025Y-82060074D01*
X132129114Y-82033688D01*
X132098863Y-81998776D01*
X132096536Y-81993159D01*
X132000282Y-81867718D01*
X131874841Y-81771464D01*
X131728762Y-81710956D01*
X131572000Y-81690318D01*
X131415238Y-81710956D01*
X131269159Y-81771464D01*
X131143718Y-81867718D01*
X131047464Y-81993159D01*
X130986956Y-82139238D01*
X130966318Y-82296000D01*
X129637682Y-82296000D01*
X129617044Y-82139238D01*
X129556536Y-81993159D01*
X129460282Y-81867718D01*
X129334841Y-81771464D01*
X129188762Y-81710956D01*
X129032000Y-81690318D01*
X128875238Y-81710956D01*
X128729159Y-81771464D01*
X128603718Y-81867718D01*
X128507464Y-81993159D01*
X128446956Y-82139238D01*
X128426318Y-82296000D01*
X111417000Y-82296000D01*
X111417000Y-81534000D01*
X168507518Y-81534000D01*
X168528156Y-81690762D01*
X168588664Y-81836841D01*
X168684918Y-81962282D01*
X168810359Y-82058536D01*
X168956438Y-82119044D01*
X169113200Y-82139682D01*
X169121388Y-82138604D01*
X169180127Y-82130871D01*
X169269962Y-82119044D01*
X169416041Y-82058536D01*
X169541482Y-81962282D01*
X169637736Y-81836841D01*
X169698244Y-81690762D01*
X169718882Y-81534000D01*
X169698244Y-81377238D01*
X169637736Y-81231159D01*
X169541482Y-81105718D01*
X169416041Y-81009464D01*
X169269962Y-80948956D01*
X169113200Y-80928318D01*
X168956438Y-80948956D01*
X168810359Y-81009464D01*
X168684918Y-81105718D01*
X168588664Y-81231159D01*
X168528156Y-81377238D01*
X168507518Y-81534000D01*
X111417000Y-81534000D01*
X111417000Y-81388831D01*
X138592202Y-81388831D01*
X138598763Y-81392000D01*
X140522183Y-81392000D01*
X140535714Y-81388027D01*
X140536806Y-81380433D01*
X140502231Y-81265919D01*
X140497560Y-81254586D01*
X140410540Y-81090923D01*
X140403751Y-81080706D01*
X140292857Y-80944736D01*
X140265303Y-80879304D01*
X140264500Y-80865100D01*
X140264500Y-80264000D01*
X152302318Y-80264000D01*
X152322956Y-80420762D01*
X152383464Y-80566841D01*
X152479718Y-80692282D01*
X152605159Y-80788536D01*
X152751238Y-80849044D01*
X152908000Y-80869682D01*
X152916188Y-80868604D01*
X153056574Y-80850122D01*
X153064762Y-80849044D01*
X153210841Y-80788536D01*
X153336282Y-80692282D01*
X153432536Y-80566841D01*
X153493044Y-80420762D01*
X153513682Y-80264000D01*
X153493044Y-80107238D01*
X153432536Y-79961159D01*
X153336282Y-79835718D01*
X153210841Y-79739464D01*
X153064762Y-79678956D01*
X152908000Y-79658318D01*
X152751238Y-79678956D01*
X152605159Y-79739464D01*
X152479718Y-79835718D01*
X152383464Y-79961159D01*
X152322956Y-80107238D01*
X152302318Y-80264000D01*
X140264500Y-80264000D01*
X140264500Y-79856252D01*
X140260416Y-79835718D01*
X140255288Y-79809939D01*
X140255288Y-79809938D01*
X140252867Y-79797769D01*
X140208552Y-79731448D01*
X140142231Y-79687133D01*
X140130062Y-79684712D01*
X140130061Y-79684712D01*
X140089816Y-79676707D01*
X140083748Y-79675500D01*
X139044252Y-79675500D01*
X139038184Y-79676707D01*
X138997939Y-79684712D01*
X138997938Y-79684712D01*
X138985769Y-79687133D01*
X138919448Y-79731448D01*
X138875133Y-79797769D01*
X138872712Y-79809938D01*
X138872712Y-79809939D01*
X138867584Y-79835718D01*
X138863500Y-79856252D01*
X138863500Y-80866726D01*
X138843498Y-80934847D01*
X138834022Y-80947717D01*
X138732222Y-81069039D01*
X138725292Y-81079159D01*
X138635998Y-81241585D01*
X138631166Y-81252858D01*
X138592506Y-81374731D01*
X138592202Y-81388831D01*
X111417000Y-81388831D01*
X111417000Y-79410834D01*
X203910500Y-79410834D01*
X203913481Y-79442369D01*
X203958366Y-79570184D01*
X203963958Y-79577754D01*
X203963959Y-79577757D01*
X204023463Y-79658318D01*
X204038850Y-79679150D01*
X204046421Y-79684742D01*
X204140243Y-79754041D01*
X204140246Y-79754042D01*
X204147816Y-79759634D01*
X204275631Y-79804519D01*
X204283277Y-79805242D01*
X204283278Y-79805242D01*
X204289248Y-79805806D01*
X204307166Y-79807500D01*
X206664834Y-79807500D01*
X206682752Y-79805806D01*
X206688722Y-79805242D01*
X206688723Y-79805242D01*
X206696369Y-79804519D01*
X206824184Y-79759634D01*
X206831754Y-79754042D01*
X206831757Y-79754041D01*
X206925579Y-79684742D01*
X206933150Y-79679150D01*
X206948537Y-79658318D01*
X207008041Y-79577757D01*
X207008042Y-79577754D01*
X207013634Y-79570184D01*
X207058519Y-79442369D01*
X207061500Y-79410834D01*
X207061500Y-77053166D01*
X207058519Y-77021631D01*
X207013634Y-76893816D01*
X207008042Y-76886246D01*
X207008041Y-76886243D01*
X206938742Y-76792421D01*
X206933150Y-76784850D01*
X206868256Y-76736918D01*
X206831757Y-76709959D01*
X206831754Y-76709958D01*
X206824184Y-76704366D01*
X206696369Y-76659481D01*
X206688723Y-76658758D01*
X206688722Y-76658758D01*
X206682752Y-76658194D01*
X206664834Y-76656500D01*
X204307166Y-76656500D01*
X204289248Y-76658194D01*
X204283278Y-76658758D01*
X204283277Y-76658758D01*
X204275631Y-76659481D01*
X204147816Y-76704366D01*
X204140246Y-76709958D01*
X204140243Y-76709959D01*
X204103744Y-76736918D01*
X204038850Y-76784850D01*
X204033258Y-76792421D01*
X203963959Y-76886243D01*
X203963958Y-76886246D01*
X203958366Y-76893816D01*
X203913481Y-77021631D01*
X203910500Y-77053166D01*
X203910500Y-79410834D01*
X111417000Y-79410834D01*
X111417000Y-78486000D01*
X122076318Y-78486000D01*
X122096956Y-78642762D01*
X122157464Y-78788841D01*
X122253718Y-78914282D01*
X122379159Y-79010536D01*
X122525238Y-79071044D01*
X122682000Y-79091682D01*
X122690188Y-79090604D01*
X122830574Y-79072122D01*
X122838762Y-79071044D01*
X122984841Y-79010536D01*
X123110282Y-78914282D01*
X123206536Y-78788841D01*
X123208728Y-78783550D01*
X123259262Y-78735364D01*
X123328975Y-78721926D01*
X123394886Y-78748312D01*
X123425137Y-78783224D01*
X123427464Y-78788841D01*
X123523718Y-78914282D01*
X123649159Y-79010536D01*
X123795238Y-79071044D01*
X123952000Y-79091682D01*
X123960188Y-79090604D01*
X124100574Y-79072122D01*
X124108762Y-79071044D01*
X124254841Y-79010536D01*
X124380282Y-78914282D01*
X124476536Y-78788841D01*
X124496767Y-78740000D01*
X129696318Y-78740000D01*
X129716956Y-78896762D01*
X129777464Y-79042841D01*
X129873718Y-79168282D01*
X129999159Y-79264536D01*
X130145238Y-79325044D01*
X130302000Y-79345682D01*
X130310188Y-79344604D01*
X130450574Y-79326122D01*
X130458762Y-79325044D01*
X130604841Y-79264536D01*
X130730282Y-79168282D01*
X130826536Y-79042841D01*
X130887044Y-78896762D01*
X130907682Y-78740000D01*
X130887044Y-78583238D01*
X130846767Y-78486000D01*
X133506318Y-78486000D01*
X133526956Y-78642762D01*
X133587464Y-78788841D01*
X133683718Y-78914282D01*
X133809159Y-79010536D01*
X133955238Y-79071044D01*
X134112000Y-79091682D01*
X134120188Y-79090604D01*
X134260574Y-79072122D01*
X134268762Y-79071044D01*
X134414841Y-79010536D01*
X134540282Y-78914282D01*
X134636536Y-78788841D01*
X134638728Y-78783550D01*
X134689262Y-78735364D01*
X134758975Y-78721926D01*
X134824886Y-78748312D01*
X134855137Y-78783224D01*
X134857464Y-78788841D01*
X134953718Y-78914282D01*
X135079159Y-79010536D01*
X135225238Y-79071044D01*
X135382000Y-79091682D01*
X135390188Y-79090604D01*
X135530574Y-79072122D01*
X135538762Y-79071044D01*
X135684841Y-79010536D01*
X135810282Y-78914282D01*
X135906536Y-78788841D01*
X135926767Y-78740000D01*
X187354318Y-78740000D01*
X187374956Y-78896762D01*
X187435464Y-79042841D01*
X187531718Y-79168282D01*
X187657159Y-79264536D01*
X187803238Y-79325044D01*
X187960000Y-79345682D01*
X187968188Y-79344604D01*
X188108574Y-79326122D01*
X188116762Y-79325044D01*
X188262841Y-79264536D01*
X188388282Y-79168282D01*
X188484536Y-79042841D01*
X188486728Y-79037550D01*
X188537262Y-78989364D01*
X188606975Y-78975926D01*
X188672886Y-79002312D01*
X188703137Y-79037224D01*
X188705464Y-79042841D01*
X188801718Y-79168282D01*
X188927159Y-79264536D01*
X189073238Y-79325044D01*
X189230000Y-79345682D01*
X189238188Y-79344604D01*
X189378574Y-79326122D01*
X189386762Y-79325044D01*
X189532841Y-79264536D01*
X189658282Y-79168282D01*
X189754536Y-79042841D01*
X189756728Y-79037550D01*
X189807262Y-78989364D01*
X189876975Y-78975926D01*
X189942886Y-79002312D01*
X189973137Y-79037224D01*
X189975464Y-79042841D01*
X190071718Y-79168282D01*
X190197159Y-79264536D01*
X190343238Y-79325044D01*
X190500000Y-79345682D01*
X190508188Y-79344604D01*
X190648574Y-79326122D01*
X190656762Y-79325044D01*
X190802841Y-79264536D01*
X190928282Y-79168282D01*
X191024536Y-79042841D01*
X191026728Y-79037550D01*
X191077262Y-78989364D01*
X191146975Y-78975926D01*
X191212886Y-79002312D01*
X191243137Y-79037224D01*
X191245464Y-79042841D01*
X191341718Y-79168282D01*
X191467159Y-79264536D01*
X191613238Y-79325044D01*
X191770000Y-79345682D01*
X191778188Y-79344604D01*
X191918574Y-79326122D01*
X191926762Y-79325044D01*
X192072841Y-79264536D01*
X192198282Y-79168282D01*
X192294536Y-79042841D01*
X192296728Y-79037550D01*
X192347262Y-78989364D01*
X192416975Y-78975926D01*
X192482886Y-79002312D01*
X192513137Y-79037224D01*
X192515464Y-79042841D01*
X192611718Y-79168282D01*
X192737159Y-79264536D01*
X192883238Y-79325044D01*
X193040000Y-79345682D01*
X193048188Y-79344604D01*
X193188574Y-79326122D01*
X193196762Y-79325044D01*
X193342841Y-79264536D01*
X193468282Y-79168282D01*
X193564536Y-79042841D01*
X193625044Y-78896762D01*
X193645682Y-78740000D01*
X193625044Y-78583238D01*
X193564536Y-78437159D01*
X193468282Y-78311718D01*
X193342841Y-78215464D01*
X193337550Y-78213272D01*
X193289364Y-78162738D01*
X193275926Y-78093025D01*
X193302312Y-78027114D01*
X193337224Y-77996863D01*
X193342841Y-77994536D01*
X193468282Y-77898282D01*
X193564536Y-77772841D01*
X193625044Y-77626762D01*
X193645682Y-77470000D01*
X193625044Y-77313238D01*
X193564536Y-77167159D01*
X193468282Y-77041718D01*
X193342841Y-76945464D01*
X193196762Y-76884956D01*
X193040000Y-76864318D01*
X192883238Y-76884956D01*
X192737159Y-76945464D01*
X192611718Y-77041718D01*
X192515464Y-77167159D01*
X192513272Y-77172450D01*
X192462738Y-77220636D01*
X192393025Y-77234074D01*
X192327114Y-77207688D01*
X192296863Y-77172776D01*
X192294536Y-77167159D01*
X192198282Y-77041718D01*
X192072841Y-76945464D01*
X191926762Y-76884956D01*
X191770000Y-76864318D01*
X191613238Y-76884956D01*
X191467159Y-76945464D01*
X191341718Y-77041718D01*
X191245464Y-77167159D01*
X191243272Y-77172450D01*
X191192738Y-77220636D01*
X191123025Y-77234074D01*
X191057114Y-77207688D01*
X191026863Y-77172776D01*
X191024536Y-77167159D01*
X190928282Y-77041718D01*
X190802841Y-76945464D01*
X190656762Y-76884956D01*
X190500000Y-76864318D01*
X190343238Y-76884956D01*
X190197159Y-76945464D01*
X190071718Y-77041718D01*
X189975464Y-77167159D01*
X189973272Y-77172450D01*
X189922738Y-77220636D01*
X189853025Y-77234074D01*
X189787114Y-77207688D01*
X189756863Y-77172776D01*
X189754536Y-77167159D01*
X189658282Y-77041718D01*
X189532841Y-76945464D01*
X189386762Y-76884956D01*
X189230000Y-76864318D01*
X189073238Y-76884956D01*
X188927159Y-76945464D01*
X188801718Y-77041718D01*
X188705464Y-77167159D01*
X188703272Y-77172450D01*
X188652738Y-77220636D01*
X188583025Y-77234074D01*
X188517114Y-77207688D01*
X188486863Y-77172776D01*
X188484536Y-77167159D01*
X188388282Y-77041718D01*
X188262841Y-76945464D01*
X188116762Y-76884956D01*
X187960000Y-76864318D01*
X187803238Y-76884956D01*
X187657159Y-76945464D01*
X187531718Y-77041718D01*
X187435464Y-77167159D01*
X187374956Y-77313238D01*
X187354318Y-77470000D01*
X187374956Y-77626762D01*
X187435464Y-77772841D01*
X187531718Y-77898282D01*
X187657159Y-77994536D01*
X187662450Y-77996728D01*
X187710636Y-78047262D01*
X187724074Y-78116975D01*
X187697688Y-78182886D01*
X187662776Y-78213137D01*
X187657159Y-78215464D01*
X187531718Y-78311718D01*
X187435464Y-78437159D01*
X187374956Y-78583238D01*
X187354318Y-78740000D01*
X135926767Y-78740000D01*
X135967044Y-78642762D01*
X135987682Y-78486000D01*
X135967044Y-78329238D01*
X135906536Y-78183159D01*
X135810282Y-78057718D01*
X135796656Y-78047262D01*
X135727941Y-77994536D01*
X135684841Y-77961464D01*
X135538762Y-77900956D01*
X135382000Y-77880318D01*
X135225238Y-77900956D01*
X135079159Y-77961464D01*
X135036059Y-77994536D01*
X134967345Y-78047262D01*
X134953718Y-78057718D01*
X134857464Y-78183159D01*
X134855272Y-78188450D01*
X134804738Y-78236636D01*
X134735025Y-78250074D01*
X134669114Y-78223688D01*
X134638863Y-78188776D01*
X134636536Y-78183159D01*
X134540282Y-78057718D01*
X134526656Y-78047262D01*
X134457941Y-77994536D01*
X134414841Y-77961464D01*
X134268762Y-77900956D01*
X134112000Y-77880318D01*
X133955238Y-77900956D01*
X133809159Y-77961464D01*
X133766059Y-77994536D01*
X133697345Y-78047262D01*
X133683718Y-78057718D01*
X133587464Y-78183159D01*
X133526956Y-78329238D01*
X133506318Y-78486000D01*
X130846767Y-78486000D01*
X130826536Y-78437159D01*
X130730282Y-78311718D01*
X130604841Y-78215464D01*
X130458762Y-78154956D01*
X130302000Y-78134318D01*
X130145238Y-78154956D01*
X129999159Y-78215464D01*
X129873718Y-78311718D01*
X129777464Y-78437159D01*
X129716956Y-78583238D01*
X129696318Y-78740000D01*
X124496767Y-78740000D01*
X124537044Y-78642762D01*
X124557682Y-78486000D01*
X124537044Y-78329238D01*
X124476536Y-78183159D01*
X124380282Y-78057718D01*
X124366656Y-78047262D01*
X124297941Y-77994536D01*
X124254841Y-77961464D01*
X124108762Y-77900956D01*
X123952000Y-77880318D01*
X123795238Y-77900956D01*
X123649159Y-77961464D01*
X123606059Y-77994536D01*
X123537345Y-78047262D01*
X123523718Y-78057718D01*
X123427464Y-78183159D01*
X123425272Y-78188450D01*
X123374738Y-78236636D01*
X123305025Y-78250074D01*
X123239114Y-78223688D01*
X123208863Y-78188776D01*
X123206536Y-78183159D01*
X123110282Y-78057718D01*
X123096656Y-78047262D01*
X123027941Y-77994536D01*
X122984841Y-77961464D01*
X122838762Y-77900956D01*
X122682000Y-77880318D01*
X122525238Y-77900956D01*
X122379159Y-77961464D01*
X122336059Y-77994536D01*
X122267345Y-78047262D01*
X122253718Y-78057718D01*
X122157464Y-78183159D01*
X122096956Y-78329238D01*
X122076318Y-78486000D01*
X111417000Y-78486000D01*
X111417000Y-77165200D01*
X160023918Y-77165200D01*
X160044556Y-77321962D01*
X160105064Y-77468041D01*
X160201318Y-77593482D01*
X160326759Y-77689736D01*
X160472838Y-77750244D01*
X160629600Y-77770882D01*
X160637788Y-77769804D01*
X160778174Y-77751322D01*
X160786362Y-77750244D01*
X160932441Y-77689736D01*
X161057882Y-77593482D01*
X161154136Y-77468041D01*
X161214644Y-77321962D01*
X161235282Y-77165200D01*
X161214644Y-77008438D01*
X161154136Y-76862359D01*
X161057882Y-76736918D01*
X160932441Y-76640664D01*
X160786362Y-76580156D01*
X160629600Y-76559518D01*
X160472838Y-76580156D01*
X160326759Y-76640664D01*
X160201318Y-76736918D01*
X160105064Y-76862359D01*
X160044556Y-77008438D01*
X160023918Y-77165200D01*
X111417000Y-77165200D01*
X111417000Y-75692000D01*
X130458318Y-75692000D01*
X130478956Y-75848762D01*
X130539464Y-75994841D01*
X130635718Y-76120282D01*
X130642264Y-76125305D01*
X130649711Y-76131019D01*
X130761159Y-76216536D01*
X130907238Y-76277044D01*
X130915426Y-76278122D01*
X130950640Y-76282758D01*
X131064000Y-76297682D01*
X131072188Y-76296604D01*
X131212574Y-76278122D01*
X131220762Y-76277044D01*
X131366841Y-76216536D01*
X131478289Y-76131019D01*
X131485736Y-76125305D01*
X131492282Y-76120282D01*
X131588536Y-75994841D01*
X131649044Y-75848762D01*
X131669682Y-75692000D01*
X159414318Y-75692000D01*
X159434956Y-75848762D01*
X159495464Y-75994841D01*
X159591718Y-76120282D01*
X159598264Y-76125305D01*
X159605711Y-76131019D01*
X159717159Y-76216536D01*
X159863238Y-76277044D01*
X159871426Y-76278122D01*
X159906640Y-76282758D01*
X160020000Y-76297682D01*
X160028188Y-76296604D01*
X160168574Y-76278122D01*
X160176762Y-76277044D01*
X160322841Y-76216536D01*
X160448282Y-76120282D01*
X160449760Y-76122208D01*
X160501217Y-76094110D01*
X160572032Y-76099175D01*
X160613108Y-76125574D01*
X160613432Y-76125996D01*
X160738873Y-76222250D01*
X160884952Y-76282758D01*
X161041714Y-76303396D01*
X161049902Y-76302318D01*
X161190288Y-76283836D01*
X161198476Y-76282758D01*
X161344555Y-76222250D01*
X161469996Y-76125996D01*
X161566250Y-76000555D01*
X161626758Y-75854476D01*
X161647396Y-75697714D01*
X161626758Y-75540952D01*
X161566250Y-75394873D01*
X161469996Y-75269432D01*
X161459761Y-75261578D01*
X161369329Y-75192188D01*
X161358658Y-75184000D01*
X169066318Y-75184000D01*
X169086956Y-75340762D01*
X169147464Y-75486841D01*
X169243718Y-75612282D01*
X169369159Y-75708536D01*
X169515238Y-75769044D01*
X169672000Y-75789682D01*
X169680188Y-75788604D01*
X169820574Y-75770122D01*
X169828762Y-75769044D01*
X169974841Y-75708536D01*
X170100282Y-75612282D01*
X170196536Y-75486841D01*
X170257044Y-75340762D01*
X170277682Y-75184000D01*
X170257044Y-75027238D01*
X170196536Y-74881159D01*
X170100282Y-74755718D01*
X169974841Y-74659464D01*
X169828762Y-74598956D01*
X169672000Y-74578318D01*
X169515238Y-74598956D01*
X169369159Y-74659464D01*
X169243718Y-74755718D01*
X169147464Y-74881159D01*
X169086956Y-75027238D01*
X169066318Y-75184000D01*
X161358658Y-75184000D01*
X161344555Y-75173178D01*
X161198476Y-75112670D01*
X161179077Y-75110116D01*
X161049902Y-75093110D01*
X161041714Y-75092032D01*
X161033526Y-75093110D01*
X160904352Y-75110116D01*
X160884952Y-75112670D01*
X160738873Y-75173178D01*
X160613432Y-75269432D01*
X160611954Y-75267506D01*
X160560497Y-75295604D01*
X160489682Y-75290539D01*
X160448606Y-75264140D01*
X160448282Y-75263718D01*
X160322841Y-75167464D01*
X160176762Y-75106956D01*
X160020000Y-75086318D01*
X159863238Y-75106956D01*
X159717159Y-75167464D01*
X159591718Y-75263718D01*
X159495464Y-75389159D01*
X159434956Y-75535238D01*
X159414318Y-75692000D01*
X131669682Y-75692000D01*
X131649044Y-75535238D01*
X131588536Y-75389159D01*
X131492282Y-75263718D01*
X131366841Y-75167464D01*
X131220762Y-75106956D01*
X131064000Y-75086318D01*
X130907238Y-75106956D01*
X130761159Y-75167464D01*
X130635718Y-75263718D01*
X130539464Y-75389159D01*
X130478956Y-75535238D01*
X130458318Y-75692000D01*
X111417000Y-75692000D01*
X111417000Y-73710800D01*
X169066318Y-73710800D01*
X169086956Y-73867562D01*
X169147464Y-74013641D01*
X169243718Y-74139082D01*
X169369159Y-74235336D01*
X169515238Y-74295844D01*
X169672000Y-74316482D01*
X169680188Y-74315404D01*
X169820574Y-74296922D01*
X169828762Y-74295844D01*
X169974841Y-74235336D01*
X170100282Y-74139082D01*
X170196536Y-74013641D01*
X170257044Y-73867562D01*
X170277682Y-73710800D01*
X170257044Y-73554038D01*
X170196536Y-73407959D01*
X170100282Y-73282518D01*
X169974841Y-73186264D01*
X169828762Y-73125756D01*
X169672000Y-73105118D01*
X169515238Y-73125756D01*
X169369159Y-73186264D01*
X169243718Y-73282518D01*
X169147464Y-73407959D01*
X169086956Y-73554038D01*
X169066318Y-73710800D01*
X111417000Y-73710800D01*
X111417000Y-72694800D01*
X162157518Y-72694800D01*
X162178156Y-72851562D01*
X162238664Y-72997641D01*
X162334918Y-73123082D01*
X162460359Y-73219336D01*
X162606438Y-73279844D01*
X162763200Y-73300482D01*
X162771388Y-73299404D01*
X162911774Y-73280922D01*
X162919962Y-73279844D01*
X163066041Y-73219336D01*
X163191482Y-73123082D01*
X163287736Y-72997641D01*
X163348244Y-72851562D01*
X163368882Y-72694800D01*
X163348244Y-72538038D01*
X163287736Y-72391959D01*
X163286233Y-72390000D01*
X168456718Y-72390000D01*
X168477356Y-72546762D01*
X168537864Y-72692841D01*
X168634118Y-72818282D01*
X168759559Y-72914536D01*
X168905638Y-72975044D01*
X169062400Y-72995682D01*
X169070588Y-72994604D01*
X169210974Y-72976122D01*
X169219162Y-72975044D01*
X169365241Y-72914536D01*
X169490682Y-72818282D01*
X169586936Y-72692841D01*
X169647444Y-72546762D01*
X169668082Y-72390000D01*
X169647444Y-72233238D01*
X169586936Y-72087159D01*
X169490682Y-71961718D01*
X169365241Y-71865464D01*
X169219162Y-71804956D01*
X169062400Y-71784318D01*
X168905638Y-71804956D01*
X168759559Y-71865464D01*
X168634118Y-71961718D01*
X168537864Y-72087159D01*
X168477356Y-72233238D01*
X168456718Y-72390000D01*
X163286233Y-72390000D01*
X163191482Y-72266518D01*
X163066041Y-72170264D01*
X162919962Y-72109756D01*
X162763200Y-72089118D01*
X162606438Y-72109756D01*
X162460359Y-72170264D01*
X162334918Y-72266518D01*
X162238664Y-72391959D01*
X162178156Y-72538038D01*
X162157518Y-72694800D01*
X111417000Y-72694800D01*
X111417000Y-71628000D01*
X149254318Y-71628000D01*
X149274956Y-71784762D01*
X149335464Y-71930841D01*
X149431718Y-72056282D01*
X149557159Y-72152536D01*
X149703238Y-72213044D01*
X149860000Y-72233682D01*
X149868188Y-72232604D01*
X150008574Y-72214122D01*
X150016762Y-72213044D01*
X150162841Y-72152536D01*
X150288282Y-72056282D01*
X150384536Y-71930841D01*
X150445044Y-71784762D01*
X150465682Y-71628000D01*
X150445044Y-71471238D01*
X150384536Y-71325159D01*
X150288282Y-71199718D01*
X150184391Y-71120000D01*
X162106718Y-71120000D01*
X162127356Y-71276762D01*
X162187864Y-71422841D01*
X162284118Y-71548282D01*
X162409559Y-71644536D01*
X162555638Y-71705044D01*
X162712400Y-71725682D01*
X162720588Y-71724604D01*
X162860974Y-71706122D01*
X162869162Y-71705044D01*
X163015241Y-71644536D01*
X163140682Y-71548282D01*
X163236936Y-71422841D01*
X163297444Y-71276762D01*
X163318082Y-71120000D01*
X163297444Y-70963238D01*
X163257167Y-70866000D01*
X168405918Y-70866000D01*
X168426556Y-71022762D01*
X168487064Y-71168841D01*
X168583318Y-71294282D01*
X168708759Y-71390536D01*
X168854838Y-71451044D01*
X169011600Y-71471682D01*
X169019788Y-71470604D01*
X169160174Y-71452122D01*
X169168362Y-71451044D01*
X169314441Y-71390536D01*
X169439882Y-71294282D01*
X169536136Y-71168841D01*
X169596644Y-71022762D01*
X169617282Y-70866000D01*
X169596644Y-70709238D01*
X169536136Y-70563159D01*
X169439882Y-70437718D01*
X169314441Y-70341464D01*
X169168362Y-70280956D01*
X169011600Y-70260318D01*
X168854838Y-70280956D01*
X168708759Y-70341464D01*
X168583318Y-70437718D01*
X168487064Y-70563159D01*
X168426556Y-70709238D01*
X168405918Y-70866000D01*
X163257167Y-70866000D01*
X163236936Y-70817159D01*
X163140682Y-70691718D01*
X163015241Y-70595464D01*
X162869162Y-70534956D01*
X162712400Y-70514318D01*
X162555638Y-70534956D01*
X162409559Y-70595464D01*
X162284118Y-70691718D01*
X162187864Y-70817159D01*
X162127356Y-70963238D01*
X162106718Y-71120000D01*
X150184391Y-71120000D01*
X150162841Y-71103464D01*
X150016762Y-71042956D01*
X149860000Y-71022318D01*
X149703238Y-71042956D01*
X149557159Y-71103464D01*
X149431718Y-71199718D01*
X149335464Y-71325159D01*
X149274956Y-71471238D01*
X149254318Y-71628000D01*
X111417000Y-71628000D01*
X111417000Y-70104000D01*
X151286318Y-70104000D01*
X151306956Y-70260762D01*
X151367464Y-70406841D01*
X151463718Y-70532282D01*
X151589159Y-70628536D01*
X151735238Y-70689044D01*
X151892000Y-70709682D01*
X151900188Y-70708604D01*
X152040574Y-70690122D01*
X152048762Y-70689044D01*
X152194841Y-70628536D01*
X152320282Y-70532282D01*
X152416536Y-70406841D01*
X152477044Y-70260762D01*
X152497682Y-70104000D01*
X152477044Y-69947238D01*
X152416536Y-69801159D01*
X152320282Y-69675718D01*
X152194841Y-69579464D01*
X152048762Y-69518956D01*
X151892000Y-69498318D01*
X151735238Y-69518956D01*
X151589159Y-69579464D01*
X151463718Y-69675718D01*
X151367464Y-69801159D01*
X151306956Y-69947238D01*
X151286318Y-70104000D01*
X111417000Y-70104000D01*
X111417000Y-65545768D01*
X112192425Y-65545768D01*
X112224138Y-65653521D01*
X112228731Y-65664889D01*
X112314607Y-65829154D01*
X112321321Y-65839415D01*
X112437468Y-65983873D01*
X112446046Y-65992632D01*
X112588039Y-66111778D01*
X112598159Y-66118708D01*
X112760585Y-66208002D01*
X112771858Y-66212834D01*
X112948538Y-66268880D01*
X112960532Y-66271430D01*
X113104761Y-66287607D01*
X113111785Y-66288000D01*
X113392885Y-66288000D01*
X113408124Y-66283525D01*
X113409329Y-66282135D01*
X113411000Y-66274452D01*
X113411000Y-66269885D01*
X113919000Y-66269885D01*
X113923475Y-66285124D01*
X113924865Y-66286329D01*
X113932548Y-66288000D01*
X114211657Y-66288000D01*
X114217805Y-66287699D01*
X114355603Y-66274188D01*
X114367638Y-66271805D01*
X114545076Y-66218233D01*
X114556416Y-66213559D01*
X114720077Y-66126540D01*
X114730294Y-66119751D01*
X114873933Y-66002603D01*
X114882637Y-65993959D01*
X115000784Y-65851144D01*
X115007644Y-65840973D01*
X115095804Y-65677924D01*
X115100556Y-65666619D01*
X115136250Y-65551308D01*
X115136331Y-65545768D01*
X116321363Y-65545768D01*
X116355846Y-65662932D01*
X116360439Y-65674300D01*
X116448586Y-65842911D01*
X116455302Y-65853173D01*
X116574515Y-66001443D01*
X116583103Y-66010213D01*
X116728838Y-66132499D01*
X116738969Y-66139437D01*
X116905692Y-66231094D01*
X116916962Y-66235924D01*
X117098315Y-66293452D01*
X117110309Y-66296002D01*
X117258350Y-66312607D01*
X117265374Y-66313000D01*
X117572885Y-66313000D01*
X117588124Y-66308525D01*
X117589329Y-66307135D01*
X117591000Y-66299452D01*
X117591000Y-66294885D01*
X118099000Y-66294885D01*
X118103475Y-66310124D01*
X118104865Y-66311329D01*
X118112548Y-66313000D01*
X118417890Y-66313000D01*
X118424035Y-66312700D01*
X118565481Y-66298830D01*
X118577519Y-66296447D01*
X118585624Y-66294000D01*
X177194318Y-66294000D01*
X177214956Y-66450762D01*
X177275464Y-66596841D01*
X177371718Y-66722282D01*
X177497159Y-66818536D01*
X177643238Y-66879044D01*
X177800000Y-66899682D01*
X177808188Y-66898604D01*
X177948574Y-66880122D01*
X177956762Y-66879044D01*
X178102841Y-66818536D01*
X178228282Y-66722282D01*
X178324536Y-66596841D01*
X178385044Y-66450762D01*
X178405682Y-66294000D01*
X178385044Y-66137238D01*
X178324536Y-65991159D01*
X178228282Y-65865718D01*
X178102841Y-65769464D01*
X177956762Y-65708956D01*
X177800000Y-65688318D01*
X177643238Y-65708956D01*
X177497159Y-65769464D01*
X177371718Y-65865718D01*
X177275464Y-65991159D01*
X177214956Y-66137238D01*
X177194318Y-66294000D01*
X118585624Y-66294000D01*
X118759651Y-66241458D01*
X118770993Y-66236783D01*
X118938977Y-66147465D01*
X118949193Y-66140678D01*
X119096634Y-66020428D01*
X119105338Y-66011784D01*
X119226610Y-65865191D01*
X119233470Y-65855020D01*
X119323962Y-65687658D01*
X119328714Y-65676353D01*
X119367422Y-65551308D01*
X119367628Y-65537205D01*
X119360873Y-65534000D01*
X118117115Y-65534000D01*
X118101876Y-65538475D01*
X118100671Y-65539865D01*
X118099000Y-65547548D01*
X118099000Y-66294885D01*
X117591000Y-66294885D01*
X117591000Y-65552115D01*
X117586525Y-65536876D01*
X117585135Y-65535671D01*
X117577452Y-65534000D01*
X116336014Y-65534000D01*
X116322483Y-65537973D01*
X116321363Y-65545768D01*
X115136331Y-65545768D01*
X115136456Y-65537205D01*
X115129701Y-65534000D01*
X113937115Y-65534000D01*
X113921876Y-65538475D01*
X113920671Y-65539865D01*
X113919000Y-65547548D01*
X113919000Y-66269885D01*
X113411000Y-66269885D01*
X113411000Y-65552115D01*
X113406525Y-65536876D01*
X113405135Y-65535671D01*
X113397452Y-65534000D01*
X112207076Y-65534000D01*
X112193545Y-65537973D01*
X112192425Y-65545768D01*
X111417000Y-65545768D01*
X111417000Y-65022795D01*
X112193544Y-65022795D01*
X112200299Y-65026000D01*
X113392885Y-65026000D01*
X113408124Y-65021525D01*
X113409329Y-65020135D01*
X113411000Y-65012452D01*
X113411000Y-65007885D01*
X113919000Y-65007885D01*
X113923475Y-65023124D01*
X113924865Y-65024329D01*
X113932548Y-65026000D01*
X115122924Y-65026000D01*
X115133839Y-65022795D01*
X116322372Y-65022795D01*
X116329127Y-65026000D01*
X119353986Y-65026000D01*
X119367517Y-65022027D01*
X119368637Y-65014232D01*
X119334154Y-64897068D01*
X119329561Y-64885700D01*
X119241414Y-64717089D01*
X119234698Y-64706827D01*
X119115485Y-64558557D01*
X119106897Y-64549787D01*
X118961162Y-64427501D01*
X118951031Y-64420563D01*
X118784308Y-64328906D01*
X118773038Y-64324076D01*
X118591685Y-64266548D01*
X118579691Y-64263998D01*
X118431650Y-64247393D01*
X118424626Y-64247000D01*
X117992046Y-64247000D01*
X117923925Y-64226998D01*
X117877432Y-64173342D01*
X117867328Y-64103068D01*
X117875636Y-64072786D01*
X117905687Y-64000236D01*
X117925466Y-63850000D01*
X117905687Y-63699764D01*
X117847698Y-63559767D01*
X117755451Y-63439549D01*
X117635233Y-63347302D01*
X117495236Y-63289313D01*
X117382720Y-63274500D01*
X117307280Y-63274500D01*
X117194764Y-63289313D01*
X117054767Y-63347302D01*
X116934549Y-63439549D01*
X116842302Y-63559767D01*
X116784313Y-63699764D01*
X116764534Y-63850000D01*
X116784313Y-64000236D01*
X116842302Y-64140233D01*
X116873647Y-64181082D01*
X116899246Y-64247300D01*
X116884981Y-64316849D01*
X116832836Y-64369036D01*
X116751016Y-64412540D01*
X116740807Y-64419322D01*
X116593366Y-64539572D01*
X116584662Y-64548216D01*
X116463390Y-64694809D01*
X116456530Y-64704980D01*
X116366038Y-64872342D01*
X116361286Y-64883647D01*
X116322578Y-65008692D01*
X116322372Y-65022795D01*
X115133839Y-65022795D01*
X115136455Y-65022027D01*
X115137575Y-65014232D01*
X115105862Y-64906479D01*
X115101269Y-64895111D01*
X115015393Y-64730846D01*
X115008679Y-64720585D01*
X114892532Y-64576127D01*
X114883954Y-64567368D01*
X114741961Y-64448222D01*
X114731841Y-64441292D01*
X114569415Y-64351998D01*
X114558142Y-64347166D01*
X114381462Y-64291120D01*
X114369468Y-64288570D01*
X114225239Y-64272393D01*
X114218215Y-64272000D01*
X113937115Y-64272000D01*
X113921876Y-64276475D01*
X113920671Y-64277865D01*
X113919000Y-64285548D01*
X113919000Y-65007885D01*
X113411000Y-65007885D01*
X113411000Y-64290115D01*
X113406525Y-64274876D01*
X113405135Y-64273671D01*
X113397452Y-64272000D01*
X113118343Y-64272000D01*
X113112195Y-64272301D01*
X112974397Y-64285812D01*
X112962362Y-64288195D01*
X112784924Y-64341767D01*
X112773584Y-64346441D01*
X112609923Y-64433460D01*
X112599706Y-64440249D01*
X112456067Y-64557397D01*
X112447363Y-64566041D01*
X112329216Y-64708856D01*
X112322356Y-64719027D01*
X112234196Y-64882076D01*
X112229444Y-64893381D01*
X112193750Y-65008692D01*
X112193544Y-65022795D01*
X111417000Y-65022795D01*
X111417000Y-62992000D01*
X128172318Y-62992000D01*
X128192956Y-63148762D01*
X128253464Y-63294841D01*
X128349718Y-63420282D01*
X128475159Y-63516536D01*
X128621238Y-63577044D01*
X128778000Y-63597682D01*
X128786188Y-63596604D01*
X128926574Y-63578122D01*
X128934762Y-63577044D01*
X129080841Y-63516536D01*
X129206282Y-63420282D01*
X129302536Y-63294841D01*
X129363044Y-63148762D01*
X129383682Y-62992000D01*
X129363044Y-62835238D01*
X129302536Y-62689159D01*
X129206282Y-62563718D01*
X129080841Y-62467464D01*
X128934762Y-62406956D01*
X128778000Y-62386318D01*
X128621238Y-62406956D01*
X128475159Y-62467464D01*
X128349718Y-62563718D01*
X128253464Y-62689159D01*
X128192956Y-62835238D01*
X128172318Y-62992000D01*
X111417000Y-62992000D01*
X111417000Y-61909500D01*
X119409318Y-61909500D01*
X119429956Y-62066262D01*
X119490464Y-62212341D01*
X119586718Y-62337782D01*
X119712159Y-62434036D01*
X119858238Y-62494544D01*
X120015000Y-62515182D01*
X120023188Y-62514104D01*
X120163574Y-62495622D01*
X120171762Y-62494544D01*
X120317841Y-62434036D01*
X120443282Y-62337782D01*
X120539536Y-62212341D01*
X120600044Y-62066262D01*
X120620682Y-61909500D01*
X120600044Y-61752738D01*
X120539536Y-61606659D01*
X120443282Y-61481218D01*
X120317841Y-61384964D01*
X120171762Y-61324456D01*
X120015000Y-61303818D01*
X119858238Y-61324456D01*
X119712159Y-61384964D01*
X119586718Y-61481218D01*
X119490464Y-61606659D01*
X119429956Y-61752738D01*
X119409318Y-61909500D01*
X111417000Y-61909500D01*
X111417000Y-60434500D01*
X119409318Y-60434500D01*
X119429956Y-60591262D01*
X119490464Y-60737341D01*
X119586718Y-60862782D01*
X119712159Y-60959036D01*
X119858238Y-61019544D01*
X120015000Y-61040182D01*
X120023188Y-61039104D01*
X120163574Y-61020622D01*
X120171762Y-61019544D01*
X120317841Y-60959036D01*
X120443282Y-60862782D01*
X120539536Y-60737341D01*
X120552518Y-60706000D01*
X133252318Y-60706000D01*
X133272956Y-60862762D01*
X133333464Y-61008841D01*
X133429718Y-61134282D01*
X133555159Y-61230536D01*
X133701238Y-61291044D01*
X133858000Y-61311682D01*
X133866188Y-61310604D01*
X134006574Y-61292122D01*
X134014762Y-61291044D01*
X134160841Y-61230536D01*
X134182391Y-61214000D01*
X139602318Y-61214000D01*
X139622956Y-61370762D01*
X139683464Y-61516841D01*
X139779718Y-61642282D01*
X139786264Y-61647305D01*
X139811420Y-61666608D01*
X139905159Y-61738536D01*
X140051238Y-61799044D01*
X140208000Y-61819682D01*
X140216188Y-61818604D01*
X140356574Y-61800122D01*
X140364762Y-61799044D01*
X140510841Y-61738536D01*
X140604580Y-61666608D01*
X140629736Y-61647305D01*
X140636282Y-61642282D01*
X140732536Y-61516841D01*
X140793044Y-61370762D01*
X140813682Y-61214000D01*
X140793044Y-61057238D01*
X140732536Y-60911159D01*
X140636282Y-60785718D01*
X140510841Y-60689464D01*
X140364762Y-60628956D01*
X140208000Y-60608318D01*
X140051238Y-60628956D01*
X139905159Y-60689464D01*
X139779718Y-60785718D01*
X139683464Y-60911159D01*
X139622956Y-61057238D01*
X139602318Y-61214000D01*
X134182391Y-61214000D01*
X134286282Y-61134282D01*
X134382536Y-61008841D01*
X134443044Y-60862762D01*
X134463682Y-60706000D01*
X134443044Y-60549238D01*
X134382536Y-60403159D01*
X134286282Y-60277718D01*
X134272656Y-60267262D01*
X134246398Y-60247114D01*
X134160841Y-60181464D01*
X134014762Y-60120956D01*
X133858000Y-60100318D01*
X133701238Y-60120956D01*
X133555159Y-60181464D01*
X133469602Y-60247114D01*
X133443345Y-60267262D01*
X133429718Y-60277718D01*
X133333464Y-60403159D01*
X133272956Y-60549238D01*
X133252318Y-60706000D01*
X120552518Y-60706000D01*
X120600044Y-60591262D01*
X120620682Y-60434500D01*
X120600044Y-60277738D01*
X120539536Y-60131659D01*
X120443282Y-60006218D01*
X120317841Y-59909964D01*
X120171762Y-59849456D01*
X120015000Y-59828818D01*
X119858238Y-59849456D01*
X119712159Y-59909964D01*
X119586718Y-60006218D01*
X119490464Y-60131659D01*
X119429956Y-60277738D01*
X119409318Y-60434500D01*
X111417000Y-60434500D01*
X111417000Y-56905768D01*
X112192425Y-56905768D01*
X112224138Y-57013521D01*
X112228731Y-57024889D01*
X112314607Y-57189154D01*
X112321321Y-57199415D01*
X112437468Y-57343873D01*
X112446046Y-57352632D01*
X112588039Y-57471778D01*
X112598159Y-57478708D01*
X112760585Y-57568002D01*
X112771858Y-57572834D01*
X112948538Y-57628880D01*
X112960532Y-57631430D01*
X113104761Y-57647607D01*
X113111785Y-57648000D01*
X113392885Y-57648000D01*
X113408124Y-57643525D01*
X113409329Y-57642135D01*
X113411000Y-57634452D01*
X113411000Y-57629885D01*
X113919000Y-57629885D01*
X113923475Y-57645124D01*
X113924865Y-57646329D01*
X113932548Y-57648000D01*
X114211657Y-57648000D01*
X114217805Y-57647699D01*
X114355603Y-57634188D01*
X114367638Y-57631805D01*
X114545076Y-57578233D01*
X114556416Y-57573559D01*
X114720077Y-57486540D01*
X114730294Y-57479751D01*
X114873933Y-57362603D01*
X114882637Y-57353959D01*
X115000784Y-57211144D01*
X115007644Y-57200973D01*
X115095804Y-57037924D01*
X115100556Y-57026619D01*
X115136250Y-56911308D01*
X115136331Y-56905768D01*
X116321363Y-56905768D01*
X116355846Y-57022932D01*
X116360439Y-57034300D01*
X116448586Y-57202911D01*
X116455302Y-57213173D01*
X116574515Y-57361443D01*
X116583103Y-57370213D01*
X116728838Y-57492499D01*
X116738969Y-57499437D01*
X116834335Y-57551865D01*
X116884394Y-57602211D01*
X116899287Y-57671628D01*
X116873596Y-57738984D01*
X116842302Y-57779767D01*
X116784313Y-57919764D01*
X116764534Y-58070000D01*
X116784313Y-58220236D01*
X116842302Y-58360233D01*
X116934549Y-58480451D01*
X117054767Y-58572698D01*
X117194764Y-58630687D01*
X117307280Y-58645500D01*
X117382720Y-58645500D01*
X117495236Y-58630687D01*
X117635233Y-58572698D01*
X117755451Y-58480451D01*
X117847698Y-58360233D01*
X117905687Y-58220236D01*
X117925466Y-58070000D01*
X117905687Y-57919764D01*
X117902471Y-57912000D01*
X129188318Y-57912000D01*
X129208956Y-58068762D01*
X129269464Y-58214841D01*
X129365718Y-58340282D01*
X129491159Y-58436536D01*
X129637238Y-58497044D01*
X129794000Y-58517682D01*
X129802188Y-58516604D01*
X129942574Y-58498122D01*
X129950762Y-58497044D01*
X130096841Y-58436536D01*
X130222282Y-58340282D01*
X130318536Y-58214841D01*
X130379044Y-58068762D01*
X130399682Y-57912000D01*
X130394284Y-57871000D01*
X131192318Y-57871000D01*
X131212956Y-58027762D01*
X131273464Y-58173841D01*
X131369718Y-58299282D01*
X131376264Y-58304305D01*
X131405918Y-58327059D01*
X131495159Y-58395536D01*
X131641238Y-58456044D01*
X131798000Y-58476682D01*
X131806188Y-58475604D01*
X131946574Y-58457122D01*
X131954762Y-58456044D01*
X132100841Y-58395536D01*
X132190082Y-58327059D01*
X132219736Y-58304305D01*
X132226282Y-58299282D01*
X132322536Y-58173841D01*
X132383044Y-58027762D01*
X132403682Y-57871000D01*
X132383044Y-57714238D01*
X132359749Y-57658000D01*
X133252318Y-57658000D01*
X133272956Y-57814762D01*
X133333464Y-57960841D01*
X133429718Y-58086282D01*
X133555159Y-58182536D01*
X133701238Y-58243044D01*
X133858000Y-58263682D01*
X133866188Y-58262604D01*
X134006574Y-58244122D01*
X134014762Y-58243044D01*
X134160841Y-58182536D01*
X134286282Y-58086282D01*
X134382536Y-57960841D01*
X134443044Y-57814762D01*
X134463682Y-57658000D01*
X134443044Y-57501238D01*
X134382536Y-57355159D01*
X134286282Y-57229718D01*
X134182391Y-57150000D01*
X163224318Y-57150000D01*
X163244956Y-57306762D01*
X163305464Y-57452841D01*
X163401718Y-57578282D01*
X163527159Y-57674536D01*
X163673238Y-57735044D01*
X163830000Y-57755682D01*
X163838188Y-57754604D01*
X163978574Y-57736122D01*
X163986762Y-57735044D01*
X164132841Y-57674536D01*
X164258282Y-57578282D01*
X164354536Y-57452841D01*
X164356728Y-57447550D01*
X164407262Y-57399364D01*
X164476975Y-57385926D01*
X164542886Y-57412312D01*
X164573137Y-57447224D01*
X164575464Y-57452841D01*
X164671718Y-57578282D01*
X164797159Y-57674536D01*
X164802450Y-57676728D01*
X164850636Y-57727262D01*
X164864074Y-57796975D01*
X164837688Y-57862886D01*
X164802776Y-57893137D01*
X164797159Y-57895464D01*
X164671718Y-57991718D01*
X164575464Y-58117159D01*
X164514956Y-58263238D01*
X164494318Y-58420000D01*
X164514956Y-58576762D01*
X164575464Y-58722841D01*
X164671718Y-58848282D01*
X164797159Y-58944536D01*
X164802450Y-58946728D01*
X164850636Y-58997262D01*
X164864074Y-59066975D01*
X164837688Y-59132886D01*
X164802776Y-59163137D01*
X164797159Y-59165464D01*
X164671718Y-59261718D01*
X164575464Y-59387159D01*
X164514956Y-59533238D01*
X164494318Y-59690000D01*
X164514956Y-59846762D01*
X164575464Y-59992841D01*
X164671718Y-60118282D01*
X164797159Y-60214536D01*
X164802450Y-60216728D01*
X164850636Y-60267262D01*
X164864074Y-60336975D01*
X164837688Y-60402886D01*
X164802776Y-60433137D01*
X164797159Y-60435464D01*
X164671718Y-60531718D01*
X164575464Y-60657159D01*
X164514956Y-60803238D01*
X164494318Y-60960000D01*
X164514956Y-61116762D01*
X164575464Y-61262841D01*
X164671718Y-61388282D01*
X164797159Y-61484536D01*
X164802450Y-61486728D01*
X164850636Y-61537262D01*
X164864074Y-61606975D01*
X164837688Y-61672886D01*
X164802776Y-61703137D01*
X164797159Y-61705464D01*
X164671718Y-61801718D01*
X164575464Y-61927159D01*
X164514956Y-62073238D01*
X164494318Y-62230000D01*
X164514956Y-62386762D01*
X164575464Y-62532841D01*
X164671718Y-62658282D01*
X164797159Y-62754536D01*
X164943238Y-62815044D01*
X165100000Y-62835682D01*
X165108188Y-62834604D01*
X165248574Y-62816122D01*
X165256762Y-62815044D01*
X165402841Y-62754536D01*
X165528282Y-62658282D01*
X165624536Y-62532841D01*
X165626728Y-62527550D01*
X165677262Y-62479364D01*
X165746975Y-62465926D01*
X165812886Y-62492312D01*
X165843137Y-62527224D01*
X165845464Y-62532841D01*
X165941718Y-62658282D01*
X166067159Y-62754536D01*
X166213238Y-62815044D01*
X166370000Y-62835682D01*
X166378188Y-62834604D01*
X166518574Y-62816122D01*
X166526762Y-62815044D01*
X166672841Y-62754536D01*
X166798282Y-62658282D01*
X166894536Y-62532841D01*
X166955044Y-62386762D01*
X166975682Y-62230000D01*
X166955044Y-62073238D01*
X166914767Y-61976000D01*
X182528318Y-61976000D01*
X182548956Y-62132762D01*
X182609464Y-62278841D01*
X182705718Y-62404282D01*
X182831159Y-62500536D01*
X182977238Y-62561044D01*
X183134000Y-62581682D01*
X183142188Y-62580604D01*
X183282574Y-62562122D01*
X183290762Y-62561044D01*
X183436841Y-62500536D01*
X183562282Y-62404282D01*
X183658536Y-62278841D01*
X183719044Y-62132762D01*
X183739682Y-61976000D01*
X183719044Y-61819238D01*
X183658536Y-61673159D01*
X183562282Y-61547718D01*
X183548656Y-61537262D01*
X183475617Y-61481218D01*
X183436841Y-61451464D01*
X183290762Y-61390956D01*
X183134000Y-61370318D01*
X182977238Y-61390956D01*
X182831159Y-61451464D01*
X182792383Y-61481218D01*
X182719345Y-61537262D01*
X182705718Y-61547718D01*
X182609464Y-61673159D01*
X182548956Y-61819238D01*
X182528318Y-61976000D01*
X166914767Y-61976000D01*
X166894536Y-61927159D01*
X166798282Y-61801718D01*
X166672841Y-61705464D01*
X166667550Y-61703272D01*
X166619364Y-61652738D01*
X166605926Y-61583025D01*
X166632312Y-61517114D01*
X166667224Y-61486863D01*
X166672841Y-61484536D01*
X166798282Y-61388282D01*
X166894536Y-61262841D01*
X166955044Y-61116762D01*
X166975682Y-60960000D01*
X166955044Y-60803238D01*
X166894536Y-60657159D01*
X166798282Y-60531718D01*
X166672841Y-60435464D01*
X166667550Y-60433272D01*
X166619364Y-60382738D01*
X166608234Y-60325000D01*
X208817318Y-60325000D01*
X208837956Y-60481762D01*
X208898464Y-60627841D01*
X208994718Y-60753282D01*
X209120159Y-60849536D01*
X209266238Y-60910044D01*
X209423000Y-60930682D01*
X209431188Y-60929604D01*
X209571574Y-60911122D01*
X209579762Y-60910044D01*
X209725841Y-60849536D01*
X209851282Y-60753282D01*
X209947536Y-60627841D01*
X210008044Y-60481762D01*
X210028682Y-60325000D01*
X210008044Y-60168238D01*
X209947536Y-60022159D01*
X209851282Y-59896718D01*
X209725841Y-59800464D01*
X209579762Y-59739956D01*
X209423000Y-59719318D01*
X209266238Y-59739956D01*
X209120159Y-59800464D01*
X208994718Y-59896718D01*
X208898464Y-60022159D01*
X208837956Y-60168238D01*
X208817318Y-60325000D01*
X166608234Y-60325000D01*
X166605926Y-60313025D01*
X166632312Y-60247114D01*
X166667224Y-60216863D01*
X166672841Y-60214536D01*
X166798282Y-60118282D01*
X166894536Y-59992841D01*
X166955044Y-59846762D01*
X166968442Y-59744993D01*
X172868160Y-59744993D01*
X172873887Y-59752643D01*
X173045042Y-59857528D01*
X173053837Y-59862010D01*
X173263988Y-59949057D01*
X173273373Y-59952106D01*
X173494554Y-60005208D01*
X173504301Y-60006751D01*
X173731070Y-60024598D01*
X173740930Y-60024598D01*
X173967699Y-60006751D01*
X173977446Y-60005208D01*
X174198627Y-59952106D01*
X174208012Y-59949057D01*
X174418163Y-59862010D01*
X174426958Y-59857528D01*
X174594445Y-59754891D01*
X174603907Y-59744433D01*
X174600124Y-59735657D01*
X174554467Y-59690000D01*
X204118318Y-59690000D01*
X204138956Y-59846762D01*
X204199464Y-59992841D01*
X204295718Y-60118282D01*
X204421159Y-60214536D01*
X204567238Y-60275044D01*
X204724000Y-60295682D01*
X204732188Y-60294604D01*
X204872574Y-60276122D01*
X204880762Y-60275044D01*
X205026841Y-60214536D01*
X205152282Y-60118282D01*
X205248536Y-59992841D01*
X205309044Y-59846762D01*
X205329682Y-59690000D01*
X205309044Y-59533238D01*
X205248536Y-59387159D01*
X205152282Y-59261718D01*
X205026841Y-59165464D01*
X204880762Y-59104956D01*
X204724000Y-59084318D01*
X204567238Y-59104956D01*
X204421159Y-59165464D01*
X204295718Y-59261718D01*
X204199464Y-59387159D01*
X204138956Y-59533238D01*
X204118318Y-59690000D01*
X174554467Y-59690000D01*
X173748812Y-58884345D01*
X173734868Y-58876731D01*
X173733035Y-58876862D01*
X173726420Y-58881113D01*
X172874920Y-59732613D01*
X172868160Y-59744993D01*
X166968442Y-59744993D01*
X166975682Y-59690000D01*
X166955044Y-59533238D01*
X166894536Y-59387159D01*
X166798282Y-59261718D01*
X166672841Y-59165464D01*
X166667550Y-59163272D01*
X166619364Y-59112738D01*
X166605926Y-59043025D01*
X166632312Y-58977114D01*
X166667224Y-58946863D01*
X166672841Y-58944536D01*
X166798282Y-58848282D01*
X166894536Y-58722841D01*
X166955044Y-58576762D01*
X166962878Y-58517253D01*
X172223725Y-58517253D01*
X172241572Y-58744022D01*
X172243115Y-58753769D01*
X172296217Y-58974950D01*
X172299266Y-58984335D01*
X172386313Y-59194486D01*
X172390795Y-59203281D01*
X172493432Y-59370768D01*
X172503890Y-59380230D01*
X172512666Y-59376447D01*
X173363978Y-58525135D01*
X173370356Y-58513455D01*
X174100408Y-58513455D01*
X174100539Y-58515288D01*
X174104790Y-58521903D01*
X174956290Y-59373403D01*
X174968670Y-59380163D01*
X174976320Y-59374436D01*
X175081205Y-59203281D01*
X175085687Y-59194486D01*
X175172734Y-58984335D01*
X175175783Y-58974950D01*
X175228885Y-58753769D01*
X175230428Y-58744022D01*
X175248275Y-58517253D01*
X175248275Y-58507393D01*
X175230428Y-58280624D01*
X175228885Y-58270877D01*
X175175783Y-58049696D01*
X175172734Y-58040311D01*
X175085687Y-57830160D01*
X175081205Y-57821365D01*
X175058920Y-57785000D01*
X195863318Y-57785000D01*
X195883956Y-57941762D01*
X195944464Y-58087841D01*
X196040718Y-58213282D01*
X196166159Y-58309536D01*
X196252513Y-58345305D01*
X196304373Y-58366786D01*
X196312238Y-58370044D01*
X196469000Y-58390682D01*
X196477188Y-58389604D01*
X196617574Y-58371122D01*
X196625762Y-58370044D01*
X196633628Y-58366786D01*
X196685487Y-58345305D01*
X196771841Y-58309536D01*
X196897282Y-58213282D01*
X196993536Y-58087841D01*
X197054044Y-57941762D01*
X197074682Y-57785000D01*
X202340318Y-57785000D01*
X202360956Y-57941762D01*
X202421464Y-58087841D01*
X202517718Y-58213282D01*
X202643159Y-58309536D01*
X202729513Y-58345305D01*
X202781373Y-58366786D01*
X202789238Y-58370044D01*
X202946000Y-58390682D01*
X202954188Y-58389604D01*
X203094574Y-58371122D01*
X203102762Y-58370044D01*
X203110628Y-58366786D01*
X203162487Y-58345305D01*
X203248841Y-58309536D01*
X203374282Y-58213282D01*
X203470536Y-58087841D01*
X203531044Y-57941762D01*
X203551682Y-57785000D01*
X203535166Y-57659549D01*
X203532122Y-57636426D01*
X203531044Y-57628238D01*
X203470536Y-57482159D01*
X203374282Y-57356718D01*
X203356801Y-57343304D01*
X203298507Y-57298574D01*
X203248841Y-57260464D01*
X203102762Y-57199956D01*
X202946000Y-57179318D01*
X202789238Y-57199956D01*
X202643159Y-57260464D01*
X202593493Y-57298574D01*
X202535200Y-57343304D01*
X202517718Y-57356718D01*
X202421464Y-57482159D01*
X202360956Y-57628238D01*
X202359878Y-57636426D01*
X202356834Y-57659549D01*
X202340318Y-57785000D01*
X197074682Y-57785000D01*
X197058166Y-57659549D01*
X197055122Y-57636426D01*
X197054044Y-57628238D01*
X196993536Y-57482159D01*
X196897282Y-57356718D01*
X196879801Y-57343304D01*
X196821507Y-57298574D01*
X196771841Y-57260464D01*
X196625762Y-57199956D01*
X196469000Y-57179318D01*
X196312238Y-57199956D01*
X196166159Y-57260464D01*
X196116493Y-57298574D01*
X196058200Y-57343304D01*
X196040718Y-57356718D01*
X195944464Y-57482159D01*
X195883956Y-57628238D01*
X195882878Y-57636426D01*
X195879834Y-57659549D01*
X195863318Y-57785000D01*
X175058920Y-57785000D01*
X174978568Y-57653878D01*
X174968110Y-57644416D01*
X174959334Y-57648199D01*
X174108022Y-58499511D01*
X174100408Y-58513455D01*
X173370356Y-58513455D01*
X173371592Y-58511191D01*
X173371461Y-58509358D01*
X173367210Y-58502743D01*
X172515710Y-57651243D01*
X172503330Y-57644483D01*
X172495680Y-57650210D01*
X172390795Y-57821365D01*
X172386313Y-57830160D01*
X172299266Y-58040311D01*
X172296217Y-58049696D01*
X172243115Y-58270877D01*
X172241572Y-58280624D01*
X172223725Y-58507393D01*
X172223725Y-58517253D01*
X166962878Y-58517253D01*
X166975682Y-58420000D01*
X166955044Y-58263238D01*
X166894536Y-58117159D01*
X166798282Y-57991718D01*
X166672841Y-57895464D01*
X166667550Y-57893272D01*
X166619364Y-57842738D01*
X166605926Y-57773025D01*
X166632312Y-57707114D01*
X166667224Y-57676863D01*
X166672841Y-57674536D01*
X166798282Y-57578282D01*
X166894536Y-57452841D01*
X166955044Y-57306762D01*
X166958539Y-57280213D01*
X172868093Y-57280213D01*
X172871876Y-57288989D01*
X173723188Y-58140301D01*
X173737132Y-58147915D01*
X173738965Y-58147784D01*
X173745580Y-58143533D01*
X174597080Y-57292033D01*
X174603840Y-57279653D01*
X174598113Y-57272003D01*
X174426958Y-57167118D01*
X174418163Y-57162636D01*
X174208012Y-57075589D01*
X174198627Y-57072540D01*
X173977446Y-57019438D01*
X173967699Y-57017895D01*
X173740930Y-57000048D01*
X173731070Y-57000048D01*
X173504301Y-57017895D01*
X173494554Y-57019438D01*
X173273373Y-57072540D01*
X173263988Y-57075589D01*
X173053837Y-57162636D01*
X173045042Y-57167118D01*
X172877555Y-57269755D01*
X172868093Y-57280213D01*
X166958539Y-57280213D01*
X166975682Y-57150000D01*
X166962822Y-57052318D01*
X166956122Y-57001426D01*
X166955044Y-56993238D01*
X166894536Y-56847159D01*
X166798282Y-56721718D01*
X166672841Y-56625464D01*
X166526762Y-56564956D01*
X166370000Y-56544318D01*
X166213238Y-56564956D01*
X166067159Y-56625464D01*
X165941718Y-56721718D01*
X165845464Y-56847159D01*
X165843272Y-56852450D01*
X165792738Y-56900636D01*
X165723025Y-56914074D01*
X165657114Y-56887688D01*
X165626863Y-56852776D01*
X165624536Y-56847159D01*
X165528282Y-56721718D01*
X165402841Y-56625464D01*
X165256762Y-56564956D01*
X165100000Y-56544318D01*
X164943238Y-56564956D01*
X164797159Y-56625464D01*
X164671718Y-56721718D01*
X164575464Y-56847159D01*
X164573272Y-56852450D01*
X164522738Y-56900636D01*
X164453025Y-56914074D01*
X164387114Y-56887688D01*
X164356863Y-56852776D01*
X164354536Y-56847159D01*
X164258282Y-56721718D01*
X164132841Y-56625464D01*
X163986762Y-56564956D01*
X163830000Y-56544318D01*
X163673238Y-56564956D01*
X163527159Y-56625464D01*
X163401718Y-56721718D01*
X163305464Y-56847159D01*
X163244956Y-56993238D01*
X163243878Y-57001426D01*
X163237178Y-57052318D01*
X163224318Y-57150000D01*
X134182391Y-57150000D01*
X134160841Y-57133464D01*
X134014762Y-57072956D01*
X133858000Y-57052318D01*
X133701238Y-57072956D01*
X133555159Y-57133464D01*
X133429718Y-57229718D01*
X133333464Y-57355159D01*
X133272956Y-57501238D01*
X133252318Y-57658000D01*
X132359749Y-57658000D01*
X132322536Y-57568159D01*
X132226282Y-57442718D01*
X132100841Y-57346464D01*
X131954762Y-57285956D01*
X131798000Y-57265318D01*
X131641238Y-57285956D01*
X131495159Y-57346464D01*
X131369718Y-57442718D01*
X131273464Y-57568159D01*
X131212956Y-57714238D01*
X131192318Y-57871000D01*
X130394284Y-57871000D01*
X130379044Y-57755238D01*
X130318536Y-57609159D01*
X130222282Y-57483718D01*
X130206722Y-57471778D01*
X130162303Y-57437695D01*
X130096841Y-57387464D01*
X129950762Y-57326956D01*
X129794000Y-57306318D01*
X129637238Y-57326956D01*
X129491159Y-57387464D01*
X129425697Y-57437695D01*
X129381279Y-57471778D01*
X129365718Y-57483718D01*
X129269464Y-57609159D01*
X129208956Y-57755238D01*
X129188318Y-57912000D01*
X117902471Y-57912000D01*
X117875637Y-57847217D01*
X117868048Y-57776629D01*
X117899827Y-57713142D01*
X117960885Y-57676914D01*
X117992046Y-57673000D01*
X118417890Y-57673000D01*
X118424035Y-57672700D01*
X118565481Y-57658830D01*
X118577519Y-57656447D01*
X118759651Y-57601458D01*
X118770993Y-57596783D01*
X118938977Y-57507465D01*
X118949193Y-57500678D01*
X119096634Y-57380428D01*
X119105338Y-57371784D01*
X119226610Y-57225191D01*
X119233470Y-57215020D01*
X119323962Y-57047658D01*
X119328714Y-57036353D01*
X119367422Y-56911308D01*
X119367628Y-56897205D01*
X119360873Y-56894000D01*
X116336014Y-56894000D01*
X116322483Y-56897973D01*
X116321363Y-56905768D01*
X115136331Y-56905768D01*
X115136456Y-56897205D01*
X115129701Y-56894000D01*
X113937115Y-56894000D01*
X113921876Y-56898475D01*
X113920671Y-56899865D01*
X113919000Y-56907548D01*
X113919000Y-57629885D01*
X113411000Y-57629885D01*
X113411000Y-56912115D01*
X113406525Y-56896876D01*
X113405135Y-56895671D01*
X113397452Y-56894000D01*
X112207076Y-56894000D01*
X112193545Y-56897973D01*
X112192425Y-56905768D01*
X111417000Y-56905768D01*
X111417000Y-56388000D01*
X130204318Y-56388000D01*
X130224956Y-56544762D01*
X130285464Y-56690841D01*
X130381718Y-56816282D01*
X130507159Y-56912536D01*
X130653238Y-56973044D01*
X130810000Y-56993682D01*
X130818188Y-56992604D01*
X130958574Y-56974122D01*
X130966762Y-56973044D01*
X131112841Y-56912536D01*
X131238282Y-56816282D01*
X131334536Y-56690841D01*
X131395044Y-56544762D01*
X131415682Y-56388000D01*
X131395044Y-56231238D01*
X131334536Y-56085159D01*
X131238282Y-55959718D01*
X131112841Y-55863464D01*
X130966762Y-55802956D01*
X130810000Y-55782318D01*
X130653238Y-55802956D01*
X130507159Y-55863464D01*
X130381718Y-55959718D01*
X130285464Y-56085159D01*
X130224956Y-56231238D01*
X130204318Y-56388000D01*
X111417000Y-56388000D01*
X111417000Y-56382795D01*
X112193544Y-56382795D01*
X112200299Y-56386000D01*
X113392885Y-56386000D01*
X113408124Y-56381525D01*
X113409329Y-56380135D01*
X113411000Y-56372452D01*
X113411000Y-56367885D01*
X113919000Y-56367885D01*
X113923475Y-56383124D01*
X113924865Y-56384329D01*
X113932548Y-56386000D01*
X115122924Y-56386000D01*
X115133839Y-56382795D01*
X116322372Y-56382795D01*
X116329127Y-56386000D01*
X117572885Y-56386000D01*
X117588124Y-56381525D01*
X117589329Y-56380135D01*
X117591000Y-56372452D01*
X117591000Y-56367885D01*
X118099000Y-56367885D01*
X118103475Y-56383124D01*
X118104865Y-56384329D01*
X118112548Y-56386000D01*
X119353986Y-56386000D01*
X119367517Y-56382027D01*
X119368637Y-56374232D01*
X119334154Y-56257068D01*
X119329561Y-56245700D01*
X119241414Y-56077089D01*
X119234698Y-56066827D01*
X119115485Y-55918557D01*
X119106897Y-55909787D01*
X118961162Y-55787501D01*
X118951031Y-55780563D01*
X118784308Y-55688906D01*
X118773038Y-55684076D01*
X118591685Y-55626548D01*
X118579691Y-55623998D01*
X118431650Y-55607393D01*
X118424626Y-55607000D01*
X118117115Y-55607000D01*
X118101876Y-55611475D01*
X118100671Y-55612865D01*
X118099000Y-55620548D01*
X118099000Y-56367885D01*
X117591000Y-56367885D01*
X117591000Y-55625115D01*
X117586525Y-55609876D01*
X117585135Y-55608671D01*
X117577452Y-55607000D01*
X117272110Y-55607000D01*
X117265965Y-55607300D01*
X117124519Y-55621170D01*
X117112481Y-55623553D01*
X116930349Y-55678542D01*
X116919007Y-55683217D01*
X116751023Y-55772535D01*
X116740807Y-55779322D01*
X116593366Y-55899572D01*
X116584662Y-55908216D01*
X116463390Y-56054809D01*
X116456530Y-56064980D01*
X116366038Y-56232342D01*
X116361286Y-56243647D01*
X116322578Y-56368692D01*
X116322372Y-56382795D01*
X115133839Y-56382795D01*
X115136455Y-56382027D01*
X115137575Y-56374232D01*
X115105862Y-56266479D01*
X115101269Y-56255111D01*
X115015393Y-56090846D01*
X115008679Y-56080585D01*
X114892532Y-55936127D01*
X114883954Y-55927368D01*
X114741961Y-55808222D01*
X114731841Y-55801292D01*
X114569415Y-55711998D01*
X114558142Y-55707166D01*
X114381462Y-55651120D01*
X114369468Y-55648570D01*
X114225239Y-55632393D01*
X114218215Y-55632000D01*
X113937115Y-55632000D01*
X113921876Y-55636475D01*
X113920671Y-55637865D01*
X113919000Y-55645548D01*
X113919000Y-56367885D01*
X113411000Y-56367885D01*
X113411000Y-55650115D01*
X113406525Y-55634876D01*
X113405135Y-55633671D01*
X113397452Y-55632000D01*
X113118343Y-55632000D01*
X113112195Y-55632301D01*
X112974397Y-55645812D01*
X112962362Y-55648195D01*
X112784924Y-55701767D01*
X112773584Y-55706441D01*
X112609923Y-55793460D01*
X112599706Y-55800249D01*
X112456067Y-55917397D01*
X112447363Y-55926041D01*
X112329216Y-56068856D01*
X112322356Y-56079027D01*
X112234196Y-56242076D01*
X112229444Y-56253381D01*
X112193750Y-56368692D01*
X112193544Y-56382795D01*
X111417000Y-56382795D01*
X111417000Y-54610000D01*
X168304318Y-54610000D01*
X168324956Y-54766762D01*
X168385464Y-54912841D01*
X168481718Y-55038282D01*
X168607159Y-55134536D01*
X168753238Y-55195044D01*
X168910000Y-55215682D01*
X168918188Y-55214604D01*
X169058574Y-55196122D01*
X169066762Y-55195044D01*
X169212841Y-55134536D01*
X169338282Y-55038282D01*
X169434536Y-54912841D01*
X169436728Y-54907550D01*
X169487262Y-54859364D01*
X169556975Y-54845926D01*
X169622886Y-54872312D01*
X169653137Y-54907224D01*
X169655464Y-54912841D01*
X169751718Y-55038282D01*
X169877159Y-55134536D01*
X170023238Y-55195044D01*
X170180000Y-55215682D01*
X170188188Y-55214604D01*
X170328574Y-55196122D01*
X170336762Y-55195044D01*
X170482841Y-55134536D01*
X170608282Y-55038282D01*
X170704536Y-54912841D01*
X170706728Y-54907550D01*
X170757262Y-54859364D01*
X170826975Y-54845926D01*
X170892886Y-54872312D01*
X170923137Y-54907224D01*
X170925464Y-54912841D01*
X171021718Y-55038282D01*
X171147159Y-55134536D01*
X171293238Y-55195044D01*
X171450000Y-55215682D01*
X171458188Y-55214604D01*
X171598574Y-55196122D01*
X171606762Y-55195044D01*
X171752841Y-55134536D01*
X171878282Y-55038282D01*
X171974536Y-54912841D01*
X172035044Y-54766762D01*
X172055682Y-54610000D01*
X172045423Y-54532071D01*
X172535500Y-54532071D01*
X172547133Y-54590554D01*
X172591448Y-54656875D01*
X172657769Y-54701190D01*
X172669938Y-54703611D01*
X172669939Y-54703611D01*
X172690406Y-54707682D01*
X172716252Y-54712823D01*
X174755748Y-54712823D01*
X174781594Y-54707682D01*
X174802061Y-54703611D01*
X174802062Y-54703611D01*
X174814231Y-54701190D01*
X174880552Y-54656875D01*
X174911873Y-54610000D01*
X175924318Y-54610000D01*
X175944956Y-54766762D01*
X176005464Y-54912841D01*
X176101718Y-55038282D01*
X176227159Y-55134536D01*
X176373238Y-55195044D01*
X176530000Y-55215682D01*
X176538188Y-55214604D01*
X176678574Y-55196122D01*
X176686762Y-55195044D01*
X176832841Y-55134536D01*
X176958282Y-55038282D01*
X177054536Y-54912841D01*
X177056728Y-54907550D01*
X177107262Y-54859364D01*
X177176975Y-54845926D01*
X177242886Y-54872312D01*
X177273137Y-54907224D01*
X177275464Y-54912841D01*
X177371718Y-55038282D01*
X177497159Y-55134536D01*
X177643238Y-55195044D01*
X177800000Y-55215682D01*
X177808188Y-55214604D01*
X177948574Y-55196122D01*
X177956762Y-55195044D01*
X178102841Y-55134536D01*
X178228282Y-55038282D01*
X178324536Y-54912841D01*
X178385044Y-54766762D01*
X178405682Y-54610000D01*
X178385044Y-54453238D01*
X178324536Y-54307159D01*
X178228282Y-54181718D01*
X178124391Y-54102000D01*
X197006318Y-54102000D01*
X197026956Y-54258762D01*
X197087464Y-54404841D01*
X197183718Y-54530282D01*
X197309159Y-54626536D01*
X197455238Y-54687044D01*
X197612000Y-54707682D01*
X197620188Y-54706604D01*
X197760574Y-54688122D01*
X197768762Y-54687044D01*
X197914841Y-54626536D01*
X198040282Y-54530282D01*
X198136536Y-54404841D01*
X198197044Y-54258762D01*
X198217682Y-54102000D01*
X198197044Y-53945238D01*
X198156767Y-53848000D01*
X205388318Y-53848000D01*
X205408956Y-54004762D01*
X205469464Y-54150841D01*
X205565718Y-54276282D01*
X205691159Y-54372536D01*
X205837238Y-54433044D01*
X205994000Y-54453682D01*
X206002188Y-54452604D01*
X206142574Y-54434122D01*
X206150762Y-54433044D01*
X206296841Y-54372536D01*
X206422282Y-54276282D01*
X206518536Y-54150841D01*
X206579044Y-54004762D01*
X206599682Y-53848000D01*
X207420318Y-53848000D01*
X207440956Y-54004762D01*
X207501464Y-54150841D01*
X207597718Y-54276282D01*
X207723159Y-54372536D01*
X207869238Y-54433044D01*
X208026000Y-54453682D01*
X208034188Y-54452604D01*
X208174574Y-54434122D01*
X208182762Y-54433044D01*
X208328841Y-54372536D01*
X208454282Y-54276282D01*
X208550536Y-54150841D01*
X208611044Y-54004762D01*
X208631682Y-53848000D01*
X208611044Y-53691238D01*
X208550536Y-53545159D01*
X208454282Y-53419718D01*
X208328841Y-53323464D01*
X208182762Y-53262956D01*
X208026000Y-53242318D01*
X207869238Y-53262956D01*
X207723159Y-53323464D01*
X207597718Y-53419718D01*
X207501464Y-53545159D01*
X207440956Y-53691238D01*
X207420318Y-53848000D01*
X206599682Y-53848000D01*
X206579044Y-53691238D01*
X206518536Y-53545159D01*
X206422282Y-53419718D01*
X206296841Y-53323464D01*
X206150762Y-53262956D01*
X205994000Y-53242318D01*
X205837238Y-53262956D01*
X205691159Y-53323464D01*
X205565718Y-53419718D01*
X205469464Y-53545159D01*
X205408956Y-53691238D01*
X205388318Y-53848000D01*
X198156767Y-53848000D01*
X198136536Y-53799159D01*
X198040282Y-53673718D01*
X197914841Y-53577464D01*
X197768762Y-53516956D01*
X197612000Y-53496318D01*
X197455238Y-53516956D01*
X197309159Y-53577464D01*
X197183718Y-53673718D01*
X197087464Y-53799159D01*
X197026956Y-53945238D01*
X197006318Y-54102000D01*
X178124391Y-54102000D01*
X178102841Y-54085464D01*
X178097550Y-54083272D01*
X178049364Y-54032738D01*
X178035926Y-53963025D01*
X178062312Y-53897114D01*
X178097224Y-53866863D01*
X178102841Y-53864536D01*
X178228282Y-53768282D01*
X178324536Y-53642841D01*
X178385044Y-53496762D01*
X178405682Y-53340000D01*
X178385044Y-53183238D01*
X178324536Y-53037159D01*
X178228282Y-52911718D01*
X178102841Y-52815464D01*
X178097550Y-52813272D01*
X178049364Y-52762738D01*
X178035926Y-52693025D01*
X178062312Y-52627114D01*
X178097224Y-52596863D01*
X178102841Y-52594536D01*
X178228282Y-52498282D01*
X178324536Y-52372841D01*
X178385044Y-52226762D01*
X178405682Y-52070000D01*
X178385044Y-51913238D01*
X178324536Y-51767159D01*
X178228282Y-51641718D01*
X178102841Y-51545464D01*
X177956762Y-51484956D01*
X177800000Y-51464318D01*
X177643238Y-51484956D01*
X177497159Y-51545464D01*
X177371718Y-51641718D01*
X177275464Y-51767159D01*
X177273272Y-51772450D01*
X177222738Y-51820636D01*
X177153025Y-51834074D01*
X177087114Y-51807688D01*
X177056863Y-51772776D01*
X177054536Y-51767159D01*
X176958282Y-51641718D01*
X176832841Y-51545464D01*
X176686762Y-51484956D01*
X176530000Y-51464318D01*
X176373238Y-51484956D01*
X176227159Y-51545464D01*
X176101718Y-51641718D01*
X176005464Y-51767159D01*
X175944956Y-51913238D01*
X175924318Y-52070000D01*
X175944956Y-52226762D01*
X176005464Y-52372841D01*
X176101718Y-52498282D01*
X176227159Y-52594536D01*
X176232450Y-52596728D01*
X176280636Y-52647262D01*
X176294074Y-52716975D01*
X176267688Y-52782886D01*
X176232776Y-52813137D01*
X176227159Y-52815464D01*
X176101718Y-52911718D01*
X176005464Y-53037159D01*
X175944956Y-53183238D01*
X175924318Y-53340000D01*
X175944956Y-53496762D01*
X176005464Y-53642841D01*
X176101718Y-53768282D01*
X176227159Y-53864536D01*
X176232450Y-53866728D01*
X176280636Y-53917262D01*
X176294074Y-53986975D01*
X176267688Y-54052886D01*
X176232776Y-54083137D01*
X176227159Y-54085464D01*
X176101718Y-54181718D01*
X176005464Y-54307159D01*
X175944956Y-54453238D01*
X175924318Y-54610000D01*
X174911873Y-54610000D01*
X174924867Y-54590554D01*
X174936500Y-54532071D01*
X174936500Y-52492575D01*
X174924867Y-52434092D01*
X174880552Y-52367771D01*
X174814231Y-52323456D01*
X174802062Y-52321035D01*
X174802061Y-52321035D01*
X174761816Y-52313030D01*
X174755748Y-52311823D01*
X172716252Y-52311823D01*
X172710184Y-52313030D01*
X172669939Y-52321035D01*
X172669938Y-52321035D01*
X172657769Y-52323456D01*
X172591448Y-52367771D01*
X172547133Y-52434092D01*
X172535500Y-52492575D01*
X172535500Y-54532071D01*
X172045423Y-54532071D01*
X172035044Y-54453238D01*
X171974536Y-54307159D01*
X171878282Y-54181718D01*
X171752841Y-54085464D01*
X171747550Y-54083272D01*
X171699364Y-54032738D01*
X171685926Y-53963025D01*
X171712312Y-53897114D01*
X171747224Y-53866863D01*
X171752841Y-53864536D01*
X171878282Y-53768282D01*
X171974536Y-53642841D01*
X172035044Y-53496762D01*
X172055682Y-53340000D01*
X172035044Y-53183238D01*
X171974536Y-53037159D01*
X171878282Y-52911718D01*
X171752841Y-52815464D01*
X171747550Y-52813272D01*
X171699364Y-52762738D01*
X171685926Y-52693025D01*
X171712312Y-52627114D01*
X171747224Y-52596863D01*
X171752841Y-52594536D01*
X171878282Y-52498282D01*
X171974536Y-52372841D01*
X172035044Y-52226762D01*
X172055682Y-52070000D01*
X172035044Y-51913238D01*
X171974536Y-51767159D01*
X171878282Y-51641718D01*
X171752841Y-51545464D01*
X171606762Y-51484956D01*
X171450000Y-51464318D01*
X171293238Y-51484956D01*
X171147159Y-51545464D01*
X171021718Y-51641718D01*
X170925464Y-51767159D01*
X170923272Y-51772450D01*
X170872738Y-51820636D01*
X170803025Y-51834074D01*
X170737114Y-51807688D01*
X170706863Y-51772776D01*
X170704536Y-51767159D01*
X170608282Y-51641718D01*
X170482841Y-51545464D01*
X170336762Y-51484956D01*
X170180000Y-51464318D01*
X170023238Y-51484956D01*
X169877159Y-51545464D01*
X169751718Y-51641718D01*
X169655464Y-51767159D01*
X169653272Y-51772450D01*
X169602738Y-51820636D01*
X169533025Y-51834074D01*
X169467114Y-51807688D01*
X169436863Y-51772776D01*
X169434536Y-51767159D01*
X169338282Y-51641718D01*
X169212841Y-51545464D01*
X169066762Y-51484956D01*
X168910000Y-51464318D01*
X168753238Y-51484956D01*
X168607159Y-51545464D01*
X168481718Y-51641718D01*
X168385464Y-51767159D01*
X168324956Y-51913238D01*
X168304318Y-52070000D01*
X168324956Y-52226762D01*
X168385464Y-52372841D01*
X168481718Y-52498282D01*
X168607159Y-52594536D01*
X168612450Y-52596728D01*
X168660636Y-52647262D01*
X168674074Y-52716975D01*
X168647688Y-52782886D01*
X168612776Y-52813137D01*
X168607159Y-52815464D01*
X168481718Y-52911718D01*
X168385464Y-53037159D01*
X168324956Y-53183238D01*
X168304318Y-53340000D01*
X168324956Y-53496762D01*
X168385464Y-53642841D01*
X168481718Y-53768282D01*
X168607159Y-53864536D01*
X168612450Y-53866728D01*
X168660636Y-53917262D01*
X168674074Y-53986975D01*
X168647688Y-54052886D01*
X168612776Y-54083137D01*
X168607159Y-54085464D01*
X168481718Y-54181718D01*
X168385464Y-54307159D01*
X168324956Y-54453238D01*
X168304318Y-54610000D01*
X111417000Y-54610000D01*
X111417000Y-49637165D01*
X115087866Y-49637165D01*
X115122952Y-49894970D01*
X115195758Y-50144757D01*
X115304686Y-50381039D01*
X115307246Y-50384944D01*
X115307249Y-50384949D01*
X115444775Y-50594712D01*
X115444779Y-50594717D01*
X115447341Y-50598625D01*
X115620591Y-50792735D01*
X115820629Y-50959105D01*
X116043061Y-51094080D01*
X116047375Y-51095889D01*
X116047377Y-51095890D01*
X116278686Y-51192886D01*
X116278691Y-51192888D01*
X116283001Y-51194695D01*
X116287533Y-51195846D01*
X116287536Y-51195847D01*
X116412815Y-51227663D01*
X116535177Y-51258739D01*
X116751286Y-51280500D01*
X116906044Y-51280500D01*
X116908369Y-51280327D01*
X116908375Y-51280327D01*
X117094814Y-51266472D01*
X117094818Y-51266471D01*
X117099466Y-51266126D01*
X117353232Y-51208705D01*
X117357586Y-51207012D01*
X117591370Y-51116098D01*
X117591372Y-51116097D01*
X117595723Y-51114405D01*
X117631285Y-51094080D01*
X117679038Y-51066786D01*
X117821612Y-50985299D01*
X118025936Y-50824223D01*
X118204208Y-50634714D01*
X118352511Y-50420937D01*
X118370258Y-50384949D01*
X118416095Y-50292000D01*
X196244318Y-50292000D01*
X196264956Y-50448762D01*
X196325464Y-50594841D01*
X196421718Y-50720282D01*
X196547159Y-50816536D01*
X196693238Y-50877044D01*
X196850000Y-50897682D01*
X196858188Y-50896604D01*
X196998574Y-50878122D01*
X197006762Y-50877044D01*
X197152841Y-50816536D01*
X197278282Y-50720282D01*
X197374536Y-50594841D01*
X197376728Y-50589550D01*
X197427262Y-50541364D01*
X197496975Y-50527926D01*
X197562886Y-50554312D01*
X197593137Y-50589224D01*
X197595464Y-50594841D01*
X197691718Y-50720282D01*
X197817159Y-50816536D01*
X197963238Y-50877044D01*
X198120000Y-50897682D01*
X198128188Y-50896604D01*
X198268574Y-50878122D01*
X198276762Y-50877044D01*
X198422841Y-50816536D01*
X198548282Y-50720282D01*
X198644536Y-50594841D01*
X198705044Y-50448762D01*
X198725682Y-50292000D01*
X198705044Y-50135238D01*
X198644536Y-49989159D01*
X198548282Y-49863718D01*
X198422841Y-49767464D01*
X198276762Y-49706956D01*
X198120000Y-49686318D01*
X197963238Y-49706956D01*
X197817159Y-49767464D01*
X197691718Y-49863718D01*
X197595464Y-49989159D01*
X197593272Y-49994450D01*
X197542738Y-50042636D01*
X197473025Y-50056074D01*
X197407114Y-50029688D01*
X197376863Y-49994776D01*
X197374536Y-49989159D01*
X197278282Y-49863718D01*
X197152841Y-49767464D01*
X197006762Y-49706956D01*
X196850000Y-49686318D01*
X196693238Y-49706956D01*
X196547159Y-49767464D01*
X196421718Y-49863718D01*
X196325464Y-49989159D01*
X196264956Y-50135238D01*
X196244318Y-50292000D01*
X118416095Y-50292000D01*
X118465521Y-50191775D01*
X118465522Y-50191772D01*
X118467586Y-50187587D01*
X118546906Y-49939792D01*
X118588728Y-49682994D01*
X118590731Y-49530000D01*
X191926318Y-49530000D01*
X191946956Y-49686762D01*
X192007464Y-49832841D01*
X192103718Y-49958282D01*
X192229159Y-50054536D01*
X192375238Y-50115044D01*
X192532000Y-50135682D01*
X192540188Y-50134604D01*
X192680574Y-50116122D01*
X192688762Y-50115044D01*
X192834841Y-50054536D01*
X192960282Y-49958282D01*
X193056536Y-49832841D01*
X193117044Y-49686762D01*
X193123574Y-49637165D01*
X203987866Y-49637165D01*
X204022952Y-49894970D01*
X204095758Y-50144757D01*
X204204686Y-50381039D01*
X204207246Y-50384944D01*
X204207249Y-50384949D01*
X204344775Y-50594712D01*
X204344779Y-50594717D01*
X204347341Y-50598625D01*
X204520591Y-50792735D01*
X204720629Y-50959105D01*
X204943061Y-51094080D01*
X204947375Y-51095889D01*
X204947377Y-51095890D01*
X205178686Y-51192886D01*
X205178691Y-51192888D01*
X205183001Y-51194695D01*
X205187533Y-51195846D01*
X205187536Y-51195847D01*
X205312815Y-51227663D01*
X205435177Y-51258739D01*
X205651286Y-51280500D01*
X205806044Y-51280500D01*
X205808369Y-51280327D01*
X205808375Y-51280327D01*
X205994814Y-51266472D01*
X205994818Y-51266471D01*
X205999466Y-51266126D01*
X206253232Y-51208705D01*
X206257586Y-51207012D01*
X206491370Y-51116098D01*
X206491372Y-51116097D01*
X206495723Y-51114405D01*
X206531285Y-51094080D01*
X206579038Y-51066786D01*
X206721612Y-50985299D01*
X206925936Y-50824223D01*
X207104208Y-50634714D01*
X207252511Y-50420937D01*
X207270258Y-50384949D01*
X207365521Y-50191775D01*
X207365522Y-50191772D01*
X207367586Y-50187587D01*
X207446906Y-49939792D01*
X207488728Y-49682994D01*
X207492134Y-49422835D01*
X207457048Y-49165030D01*
X207455618Y-49160122D01*
X207395749Y-48954722D01*
X207384242Y-48915243D01*
X207378379Y-48902524D01*
X207325286Y-48787358D01*
X207275314Y-48678961D01*
X207272751Y-48675051D01*
X207135225Y-48465288D01*
X207135221Y-48465283D01*
X207132659Y-48461375D01*
X207046034Y-48364320D01*
X206962526Y-48270757D01*
X206962524Y-48270755D01*
X206959409Y-48267265D01*
X206759371Y-48100895D01*
X206536939Y-47965920D01*
X206532623Y-47964110D01*
X206301314Y-47867114D01*
X206301309Y-47867112D01*
X206296999Y-47865305D01*
X206292467Y-47864154D01*
X206292464Y-47864153D01*
X206167185Y-47832337D01*
X206044823Y-47801261D01*
X205828714Y-47779500D01*
X205673956Y-47779500D01*
X205671631Y-47779673D01*
X205671625Y-47779673D01*
X205485186Y-47793528D01*
X205485182Y-47793529D01*
X205480534Y-47793874D01*
X205226768Y-47851295D01*
X205222416Y-47852987D01*
X205222414Y-47852988D01*
X204988630Y-47943902D01*
X204988628Y-47943903D01*
X204984277Y-47945595D01*
X204980223Y-47947912D01*
X204980221Y-47947913D01*
X204944467Y-47968348D01*
X204758388Y-48074701D01*
X204554064Y-48235777D01*
X204375792Y-48425286D01*
X204270369Y-48577252D01*
X204237103Y-48625205D01*
X204227489Y-48639063D01*
X204225423Y-48643253D01*
X204225421Y-48643256D01*
X204115710Y-48865730D01*
X204112414Y-48872413D01*
X204110992Y-48876856D01*
X204110991Y-48876858D01*
X204097083Y-48920307D01*
X204033094Y-49120208D01*
X204016657Y-49221138D01*
X203999335Y-49327500D01*
X203991272Y-49377006D01*
X203987866Y-49637165D01*
X193123574Y-49637165D01*
X193137682Y-49530000D01*
X193117044Y-49373238D01*
X193056536Y-49227159D01*
X192960282Y-49101718D01*
X192834841Y-49005464D01*
X192688762Y-48944956D01*
X192532000Y-48924318D01*
X192375238Y-48944956D01*
X192229159Y-49005464D01*
X192103718Y-49101718D01*
X192007464Y-49227159D01*
X191946956Y-49373238D01*
X191926318Y-49530000D01*
X118590731Y-49530000D01*
X118592134Y-49422835D01*
X118557048Y-49165030D01*
X118555618Y-49160122D01*
X118495749Y-48954722D01*
X118484242Y-48915243D01*
X118478379Y-48902524D01*
X118425286Y-48787358D01*
X118375314Y-48678961D01*
X118372751Y-48675051D01*
X118273127Y-48523098D01*
X148358000Y-48523098D01*
X148358337Y-48529613D01*
X148368256Y-48625205D01*
X148371150Y-48638604D01*
X148422588Y-48792785D01*
X148428762Y-48805964D01*
X148514063Y-48943810D01*
X148523099Y-48955209D01*
X148637828Y-49069738D01*
X148649239Y-49078750D01*
X148787242Y-49163816D01*
X148800423Y-49169963D01*
X148954709Y-49221138D01*
X148968085Y-49224005D01*
X149062437Y-49233672D01*
X149068853Y-49234000D01*
X150143885Y-49234000D01*
X150159124Y-49229525D01*
X150160329Y-49228135D01*
X150162000Y-49220452D01*
X150162000Y-49215885D01*
X150670000Y-49215885D01*
X150674475Y-49231124D01*
X150675865Y-49232329D01*
X150683548Y-49234000D01*
X151763098Y-49234000D01*
X151769613Y-49233663D01*
X151865205Y-49223744D01*
X151878604Y-49220850D01*
X152032785Y-49169412D01*
X152045964Y-49163238D01*
X152183810Y-49077937D01*
X152195209Y-49068901D01*
X152309738Y-48954172D01*
X152318750Y-48942761D01*
X152403816Y-48804758D01*
X152409963Y-48791577D01*
X152461138Y-48637291D01*
X152464005Y-48623915D01*
X152473672Y-48529563D01*
X152474000Y-48523147D01*
X152474000Y-47448115D01*
X152469525Y-47432876D01*
X152468135Y-47431671D01*
X152460452Y-47430000D01*
X150688115Y-47430000D01*
X150672876Y-47434475D01*
X150671671Y-47435865D01*
X150670000Y-47443548D01*
X150670000Y-49215885D01*
X150162000Y-49215885D01*
X150162000Y-47448115D01*
X150157525Y-47432876D01*
X150156135Y-47431671D01*
X150148452Y-47430000D01*
X148376115Y-47430000D01*
X148360876Y-47434475D01*
X148359671Y-47435865D01*
X148358000Y-47443548D01*
X148358000Y-48523098D01*
X118273127Y-48523098D01*
X118235225Y-48465288D01*
X118235221Y-48465283D01*
X118232659Y-48461375D01*
X118146034Y-48364320D01*
X118062526Y-48270757D01*
X118062524Y-48270755D01*
X118059409Y-48267265D01*
X117859371Y-48100895D01*
X117636939Y-47965920D01*
X117632623Y-47964110D01*
X117401314Y-47867114D01*
X117401309Y-47867112D01*
X117396999Y-47865305D01*
X117392467Y-47864154D01*
X117392464Y-47864153D01*
X117267185Y-47832337D01*
X117144823Y-47801261D01*
X116928714Y-47779500D01*
X116773956Y-47779500D01*
X116771631Y-47779673D01*
X116771625Y-47779673D01*
X116585186Y-47793528D01*
X116585182Y-47793529D01*
X116580534Y-47793874D01*
X116326768Y-47851295D01*
X116322416Y-47852987D01*
X116322414Y-47852988D01*
X116088630Y-47943902D01*
X116088628Y-47943903D01*
X116084277Y-47945595D01*
X116080223Y-47947912D01*
X116080221Y-47947913D01*
X116044467Y-47968348D01*
X115858388Y-48074701D01*
X115654064Y-48235777D01*
X115475792Y-48425286D01*
X115370369Y-48577252D01*
X115337103Y-48625205D01*
X115327489Y-48639063D01*
X115325423Y-48643253D01*
X115325421Y-48643256D01*
X115215710Y-48865730D01*
X115212414Y-48872413D01*
X115210992Y-48876856D01*
X115210991Y-48876858D01*
X115197083Y-48920307D01*
X115133094Y-49120208D01*
X115116657Y-49221138D01*
X115099335Y-49327500D01*
X115091272Y-49377006D01*
X115087866Y-49637165D01*
X111417000Y-49637165D01*
X111417000Y-47130049D01*
X154661194Y-47130049D01*
X154661418Y-47134715D01*
X154661418Y-47134720D01*
X154662363Y-47154391D01*
X154673677Y-47389930D01*
X154724435Y-47645112D01*
X154812355Y-47889989D01*
X154935504Y-48119180D01*
X154938299Y-48122923D01*
X154938301Y-48122926D01*
X155088385Y-48323913D01*
X155088390Y-48323919D01*
X155091177Y-48327651D01*
X155094486Y-48330931D01*
X155094491Y-48330937D01*
X155272637Y-48507535D01*
X155275954Y-48510823D01*
X155279716Y-48513581D01*
X155279719Y-48513584D01*
X155448435Y-48637291D01*
X155485775Y-48664670D01*
X155489910Y-48666846D01*
X155489914Y-48666848D01*
X155615774Y-48733066D01*
X155716033Y-48785815D01*
X155770278Y-48804758D01*
X155955648Y-48869492D01*
X155961667Y-48871594D01*
X155966260Y-48872466D01*
X156212693Y-48919253D01*
X156212696Y-48919253D01*
X156217282Y-48920124D01*
X156347272Y-48925231D01*
X156472595Y-48930156D01*
X156472601Y-48930156D01*
X156477263Y-48930339D01*
X156578489Y-48919253D01*
X156731245Y-48902524D01*
X156731250Y-48902523D01*
X156735898Y-48902014D01*
X156847221Y-48872705D01*
X156982982Y-48836962D01*
X156982984Y-48836961D01*
X156987505Y-48835771D01*
X157059690Y-48804758D01*
X157222263Y-48734911D01*
X157222265Y-48734910D01*
X157226557Y-48733066D01*
X157447803Y-48596155D01*
X157646382Y-48428046D01*
X157817931Y-48232431D01*
X157958683Y-48013608D01*
X158065544Y-47776385D01*
X158072422Y-47752000D01*
X180791628Y-47752000D01*
X180811085Y-47999225D01*
X180812239Y-48004032D01*
X180812240Y-48004038D01*
X180835494Y-48100895D01*
X180868977Y-48240362D01*
X180870870Y-48244933D01*
X180870871Y-48244935D01*
X180959077Y-48457883D01*
X180963878Y-48469474D01*
X181093452Y-48680919D01*
X181254508Y-48869492D01*
X181443081Y-49030548D01*
X181654526Y-49160122D01*
X181659096Y-49162015D01*
X181659100Y-49162017D01*
X181879065Y-49253129D01*
X181883638Y-49255023D01*
X181967792Y-49275227D01*
X182119962Y-49311760D01*
X182119968Y-49311761D01*
X182124775Y-49312915D01*
X182372000Y-49332372D01*
X182619225Y-49312915D01*
X182624032Y-49311761D01*
X182624038Y-49311760D01*
X182776208Y-49275227D01*
X182860362Y-49255023D01*
X182864935Y-49253129D01*
X183084900Y-49162017D01*
X183084904Y-49162015D01*
X183089474Y-49160122D01*
X183300919Y-49030548D01*
X183417669Y-48930834D01*
X186196500Y-48930834D01*
X186199481Y-48962369D01*
X186244366Y-49090184D01*
X186249958Y-49097754D01*
X186249959Y-49097757D01*
X186297423Y-49162017D01*
X186324850Y-49199150D01*
X186332421Y-49204742D01*
X186426243Y-49274041D01*
X186426246Y-49274042D01*
X186433816Y-49279634D01*
X186561631Y-49324519D01*
X186569277Y-49325242D01*
X186569278Y-49325242D01*
X186575248Y-49325806D01*
X186593166Y-49327500D01*
X188950834Y-49327500D01*
X188968752Y-49325806D01*
X188974722Y-49325242D01*
X188974723Y-49325242D01*
X188982369Y-49324519D01*
X189110184Y-49279634D01*
X189117754Y-49274042D01*
X189117757Y-49274041D01*
X189211579Y-49204742D01*
X189219150Y-49199150D01*
X189246577Y-49162017D01*
X189294041Y-49097757D01*
X189294042Y-49097754D01*
X189299634Y-49090184D01*
X189344519Y-48962369D01*
X189347500Y-48930834D01*
X189347500Y-46990000D01*
X195990318Y-46990000D01*
X196010956Y-47146762D01*
X196071464Y-47292841D01*
X196167718Y-47418282D01*
X196293159Y-47514536D01*
X196439238Y-47575044D01*
X196596000Y-47595682D01*
X196604188Y-47594604D01*
X196744574Y-47576122D01*
X196752762Y-47575044D01*
X196898841Y-47514536D01*
X197024282Y-47418282D01*
X197120536Y-47292841D01*
X197181044Y-47146762D01*
X197201682Y-46990000D01*
X197181044Y-46833238D01*
X197120536Y-46687159D01*
X197024282Y-46561718D01*
X196898841Y-46465464D01*
X196752762Y-46404956D01*
X196596000Y-46384318D01*
X196439238Y-46404956D01*
X196293159Y-46465464D01*
X196167718Y-46561718D01*
X196071464Y-46687159D01*
X196010956Y-46833238D01*
X195990318Y-46990000D01*
X189347500Y-46990000D01*
X189347500Y-46573166D01*
X189344519Y-46541631D01*
X189299634Y-46413816D01*
X189294042Y-46406246D01*
X189294041Y-46406243D01*
X189224742Y-46312421D01*
X189219150Y-46304850D01*
X189146069Y-46250871D01*
X189117757Y-46229959D01*
X189117754Y-46229958D01*
X189110184Y-46224366D01*
X188982369Y-46179481D01*
X188974723Y-46178758D01*
X188974722Y-46178758D01*
X188968752Y-46178194D01*
X188950834Y-46176500D01*
X186593166Y-46176500D01*
X186575248Y-46178194D01*
X186569278Y-46178758D01*
X186569277Y-46178758D01*
X186561631Y-46179481D01*
X186433816Y-46224366D01*
X186426246Y-46229958D01*
X186426243Y-46229959D01*
X186397931Y-46250871D01*
X186324850Y-46304850D01*
X186319258Y-46312421D01*
X186249959Y-46406243D01*
X186249958Y-46406246D01*
X186244366Y-46413816D01*
X186199481Y-46541631D01*
X186196500Y-46573166D01*
X186196500Y-48930834D01*
X183417669Y-48930834D01*
X183489492Y-48869492D01*
X183650548Y-48680919D01*
X183780122Y-48469474D01*
X183784924Y-48457883D01*
X183873129Y-48244935D01*
X183873130Y-48244933D01*
X183875023Y-48240362D01*
X183908506Y-48100895D01*
X183931760Y-48004038D01*
X183931761Y-48004032D01*
X183932915Y-47999225D01*
X183952372Y-47752000D01*
X183932915Y-47504775D01*
X183931761Y-47499968D01*
X183931760Y-47499962D01*
X183880202Y-47285211D01*
X183875023Y-47263638D01*
X183840031Y-47179160D01*
X183782017Y-47039100D01*
X183782015Y-47039096D01*
X183780122Y-47034526D01*
X183650548Y-46823081D01*
X183489492Y-46634508D01*
X183300919Y-46473452D01*
X183089474Y-46343878D01*
X183084904Y-46341985D01*
X183084900Y-46341983D01*
X182864935Y-46250871D01*
X182864933Y-46250870D01*
X182860362Y-46248977D01*
X182757850Y-46224366D01*
X182624038Y-46192240D01*
X182624032Y-46192239D01*
X182619225Y-46191085D01*
X182372000Y-46171628D01*
X182124775Y-46191085D01*
X182119968Y-46192239D01*
X182119962Y-46192240D01*
X181986150Y-46224366D01*
X181883638Y-46248977D01*
X181879067Y-46250870D01*
X181879065Y-46250871D01*
X181659100Y-46341983D01*
X181659096Y-46341985D01*
X181654526Y-46343878D01*
X181443081Y-46473452D01*
X181254508Y-46634508D01*
X181093452Y-46823081D01*
X180963878Y-47034526D01*
X180961985Y-47039096D01*
X180961983Y-47039100D01*
X180903969Y-47179160D01*
X180868977Y-47263638D01*
X180863798Y-47285211D01*
X180812240Y-47499962D01*
X180812239Y-47499968D01*
X180811085Y-47504775D01*
X180791628Y-47752000D01*
X158072422Y-47752000D01*
X158073812Y-47747070D01*
X158134898Y-47530476D01*
X158134899Y-47530473D01*
X158136168Y-47525972D01*
X158139584Y-47499116D01*
X158168604Y-47271001D01*
X158168604Y-47270997D01*
X158169002Y-47267871D01*
X158171408Y-47176000D01*
X158167647Y-47125395D01*
X158152472Y-46921186D01*
X158152471Y-46921182D01*
X158152126Y-46916534D01*
X158094705Y-46662768D01*
X158082466Y-46631295D01*
X158002098Y-46424630D01*
X158002097Y-46424628D01*
X158000405Y-46420277D01*
X157993455Y-46408116D01*
X157931237Y-46299258D01*
X157871299Y-46194388D01*
X157710223Y-45990064D01*
X157520714Y-45811792D01*
X157306937Y-45663489D01*
X157302747Y-45661423D01*
X157302744Y-45661421D01*
X157077775Y-45550479D01*
X157077772Y-45550478D01*
X157073587Y-45548414D01*
X157066159Y-45546036D01*
X156830237Y-45470517D01*
X156830239Y-45470517D01*
X156825792Y-45469094D01*
X156685569Y-45446257D01*
X156573606Y-45428023D01*
X156573605Y-45428023D01*
X156568994Y-45427272D01*
X156438914Y-45425569D01*
X156313512Y-45423927D01*
X156313509Y-45423927D01*
X156308835Y-45423866D01*
X156051030Y-45458952D01*
X155801243Y-45531758D01*
X155796990Y-45533718D01*
X155796989Y-45533719D01*
X155760634Y-45550479D01*
X155564961Y-45640686D01*
X155561056Y-45643246D01*
X155561051Y-45643249D01*
X155351288Y-45780775D01*
X155351283Y-45780779D01*
X155347375Y-45783341D01*
X155153265Y-45956591D01*
X154986895Y-46156629D01*
X154851920Y-46379061D01*
X154850111Y-46383375D01*
X154850110Y-46383377D01*
X154769283Y-46576129D01*
X154751305Y-46619001D01*
X154750154Y-46623533D01*
X154750153Y-46623536D01*
X154747367Y-46634508D01*
X154687261Y-46871177D01*
X154661194Y-47130049D01*
X111417000Y-47130049D01*
X111417000Y-46903885D01*
X148358000Y-46903885D01*
X148362475Y-46919124D01*
X148363865Y-46920329D01*
X148371548Y-46922000D01*
X150143885Y-46922000D01*
X150159124Y-46917525D01*
X150160329Y-46916135D01*
X150162000Y-46908452D01*
X150162000Y-46903885D01*
X150670000Y-46903885D01*
X150674475Y-46919124D01*
X150675865Y-46920329D01*
X150683548Y-46922000D01*
X152455885Y-46922000D01*
X152471124Y-46917525D01*
X152472329Y-46916135D01*
X152474000Y-46908452D01*
X152474000Y-45828902D01*
X152473663Y-45822387D01*
X152463744Y-45726795D01*
X152460850Y-45713396D01*
X152409412Y-45559215D01*
X152403238Y-45546036D01*
X152317937Y-45408190D01*
X152308901Y-45396791D01*
X152194172Y-45282262D01*
X152182761Y-45273250D01*
X152044758Y-45188184D01*
X152031577Y-45182037D01*
X151877291Y-45130862D01*
X151863915Y-45127995D01*
X151769563Y-45118328D01*
X151763146Y-45118000D01*
X150688115Y-45118000D01*
X150672876Y-45122475D01*
X150671671Y-45123865D01*
X150670000Y-45131548D01*
X150670000Y-46903885D01*
X150162000Y-46903885D01*
X150162000Y-45136115D01*
X150157525Y-45120876D01*
X150156135Y-45119671D01*
X150148452Y-45118000D01*
X149068902Y-45118000D01*
X149062387Y-45118337D01*
X148966795Y-45128256D01*
X148953396Y-45131150D01*
X148799215Y-45182588D01*
X148786036Y-45188762D01*
X148648190Y-45274063D01*
X148636791Y-45283099D01*
X148522262Y-45397828D01*
X148513250Y-45409239D01*
X148428184Y-45547242D01*
X148422037Y-45560423D01*
X148370862Y-45714709D01*
X148367995Y-45728085D01*
X148358328Y-45822437D01*
X148358000Y-45828854D01*
X148358000Y-46903885D01*
X111417000Y-46903885D01*
X111417000Y-44449000D01*
X111437002Y-44380879D01*
X111490658Y-44334386D01*
X111543000Y-44323000D01*
X211037000Y-44323000D01*
X211105121Y-44343002D01*
G37*
%TD.AperFunction*%
M02*
