%TF.GenerationSoftware,KiCad,Pcbnew,(6.0.0)*%
%TF.CreationDate,2022-03-08T01:27:21+02:00*%
%TF.ProjectId,CDH_ECU1.2,4344485f-4543-4553-912e-322e6b696361,1.2*%
%TF.SameCoordinates,Original*%
%TF.FileFunction,Paste,Top*%
%TF.FilePolarity,Positive*%
%FSLAX46Y46*%
G04 Gerber Fmt 4.6, Leading zero omitted, Abs format (unit mm)*
G04 Created by KiCad (PCBNEW (6.0.0)) date 2022-03-08 01:27:21*
%MOMM*%
%LPD*%
G01*
G04 APERTURE LIST*
G04 Aperture macros list*
%AMRoundRect*
0 Rectangle with rounded corners*
0 $1 Rounding radius*
0 $2 $3 $4 $5 $6 $7 $8 $9 X,Y pos of 4 corners*
0 Add a 4 corners polygon primitive as box body*
4,1,4,$2,$3,$4,$5,$6,$7,$8,$9,$2,$3,0*
0 Add four circle primitives for the rounded corners*
1,1,$1+$1,$2,$3*
1,1,$1+$1,$4,$5*
1,1,$1+$1,$6,$7*
1,1,$1+$1,$8,$9*
0 Add four rect primitives between the rounded corners*
20,1,$1+$1,$2,$3,$4,$5,0*
20,1,$1+$1,$4,$5,$6,$7,0*
20,1,$1+$1,$6,$7,$8,$9,0*
20,1,$1+$1,$8,$9,$2,$3,0*%
%AMFreePoly0*
4,1,21,1.372500,0.787500,0.862500,0.787500,0.862500,0.532500,1.372500,0.532500,1.372500,0.127500,0.862500,0.127500,0.862500,-0.127500,1.372500,-0.127500,1.372500,-0.532500,0.862500,-0.532500,0.862500,-0.787500,1.372500,-0.787500,1.372500,-1.195000,0.612500,-1.195000,0.612500,-1.117500,-0.862500,-1.117500,-0.862500,1.117500,0.612500,1.117500,0.612500,1.195000,1.372500,1.195000,
1.372500,0.787500,1.372500,0.787500,$1*%
G04 Aperture macros list end*
%ADD10RoundRect,0.250000X0.475000X-0.250000X0.475000X0.250000X-0.475000X0.250000X-0.475000X-0.250000X0*%
%ADD11RoundRect,0.243600X-0.901400X-0.771400X0.901400X-0.771400X0.901400X0.771400X-0.901400X0.771400X0*%
%ADD12RoundRect,0.091200X-0.608800X-0.288800X0.608800X-0.288800X0.608800X0.288800X-0.608800X0.288800X0*%
%ADD13RoundRect,0.190000X-0.510000X-0.190000X0.510000X-0.190000X0.510000X0.190000X-0.510000X0.190000X0*%
%ADD14RoundRect,0.250000X0.450000X-0.262500X0.450000X0.262500X-0.450000X0.262500X-0.450000X-0.262500X0*%
%ADD15R,0.630000X0.500000*%
%ADD16R,0.570000X0.738000*%
%ADD17RoundRect,0.150000X0.587500X0.150000X-0.587500X0.150000X-0.587500X-0.150000X0.587500X-0.150000X0*%
%ADD18RoundRect,0.250000X0.250000X0.475000X-0.250000X0.475000X-0.250000X-0.475000X0.250000X-0.475000X0*%
%ADD19RoundRect,0.250000X-0.450000X0.262500X-0.450000X-0.262500X0.450000X-0.262500X0.450000X0.262500X0*%
%ADD20RoundRect,0.250000X-0.250000X-0.475000X0.250000X-0.475000X0.250000X0.475000X-0.250000X0.475000X0*%
%ADD21R,3.050000X2.750000*%
%ADD22R,2.200000X1.200000*%
%ADD23R,2.750000X3.050000*%
%ADD24R,1.200000X2.200000*%
%ADD25RoundRect,0.250000X-0.262500X-0.450000X0.262500X-0.450000X0.262500X0.450000X-0.262500X0.450000X0*%
%ADD26R,1.600000X2.250000*%
%ADD27RoundRect,0.250000X-0.475000X0.250000X-0.475000X-0.250000X0.475000X-0.250000X0.475000X0.250000X0*%
%ADD28RoundRect,0.250000X0.262500X0.450000X-0.262500X0.450000X-0.262500X-0.450000X0.262500X-0.450000X0*%
%ADD29R,0.900000X2.000000*%
%ADD30R,2.000000X0.900000*%
%ADD31R,5.000000X5.000000*%
%ADD32RoundRect,0.250000X0.312500X1.450000X-0.312500X1.450000X-0.312500X-1.450000X0.312500X-1.450000X0*%
%ADD33R,0.950000X0.950000*%
%ADD34R,1.500000X2.000000*%
%ADD35R,3.800000X2.000000*%
%ADD36R,1.000000X1.500000*%
%ADD37R,0.990000X0.405000*%
%ADD38FreePoly0,180.000000*%
%ADD39RoundRect,0.150000X0.825000X0.150000X-0.825000X0.150000X-0.825000X-0.150000X0.825000X-0.150000X0*%
%ADD40RoundRect,0.075000X0.075000X-0.650000X0.075000X0.650000X-0.075000X0.650000X-0.075000X-0.650000X0*%
%ADD41R,1.300000X1.550000*%
%ADD42RoundRect,0.150000X0.512500X0.150000X-0.512500X0.150000X-0.512500X-0.150000X0.512500X-0.150000X0*%
%ADD43RoundRect,0.147500X0.172500X-0.147500X0.172500X0.147500X-0.172500X0.147500X-0.172500X-0.147500X0*%
%ADD44RoundRect,0.212500X-0.212500X0.212500X-0.212500X-0.212500X0.212500X-0.212500X0.212500X0.212500X0*%
%ADD45RoundRect,0.075000X-0.075000X0.350000X-0.075000X-0.350000X0.075000X-0.350000X0.075000X0.350000X0*%
%ADD46RoundRect,0.075000X-0.350000X0.075000X-0.350000X-0.075000X0.350000X-0.075000X0.350000X0.075000X0*%
%ADD47R,1.150000X0.600000*%
%ADD48R,1.150000X0.300000*%
%ADD49R,1.900000X4.440000*%
%ADD50RoundRect,0.150000X-0.150000X0.587500X-0.150000X-0.587500X0.150000X-0.587500X0.150000X0.587500X0*%
G04 APERTURE END LIST*
D10*
X177546000Y-63876000D03*
X177546000Y-61976000D03*
D11*
X191579000Y-47371000D03*
D12*
X191134000Y-49276000D03*
D13*
X197994000Y-46736000D03*
D11*
X197549000Y-48641000D03*
D10*
X177038000Y-92898000D03*
X177038000Y-90998000D03*
D14*
X194056000Y-87169000D03*
X194056000Y-85344000D03*
D15*
X199630000Y-82756000D03*
X199630000Y-83396000D03*
X199630000Y-84056000D03*
X199630000Y-84696000D03*
D16*
X200980000Y-83116000D03*
X201930000Y-83116000D03*
D15*
X202510000Y-82756000D03*
D16*
X201930000Y-84336000D03*
D15*
X202510000Y-84056000D03*
D16*
X200980000Y-84336000D03*
D15*
X202510000Y-83396000D03*
X202510000Y-84696000D03*
D10*
X154432000Y-88326000D03*
X154432000Y-86426000D03*
D17*
X190500000Y-62926000D03*
X190500000Y-61026000D03*
X188625000Y-61976000D03*
D18*
X155636000Y-137160000D03*
X153736000Y-137160000D03*
D14*
X195072000Y-57808500D03*
X195072000Y-55983500D03*
D19*
X179070000Y-91035500D03*
X179070000Y-92860500D03*
D20*
X159578000Y-68580000D03*
X161478000Y-68580000D03*
D21*
X197461000Y-88043000D03*
X200811000Y-91093000D03*
X200811000Y-88043000D03*
X197461000Y-91093000D03*
D22*
X205436000Y-91848000D03*
X205436000Y-87288000D03*
D23*
X166117000Y-51665000D03*
X163067000Y-55015000D03*
X163067000Y-51665000D03*
X166117000Y-55015000D03*
D24*
X166872000Y-47040000D03*
X162312000Y-47040000D03*
D25*
X153773500Y-135128000D03*
X155598500Y-135128000D03*
D19*
X161036000Y-133270000D03*
X161036000Y-135095000D03*
D25*
X123190000Y-59690000D03*
X125015000Y-59690000D03*
D19*
X181610000Y-62013500D03*
X181610000Y-63838500D03*
D21*
X196885000Y-128271000D03*
X200235000Y-125221000D03*
X196885000Y-125221000D03*
X200235000Y-128271000D03*
D22*
X204860000Y-129026000D03*
X204860000Y-124466000D03*
D26*
X209296000Y-78958000D03*
X209296000Y-83058000D03*
D10*
X123190000Y-66670000D03*
X123190000Y-64770000D03*
D14*
X143510000Y-129460000D03*
X143510000Y-127635000D03*
X172974000Y-92860500D03*
X172974000Y-91035500D03*
D27*
X181356000Y-86746000D03*
X181356000Y-88646000D03*
D14*
X190578500Y-130010500D03*
X190578500Y-128185500D03*
X127762000Y-76962000D03*
X127762000Y-75137000D03*
X208102200Y-56993800D03*
X208102200Y-55168800D03*
D19*
X193040000Y-125937000D03*
X193040000Y-127762000D03*
D28*
X175410500Y-63754000D03*
X173585500Y-63754000D03*
D10*
X140208000Y-59878000D03*
X140208000Y-57978000D03*
D20*
X162946000Y-137127000D03*
X164846000Y-137127000D03*
D26*
X209042000Y-115298000D03*
X209042000Y-119398000D03*
D29*
X118915000Y-97400000D03*
X120185000Y-97400000D03*
X121455000Y-97400000D03*
X122725000Y-97400000D03*
X123995000Y-97400000D03*
X125265000Y-97400000D03*
X126535000Y-97400000D03*
X127805000Y-97400000D03*
X129075000Y-97400000D03*
X130345000Y-97400000D03*
X131615000Y-97400000D03*
X132885000Y-97400000D03*
X134155000Y-97400000D03*
X135425000Y-97400000D03*
D30*
X136425000Y-94615000D03*
X136425000Y-93345000D03*
X136425000Y-92075000D03*
X136425000Y-90805000D03*
X136425000Y-89535000D03*
X136425000Y-88265000D03*
X136425000Y-86995000D03*
X136425000Y-85725000D03*
X136425000Y-84455000D03*
X136425000Y-83185000D03*
D29*
X135425000Y-80400000D03*
X134155000Y-80400000D03*
X132885000Y-80400000D03*
X131615000Y-80400000D03*
X130345000Y-80400000D03*
X129075000Y-80400000D03*
X127805000Y-80400000D03*
X126535000Y-80400000D03*
X125265000Y-80400000D03*
X123995000Y-80400000D03*
X122725000Y-80400000D03*
X121455000Y-80400000D03*
X120185000Y-80400000D03*
X118915000Y-80400000D03*
D31*
X126415000Y-89900000D03*
D32*
X198987500Y-78138000D03*
X194712500Y-78138000D03*
D19*
X175006000Y-91035500D03*
X175006000Y-92860500D03*
D20*
X122023500Y-102108000D03*
X123923500Y-102108000D03*
D27*
X169182750Y-128016000D03*
X169182750Y-129916000D03*
D14*
X133350000Y-127912500D03*
X133350000Y-126087500D03*
D15*
X199728000Y-118918000D03*
X199728000Y-119558000D03*
X199728000Y-120218000D03*
X199728000Y-120858000D03*
X202608000Y-119558000D03*
X202608000Y-118918000D03*
D16*
X202028000Y-120498000D03*
X201078000Y-119278000D03*
D15*
X202608000Y-120858000D03*
D16*
X201078000Y-120498000D03*
D15*
X202608000Y-120218000D03*
D16*
X202028000Y-119278000D03*
D14*
X129032000Y-50800000D03*
X129032000Y-48975000D03*
D28*
X161036000Y-137127000D03*
X159211000Y-137127000D03*
D33*
X131572000Y-54090000D03*
X131572000Y-52590000D03*
D20*
X118430000Y-99695000D03*
X120330000Y-99695000D03*
D33*
X177800000Y-98782000D03*
X177800000Y-97282000D03*
D14*
X191135000Y-92860500D03*
X191135000Y-91035500D03*
D25*
X159595500Y-60452000D03*
X161420500Y-60452000D03*
D14*
X206095600Y-56993800D03*
X206095600Y-55168800D03*
X193040000Y-124102500D03*
X193040000Y-122277500D03*
D19*
X142875000Y-82272500D03*
X142875000Y-84097500D03*
D27*
X180086000Y-123952000D03*
X180086000Y-125852000D03*
D10*
X171704000Y-63942000D03*
X171704000Y-62042000D03*
D34*
X155208000Y-60350000D03*
X152908000Y-60350000D03*
X150608000Y-60350000D03*
D35*
X152908000Y-66650000D03*
D19*
X118364000Y-104243500D03*
X118364000Y-106068500D03*
D36*
X151968000Y-84926000D03*
X148768000Y-84926000D03*
X148768000Y-89826000D03*
X151968000Y-89826000D03*
D18*
X161478000Y-64516000D03*
X159578000Y-64516000D03*
D14*
X122682000Y-57300500D03*
X122682000Y-55475500D03*
X171214750Y-129878500D03*
X171214750Y-128053500D03*
D19*
X195072000Y-59539500D03*
X195072000Y-61364500D03*
D37*
X158456500Y-52230000D03*
X158456500Y-51570000D03*
X158456500Y-50910000D03*
X158456500Y-50250000D03*
D38*
X156464000Y-51240000D03*
D23*
X202185000Y-60369000D03*
X199135000Y-60369000D03*
X199135000Y-63719000D03*
X202185000Y-63719000D03*
D24*
X202940000Y-55744000D03*
X198380000Y-55744000D03*
D39*
X188657000Y-88773000D03*
X188657000Y-87503000D03*
X188657000Y-86233000D03*
X188657000Y-84963000D03*
X183707000Y-84963000D03*
X183707000Y-86233000D03*
X183707000Y-87503000D03*
X183707000Y-88773000D03*
D27*
X147320000Y-57978000D03*
X147320000Y-59878000D03*
D14*
X184482500Y-130010500D03*
X184482500Y-128185500D03*
D40*
X205502000Y-65954000D03*
X206002000Y-65954000D03*
X206502000Y-65954000D03*
X207002000Y-65954000D03*
X207502000Y-65954000D03*
X207502000Y-61554000D03*
X207002000Y-61554000D03*
X206502000Y-61554000D03*
X206002000Y-61554000D03*
X205502000Y-61554000D03*
D27*
X124714000Y-55438000D03*
X124714000Y-57338000D03*
D20*
X149926000Y-57912000D03*
X151826000Y-57912000D03*
D25*
X159595500Y-62484000D03*
X161420500Y-62484000D03*
D14*
X131572000Y-50800000D03*
X131572000Y-48975000D03*
D28*
X198628000Y-101346000D03*
X196803000Y-101346000D03*
D10*
X209550000Y-63434000D03*
X209550000Y-61534000D03*
D20*
X118430000Y-102235000D03*
X120330000Y-102235000D03*
D18*
X208026000Y-58877200D03*
X206126000Y-58877200D03*
D14*
X146050000Y-128547500D03*
X146050000Y-126722500D03*
X200660000Y-103425000D03*
X200660000Y-101600000D03*
D41*
X125223500Y-104478000D03*
X125223500Y-112438000D03*
X120723500Y-112438000D03*
X120723500Y-104478000D03*
D14*
X186436000Y-62888500D03*
X186436000Y-61063500D03*
X192532000Y-62888500D03*
X192532000Y-61063500D03*
X184912000Y-92860500D03*
X184912000Y-91035500D03*
D28*
X125015000Y-62230000D03*
X123190000Y-62230000D03*
D19*
X173246750Y-128053500D03*
X173246750Y-129878500D03*
D27*
X180340000Y-55880000D03*
X180340000Y-57780000D03*
D42*
X144901500Y-59878000D03*
X144901500Y-58928000D03*
X144901500Y-57978000D03*
X142626500Y-57978000D03*
X142626500Y-59878000D03*
D39*
X187706000Y-125984000D03*
X187706000Y-124714000D03*
X187706000Y-123444000D03*
X187706000Y-122174000D03*
X182756000Y-122174000D03*
X182756000Y-123444000D03*
X182756000Y-124714000D03*
X182756000Y-125984000D03*
D17*
X188897500Y-92898000D03*
X188897500Y-90998000D03*
X187022500Y-91948000D03*
D19*
X177310750Y-128053500D03*
X177310750Y-129878500D03*
D27*
X178054000Y-123952000D03*
X178054000Y-125852000D03*
D39*
X189927000Y-57785000D03*
X189927000Y-56515000D03*
X189927000Y-55245000D03*
X189927000Y-53975000D03*
X184977000Y-53975000D03*
X184977000Y-55245000D03*
X184977000Y-56515000D03*
X184977000Y-57785000D03*
D33*
X177800000Y-135624000D03*
X177800000Y-134124000D03*
D27*
X179324000Y-86746000D03*
X179324000Y-88646000D03*
D18*
X132588000Y-65024000D03*
X130688000Y-65024000D03*
D10*
X203200000Y-105852000D03*
X203200000Y-103952000D03*
D19*
X169164000Y-46943000D03*
X169164000Y-48768000D03*
X143510000Y-123270000D03*
X143510000Y-125095000D03*
X130810000Y-128270000D03*
X130810000Y-130095000D03*
D27*
X135890000Y-130810000D03*
X135890000Y-132710000D03*
D20*
X161102000Y-131285000D03*
X163002000Y-131285000D03*
D43*
X160020000Y-51194000D03*
X160020000Y-50224000D03*
D19*
X130810000Y-123905000D03*
X130810000Y-125730000D03*
D33*
X129032000Y-54090000D03*
X129032000Y-52590000D03*
D44*
X131335000Y-60435000D03*
X130285000Y-61485000D03*
X130285000Y-60435000D03*
X131335000Y-61485000D03*
D45*
X131785000Y-59010000D03*
X131135000Y-59010000D03*
X130485000Y-59010000D03*
X129835000Y-59010000D03*
D46*
X128860000Y-59985000D03*
X128860000Y-60635000D03*
X128860000Y-61285000D03*
X128860000Y-61935000D03*
D45*
X129835000Y-62910000D03*
X130485000Y-62910000D03*
X131135000Y-62910000D03*
X131785000Y-62910000D03*
D46*
X132760000Y-61935000D03*
X132760000Y-61285000D03*
X132760000Y-60635000D03*
X132760000Y-59985000D03*
D19*
X194056000Y-88900000D03*
X194056000Y-90725000D03*
X146304000Y-85955500D03*
X146304000Y-87780500D03*
D27*
X182372000Y-55880000D03*
X182372000Y-57780000D03*
D18*
X155890000Y-55880000D03*
X153990000Y-55880000D03*
D47*
X118420000Y-57760000D03*
X118420000Y-58560000D03*
D48*
X118420000Y-59710000D03*
X118420000Y-60710000D03*
X118420000Y-61210000D03*
X118420000Y-62210000D03*
D47*
X118420000Y-64160000D03*
X118420000Y-63360000D03*
D48*
X118420000Y-62710000D03*
X118420000Y-61710000D03*
X118420000Y-60210000D03*
X118420000Y-59210000D03*
D14*
X125730000Y-75993000D03*
X125730000Y-74168000D03*
D39*
X140905000Y-128905000D03*
X140905000Y-127635000D03*
X140905000Y-126365000D03*
X140905000Y-125095000D03*
X135955000Y-125095000D03*
X135955000Y-126365000D03*
X135955000Y-127635000D03*
X135955000Y-128905000D03*
D15*
X199560000Y-53192000D03*
X199560000Y-52552000D03*
X199560000Y-51892000D03*
X199560000Y-51252000D03*
X196680000Y-51252000D03*
X196680000Y-51892000D03*
X196680000Y-53192000D03*
D16*
X197260000Y-51612000D03*
X198210000Y-52832000D03*
X198210000Y-51612000D03*
D15*
X196680000Y-52552000D03*
D16*
X197260000Y-52832000D03*
D27*
X170942000Y-90998000D03*
X170942000Y-92898000D03*
D19*
X179578000Y-62013500D03*
X179578000Y-63838500D03*
D10*
X175278750Y-129916000D03*
X175278750Y-128016000D03*
D18*
X155890000Y-57912000D03*
X153990000Y-57912000D03*
D28*
X161420500Y-66548000D03*
X159595500Y-66548000D03*
D49*
X199737000Y-114554000D03*
X195487000Y-114554000D03*
D28*
X140612500Y-84455000D03*
X138787500Y-84455000D03*
D17*
X188468000Y-130048000D03*
X188468000Y-128148000D03*
X186593000Y-129098000D03*
D33*
X177800000Y-69330000D03*
X177800000Y-67830000D03*
D50*
X144460000Y-86057500D03*
X142560000Y-86057500D03*
X143510000Y-87932500D03*
M02*
