%FSLAX45Y45*%
G04 Gerber Fmt 4.5, Leading zero omitted, Abs format (unit mm)*
G04 Created by KiCad (PCBNEW (6.0.0)) date 2022-03-08 01:23:57*
%MOMM*%
%LPD*%
G01*
G04 APERTURE LIST*
%TA.AperFunction,Profile*%
%ADD10C,0.200000*%
%TD*%
%ADD11C,0.200000*%
%ADD12C,0.065000*%
%ADD13C,0.300000*%
%ADD14C,0.320000*%
G04 APERTURE END LIST*
D10*
X11129000Y-4419600D02*
X21129000Y-4419600D01*
X21129000Y-4419600D02*
X21129000Y-14419600D01*
X21129000Y-14419600D02*
X11129000Y-14419600D01*
X11129000Y-14419600D02*
X11129000Y-4419600D01*
D11*
D12*
X11702000Y-5774500D02*
X11767000Y-5839500D01*
X11767000Y-5774500D02*
X11702000Y-5839500D01*
X11702000Y-6352500D02*
X11767000Y-6417500D01*
X11767000Y-6352500D02*
X11702000Y-6417500D01*
D13*
X11707000Y-13970000D02*
G75*
G03*
X11707000Y-13970000I-150000J0D01*
G01*
X11834000Y-4953000D02*
G75*
G03*
X11834000Y-4953000I-150000J0D01*
G01*
X20724000Y-4953000D02*
G75*
G03*
X20724000Y-4953000I-150000J0D01*
G01*
X20851000Y-13970000D02*
G75*
G03*
X20851000Y-13970000I-150000J0D01*
G01*
D14*
X11874500Y-11968500D02*
X11874500Y-12288500D01*
X11714500Y-12128500D02*
X12034500Y-12128500D01*
X11874500Y-13111500D02*
X11874500Y-13431500D01*
X11714500Y-13271500D02*
X12034500Y-13271500D01*
D11*
X11376619Y-14740076D02*
X11376619Y-14540076D01*
X11424238Y-14540076D01*
X11452809Y-14549600D01*
X11471857Y-14568648D01*
X11481381Y-14587695D01*
X11490905Y-14625790D01*
X11490905Y-14654362D01*
X11481381Y-14692457D01*
X11471857Y-14711505D01*
X11452809Y-14730552D01*
X11424238Y-14740076D01*
X11376619Y-14740076D01*
X11576619Y-14740076D02*
X11576619Y-14606743D01*
X11576619Y-14644838D02*
X11586143Y-14625790D01*
X11595667Y-14616267D01*
X11614714Y-14606743D01*
X11633762Y-14606743D01*
X11700428Y-14740076D02*
X11700428Y-14606743D01*
X11700428Y-14540076D02*
X11690905Y-14549600D01*
X11700428Y-14559124D01*
X11709952Y-14549600D01*
X11700428Y-14540076D01*
X11700428Y-14559124D01*
X11824238Y-14740076D02*
X11805190Y-14730552D01*
X11795667Y-14711505D01*
X11795667Y-14540076D01*
X11929000Y-14740076D02*
X11909952Y-14730552D01*
X11900428Y-14711505D01*
X11900428Y-14540076D01*
X12157571Y-14740076D02*
X12157571Y-14540076D01*
X12224238Y-14682933D01*
X12290905Y-14540076D01*
X12290905Y-14740076D01*
X12471857Y-14740076D02*
X12471857Y-14635314D01*
X12462333Y-14616267D01*
X12443286Y-14606743D01*
X12405190Y-14606743D01*
X12386143Y-14616267D01*
X12471857Y-14730552D02*
X12452809Y-14740076D01*
X12405190Y-14740076D01*
X12386143Y-14730552D01*
X12376619Y-14711505D01*
X12376619Y-14692457D01*
X12386143Y-14673409D01*
X12405190Y-14663886D01*
X12452809Y-14663886D01*
X12471857Y-14654362D01*
X12567095Y-14606743D02*
X12567095Y-14806743D01*
X12567095Y-14616267D02*
X12586143Y-14606743D01*
X12624238Y-14606743D01*
X12643286Y-14616267D01*
X12652809Y-14625790D01*
X12662333Y-14644838D01*
X12662333Y-14701981D01*
X12652809Y-14721028D01*
X12643286Y-14730552D01*
X12624238Y-14740076D01*
X12586143Y-14740076D01*
X12567095Y-14730552D01*
X12748048Y-14721028D02*
X12757571Y-14730552D01*
X12748048Y-14740076D01*
X12738524Y-14730552D01*
X12748048Y-14721028D01*
X12748048Y-14740076D01*
X12748048Y-14616267D02*
X12757571Y-14625790D01*
X12748048Y-14635314D01*
X12738524Y-14625790D01*
X12748048Y-14616267D01*
X12748048Y-14635314D01*
D12*
X11054000Y-15037100D02*
X11119000Y-15102100D01*
X11119000Y-15037100D02*
X11054000Y-15102100D01*
D11*
X11414714Y-14960076D02*
X11433762Y-14960076D01*
X11452809Y-14969600D01*
X11462333Y-14979124D01*
X11471857Y-14998171D01*
X11481381Y-15036267D01*
X11481381Y-15083886D01*
X11471857Y-15121981D01*
X11462333Y-15141028D01*
X11452809Y-15150552D01*
X11433762Y-15160076D01*
X11414714Y-15160076D01*
X11395667Y-15150552D01*
X11386143Y-15141028D01*
X11376619Y-15121981D01*
X11367095Y-15083886D01*
X11367095Y-15036267D01*
X11376619Y-14998171D01*
X11386143Y-14979124D01*
X11395667Y-14969600D01*
X11414714Y-14960076D01*
X11567095Y-15141028D02*
X11576619Y-15150552D01*
X11567095Y-15160076D01*
X11557571Y-15150552D01*
X11567095Y-15141028D01*
X11567095Y-15160076D01*
X11748048Y-14960076D02*
X11709952Y-14960076D01*
X11690905Y-14969600D01*
X11681381Y-14979124D01*
X11662333Y-15007695D01*
X11652809Y-15045790D01*
X11652809Y-15121981D01*
X11662333Y-15141028D01*
X11671857Y-15150552D01*
X11690905Y-15160076D01*
X11729000Y-15160076D01*
X11748048Y-15150552D01*
X11757571Y-15141028D01*
X11767095Y-15121981D01*
X11767095Y-15074362D01*
X11757571Y-15055314D01*
X11748048Y-15045790D01*
X11729000Y-15036267D01*
X11690905Y-15036267D01*
X11671857Y-15045790D01*
X11662333Y-15055314D01*
X11652809Y-15074362D01*
X11948048Y-14960076D02*
X11852809Y-14960076D01*
X11843286Y-15055314D01*
X11852809Y-15045790D01*
X11871857Y-15036267D01*
X11919476Y-15036267D01*
X11938524Y-15045790D01*
X11948048Y-15055314D01*
X11957571Y-15074362D01*
X11957571Y-15121981D01*
X11948048Y-15141028D01*
X11938524Y-15150552D01*
X11919476Y-15160076D01*
X11871857Y-15160076D01*
X11852809Y-15150552D01*
X11843286Y-15141028D01*
X12081381Y-14960076D02*
X12100428Y-14960076D01*
X12119476Y-14969600D01*
X12129000Y-14979124D01*
X12138524Y-14998171D01*
X12148048Y-15036267D01*
X12148048Y-15083886D01*
X12138524Y-15121981D01*
X12129000Y-15141028D01*
X12119476Y-15150552D01*
X12100428Y-15160076D01*
X12081381Y-15160076D01*
X12062333Y-15150552D01*
X12052809Y-15141028D01*
X12043286Y-15121981D01*
X12033762Y-15083886D01*
X12033762Y-15036267D01*
X12043286Y-14998171D01*
X12052809Y-14979124D01*
X12062333Y-14969600D01*
X12081381Y-14960076D01*
X12233762Y-15160076D02*
X12233762Y-15026743D01*
X12233762Y-15045790D02*
X12243286Y-15036267D01*
X12262333Y-15026743D01*
X12290905Y-15026743D01*
X12309952Y-15036267D01*
X12319476Y-15055314D01*
X12319476Y-15160076D01*
X12319476Y-15055314D02*
X12329000Y-15036267D01*
X12348048Y-15026743D01*
X12376619Y-15026743D01*
X12395667Y-15036267D01*
X12405190Y-15055314D01*
X12405190Y-15160076D01*
X12500428Y-15160076D02*
X12500428Y-15026743D01*
X12500428Y-15045790D02*
X12509952Y-15036267D01*
X12529000Y-15026743D01*
X12557571Y-15026743D01*
X12576619Y-15036267D01*
X12586143Y-15055314D01*
X12586143Y-15160076D01*
X12586143Y-15055314D02*
X12595667Y-15036267D01*
X12614714Y-15026743D01*
X12643286Y-15026743D01*
X12662333Y-15036267D01*
X12671857Y-15055314D01*
X12671857Y-15160076D01*
X13062333Y-14950552D02*
X12890905Y-15207695D01*
X13319476Y-14960076D02*
X13338524Y-14960076D01*
X13357571Y-14969600D01*
X13367095Y-14979124D01*
X13376619Y-14998171D01*
X13386143Y-15036267D01*
X13386143Y-15083886D01*
X13376619Y-15121981D01*
X13367095Y-15141028D01*
X13357571Y-15150552D01*
X13338524Y-15160076D01*
X13319476Y-15160076D01*
X13300428Y-15150552D01*
X13290905Y-15141028D01*
X13281381Y-15121981D01*
X13271857Y-15083886D01*
X13271857Y-15036267D01*
X13281381Y-14998171D01*
X13290905Y-14979124D01*
X13300428Y-14969600D01*
X13319476Y-14960076D01*
X13471857Y-15141028D02*
X13481381Y-15150552D01*
X13471857Y-15160076D01*
X13462333Y-15150552D01*
X13471857Y-15141028D01*
X13471857Y-15160076D01*
X13605190Y-14960076D02*
X13624238Y-14960076D01*
X13643286Y-14969600D01*
X13652809Y-14979124D01*
X13662333Y-14998171D01*
X13671857Y-15036267D01*
X13671857Y-15083886D01*
X13662333Y-15121981D01*
X13652809Y-15141028D01*
X13643286Y-15150552D01*
X13624238Y-15160076D01*
X13605190Y-15160076D01*
X13586143Y-15150552D01*
X13576619Y-15141028D01*
X13567095Y-15121981D01*
X13557571Y-15083886D01*
X13557571Y-15036267D01*
X13567095Y-14998171D01*
X13576619Y-14979124D01*
X13586143Y-14969600D01*
X13605190Y-14960076D01*
X13748048Y-14979124D02*
X13757571Y-14969600D01*
X13776619Y-14960076D01*
X13824238Y-14960076D01*
X13843286Y-14969600D01*
X13852809Y-14979124D01*
X13862333Y-14998171D01*
X13862333Y-15017219D01*
X13852809Y-15045790D01*
X13738524Y-15160076D01*
X13862333Y-15160076D01*
X14043286Y-14960076D02*
X13948048Y-14960076D01*
X13938524Y-15055314D01*
X13948048Y-15045790D01*
X13967095Y-15036267D01*
X14014714Y-15036267D01*
X14033762Y-15045790D01*
X14043286Y-15055314D01*
X14052809Y-15074362D01*
X14052809Y-15121981D01*
X14043286Y-15141028D01*
X14033762Y-15150552D01*
X14014714Y-15160076D01*
X13967095Y-15160076D01*
X13948048Y-15150552D01*
X13938524Y-15141028D01*
X14224238Y-14960076D02*
X14186143Y-14960076D01*
X14167095Y-14969600D01*
X14157571Y-14979124D01*
X14138524Y-15007695D01*
X14129000Y-15045790D01*
X14129000Y-15121981D01*
X14138524Y-15141028D01*
X14148048Y-15150552D01*
X14167095Y-15160076D01*
X14205190Y-15160076D01*
X14224238Y-15150552D01*
X14233762Y-15141028D01*
X14243286Y-15121981D01*
X14243286Y-15074362D01*
X14233762Y-15055314D01*
X14224238Y-15045790D01*
X14205190Y-15036267D01*
X14167095Y-15036267D01*
X14148048Y-15045790D01*
X14138524Y-15055314D01*
X14129000Y-15074362D01*
X14319476Y-14960076D02*
X14319476Y-14998171D01*
X14395667Y-14960076D02*
X14395667Y-14998171D01*
X14690905Y-15236267D02*
X14681381Y-15226743D01*
X14662333Y-15198171D01*
X14652809Y-15179124D01*
X14643286Y-15150552D01*
X14633762Y-15102933D01*
X14633762Y-15064838D01*
X14643286Y-15017219D01*
X14652809Y-14988648D01*
X14662333Y-14969600D01*
X14681381Y-14941028D01*
X14690905Y-14931505D01*
X14757571Y-14979124D02*
X14767095Y-14969600D01*
X14786143Y-14960076D01*
X14833762Y-14960076D01*
X14852809Y-14969600D01*
X14862333Y-14979124D01*
X14871857Y-14998171D01*
X14871857Y-15017219D01*
X14862333Y-15045790D01*
X14748048Y-15160076D01*
X14871857Y-15160076D01*
X15109952Y-15160076D02*
X15109952Y-14960076D01*
X15195667Y-15160076D02*
X15195667Y-15055314D01*
X15186143Y-15036267D01*
X15167095Y-15026743D01*
X15138524Y-15026743D01*
X15119476Y-15036267D01*
X15109952Y-15045790D01*
X15319476Y-15160076D02*
X15300428Y-15150552D01*
X15290905Y-15141028D01*
X15281381Y-15121981D01*
X15281381Y-15064838D01*
X15290905Y-15045790D01*
X15300428Y-15036267D01*
X15319476Y-15026743D01*
X15348048Y-15026743D01*
X15367095Y-15036267D01*
X15376619Y-15045790D01*
X15386143Y-15064838D01*
X15386143Y-15121981D01*
X15376619Y-15141028D01*
X15367095Y-15150552D01*
X15348048Y-15160076D01*
X15319476Y-15160076D01*
X15500428Y-15160076D02*
X15481381Y-15150552D01*
X15471857Y-15131505D01*
X15471857Y-14960076D01*
X15652809Y-15150552D02*
X15633762Y-15160076D01*
X15595667Y-15160076D01*
X15576619Y-15150552D01*
X15567095Y-15131505D01*
X15567095Y-15055314D01*
X15576619Y-15036267D01*
X15595667Y-15026743D01*
X15633762Y-15026743D01*
X15652809Y-15036267D01*
X15662333Y-15055314D01*
X15662333Y-15074362D01*
X15567095Y-15093409D01*
X15738524Y-15150552D02*
X15757571Y-15160076D01*
X15795667Y-15160076D01*
X15814714Y-15150552D01*
X15824238Y-15131505D01*
X15824238Y-15121981D01*
X15814714Y-15102933D01*
X15795667Y-15093409D01*
X15767095Y-15093409D01*
X15748048Y-15083886D01*
X15738524Y-15064838D01*
X15738524Y-15055314D01*
X15748048Y-15036267D01*
X15767095Y-15026743D01*
X15795667Y-15026743D01*
X15814714Y-15036267D01*
X15890905Y-15236267D02*
X15900428Y-15226743D01*
X15919476Y-15198171D01*
X15929000Y-15179124D01*
X15938524Y-15150552D01*
X15948048Y-15102933D01*
X15948048Y-15064838D01*
X15938524Y-15017219D01*
X15929000Y-14988648D01*
X15919476Y-14969600D01*
X15900428Y-14941028D01*
X15890905Y-14931505D01*
X16252809Y-15236267D02*
X16243286Y-15226743D01*
X16224238Y-15198171D01*
X16214714Y-15179124D01*
X16205190Y-15150552D01*
X16195667Y-15102933D01*
X16195667Y-15064838D01*
X16205190Y-15017219D01*
X16214714Y-14988648D01*
X16224238Y-14969600D01*
X16243286Y-14941028D01*
X16252809Y-14931505D01*
X16329000Y-15026743D02*
X16329000Y-15160076D01*
X16329000Y-15045790D02*
X16338524Y-15036267D01*
X16357571Y-15026743D01*
X16386143Y-15026743D01*
X16405190Y-15036267D01*
X16414714Y-15055314D01*
X16414714Y-15160076D01*
X16538524Y-15160076D02*
X16519476Y-15150552D01*
X16509952Y-15141028D01*
X16500428Y-15121981D01*
X16500428Y-15064838D01*
X16509952Y-15045790D01*
X16519476Y-15036267D01*
X16538524Y-15026743D01*
X16567095Y-15026743D01*
X16586143Y-15036267D01*
X16595667Y-15045790D01*
X16605190Y-15064838D01*
X16605190Y-15121981D01*
X16595667Y-15141028D01*
X16586143Y-15150552D01*
X16567095Y-15160076D01*
X16538524Y-15160076D01*
X16662333Y-15026743D02*
X16738524Y-15026743D01*
X16690905Y-14960076D02*
X16690905Y-15131505D01*
X16700428Y-15150552D01*
X16719476Y-15160076D01*
X16738524Y-15160076D01*
X16957571Y-15026743D02*
X16957571Y-15226743D01*
X16957571Y-15036267D02*
X16976619Y-15026743D01*
X17014714Y-15026743D01*
X17033762Y-15036267D01*
X17043286Y-15045790D01*
X17052810Y-15064838D01*
X17052810Y-15121981D01*
X17043286Y-15141028D01*
X17033762Y-15150552D01*
X17014714Y-15160076D01*
X16976619Y-15160076D01*
X16957571Y-15150552D01*
X17167095Y-15160076D02*
X17148048Y-15150552D01*
X17138524Y-15131505D01*
X17138524Y-14960076D01*
X17329000Y-15160076D02*
X17329000Y-15055314D01*
X17319476Y-15036267D01*
X17300429Y-15026743D01*
X17262333Y-15026743D01*
X17243286Y-15036267D01*
X17329000Y-15150552D02*
X17309952Y-15160076D01*
X17262333Y-15160076D01*
X17243286Y-15150552D01*
X17233762Y-15131505D01*
X17233762Y-15112457D01*
X17243286Y-15093409D01*
X17262333Y-15083886D01*
X17309952Y-15083886D01*
X17329000Y-15074362D01*
X17395667Y-15026743D02*
X17471857Y-15026743D01*
X17424238Y-14960076D02*
X17424238Y-15131505D01*
X17433762Y-15150552D01*
X17452810Y-15160076D01*
X17471857Y-15160076D01*
X17614714Y-15150552D02*
X17595667Y-15160076D01*
X17557571Y-15160076D01*
X17538524Y-15150552D01*
X17529000Y-15131505D01*
X17529000Y-15055314D01*
X17538524Y-15036267D01*
X17557571Y-15026743D01*
X17595667Y-15026743D01*
X17614714Y-15036267D01*
X17624238Y-15055314D01*
X17624238Y-15074362D01*
X17529000Y-15093409D01*
X17795667Y-15160076D02*
X17795667Y-14960076D01*
X17795667Y-15150552D02*
X17776619Y-15160076D01*
X17738524Y-15160076D01*
X17719476Y-15150552D01*
X17709952Y-15141028D01*
X17700429Y-15121981D01*
X17700429Y-15064838D01*
X17709952Y-15045790D01*
X17719476Y-15036267D01*
X17738524Y-15026743D01*
X17776619Y-15026743D01*
X17795667Y-15036267D01*
X17871857Y-15236267D02*
X17881381Y-15226743D01*
X17900429Y-15198171D01*
X17909952Y-15179124D01*
X17919476Y-15150552D01*
X17929000Y-15102933D01*
X17929000Y-15064838D01*
X17919476Y-15017219D01*
X17909952Y-14988648D01*
X17900429Y-14969600D01*
X17881381Y-14941028D01*
X17871857Y-14931505D01*
X11119000Y-15333600D02*
G75*
G03*
X11119000Y-15333600I-100000J0D01*
G01*
X11357571Y-15224076D02*
X11481381Y-15224076D01*
X11414714Y-15300267D01*
X11443286Y-15300267D01*
X11462333Y-15309790D01*
X11471857Y-15319314D01*
X11481381Y-15338362D01*
X11481381Y-15385981D01*
X11471857Y-15405028D01*
X11462333Y-15414552D01*
X11443286Y-15424076D01*
X11386143Y-15424076D01*
X11367095Y-15414552D01*
X11357571Y-15405028D01*
X11567095Y-15405028D02*
X11576619Y-15414552D01*
X11567095Y-15424076D01*
X11557571Y-15414552D01*
X11567095Y-15405028D01*
X11567095Y-15424076D01*
X11700428Y-15224076D02*
X11719476Y-15224076D01*
X11738524Y-15233600D01*
X11748048Y-15243124D01*
X11757571Y-15262171D01*
X11767095Y-15300267D01*
X11767095Y-15347886D01*
X11757571Y-15385981D01*
X11748048Y-15405028D01*
X11738524Y-15414552D01*
X11719476Y-15424076D01*
X11700428Y-15424076D01*
X11681381Y-15414552D01*
X11671857Y-15405028D01*
X11662333Y-15385981D01*
X11652809Y-15347886D01*
X11652809Y-15300267D01*
X11662333Y-15262171D01*
X11671857Y-15243124D01*
X11681381Y-15233600D01*
X11700428Y-15224076D01*
X11890905Y-15224076D02*
X11909952Y-15224076D01*
X11929000Y-15233600D01*
X11938524Y-15243124D01*
X11948048Y-15262171D01*
X11957571Y-15300267D01*
X11957571Y-15347886D01*
X11948048Y-15385981D01*
X11938524Y-15405028D01*
X11929000Y-15414552D01*
X11909952Y-15424076D01*
X11890905Y-15424076D01*
X11871857Y-15414552D01*
X11862333Y-15405028D01*
X11852809Y-15385981D01*
X11843286Y-15347886D01*
X11843286Y-15300267D01*
X11852809Y-15262171D01*
X11862333Y-15243124D01*
X11871857Y-15233600D01*
X11890905Y-15224076D01*
X12081381Y-15224076D02*
X12100428Y-15224076D01*
X12119476Y-15233600D01*
X12129000Y-15243124D01*
X12138524Y-15262171D01*
X12148048Y-15300267D01*
X12148048Y-15347886D01*
X12138524Y-15385981D01*
X12129000Y-15405028D01*
X12119476Y-15414552D01*
X12100428Y-15424076D01*
X12081381Y-15424076D01*
X12062333Y-15414552D01*
X12052809Y-15405028D01*
X12043286Y-15385981D01*
X12033762Y-15347886D01*
X12033762Y-15300267D01*
X12043286Y-15262171D01*
X12052809Y-15243124D01*
X12062333Y-15233600D01*
X12081381Y-15224076D01*
X12233762Y-15424076D02*
X12233762Y-15290743D01*
X12233762Y-15309790D02*
X12243286Y-15300267D01*
X12262333Y-15290743D01*
X12290905Y-15290743D01*
X12309952Y-15300267D01*
X12319476Y-15319314D01*
X12319476Y-15424076D01*
X12319476Y-15319314D02*
X12329000Y-15300267D01*
X12348048Y-15290743D01*
X12376619Y-15290743D01*
X12395667Y-15300267D01*
X12405190Y-15319314D01*
X12405190Y-15424076D01*
X12500428Y-15424076D02*
X12500428Y-15290743D01*
X12500428Y-15309790D02*
X12509952Y-15300267D01*
X12529000Y-15290743D01*
X12557571Y-15290743D01*
X12576619Y-15300267D01*
X12586143Y-15319314D01*
X12586143Y-15424076D01*
X12586143Y-15319314D02*
X12595667Y-15300267D01*
X12614714Y-15290743D01*
X12643286Y-15290743D01*
X12662333Y-15300267D01*
X12671857Y-15319314D01*
X12671857Y-15424076D01*
X13062333Y-15214552D02*
X12890905Y-15471695D01*
X13319476Y-15224076D02*
X13338524Y-15224076D01*
X13357571Y-15233600D01*
X13367095Y-15243124D01*
X13376619Y-15262171D01*
X13386143Y-15300267D01*
X13386143Y-15347886D01*
X13376619Y-15385981D01*
X13367095Y-15405028D01*
X13357571Y-15414552D01*
X13338524Y-15424076D01*
X13319476Y-15424076D01*
X13300428Y-15414552D01*
X13290905Y-15405028D01*
X13281381Y-15385981D01*
X13271857Y-15347886D01*
X13271857Y-15300267D01*
X13281381Y-15262171D01*
X13290905Y-15243124D01*
X13300428Y-15233600D01*
X13319476Y-15224076D01*
X13471857Y-15405028D02*
X13481381Y-15414552D01*
X13471857Y-15424076D01*
X13462333Y-15414552D01*
X13471857Y-15405028D01*
X13471857Y-15424076D01*
X13671857Y-15424076D02*
X13557571Y-15424076D01*
X13614714Y-15424076D02*
X13614714Y-15224076D01*
X13595667Y-15252648D01*
X13576619Y-15271695D01*
X13557571Y-15281219D01*
X13862333Y-15424076D02*
X13748048Y-15424076D01*
X13805190Y-15424076D02*
X13805190Y-15224076D01*
X13786143Y-15252648D01*
X13767095Y-15271695D01*
X13748048Y-15281219D01*
X13976619Y-15309790D02*
X13957571Y-15300267D01*
X13948048Y-15290743D01*
X13938524Y-15271695D01*
X13938524Y-15262171D01*
X13948048Y-15243124D01*
X13957571Y-15233600D01*
X13976619Y-15224076D01*
X14014714Y-15224076D01*
X14033762Y-15233600D01*
X14043286Y-15243124D01*
X14052809Y-15262171D01*
X14052809Y-15271695D01*
X14043286Y-15290743D01*
X14033762Y-15300267D01*
X14014714Y-15309790D01*
X13976619Y-15309790D01*
X13957571Y-15319314D01*
X13948048Y-15328838D01*
X13938524Y-15347886D01*
X13938524Y-15385981D01*
X13948048Y-15405028D01*
X13957571Y-15414552D01*
X13976619Y-15424076D01*
X14014714Y-15424076D01*
X14033762Y-15414552D01*
X14043286Y-15405028D01*
X14052809Y-15385981D01*
X14052809Y-15347886D01*
X14043286Y-15328838D01*
X14033762Y-15319314D01*
X14014714Y-15309790D01*
X14243286Y-15424076D02*
X14129000Y-15424076D01*
X14186143Y-15424076D02*
X14186143Y-15224076D01*
X14167095Y-15252648D01*
X14148048Y-15271695D01*
X14129000Y-15281219D01*
X14319476Y-15224076D02*
X14319476Y-15262171D01*
X14395667Y-15224076D02*
X14395667Y-15262171D01*
X14690905Y-15500267D02*
X14681381Y-15490743D01*
X14662333Y-15462171D01*
X14652809Y-15443124D01*
X14643286Y-15414552D01*
X14633762Y-15366933D01*
X14633762Y-15328838D01*
X14643286Y-15281219D01*
X14652809Y-15252648D01*
X14662333Y-15233600D01*
X14681381Y-15205028D01*
X14690905Y-15195505D01*
X14852809Y-15290743D02*
X14852809Y-15424076D01*
X14805190Y-15214552D02*
X14757571Y-15357409D01*
X14881381Y-15357409D01*
X15109952Y-15424076D02*
X15109952Y-15224076D01*
X15195667Y-15424076D02*
X15195667Y-15319314D01*
X15186143Y-15300267D01*
X15167095Y-15290743D01*
X15138524Y-15290743D01*
X15119476Y-15300267D01*
X15109952Y-15309790D01*
X15319476Y-15424076D02*
X15300428Y-15414552D01*
X15290905Y-15405028D01*
X15281381Y-15385981D01*
X15281381Y-15328838D01*
X15290905Y-15309790D01*
X15300428Y-15300267D01*
X15319476Y-15290743D01*
X15348048Y-15290743D01*
X15367095Y-15300267D01*
X15376619Y-15309790D01*
X15386143Y-15328838D01*
X15386143Y-15385981D01*
X15376619Y-15405028D01*
X15367095Y-15414552D01*
X15348048Y-15424076D01*
X15319476Y-15424076D01*
X15500428Y-15424076D02*
X15481381Y-15414552D01*
X15471857Y-15395505D01*
X15471857Y-15224076D01*
X15652809Y-15414552D02*
X15633762Y-15424076D01*
X15595667Y-15424076D01*
X15576619Y-15414552D01*
X15567095Y-15395505D01*
X15567095Y-15319314D01*
X15576619Y-15300267D01*
X15595667Y-15290743D01*
X15633762Y-15290743D01*
X15652809Y-15300267D01*
X15662333Y-15319314D01*
X15662333Y-15338362D01*
X15567095Y-15357409D01*
X15738524Y-15414552D02*
X15757571Y-15424076D01*
X15795667Y-15424076D01*
X15814714Y-15414552D01*
X15824238Y-15395505D01*
X15824238Y-15385981D01*
X15814714Y-15366933D01*
X15795667Y-15357409D01*
X15767095Y-15357409D01*
X15748048Y-15347886D01*
X15738524Y-15328838D01*
X15738524Y-15319314D01*
X15748048Y-15300267D01*
X15767095Y-15290743D01*
X15795667Y-15290743D01*
X15814714Y-15300267D01*
X15890905Y-15500267D02*
X15900428Y-15490743D01*
X15919476Y-15462171D01*
X15929000Y-15443124D01*
X15938524Y-15414552D01*
X15948048Y-15366933D01*
X15948048Y-15328838D01*
X15938524Y-15281219D01*
X15929000Y-15252648D01*
X15919476Y-15233600D01*
X15900428Y-15205028D01*
X15890905Y-15195505D01*
X16252809Y-15500267D02*
X16243286Y-15490743D01*
X16224238Y-15462171D01*
X16214714Y-15443124D01*
X16205190Y-15414552D01*
X16195667Y-15366933D01*
X16195667Y-15328838D01*
X16205190Y-15281219D01*
X16214714Y-15252648D01*
X16224238Y-15233600D01*
X16243286Y-15205028D01*
X16252809Y-15195505D01*
X16329000Y-15290743D02*
X16329000Y-15424076D01*
X16329000Y-15309790D02*
X16338524Y-15300267D01*
X16357571Y-15290743D01*
X16386143Y-15290743D01*
X16405190Y-15300267D01*
X16414714Y-15319314D01*
X16414714Y-15424076D01*
X16538524Y-15424076D02*
X16519476Y-15414552D01*
X16509952Y-15405028D01*
X16500428Y-15385981D01*
X16500428Y-15328838D01*
X16509952Y-15309790D01*
X16519476Y-15300267D01*
X16538524Y-15290743D01*
X16567095Y-15290743D01*
X16586143Y-15300267D01*
X16595667Y-15309790D01*
X16605190Y-15328838D01*
X16605190Y-15385981D01*
X16595667Y-15405028D01*
X16586143Y-15414552D01*
X16567095Y-15424076D01*
X16538524Y-15424076D01*
X16662333Y-15290743D02*
X16738524Y-15290743D01*
X16690905Y-15224076D02*
X16690905Y-15395505D01*
X16700428Y-15414552D01*
X16719476Y-15424076D01*
X16738524Y-15424076D01*
X16957571Y-15290743D02*
X16957571Y-15490743D01*
X16957571Y-15300267D02*
X16976619Y-15290743D01*
X17014714Y-15290743D01*
X17033762Y-15300267D01*
X17043286Y-15309790D01*
X17052810Y-15328838D01*
X17052810Y-15385981D01*
X17043286Y-15405028D01*
X17033762Y-15414552D01*
X17014714Y-15424076D01*
X16976619Y-15424076D01*
X16957571Y-15414552D01*
X17167095Y-15424076D02*
X17148048Y-15414552D01*
X17138524Y-15395505D01*
X17138524Y-15224076D01*
X17329000Y-15424076D02*
X17329000Y-15319314D01*
X17319476Y-15300267D01*
X17300429Y-15290743D01*
X17262333Y-15290743D01*
X17243286Y-15300267D01*
X17329000Y-15414552D02*
X17309952Y-15424076D01*
X17262333Y-15424076D01*
X17243286Y-15414552D01*
X17233762Y-15395505D01*
X17233762Y-15376457D01*
X17243286Y-15357409D01*
X17262333Y-15347886D01*
X17309952Y-15347886D01*
X17329000Y-15338362D01*
X17395667Y-15290743D02*
X17471857Y-15290743D01*
X17424238Y-15224076D02*
X17424238Y-15395505D01*
X17433762Y-15414552D01*
X17452810Y-15424076D01*
X17471857Y-15424076D01*
X17614714Y-15414552D02*
X17595667Y-15424076D01*
X17557571Y-15424076D01*
X17538524Y-15414552D01*
X17529000Y-15395505D01*
X17529000Y-15319314D01*
X17538524Y-15300267D01*
X17557571Y-15290743D01*
X17595667Y-15290743D01*
X17614714Y-15300267D01*
X17624238Y-15319314D01*
X17624238Y-15338362D01*
X17529000Y-15357409D01*
X17795667Y-15424076D02*
X17795667Y-15224076D01*
X17795667Y-15414552D02*
X17776619Y-15424076D01*
X17738524Y-15424076D01*
X17719476Y-15414552D01*
X17709952Y-15405028D01*
X17700429Y-15385981D01*
X17700429Y-15328838D01*
X17709952Y-15309790D01*
X17719476Y-15300267D01*
X17738524Y-15290743D01*
X17776619Y-15290743D01*
X17795667Y-15300267D01*
X17871857Y-15500267D02*
X17881381Y-15490743D01*
X17900429Y-15462171D01*
X17909952Y-15443124D01*
X17919476Y-15414552D01*
X17929000Y-15366933D01*
X17929000Y-15328838D01*
X17919476Y-15281219D01*
X17909952Y-15252648D01*
X17900429Y-15233600D01*
X17881381Y-15205028D01*
X17871857Y-15195505D01*
X11019000Y-15553600D02*
X11019000Y-15753600D01*
X10919000Y-15653600D02*
X11119000Y-15653600D01*
X11357571Y-15544076D02*
X11481381Y-15544076D01*
X11414714Y-15620267D01*
X11443286Y-15620267D01*
X11462333Y-15629790D01*
X11471857Y-15639314D01*
X11481381Y-15658362D01*
X11481381Y-15705981D01*
X11471857Y-15725028D01*
X11462333Y-15734552D01*
X11443286Y-15744076D01*
X11386143Y-15744076D01*
X11367095Y-15734552D01*
X11357571Y-15725028D01*
X11567095Y-15725028D02*
X11576619Y-15734552D01*
X11567095Y-15744076D01*
X11557571Y-15734552D01*
X11567095Y-15725028D01*
X11567095Y-15744076D01*
X11652809Y-15563124D02*
X11662333Y-15553600D01*
X11681381Y-15544076D01*
X11729000Y-15544076D01*
X11748048Y-15553600D01*
X11757571Y-15563124D01*
X11767095Y-15582171D01*
X11767095Y-15601219D01*
X11757571Y-15629790D01*
X11643286Y-15744076D01*
X11767095Y-15744076D01*
X11890905Y-15544076D02*
X11909952Y-15544076D01*
X11929000Y-15553600D01*
X11938524Y-15563124D01*
X11948048Y-15582171D01*
X11957571Y-15620267D01*
X11957571Y-15667886D01*
X11948048Y-15705981D01*
X11938524Y-15725028D01*
X11929000Y-15734552D01*
X11909952Y-15744076D01*
X11890905Y-15744076D01*
X11871857Y-15734552D01*
X11862333Y-15725028D01*
X11852809Y-15705981D01*
X11843286Y-15667886D01*
X11843286Y-15620267D01*
X11852809Y-15582171D01*
X11862333Y-15563124D01*
X11871857Y-15553600D01*
X11890905Y-15544076D01*
X12081381Y-15544076D02*
X12100428Y-15544076D01*
X12119476Y-15553600D01*
X12129000Y-15563124D01*
X12138524Y-15582171D01*
X12148048Y-15620267D01*
X12148048Y-15667886D01*
X12138524Y-15705981D01*
X12129000Y-15725028D01*
X12119476Y-15734552D01*
X12100428Y-15744076D01*
X12081381Y-15744076D01*
X12062333Y-15734552D01*
X12052809Y-15725028D01*
X12043286Y-15705981D01*
X12033762Y-15667886D01*
X12033762Y-15620267D01*
X12043286Y-15582171D01*
X12052809Y-15563124D01*
X12062333Y-15553600D01*
X12081381Y-15544076D01*
X12233762Y-15744076D02*
X12233762Y-15610743D01*
X12233762Y-15629790D02*
X12243286Y-15620267D01*
X12262333Y-15610743D01*
X12290905Y-15610743D01*
X12309952Y-15620267D01*
X12319476Y-15639314D01*
X12319476Y-15744076D01*
X12319476Y-15639314D02*
X12329000Y-15620267D01*
X12348048Y-15610743D01*
X12376619Y-15610743D01*
X12395667Y-15620267D01*
X12405190Y-15639314D01*
X12405190Y-15744076D01*
X12500428Y-15744076D02*
X12500428Y-15610743D01*
X12500428Y-15629790D02*
X12509952Y-15620267D01*
X12529000Y-15610743D01*
X12557571Y-15610743D01*
X12576619Y-15620267D01*
X12586143Y-15639314D01*
X12586143Y-15744076D01*
X12586143Y-15639314D02*
X12595667Y-15620267D01*
X12614714Y-15610743D01*
X12643286Y-15610743D01*
X12662333Y-15620267D01*
X12671857Y-15639314D01*
X12671857Y-15744076D01*
X13062333Y-15534552D02*
X12890905Y-15791695D01*
X13319476Y-15544076D02*
X13338524Y-15544076D01*
X13357571Y-15553600D01*
X13367095Y-15563124D01*
X13376619Y-15582171D01*
X13386143Y-15620267D01*
X13386143Y-15667886D01*
X13376619Y-15705981D01*
X13367095Y-15725028D01*
X13357571Y-15734552D01*
X13338524Y-15744076D01*
X13319476Y-15744076D01*
X13300428Y-15734552D01*
X13290905Y-15725028D01*
X13281381Y-15705981D01*
X13271857Y-15667886D01*
X13271857Y-15620267D01*
X13281381Y-15582171D01*
X13290905Y-15563124D01*
X13300428Y-15553600D01*
X13319476Y-15544076D01*
X13471857Y-15725028D02*
X13481381Y-15734552D01*
X13471857Y-15744076D01*
X13462333Y-15734552D01*
X13471857Y-15725028D01*
X13471857Y-15744076D01*
X13671857Y-15744076D02*
X13557571Y-15744076D01*
X13614714Y-15744076D02*
X13614714Y-15544076D01*
X13595667Y-15572648D01*
X13576619Y-15591695D01*
X13557571Y-15601219D01*
X13748048Y-15563124D02*
X13757571Y-15553600D01*
X13776619Y-15544076D01*
X13824238Y-15544076D01*
X13843286Y-15553600D01*
X13852809Y-15563124D01*
X13862333Y-15582171D01*
X13862333Y-15601219D01*
X13852809Y-15629790D01*
X13738524Y-15744076D01*
X13862333Y-15744076D01*
X14033762Y-15544076D02*
X13995667Y-15544076D01*
X13976619Y-15553600D01*
X13967095Y-15563124D01*
X13948048Y-15591695D01*
X13938524Y-15629790D01*
X13938524Y-15705981D01*
X13948048Y-15725028D01*
X13957571Y-15734552D01*
X13976619Y-15744076D01*
X14014714Y-15744076D01*
X14033762Y-15734552D01*
X14043286Y-15725028D01*
X14052809Y-15705981D01*
X14052809Y-15658362D01*
X14043286Y-15639314D01*
X14033762Y-15629790D01*
X14014714Y-15620267D01*
X13976619Y-15620267D01*
X13957571Y-15629790D01*
X13948048Y-15639314D01*
X13938524Y-15658362D01*
X14176619Y-15544076D02*
X14195667Y-15544076D01*
X14214714Y-15553600D01*
X14224238Y-15563124D01*
X14233762Y-15582171D01*
X14243286Y-15620267D01*
X14243286Y-15667886D01*
X14233762Y-15705981D01*
X14224238Y-15725028D01*
X14214714Y-15734552D01*
X14195667Y-15744076D01*
X14176619Y-15744076D01*
X14157571Y-15734552D01*
X14148048Y-15725028D01*
X14138524Y-15705981D01*
X14129000Y-15667886D01*
X14129000Y-15620267D01*
X14138524Y-15582171D01*
X14148048Y-15563124D01*
X14157571Y-15553600D01*
X14176619Y-15544076D01*
X14319476Y-15544076D02*
X14319476Y-15582171D01*
X14395667Y-15544076D02*
X14395667Y-15582171D01*
X14690905Y-15820267D02*
X14681381Y-15810743D01*
X14662333Y-15782171D01*
X14652809Y-15763124D01*
X14643286Y-15734552D01*
X14633762Y-15686933D01*
X14633762Y-15648838D01*
X14643286Y-15601219D01*
X14652809Y-15572648D01*
X14662333Y-15553600D01*
X14681381Y-15525028D01*
X14690905Y-15515505D01*
X14757571Y-15563124D02*
X14767095Y-15553600D01*
X14786143Y-15544076D01*
X14833762Y-15544076D01*
X14852809Y-15553600D01*
X14862333Y-15563124D01*
X14871857Y-15582171D01*
X14871857Y-15601219D01*
X14862333Y-15629790D01*
X14748048Y-15744076D01*
X14871857Y-15744076D01*
X15109952Y-15744076D02*
X15109952Y-15544076D01*
X15195667Y-15744076D02*
X15195667Y-15639314D01*
X15186143Y-15620267D01*
X15167095Y-15610743D01*
X15138524Y-15610743D01*
X15119476Y-15620267D01*
X15109952Y-15629790D01*
X15319476Y-15744076D02*
X15300428Y-15734552D01*
X15290905Y-15725028D01*
X15281381Y-15705981D01*
X15281381Y-15648838D01*
X15290905Y-15629790D01*
X15300428Y-15620267D01*
X15319476Y-15610743D01*
X15348048Y-15610743D01*
X15367095Y-15620267D01*
X15376619Y-15629790D01*
X15386143Y-15648838D01*
X15386143Y-15705981D01*
X15376619Y-15725028D01*
X15367095Y-15734552D01*
X15348048Y-15744076D01*
X15319476Y-15744076D01*
X15500428Y-15744076D02*
X15481381Y-15734552D01*
X15471857Y-15715505D01*
X15471857Y-15544076D01*
X15652809Y-15734552D02*
X15633762Y-15744076D01*
X15595667Y-15744076D01*
X15576619Y-15734552D01*
X15567095Y-15715505D01*
X15567095Y-15639314D01*
X15576619Y-15620267D01*
X15595667Y-15610743D01*
X15633762Y-15610743D01*
X15652809Y-15620267D01*
X15662333Y-15639314D01*
X15662333Y-15658362D01*
X15567095Y-15677409D01*
X15738524Y-15734552D02*
X15757571Y-15744076D01*
X15795667Y-15744076D01*
X15814714Y-15734552D01*
X15824238Y-15715505D01*
X15824238Y-15705981D01*
X15814714Y-15686933D01*
X15795667Y-15677409D01*
X15767095Y-15677409D01*
X15748048Y-15667886D01*
X15738524Y-15648838D01*
X15738524Y-15639314D01*
X15748048Y-15620267D01*
X15767095Y-15610743D01*
X15795667Y-15610743D01*
X15814714Y-15620267D01*
X15890905Y-15820267D02*
X15900428Y-15810743D01*
X15919476Y-15782171D01*
X15929000Y-15763124D01*
X15938524Y-15734552D01*
X15948048Y-15686933D01*
X15948048Y-15648838D01*
X15938524Y-15601219D01*
X15929000Y-15572648D01*
X15919476Y-15553600D01*
X15900428Y-15525028D01*
X15890905Y-15515505D01*
X16252809Y-15820267D02*
X16243286Y-15810743D01*
X16224238Y-15782171D01*
X16214714Y-15763124D01*
X16205190Y-15734552D01*
X16195667Y-15686933D01*
X16195667Y-15648838D01*
X16205190Y-15601219D01*
X16214714Y-15572648D01*
X16224238Y-15553600D01*
X16243286Y-15525028D01*
X16252809Y-15515505D01*
X16329000Y-15610743D02*
X16329000Y-15744076D01*
X16329000Y-15629790D02*
X16338524Y-15620267D01*
X16357571Y-15610743D01*
X16386143Y-15610743D01*
X16405190Y-15620267D01*
X16414714Y-15639314D01*
X16414714Y-15744076D01*
X16538524Y-15744076D02*
X16519476Y-15734552D01*
X16509952Y-15725028D01*
X16500428Y-15705981D01*
X16500428Y-15648838D01*
X16509952Y-15629790D01*
X16519476Y-15620267D01*
X16538524Y-15610743D01*
X16567095Y-15610743D01*
X16586143Y-15620267D01*
X16595667Y-15629790D01*
X16605190Y-15648838D01*
X16605190Y-15705981D01*
X16595667Y-15725028D01*
X16586143Y-15734552D01*
X16567095Y-15744076D01*
X16538524Y-15744076D01*
X16662333Y-15610743D02*
X16738524Y-15610743D01*
X16690905Y-15544076D02*
X16690905Y-15715505D01*
X16700428Y-15734552D01*
X16719476Y-15744076D01*
X16738524Y-15744076D01*
X16957571Y-15610743D02*
X16957571Y-15810743D01*
X16957571Y-15620267D02*
X16976619Y-15610743D01*
X17014714Y-15610743D01*
X17033762Y-15620267D01*
X17043286Y-15629790D01*
X17052810Y-15648838D01*
X17052810Y-15705981D01*
X17043286Y-15725028D01*
X17033762Y-15734552D01*
X17014714Y-15744076D01*
X16976619Y-15744076D01*
X16957571Y-15734552D01*
X17167095Y-15744076D02*
X17148048Y-15734552D01*
X17138524Y-15715505D01*
X17138524Y-15544076D01*
X17329000Y-15744076D02*
X17329000Y-15639314D01*
X17319476Y-15620267D01*
X17300429Y-15610743D01*
X17262333Y-15610743D01*
X17243286Y-15620267D01*
X17329000Y-15734552D02*
X17309952Y-15744076D01*
X17262333Y-15744076D01*
X17243286Y-15734552D01*
X17233762Y-15715505D01*
X17233762Y-15696457D01*
X17243286Y-15677409D01*
X17262333Y-15667886D01*
X17309952Y-15667886D01*
X17329000Y-15658362D01*
X17395667Y-15610743D02*
X17471857Y-15610743D01*
X17424238Y-15544076D02*
X17424238Y-15715505D01*
X17433762Y-15734552D01*
X17452810Y-15744076D01*
X17471857Y-15744076D01*
X17614714Y-15734552D02*
X17595667Y-15744076D01*
X17557571Y-15744076D01*
X17538524Y-15734552D01*
X17529000Y-15715505D01*
X17529000Y-15639314D01*
X17538524Y-15620267D01*
X17557571Y-15610743D01*
X17595667Y-15610743D01*
X17614714Y-15620267D01*
X17624238Y-15639314D01*
X17624238Y-15658362D01*
X17529000Y-15677409D01*
X17795667Y-15744076D02*
X17795667Y-15544076D01*
X17795667Y-15734552D02*
X17776619Y-15744076D01*
X17738524Y-15744076D01*
X17719476Y-15734552D01*
X17709952Y-15725028D01*
X17700429Y-15705981D01*
X17700429Y-15648838D01*
X17709952Y-15629790D01*
X17719476Y-15620267D01*
X17738524Y-15610743D01*
X17776619Y-15610743D01*
X17795667Y-15620267D01*
X17871857Y-15820267D02*
X17881381Y-15810743D01*
X17900429Y-15782171D01*
X17909952Y-15763124D01*
X17919476Y-15734552D01*
X17929000Y-15686933D01*
X17929000Y-15648838D01*
X17919476Y-15601219D01*
X17909952Y-15572648D01*
X17900429Y-15553600D01*
X17881381Y-15525028D01*
X17871857Y-15515505D01*
M02*
