M48
; DRILL file {KiCad (6.0.0)} date Tue Mar  8 01:23:50 2022
; FORMAT={-:-/ absolute / metric / decimal}
; #@! TF.CreationDate,2022-03-08T01:23:50+02:00
; #@! TF.GenerationSoftware,Kicad,Pcbnew,(6.0.0)
; #@! TF.FileFunction,Plated,1,4,PTH
FMAT,2
METRIC
; #@! TA.AperFunction,Plated,PTH,ViaDrill
T1C0.400
; #@! TA.AperFunction,Plated,PTH,ComponentDrill
T2C0.600
; #@! TA.AperFunction,Plated,PTH,ComponentDrill
T3C0.650
; #@! TA.AperFunction,Plated,PTH,ComponentDrill
T4C0.760
; #@! TA.AperFunction,Plated,PTH,ComponentDrill
T5C0.790
; #@! TA.AperFunction,Plated,PTH,ComponentDrill
T6C1.000
; #@! TA.AperFunction,Plated,PTH,ComponentDrill
T7C1.750
; #@! TA.AperFunction,Plated,PTH,ComponentDrill
T8C2.100
%
G90
G05
T1
X114.3Y-71.12
X114.3Y-104.14
X114.3Y-114.3
X114.3Y-124.46
X114.3Y-134.62
X120.015Y-60.434
X120.015Y-61.909
X121.285Y-59.69
X121.285Y-62.865
X121.412Y-95.504
X121.92Y-45.72
X121.92Y-137.16
X122.682Y-78.486
X123.952Y-78.486
X125.984Y-66.548
X127.762Y-66.548
X128.778Y-58.928
X128.778Y-62.992
X129.032Y-82.296
X129.794Y-57.912
X130.048Y-99.822
X130.302Y-78.74
X130.81Y-56.388
X131.064Y-75.692
X131.572Y-82.296
X131.798Y-57.871
X132.08Y-45.72
X132.08Y-109.22
X132.08Y-116.84
X132.08Y-137.16
X132.842Y-62.738
X132.842Y-82.296
X132.842Y-99.314
X132.963Y-105.543
X133.35Y-55.245
X133.858Y-57.658
X133.858Y-60.706
X134.112Y-64.008
X134.112Y-78.486
X134.112Y-99.314
X135.382Y-78.486
X135.636Y-121.92
X138.684Y-102.616
X139.7Y-45.72
X139.7Y-68.58
X139.7Y-116.84
X139.7Y-137.16
X140.208Y-61.214
X141.224Y-121.92
X147.066Y-110.49
X147.32Y-119.888
X147.32Y-124.714
X147.32Y-137.16
X148.844Y-100.62
X149.352Y-76.454
X149.57Y-101.346
X149.57Y-119.087
X149.606Y-102.362
X149.86Y-71.628
X151.892Y-70.104
X151.892Y-83.566
X152.4Y-135.128
X152.908Y-80.264
X152.908Y-98.298
X154.94Y-114.3
X157.226Y-76.454
X157.48Y-93.98
X159.512Y-103.886
X160.02Y-75.692
X160.02Y-81.28
X160.63Y-77.165
X161.042Y-75.698
X162.052Y-101.346
X162.306Y-90.932
X162.56Y-121.92
X162.712Y-71.12
X162.763Y-72.695
X163.83Y-57.15
X165.1Y-57.15
X165.1Y-58.42
X165.1Y-59.69
X165.1Y-60.96
X165.1Y-62.23
X166.37Y-57.15
X166.37Y-58.42
X166.37Y-59.69
X166.37Y-60.96
X166.37Y-62.23
X167.64Y-48.768
X168.91Y-52.07
X168.91Y-53.34
X168.91Y-54.61
X169.012Y-70.866
X169.062Y-72.39
X169.113Y-81.534
X169.164Y-90.932
X169.672Y-73.711
X169.672Y-75.184
X169.926Y-101.346
X170.18Y-45.72
X170.18Y-52.07
X170.18Y-53.34
X170.18Y-54.61
X170.18Y-137.16
X171.45Y-52.07
X171.45Y-53.34
X171.45Y-54.61
X172.466Y-126.492
X172.72Y-109.22
X173.99Y-125.222
X175.26Y-68.58
X176.53Y-52.07
X176.53Y-53.34
X176.53Y-54.61
X177.8Y-52.07
X177.8Y-53.34
X177.8Y-54.61
X177.8Y-66.294
X177.8Y-96.012
X177.8Y-103.378
X177.8Y-132.842
X177.8Y-137.16
X178.816Y-128.016
X180.848Y-90.932
X182.88Y-81.28
X182.88Y-109.22
X183.134Y-61.976
X185.42Y-137.16
X187.452Y-55.88
X187.96Y-77.47
X187.96Y-78.74
X187.96Y-81.28
X188.214Y-113.944
X188.214Y-115.214
X189.23Y-77.47
X189.23Y-78.74
X189.484Y-113.944
X189.484Y-115.214
X190.5Y-77.47
X190.5Y-78.74
X190.754Y-113.944
X190.754Y-115.214
X191.77Y-77.47
X191.77Y-78.74
X192.024Y-113.944
X192.024Y-115.214
X192.532Y-49.53
X193.04Y-77.47
X193.04Y-78.74
X193.04Y-96.52
X193.04Y-109.22
X193.04Y-137.16
X193.294Y-113.944
X193.294Y-115.214
X194.31Y-123.19
X195.072Y-62.992
X195.285Y-85.945
X196.469Y-57.785
X196.596Y-46.99
X196.85Y-50.292
X197.104Y-81.915
X197.104Y-82.931
X197.104Y-83.947
X197.104Y-84.963
X197.358Y-118.872
X197.358Y-119.888
X197.358Y-120.904
X197.358Y-121.92
X197.612Y-54.102
X198.12Y-50.292
X198.12Y-71.12
X198.12Y-81.915
X198.12Y-82.931
X198.12Y-83.947
X198.12Y-84.963
X198.374Y-118.872
X198.374Y-119.888
X198.374Y-120.904
X198.374Y-121.92
X198.628Y-57.658
X199.644Y-54.356
X199.644Y-55.372
X199.644Y-56.388
X199.644Y-57.404
X200.533Y-85.852
X200.66Y-52.324
X200.66Y-53.34
X200.66Y-54.356
X200.66Y-55.372
X200.66Y-56.388
X200.66Y-57.404
X200.66Y-68.58
X200.66Y-96.52
X200.66Y-137.16
X201.676Y-52.324
X201.676Y-53.34
X201.676Y-54.356
X201.676Y-55.372
X201.676Y-56.388
X201.676Y-57.404
X201.93Y-123.19
X202.184Y-121.666
X202.946Y-57.785
X203.2Y-121.666
X203.454Y-82.804
X203.454Y-83.82
X203.454Y-84.836
X203.454Y-122.682
X204.216Y-121.92
X204.47Y-85.598
X204.47Y-122.936
X204.724Y-59.69
X205.232Y-122.174
X205.486Y-85.598
X205.486Y-123.19
X205.74Y-64.516
X205.994Y-53.848
X206.248Y-122.174
X206.502Y-85.598
X206.502Y-123.19
X207.518Y-63.246
X208.026Y-53.848
X208.28Y-45.72
X208.28Y-71.12
X208.28Y-91.44
X208.28Y-96.52
X208.28Y-127.0
X208.28Y-134.62
X209.423Y-60.325
T3
X139.564Y-80.376
X139.564Y-81.646
T4
X125.095Y-122.555
X125.095Y-125.095
X125.095Y-127.635
X125.095Y-130.175
X127.635Y-123.825
X127.635Y-126.365
X127.635Y-128.905
X127.635Y-131.445
T5
X205.711Y-100.872
X205.711Y-103.522
X205.711Y-106.172
T6
X141.224Y-93.726
X141.224Y-96.266
X173.736Y-53.512
X173.736Y-58.512
T7
X155.636Y-140.208
X161.036Y-140.208
X182.372Y-47.752
X187.772Y-47.752
X205.232Y-114.648
X205.232Y-120.048
X205.486Y-78.232
X205.486Y-83.632
T8
X150.416Y-47.176
X156.416Y-47.176
T2
X114.065Y-56.64G85X113.265Y-56.64
G05
X114.065Y-65.28G85X113.265Y-65.28
G05
X118.395Y-56.64G85X117.295Y-56.64
G05
X118.395Y-65.28G85X117.295Y-65.28
G05
T0
M30
