%FSLAX45Y45*%
G04 Gerber Fmt 4.5, Leading zero omitted, Abs format (unit mm)*
G04 Created by KiCad (PCBNEW (6.0.0)) date 2022-03-08 01:23:57*
%MOMM*%
%LPD*%
G01*
G04 APERTURE LIST*
%TA.AperFunction,Profile*%
%ADD10C,0.200000*%
%TD*%
%ADD11C,0.200000*%
%ADD12C,0.040000*%
%ADD13C,0.060000*%
%ADD14C,0.065000*%
%ADD15C,0.076000*%
%ADD16C,0.079000*%
%ADD17C,0.100000*%
%ADD18C,0.175000*%
%ADD19C,0.210000*%
G04 APERTURE END LIST*
D10*
X11129000Y-4419600D02*
X21129000Y-4419600D01*
X21129000Y-4419600D02*
X21129000Y-14419600D01*
X21129000Y-14419600D02*
X11129000Y-14419600D01*
X11129000Y-14419600D02*
X11129000Y-4419600D01*
D11*
D12*
X11410000Y-7092000D02*
X11450000Y-7132000D01*
X11450000Y-7092000D02*
X11410000Y-7132000D01*
X11410000Y-10394000D02*
X11450000Y-10434000D01*
X11450000Y-10394000D02*
X11410000Y-10434000D01*
X11410000Y-11410000D02*
X11450000Y-11450000D01*
X11450000Y-11410000D02*
X11410000Y-11450000D01*
X11410000Y-12426000D02*
X11450000Y-12466000D01*
X11450000Y-12426000D02*
X11410000Y-12466000D01*
X11410000Y-13442000D02*
X11450000Y-13482000D01*
X11450000Y-13442000D02*
X11410000Y-13482000D01*
X11981500Y-6023450D02*
X12021500Y-6063450D01*
X12021500Y-6023450D02*
X11981500Y-6063450D01*
X11981500Y-6170950D02*
X12021500Y-6210950D01*
X12021500Y-6170950D02*
X11981500Y-6210950D01*
X12108500Y-5949000D02*
X12148500Y-5989000D01*
X12148500Y-5949000D02*
X12108500Y-5989000D01*
X12108500Y-6266500D02*
X12148500Y-6306500D01*
X12148500Y-6266500D02*
X12108500Y-6306500D01*
X12121200Y-9530400D02*
X12161200Y-9570400D01*
X12161200Y-9530400D02*
X12121200Y-9570400D01*
X12172000Y-4552000D02*
X12212000Y-4592000D01*
X12212000Y-4552000D02*
X12172000Y-4592000D01*
X12172000Y-13696000D02*
X12212000Y-13736000D01*
X12212000Y-13696000D02*
X12172000Y-13736000D01*
X12248200Y-7828600D02*
X12288200Y-7868600D01*
X12288200Y-7828600D02*
X12248200Y-7868600D01*
X12375200Y-7828600D02*
X12415200Y-7868600D01*
X12415200Y-7828600D02*
X12375200Y-7868600D01*
X12578400Y-6634800D02*
X12618400Y-6674800D01*
X12618400Y-6634800D02*
X12578400Y-6674800D01*
X12756200Y-6634800D02*
X12796200Y-6674800D01*
X12796200Y-6634800D02*
X12756200Y-6674800D01*
X12857800Y-5872800D02*
X12897800Y-5912800D01*
X12897800Y-5872800D02*
X12857800Y-5912800D01*
X12857800Y-6279200D02*
X12897800Y-6319200D01*
X12897800Y-6279200D02*
X12857800Y-6319200D01*
X12883200Y-8209600D02*
X12923200Y-8249600D01*
X12923200Y-8209600D02*
X12883200Y-8249600D01*
X12959400Y-5771200D02*
X12999400Y-5811200D01*
X12999400Y-5771200D02*
X12959400Y-5811200D01*
X12984800Y-9962200D02*
X13024800Y-10002200D01*
X13024800Y-9962200D02*
X12984800Y-10002200D01*
X13010200Y-7854000D02*
X13050200Y-7894000D01*
X13050200Y-7854000D02*
X13010200Y-7894000D01*
X13061000Y-5618800D02*
X13101000Y-5658800D01*
X13101000Y-5618800D02*
X13061000Y-5658800D01*
X13086400Y-7549200D02*
X13126400Y-7589200D01*
X13126400Y-7549200D02*
X13086400Y-7589200D01*
X13137200Y-8209600D02*
X13177200Y-8249600D01*
X13177200Y-8209600D02*
X13137200Y-8249600D01*
X13159800Y-5767100D02*
X13199800Y-5807100D01*
X13199800Y-5767100D02*
X13159800Y-5807100D01*
X13188000Y-4552000D02*
X13228000Y-4592000D01*
X13228000Y-4552000D02*
X13188000Y-4592000D01*
X13188000Y-10902000D02*
X13228000Y-10942000D01*
X13228000Y-10902000D02*
X13188000Y-10942000D01*
X13188000Y-11664000D02*
X13228000Y-11704000D01*
X13228000Y-11664000D02*
X13188000Y-11704000D01*
X13188000Y-13696000D02*
X13228000Y-13736000D01*
X13228000Y-13696000D02*
X13188000Y-13736000D01*
X13264200Y-6253800D02*
X13304200Y-6293800D01*
X13304200Y-6253800D02*
X13264200Y-6293800D01*
X13264200Y-8209600D02*
X13304200Y-8249600D01*
X13304200Y-8209600D02*
X13264200Y-8249600D01*
X13264200Y-9911400D02*
X13304200Y-9951400D01*
X13304200Y-9911400D02*
X13264200Y-9951400D01*
X13276329Y-10534271D02*
X13316329Y-10574271D01*
X13316329Y-10534271D02*
X13276329Y-10574271D01*
X13315000Y-5504500D02*
X13355000Y-5544500D01*
X13355000Y-5504500D02*
X13315000Y-5544500D01*
X13365800Y-5745800D02*
X13405800Y-5785800D01*
X13405800Y-5745800D02*
X13365800Y-5785800D01*
X13365800Y-6050600D02*
X13405800Y-6090600D01*
X13405800Y-6050600D02*
X13365800Y-6090600D01*
X13391200Y-6380800D02*
X13431200Y-6420800D01*
X13431200Y-6380800D02*
X13391200Y-6420800D01*
X13391200Y-7828600D02*
X13431200Y-7868600D01*
X13431200Y-7828600D02*
X13391200Y-7868600D01*
X13391200Y-9911400D02*
X13431200Y-9951400D01*
X13431200Y-9911400D02*
X13391200Y-9951400D01*
X13518200Y-7828600D02*
X13558200Y-7868600D01*
X13558200Y-7828600D02*
X13518200Y-7868600D01*
X13543600Y-12172000D02*
X13583600Y-12212000D01*
X13583600Y-12172000D02*
X13543600Y-12212000D01*
X13848400Y-10241600D02*
X13888400Y-10281600D01*
X13888400Y-10241600D02*
X13848400Y-10281600D01*
X13950000Y-4552000D02*
X13990000Y-4592000D01*
X13990000Y-4552000D02*
X13950000Y-4592000D01*
X13950000Y-6838000D02*
X13990000Y-6878000D01*
X13990000Y-6838000D02*
X13950000Y-6878000D01*
X13950000Y-11664000D02*
X13990000Y-11704000D01*
X13990000Y-11664000D02*
X13950000Y-11704000D01*
X13950000Y-13696000D02*
X13990000Y-13736000D01*
X13990000Y-13696000D02*
X13950000Y-13736000D01*
X14000800Y-6101400D02*
X14040800Y-6141400D01*
X14040800Y-6101400D02*
X14000800Y-6141400D01*
X14102400Y-12172000D02*
X14142400Y-12212000D01*
X14142400Y-12172000D02*
X14102400Y-12212000D01*
X14686600Y-11029000D02*
X14726600Y-11069000D01*
X14726600Y-11029000D02*
X14686600Y-11069000D01*
X14712000Y-11968800D02*
X14752000Y-12008800D01*
X14752000Y-11968800D02*
X14712000Y-12008800D01*
X14712000Y-12451400D02*
X14752000Y-12491400D01*
X14752000Y-12451400D02*
X14712000Y-12491400D01*
X14712000Y-13696000D02*
X14752000Y-13736000D01*
X14752000Y-13696000D02*
X14712000Y-13736000D01*
X14864400Y-10041950D02*
X14904400Y-10081950D01*
X14904400Y-10041950D02*
X14864400Y-10081950D01*
X14915200Y-7625400D02*
X14955200Y-7665400D01*
X14955200Y-7625400D02*
X14915200Y-7665400D01*
X14937050Y-10114600D02*
X14977050Y-10154600D01*
X14977050Y-10114600D02*
X14937050Y-10154600D01*
X14937050Y-11888729D02*
X14977050Y-11928729D01*
X14977050Y-11888729D02*
X14937050Y-11928729D01*
X14940600Y-10216200D02*
X14980600Y-10256200D01*
X14980600Y-10216200D02*
X14940600Y-10256200D01*
X14966000Y-7142800D02*
X15006000Y-7182800D01*
X15006000Y-7142800D02*
X14966000Y-7182800D01*
X15169200Y-6990400D02*
X15209200Y-7030400D01*
X15209200Y-6990400D02*
X15169200Y-7030400D01*
X15169200Y-8336600D02*
X15209200Y-8376600D01*
X15209200Y-8336600D02*
X15169200Y-8376600D01*
X15220000Y-13492800D02*
X15260000Y-13532800D01*
X15260000Y-13492800D02*
X15220000Y-13532800D01*
X15270800Y-8006400D02*
X15310800Y-8046400D01*
X15310800Y-8006400D02*
X15270800Y-8046400D01*
X15270800Y-9809800D02*
X15310800Y-9849800D01*
X15310800Y-9809800D02*
X15270800Y-9849800D01*
X15474000Y-11410000D02*
X15514000Y-11450000D01*
X15514000Y-11410000D02*
X15474000Y-11450000D01*
X15702600Y-7625400D02*
X15742600Y-7665400D01*
X15742600Y-7625400D02*
X15702600Y-7665400D01*
X15728000Y-9378000D02*
X15768000Y-9418000D01*
X15768000Y-9378000D02*
X15728000Y-9418000D01*
X15931200Y-10368600D02*
X15971200Y-10408600D01*
X15971200Y-10368600D02*
X15931200Y-10408600D01*
X15982000Y-7549200D02*
X16022000Y-7589200D01*
X16022000Y-7549200D02*
X15982000Y-7589200D01*
X15982000Y-8108000D02*
X16022000Y-8148000D01*
X16022000Y-8108000D02*
X15982000Y-8148000D01*
X16042960Y-7696520D02*
X16082960Y-7736520D01*
X16082960Y-7696520D02*
X16042960Y-7736520D01*
X16084171Y-7549771D02*
X16124171Y-7589771D01*
X16124171Y-7549771D02*
X16084171Y-7589771D01*
X16185200Y-10114600D02*
X16225200Y-10154600D01*
X16225200Y-10114600D02*
X16185200Y-10154600D01*
X16210600Y-9073200D02*
X16250600Y-9113200D01*
X16250600Y-9073200D02*
X16210600Y-9113200D01*
X16236000Y-12172000D02*
X16276000Y-12212000D01*
X16276000Y-12172000D02*
X16236000Y-12212000D01*
X16251240Y-7092000D02*
X16291240Y-7132000D01*
X16291240Y-7092000D02*
X16251240Y-7132000D01*
X16256320Y-7249480D02*
X16296320Y-7289480D01*
X16296320Y-7249480D02*
X16256320Y-7289480D01*
X16363000Y-5695000D02*
X16403000Y-5735000D01*
X16403000Y-5695000D02*
X16363000Y-5735000D01*
X16490000Y-5695000D02*
X16530000Y-5735000D01*
X16530000Y-5695000D02*
X16490000Y-5735000D01*
X16490000Y-5822000D02*
X16530000Y-5862000D01*
X16530000Y-5822000D02*
X16490000Y-5862000D01*
X16490000Y-5949000D02*
X16530000Y-5989000D01*
X16530000Y-5949000D02*
X16490000Y-5989000D01*
X16490000Y-6076000D02*
X16530000Y-6116000D01*
X16530000Y-6076000D02*
X16490000Y-6116000D01*
X16490000Y-6203000D02*
X16530000Y-6243000D01*
X16530000Y-6203000D02*
X16490000Y-6243000D01*
X16617000Y-5695000D02*
X16657000Y-5735000D01*
X16657000Y-5695000D02*
X16617000Y-5735000D01*
X16617000Y-5822000D02*
X16657000Y-5862000D01*
X16657000Y-5822000D02*
X16617000Y-5862000D01*
X16617000Y-5949000D02*
X16657000Y-5989000D01*
X16657000Y-5949000D02*
X16617000Y-5989000D01*
X16617000Y-6076000D02*
X16657000Y-6116000D01*
X16657000Y-6076000D02*
X16617000Y-6116000D01*
X16617000Y-6203000D02*
X16657000Y-6243000D01*
X16657000Y-6203000D02*
X16617000Y-6243000D01*
X16744000Y-4856800D02*
X16784000Y-4896800D01*
X16784000Y-4856800D02*
X16744000Y-4896800D01*
X16871000Y-5187000D02*
X16911000Y-5227000D01*
X16911000Y-5187000D02*
X16871000Y-5227000D01*
X16871000Y-5314000D02*
X16911000Y-5354000D01*
X16911000Y-5314000D02*
X16871000Y-5354000D01*
X16871000Y-5441000D02*
X16911000Y-5481000D01*
X16911000Y-5441000D02*
X16871000Y-5481000D01*
X16881160Y-7066600D02*
X16921160Y-7106600D01*
X16921160Y-7066600D02*
X16881160Y-7106600D01*
X16886240Y-7219000D02*
X16926240Y-7259000D01*
X16926240Y-7219000D02*
X16886240Y-7259000D01*
X16891320Y-8133400D02*
X16931320Y-8173400D01*
X16931320Y-8133400D02*
X16891320Y-8173400D01*
X16896400Y-9073200D02*
X16936400Y-9113200D01*
X16936400Y-9073200D02*
X16896400Y-9113200D01*
X16947200Y-7351080D02*
X16987200Y-7391080D01*
X16987200Y-7351080D02*
X16947200Y-7391080D01*
X16947200Y-7498400D02*
X16987200Y-7538400D01*
X16987200Y-7498400D02*
X16947200Y-7538400D01*
X16972600Y-10114600D02*
X17012600Y-10154600D01*
X17012600Y-10114600D02*
X16972600Y-10154600D01*
X16998000Y-4552000D02*
X17038000Y-4592000D01*
X17038000Y-4552000D02*
X16998000Y-4592000D01*
X16998000Y-5187000D02*
X17038000Y-5227000D01*
X17038000Y-5187000D02*
X16998000Y-5227000D01*
X16998000Y-5314000D02*
X17038000Y-5354000D01*
X17038000Y-5314000D02*
X16998000Y-5354000D01*
X16998000Y-5441000D02*
X17038000Y-5481000D01*
X17038000Y-5441000D02*
X16998000Y-5481000D01*
X16998000Y-13696000D02*
X17038000Y-13736000D01*
X17038000Y-13696000D02*
X16998000Y-13736000D01*
X17125000Y-5187000D02*
X17165000Y-5227000D01*
X17165000Y-5187000D02*
X17125000Y-5227000D01*
X17125000Y-5314000D02*
X17165000Y-5354000D01*
X17165000Y-5314000D02*
X17125000Y-5354000D01*
X17125000Y-5441000D02*
X17165000Y-5481000D01*
X17165000Y-5441000D02*
X17125000Y-5481000D01*
X17226600Y-12629200D02*
X17266600Y-12669200D01*
X17266600Y-12629200D02*
X17226600Y-12669200D01*
X17252000Y-10902000D02*
X17292000Y-10942000D01*
X17292000Y-10902000D02*
X17252000Y-10942000D01*
X17379000Y-12502200D02*
X17419000Y-12542200D01*
X17419000Y-12502200D02*
X17379000Y-12542200D01*
X17506000Y-6838000D02*
X17546000Y-6878000D01*
X17546000Y-6838000D02*
X17506000Y-6878000D01*
X17633000Y-5187000D02*
X17673000Y-5227000D01*
X17673000Y-5187000D02*
X17633000Y-5227000D01*
X17633000Y-5314000D02*
X17673000Y-5354000D01*
X17673000Y-5314000D02*
X17633000Y-5354000D01*
X17633000Y-5441000D02*
X17673000Y-5481000D01*
X17673000Y-5441000D02*
X17633000Y-5481000D01*
X17760000Y-5187000D02*
X17800000Y-5227000D01*
X17800000Y-5187000D02*
X17760000Y-5227000D01*
X17760000Y-5314000D02*
X17800000Y-5354000D01*
X17800000Y-5314000D02*
X17760000Y-5354000D01*
X17760000Y-5441000D02*
X17800000Y-5481000D01*
X17800000Y-5441000D02*
X17760000Y-5481000D01*
X17760000Y-6609400D02*
X17800000Y-6649400D01*
X17800000Y-6609400D02*
X17760000Y-6649400D01*
X17760000Y-9581200D02*
X17800000Y-9621200D01*
X17800000Y-9581200D02*
X17760000Y-9621200D01*
X17760000Y-10317800D02*
X17800000Y-10357800D01*
X17800000Y-10317800D02*
X17760000Y-10357800D01*
X17760000Y-13264200D02*
X17800000Y-13304200D01*
X17800000Y-13264200D02*
X17760000Y-13304200D01*
X17760000Y-13696000D02*
X17800000Y-13736000D01*
X17800000Y-13696000D02*
X17760000Y-13736000D01*
X17861600Y-12781600D02*
X17901600Y-12821600D01*
X17901600Y-12781600D02*
X17861600Y-12821600D01*
X18064800Y-9073200D02*
X18104800Y-9113200D01*
X18104800Y-9073200D02*
X18064800Y-9113200D01*
X18268000Y-8108000D02*
X18308000Y-8148000D01*
X18308000Y-8108000D02*
X18268000Y-8148000D01*
X18268000Y-10902000D02*
X18308000Y-10942000D01*
X18308000Y-10902000D02*
X18268000Y-10942000D01*
X18293400Y-6177600D02*
X18333400Y-6217600D01*
X18333400Y-6177600D02*
X18293400Y-6217600D01*
X18522000Y-13696000D02*
X18562000Y-13736000D01*
X18562000Y-13696000D02*
X18522000Y-13736000D01*
X18725200Y-5568000D02*
X18765200Y-5608000D01*
X18765200Y-5568000D02*
X18725200Y-5608000D01*
X18776000Y-7727000D02*
X18816000Y-7767000D01*
X18816000Y-7727000D02*
X18776000Y-7767000D01*
X18776000Y-7854000D02*
X18816000Y-7894000D01*
X18816000Y-7854000D02*
X18776000Y-7894000D01*
X18776000Y-8108000D02*
X18816000Y-8148000D01*
X18816000Y-8108000D02*
X18776000Y-8148000D01*
X18801400Y-11374440D02*
X18841400Y-11414440D01*
X18841400Y-11374440D02*
X18801400Y-11414440D01*
X18801400Y-11501440D02*
X18841400Y-11541440D01*
X18841400Y-11501440D02*
X18801400Y-11541440D01*
X18903000Y-7727000D02*
X18943000Y-7767000D01*
X18943000Y-7727000D02*
X18903000Y-7767000D01*
X18903000Y-7854000D02*
X18943000Y-7894000D01*
X18943000Y-7854000D02*
X18903000Y-7894000D01*
X18928400Y-11374440D02*
X18968400Y-11414440D01*
X18968400Y-11374440D02*
X18928400Y-11414440D01*
X18928400Y-11501440D02*
X18968400Y-11541440D01*
X18968400Y-11501440D02*
X18928400Y-11541440D01*
X19030000Y-7727000D02*
X19070000Y-7767000D01*
X19070000Y-7727000D02*
X19030000Y-7767000D01*
X19030000Y-7854000D02*
X19070000Y-7894000D01*
X19070000Y-7854000D02*
X19030000Y-7894000D01*
X19055400Y-11374440D02*
X19095400Y-11414440D01*
X19095400Y-11374440D02*
X19055400Y-11414440D01*
X19055400Y-11501440D02*
X19095400Y-11541440D01*
X19095400Y-11501440D02*
X19055400Y-11541440D01*
X19157000Y-7727000D02*
X19197000Y-7767000D01*
X19197000Y-7727000D02*
X19157000Y-7767000D01*
X19157000Y-7854000D02*
X19197000Y-7894000D01*
X19197000Y-7854000D02*
X19157000Y-7894000D01*
X19182400Y-11374440D02*
X19222400Y-11414440D01*
X19222400Y-11374440D02*
X19182400Y-11414440D01*
X19182400Y-11501440D02*
X19222400Y-11541440D01*
X19222400Y-11501440D02*
X19182400Y-11541440D01*
X19233200Y-4933000D02*
X19273200Y-4973000D01*
X19273200Y-4933000D02*
X19233200Y-4973000D01*
X19284000Y-7727000D02*
X19324000Y-7767000D01*
X19324000Y-7727000D02*
X19284000Y-7767000D01*
X19284000Y-7854000D02*
X19324000Y-7894000D01*
X19324000Y-7854000D02*
X19284000Y-7894000D01*
X19284000Y-9632000D02*
X19324000Y-9672000D01*
X19324000Y-9632000D02*
X19284000Y-9672000D01*
X19284000Y-10902000D02*
X19324000Y-10942000D01*
X19324000Y-10902000D02*
X19284000Y-10942000D01*
X19284000Y-13696000D02*
X19324000Y-13736000D01*
X19324000Y-13696000D02*
X19284000Y-13736000D01*
X19309400Y-11374440D02*
X19349400Y-11414440D01*
X19349400Y-11374440D02*
X19309400Y-11414440D01*
X19309400Y-11501440D02*
X19349400Y-11541440D01*
X19349400Y-11501440D02*
X19309400Y-11541440D01*
X19411000Y-12299000D02*
X19451000Y-12339000D01*
X19451000Y-12299000D02*
X19411000Y-12339000D01*
X19487200Y-6279200D02*
X19527200Y-6319200D01*
X19527200Y-6279200D02*
X19487200Y-6319200D01*
X19508535Y-8574454D02*
X19548535Y-8614454D01*
X19548535Y-8574454D02*
X19508535Y-8614454D01*
X19626900Y-5758500D02*
X19666900Y-5798500D01*
X19666900Y-5758500D02*
X19626900Y-5798500D01*
X19639600Y-4679000D02*
X19679600Y-4719000D01*
X19679600Y-4679000D02*
X19639600Y-4719000D01*
X19665000Y-5009200D02*
X19705000Y-5049200D01*
X19705000Y-5009200D02*
X19665000Y-5049200D01*
X19690400Y-8171500D02*
X19730400Y-8211500D01*
X19730400Y-8171500D02*
X19690400Y-8211500D01*
X19690400Y-8273100D02*
X19730400Y-8313100D01*
X19730400Y-8273100D02*
X19690400Y-8313100D01*
X19690400Y-8374700D02*
X19730400Y-8414700D01*
X19730400Y-8374700D02*
X19690400Y-8414700D01*
X19690400Y-8476300D02*
X19730400Y-8516300D01*
X19730400Y-8476300D02*
X19690400Y-8516300D01*
X19715800Y-11867200D02*
X19755800Y-11907200D01*
X19755800Y-11867200D02*
X19715800Y-11907200D01*
X19715800Y-11968800D02*
X19755800Y-12008800D01*
X19755800Y-11968800D02*
X19715800Y-12008800D01*
X19715800Y-12070400D02*
X19755800Y-12110400D01*
X19755800Y-12070400D02*
X19715800Y-12110400D01*
X19715800Y-12172000D02*
X19755800Y-12212000D01*
X19755800Y-12172000D02*
X19715800Y-12212000D01*
X19741200Y-5390200D02*
X19781200Y-5430200D01*
X19781200Y-5390200D02*
X19741200Y-5430200D01*
X19792000Y-5009200D02*
X19832000Y-5049200D01*
X19832000Y-5009200D02*
X19792000Y-5049200D01*
X19792000Y-7092000D02*
X19832000Y-7132000D01*
X19832000Y-7092000D02*
X19792000Y-7132000D01*
X19792000Y-8171500D02*
X19832000Y-8211500D01*
X19832000Y-8171500D02*
X19792000Y-8211500D01*
X19792000Y-8273100D02*
X19832000Y-8313100D01*
X19832000Y-8273100D02*
X19792000Y-8313100D01*
X19792000Y-8374700D02*
X19832000Y-8414700D01*
X19832000Y-8374700D02*
X19792000Y-8414700D01*
X19792000Y-8476300D02*
X19832000Y-8516300D01*
X19832000Y-8476300D02*
X19792000Y-8516300D01*
X19817400Y-11867200D02*
X19857400Y-11907200D01*
X19857400Y-11867200D02*
X19817400Y-11907200D01*
X19817400Y-11968800D02*
X19857400Y-12008800D01*
X19857400Y-11968800D02*
X19817400Y-12008800D01*
X19817400Y-12070400D02*
X19857400Y-12110400D01*
X19857400Y-12070400D02*
X19817400Y-12110400D01*
X19817400Y-12172000D02*
X19857400Y-12212000D01*
X19857400Y-12172000D02*
X19817400Y-12212000D01*
X19842800Y-5745800D02*
X19882800Y-5785800D01*
X19882800Y-5745800D02*
X19842800Y-5785800D01*
X19944400Y-5415600D02*
X19984400Y-5455600D01*
X19984400Y-5415600D02*
X19944400Y-5455600D01*
X19944400Y-5517200D02*
X19984400Y-5557200D01*
X19984400Y-5517200D02*
X19944400Y-5557200D01*
X19944400Y-5618800D02*
X19984400Y-5658800D01*
X19984400Y-5618800D02*
X19944400Y-5658800D01*
X19944400Y-5720400D02*
X19984400Y-5760400D01*
X19984400Y-5720400D02*
X19944400Y-5760400D01*
X20033300Y-8565200D02*
X20073300Y-8605200D01*
X20073300Y-8565200D02*
X20033300Y-8605200D01*
X20046000Y-5212400D02*
X20086000Y-5252400D01*
X20086000Y-5212400D02*
X20046000Y-5252400D01*
X20046000Y-5314000D02*
X20086000Y-5354000D01*
X20086000Y-5314000D02*
X20046000Y-5354000D01*
X20046000Y-5415600D02*
X20086000Y-5455600D01*
X20086000Y-5415600D02*
X20046000Y-5455600D01*
X20046000Y-5517200D02*
X20086000Y-5557200D01*
X20086000Y-5517200D02*
X20046000Y-5557200D01*
X20046000Y-5618800D02*
X20086000Y-5658800D01*
X20086000Y-5618800D02*
X20046000Y-5658800D01*
X20046000Y-5720400D02*
X20086000Y-5760400D01*
X20086000Y-5720400D02*
X20046000Y-5760400D01*
X20046000Y-6838000D02*
X20086000Y-6878000D01*
X20086000Y-6838000D02*
X20046000Y-6878000D01*
X20046000Y-9632000D02*
X20086000Y-9672000D01*
X20086000Y-9632000D02*
X20046000Y-9672000D01*
X20046000Y-13696000D02*
X20086000Y-13736000D01*
X20086000Y-13696000D02*
X20046000Y-13736000D01*
X20147600Y-5212400D02*
X20187600Y-5252400D01*
X20187600Y-5212400D02*
X20147600Y-5252400D01*
X20147600Y-5314000D02*
X20187600Y-5354000D01*
X20187600Y-5314000D02*
X20147600Y-5354000D01*
X20147600Y-5415600D02*
X20187600Y-5455600D01*
X20187600Y-5415600D02*
X20147600Y-5455600D01*
X20147600Y-5517200D02*
X20187600Y-5557200D01*
X20187600Y-5517200D02*
X20147600Y-5557200D01*
X20147600Y-5618800D02*
X20187600Y-5658800D01*
X20187600Y-5618800D02*
X20147600Y-5658800D01*
X20147600Y-5720400D02*
X20187600Y-5760400D01*
X20187600Y-5720400D02*
X20147600Y-5760400D01*
X20173000Y-12299000D02*
X20213000Y-12339000D01*
X20213000Y-12299000D02*
X20173000Y-12339000D01*
X20198400Y-12146600D02*
X20238400Y-12186600D01*
X20238400Y-12146600D02*
X20198400Y-12186600D01*
X20274600Y-5758500D02*
X20314600Y-5798500D01*
X20314600Y-5758500D02*
X20274600Y-5798500D01*
X20300000Y-12146600D02*
X20340000Y-12186600D01*
X20340000Y-12146600D02*
X20300000Y-12186600D01*
X20325400Y-8260400D02*
X20365400Y-8300400D01*
X20365400Y-8260400D02*
X20325400Y-8300400D01*
X20325400Y-8362000D02*
X20365400Y-8402000D01*
X20365400Y-8362000D02*
X20325400Y-8402000D01*
X20325400Y-8463600D02*
X20365400Y-8503600D01*
X20365400Y-8463600D02*
X20325400Y-8503600D01*
X20325400Y-12248200D02*
X20365400Y-12288200D01*
X20365400Y-12248200D02*
X20325400Y-12288200D01*
X20401600Y-12172000D02*
X20441600Y-12212000D01*
X20441600Y-12172000D02*
X20401600Y-12212000D01*
X20427000Y-8539800D02*
X20467000Y-8579800D01*
X20467000Y-8539800D02*
X20427000Y-8579800D01*
X20427000Y-12273600D02*
X20467000Y-12313600D01*
X20467000Y-12273600D02*
X20427000Y-12313600D01*
X20452400Y-5949000D02*
X20492400Y-5989000D01*
X20492400Y-5949000D02*
X20452400Y-5989000D01*
X20503200Y-12197400D02*
X20543200Y-12237400D01*
X20543200Y-12197400D02*
X20503200Y-12237400D01*
X20528600Y-8539800D02*
X20568600Y-8579800D01*
X20568600Y-8539800D02*
X20528600Y-8579800D01*
X20528600Y-12299000D02*
X20568600Y-12339000D01*
X20568600Y-12299000D02*
X20528600Y-12339000D01*
X20554000Y-6431600D02*
X20594000Y-6471600D01*
X20594000Y-6431600D02*
X20554000Y-6471600D01*
X20579400Y-5364800D02*
X20619400Y-5404800D01*
X20619400Y-5364800D02*
X20579400Y-5404800D01*
X20604800Y-12197400D02*
X20644800Y-12237400D01*
X20644800Y-12197400D02*
X20604800Y-12237400D01*
X20630200Y-8539800D02*
X20670200Y-8579800D01*
X20670200Y-8539800D02*
X20630200Y-8579800D01*
X20630200Y-12299000D02*
X20670200Y-12339000D01*
X20670200Y-12299000D02*
X20630200Y-12339000D01*
X20731800Y-6304600D02*
X20771800Y-6344600D01*
X20771800Y-6304600D02*
X20731800Y-6344600D01*
X20782600Y-5364800D02*
X20822600Y-5404800D01*
X20822600Y-5364800D02*
X20782600Y-5404800D01*
X20808000Y-4552000D02*
X20848000Y-4592000D01*
X20848000Y-4552000D02*
X20808000Y-4592000D01*
X20808000Y-7092000D02*
X20848000Y-7132000D01*
X20848000Y-7092000D02*
X20808000Y-7132000D01*
X20808000Y-9124000D02*
X20848000Y-9164000D01*
X20848000Y-9124000D02*
X20808000Y-9164000D01*
X20808000Y-9632000D02*
X20848000Y-9672000D01*
X20848000Y-9632000D02*
X20808000Y-9672000D01*
X20808000Y-12680000D02*
X20848000Y-12720000D01*
X20848000Y-12680000D02*
X20808000Y-12720000D01*
X20808000Y-13442000D02*
X20848000Y-13482000D01*
X20848000Y-13442000D02*
X20808000Y-13482000D01*
X20922300Y-6012500D02*
X20962300Y-6052500D01*
X20962300Y-6012500D02*
X20922300Y-6052500D01*
D13*
X11396500Y-5664000D02*
G75*
G03*
X11396500Y-5664000I-30000J0D01*
G01*
D11*
X11406500Y-5644000D02*
X11326500Y-5644000D01*
X11406500Y-5684000D02*
X11326500Y-5684000D01*
X11326500Y-5644000D02*
G75*
G03*
X11326500Y-5684000I0J-20000D01*
G01*
X11406500Y-5684000D02*
G75*
G03*
X11406500Y-5644000I0J20000D01*
G01*
D13*
X11396500Y-6528000D02*
G75*
G03*
X11396500Y-6528000I-30000J0D01*
G01*
D11*
X11406500Y-6508000D02*
X11326500Y-6508000D01*
X11406500Y-6548000D02*
X11326500Y-6548000D01*
X11326500Y-6508000D02*
G75*
G03*
X11326500Y-6548000I0J-20000D01*
G01*
X11406500Y-6548000D02*
G75*
G03*
X11406500Y-6508000I0J20000D01*
G01*
D13*
X11814500Y-5664000D02*
G75*
G03*
X11814500Y-5664000I-30000J0D01*
G01*
D11*
X11839500Y-5644000D02*
X11729500Y-5644000D01*
X11839500Y-5684000D02*
X11729500Y-5684000D01*
X11729500Y-5644000D02*
G75*
G03*
X11729500Y-5684000I0J-20000D01*
G01*
X11839500Y-5684000D02*
G75*
G03*
X11839500Y-5644000I0J20000D01*
G01*
D13*
X11814500Y-6528000D02*
G75*
G03*
X11814500Y-6528000I-30000J0D01*
G01*
D11*
X11839500Y-6508000D02*
X11729500Y-6508000D01*
X11839500Y-6548000D02*
X11729500Y-6548000D01*
X11729500Y-6508000D02*
G75*
G03*
X11729500Y-6548000I0J-20000D01*
G01*
X11839500Y-6548000D02*
G75*
G03*
X11839500Y-6508000I0J20000D01*
G01*
D14*
X13956400Y-8005100D02*
X13956400Y-8070100D01*
X13923900Y-8037600D02*
X13988900Y-8037600D01*
X13956400Y-8132100D02*
X13956400Y-8197100D01*
X13923900Y-8164600D02*
X13988900Y-8164600D01*
D15*
X12536370Y-12282370D02*
X12536370Y-12228630D01*
X12482630Y-12228630D01*
X12482630Y-12282370D01*
X12536370Y-12282370D01*
X12536370Y-12536370D02*
X12536370Y-12482630D01*
X12482630Y-12482630D01*
X12482630Y-12536370D01*
X12536370Y-12536370D01*
X12536370Y-12790370D02*
X12536370Y-12736630D01*
X12482630Y-12736630D01*
X12482630Y-12790370D01*
X12536370Y-12790370D01*
X12536370Y-13044370D02*
X12536370Y-12990630D01*
X12482630Y-12990630D01*
X12482630Y-13044370D01*
X12536370Y-13044370D01*
X12790370Y-12409370D02*
X12790370Y-12355630D01*
X12736630Y-12355630D01*
X12736630Y-12409370D01*
X12790370Y-12409370D01*
X12790370Y-12663370D02*
X12790370Y-12609630D01*
X12736630Y-12609630D01*
X12736630Y-12663370D01*
X12790370Y-12663370D01*
X12790370Y-12917370D02*
X12790370Y-12863630D01*
X12736630Y-12863630D01*
X12736630Y-12917370D01*
X12790370Y-12917370D01*
X12790370Y-13171370D02*
X12790370Y-13117630D01*
X12736630Y-13117630D01*
X12736630Y-13171370D01*
X12790370Y-13171370D01*
D16*
X20571100Y-10126700D02*
X20610600Y-10087200D01*
X20571100Y-10047700D01*
X20531600Y-10087200D01*
X20571100Y-10126700D01*
X20571100Y-10391700D02*
X20610600Y-10352200D01*
X20571100Y-10312700D01*
X20531600Y-10352200D01*
X20571100Y-10391700D01*
X20571100Y-10656700D02*
X20610600Y-10617200D01*
X20571100Y-10577700D01*
X20531600Y-10617200D01*
X20571100Y-10656700D01*
D17*
X14072400Y-9322600D02*
X14172400Y-9422600D01*
X14172400Y-9322600D02*
X14072400Y-9422600D01*
X14172400Y-9372600D02*
G75*
G03*
X14172400Y-9372600I-50000J0D01*
G01*
X14072400Y-9576600D02*
X14172400Y-9676600D01*
X14172400Y-9576600D02*
X14072400Y-9676600D01*
X14172400Y-9626600D02*
G75*
G03*
X14172400Y-9626600I-50000J0D01*
G01*
X17323600Y-5301232D02*
X17423600Y-5401232D01*
X17423600Y-5301232D02*
X17323600Y-5401232D01*
X17423600Y-5351232D02*
G75*
G03*
X17423600Y-5351232I-50000J0D01*
G01*
X17323600Y-5801232D02*
X17423600Y-5901232D01*
X17423600Y-5801232D02*
X17323600Y-5901232D01*
X17423600Y-5851232D02*
G75*
G03*
X17423600Y-5851232I-50000J0D01*
G01*
D18*
X15476100Y-13933300D02*
X15651100Y-14108300D01*
X15651100Y-13933300D02*
X15476100Y-14108300D01*
X15563600Y-13933300D02*
X15563600Y-14108300D01*
X15476100Y-14020800D02*
X15651100Y-14020800D01*
X16016100Y-13933300D02*
X16191100Y-14108300D01*
X16191100Y-13933300D02*
X16016100Y-14108300D01*
X16103600Y-13933300D02*
X16103600Y-14108300D01*
X16016100Y-14020800D02*
X16191100Y-14020800D01*
X18149700Y-4687700D02*
X18324700Y-4862700D01*
X18324700Y-4687700D02*
X18149700Y-4862700D01*
X18237200Y-4687700D02*
X18237200Y-4862700D01*
X18149700Y-4775200D02*
X18324700Y-4775200D01*
X18689700Y-4687700D02*
X18864700Y-4862700D01*
X18864700Y-4687700D02*
X18689700Y-4862700D01*
X18777200Y-4687700D02*
X18777200Y-4862700D01*
X18689700Y-4775200D02*
X18864700Y-4775200D01*
X20435700Y-11377300D02*
X20610700Y-11552300D01*
X20610700Y-11377300D02*
X20435700Y-11552300D01*
X20523200Y-11377300D02*
X20523200Y-11552300D01*
X20435700Y-11464800D02*
X20610700Y-11464800D01*
X20435700Y-11917300D02*
X20610700Y-12092300D01*
X20610700Y-11917300D02*
X20435700Y-12092300D01*
X20523200Y-11917300D02*
X20523200Y-12092300D01*
X20435700Y-12004800D02*
X20610700Y-12004800D01*
X20461100Y-7735700D02*
X20636100Y-7910700D01*
X20636100Y-7735700D02*
X20461100Y-7910700D01*
X20548600Y-7735700D02*
X20548600Y-7910700D01*
X20461100Y-7823200D02*
X20636100Y-7823200D01*
X20461100Y-8275700D02*
X20636100Y-8450700D01*
X20636100Y-8275700D02*
X20461100Y-8450700D01*
X20548600Y-8275700D02*
X20548600Y-8450700D01*
X20461100Y-8363200D02*
X20636100Y-8363200D01*
D19*
X14936600Y-4612600D02*
X15146600Y-4822600D01*
X15146600Y-4612600D02*
X14936600Y-4822600D01*
X15115847Y-4791847D02*
X15115847Y-4643353D01*
X14967353Y-4643353D01*
X14967353Y-4791847D01*
X15115847Y-4791847D01*
X15536600Y-4612600D02*
X15746600Y-4822600D01*
X15746600Y-4612600D02*
X15536600Y-4822600D01*
X15715847Y-4791847D02*
X15715847Y-4643353D01*
X15567353Y-4643353D01*
X15567353Y-4791847D01*
X15715847Y-4791847D01*
D11*
X11376619Y-14740076D02*
X11376619Y-14540076D01*
X11424238Y-14540076D01*
X11452809Y-14549600D01*
X11471857Y-14568648D01*
X11481381Y-14587695D01*
X11490905Y-14625790D01*
X11490905Y-14654362D01*
X11481381Y-14692457D01*
X11471857Y-14711505D01*
X11452809Y-14730552D01*
X11424238Y-14740076D01*
X11376619Y-14740076D01*
X11576619Y-14740076D02*
X11576619Y-14606743D01*
X11576619Y-14644838D02*
X11586143Y-14625790D01*
X11595667Y-14616267D01*
X11614714Y-14606743D01*
X11633762Y-14606743D01*
X11700428Y-14740076D02*
X11700428Y-14606743D01*
X11700428Y-14540076D02*
X11690905Y-14549600D01*
X11700428Y-14559124D01*
X11709952Y-14549600D01*
X11700428Y-14540076D01*
X11700428Y-14559124D01*
X11824238Y-14740076D02*
X11805190Y-14730552D01*
X11795667Y-14711505D01*
X11795667Y-14540076D01*
X11929000Y-14740076D02*
X11909952Y-14730552D01*
X11900428Y-14711505D01*
X11900428Y-14540076D01*
X12157571Y-14740076D02*
X12157571Y-14540076D01*
X12224238Y-14682933D01*
X12290905Y-14540076D01*
X12290905Y-14740076D01*
X12471857Y-14740076D02*
X12471857Y-14635314D01*
X12462333Y-14616267D01*
X12443286Y-14606743D01*
X12405190Y-14606743D01*
X12386143Y-14616267D01*
X12471857Y-14730552D02*
X12452809Y-14740076D01*
X12405190Y-14740076D01*
X12386143Y-14730552D01*
X12376619Y-14711505D01*
X12376619Y-14692457D01*
X12386143Y-14673409D01*
X12405190Y-14663886D01*
X12452809Y-14663886D01*
X12471857Y-14654362D01*
X12567095Y-14606743D02*
X12567095Y-14806743D01*
X12567095Y-14616267D02*
X12586143Y-14606743D01*
X12624238Y-14606743D01*
X12643286Y-14616267D01*
X12652809Y-14625790D01*
X12662333Y-14644838D01*
X12662333Y-14701981D01*
X12652809Y-14721028D01*
X12643286Y-14730552D01*
X12624238Y-14740076D01*
X12586143Y-14740076D01*
X12567095Y-14730552D01*
X12748048Y-14721028D02*
X12757571Y-14730552D01*
X12748048Y-14740076D01*
X12738524Y-14730552D01*
X12748048Y-14721028D01*
X12748048Y-14740076D01*
X12748048Y-14616267D02*
X12757571Y-14625790D01*
X12748048Y-14635314D01*
X12738524Y-14625790D01*
X12748048Y-14616267D01*
X12748048Y-14635314D01*
D12*
X11079000Y-15049600D02*
X11119000Y-15089600D01*
X11119000Y-15049600D02*
X11079000Y-15089600D01*
D11*
X11414714Y-14960076D02*
X11433762Y-14960076D01*
X11452809Y-14969600D01*
X11462333Y-14979124D01*
X11471857Y-14998171D01*
X11481381Y-15036267D01*
X11481381Y-15083886D01*
X11471857Y-15121981D01*
X11462333Y-15141028D01*
X11452809Y-15150552D01*
X11433762Y-15160076D01*
X11414714Y-15160076D01*
X11395667Y-15150552D01*
X11386143Y-15141028D01*
X11376619Y-15121981D01*
X11367095Y-15083886D01*
X11367095Y-15036267D01*
X11376619Y-14998171D01*
X11386143Y-14979124D01*
X11395667Y-14969600D01*
X11414714Y-14960076D01*
X11567095Y-15141028D02*
X11576619Y-15150552D01*
X11567095Y-15160076D01*
X11557571Y-15150552D01*
X11567095Y-15141028D01*
X11567095Y-15160076D01*
X11748048Y-15026743D02*
X11748048Y-15160076D01*
X11700428Y-14950552D02*
X11652809Y-15093409D01*
X11776619Y-15093409D01*
X11890905Y-14960076D02*
X11909952Y-14960076D01*
X11929000Y-14969600D01*
X11938524Y-14979124D01*
X11948048Y-14998171D01*
X11957571Y-15036267D01*
X11957571Y-15083886D01*
X11948048Y-15121981D01*
X11938524Y-15141028D01*
X11929000Y-15150552D01*
X11909952Y-15160076D01*
X11890905Y-15160076D01*
X11871857Y-15150552D01*
X11862333Y-15141028D01*
X11852809Y-15121981D01*
X11843286Y-15083886D01*
X11843286Y-15036267D01*
X11852809Y-14998171D01*
X11862333Y-14979124D01*
X11871857Y-14969600D01*
X11890905Y-14960076D01*
X12081381Y-14960076D02*
X12100428Y-14960076D01*
X12119476Y-14969600D01*
X12129000Y-14979124D01*
X12138524Y-14998171D01*
X12148048Y-15036267D01*
X12148048Y-15083886D01*
X12138524Y-15121981D01*
X12129000Y-15141028D01*
X12119476Y-15150552D01*
X12100428Y-15160076D01*
X12081381Y-15160076D01*
X12062333Y-15150552D01*
X12052809Y-15141028D01*
X12043286Y-15121981D01*
X12033762Y-15083886D01*
X12033762Y-15036267D01*
X12043286Y-14998171D01*
X12052809Y-14979124D01*
X12062333Y-14969600D01*
X12081381Y-14960076D01*
X12233762Y-15160076D02*
X12233762Y-15026743D01*
X12233762Y-15045790D02*
X12243286Y-15036267D01*
X12262333Y-15026743D01*
X12290905Y-15026743D01*
X12309952Y-15036267D01*
X12319476Y-15055314D01*
X12319476Y-15160076D01*
X12319476Y-15055314D02*
X12329000Y-15036267D01*
X12348048Y-15026743D01*
X12376619Y-15026743D01*
X12395667Y-15036267D01*
X12405190Y-15055314D01*
X12405190Y-15160076D01*
X12500428Y-15160076D02*
X12500428Y-15026743D01*
X12500428Y-15045790D02*
X12509952Y-15036267D01*
X12529000Y-15026743D01*
X12557571Y-15026743D01*
X12576619Y-15036267D01*
X12586143Y-15055314D01*
X12586143Y-15160076D01*
X12586143Y-15055314D02*
X12595667Y-15036267D01*
X12614714Y-15026743D01*
X12643286Y-15026743D01*
X12662333Y-15036267D01*
X12671857Y-15055314D01*
X12671857Y-15160076D01*
X13062333Y-14950552D02*
X12890905Y-15207695D01*
X13319476Y-14960076D02*
X13338524Y-14960076D01*
X13357571Y-14969600D01*
X13367095Y-14979124D01*
X13376619Y-14998171D01*
X13386143Y-15036267D01*
X13386143Y-15083886D01*
X13376619Y-15121981D01*
X13367095Y-15141028D01*
X13357571Y-15150552D01*
X13338524Y-15160076D01*
X13319476Y-15160076D01*
X13300428Y-15150552D01*
X13290905Y-15141028D01*
X13281381Y-15121981D01*
X13271857Y-15083886D01*
X13271857Y-15036267D01*
X13281381Y-14998171D01*
X13290905Y-14979124D01*
X13300428Y-14969600D01*
X13319476Y-14960076D01*
X13471857Y-15141028D02*
X13481381Y-15150552D01*
X13471857Y-15160076D01*
X13462333Y-15150552D01*
X13471857Y-15141028D01*
X13471857Y-15160076D01*
X13605190Y-14960076D02*
X13624238Y-14960076D01*
X13643286Y-14969600D01*
X13652809Y-14979124D01*
X13662333Y-14998171D01*
X13671857Y-15036267D01*
X13671857Y-15083886D01*
X13662333Y-15121981D01*
X13652809Y-15141028D01*
X13643286Y-15150552D01*
X13624238Y-15160076D01*
X13605190Y-15160076D01*
X13586143Y-15150552D01*
X13576619Y-15141028D01*
X13567095Y-15121981D01*
X13557571Y-15083886D01*
X13557571Y-15036267D01*
X13567095Y-14998171D01*
X13576619Y-14979124D01*
X13586143Y-14969600D01*
X13605190Y-14960076D01*
X13862333Y-15160076D02*
X13748048Y-15160076D01*
X13805190Y-15160076D02*
X13805190Y-14960076D01*
X13786143Y-14988648D01*
X13767095Y-15007695D01*
X13748048Y-15017219D01*
X14043286Y-14960076D02*
X13948048Y-14960076D01*
X13938524Y-15055314D01*
X13948048Y-15045790D01*
X13967095Y-15036267D01*
X14014714Y-15036267D01*
X14033762Y-15045790D01*
X14043286Y-15055314D01*
X14052809Y-15074362D01*
X14052809Y-15121981D01*
X14043286Y-15141028D01*
X14033762Y-15150552D01*
X14014714Y-15160076D01*
X13967095Y-15160076D01*
X13948048Y-15150552D01*
X13938524Y-15141028D01*
X14119476Y-14960076D02*
X14252809Y-14960076D01*
X14167095Y-15160076D01*
X14319476Y-14960076D02*
X14319476Y-14998171D01*
X14395667Y-14960076D02*
X14395667Y-14998171D01*
X14690905Y-15236267D02*
X14681381Y-15226743D01*
X14662333Y-15198171D01*
X14652809Y-15179124D01*
X14643286Y-15150552D01*
X14633762Y-15102933D01*
X14633762Y-15064838D01*
X14643286Y-15017219D01*
X14652809Y-14988648D01*
X14662333Y-14969600D01*
X14681381Y-14941028D01*
X14690905Y-14931505D01*
X14757571Y-14979124D02*
X14767095Y-14969600D01*
X14786143Y-14960076D01*
X14833762Y-14960076D01*
X14852809Y-14969600D01*
X14862333Y-14979124D01*
X14871857Y-14998171D01*
X14871857Y-15017219D01*
X14862333Y-15045790D01*
X14748048Y-15160076D01*
X14871857Y-15160076D01*
X14948048Y-14979124D02*
X14957571Y-14969600D01*
X14976619Y-14960076D01*
X15024238Y-14960076D01*
X15043286Y-14969600D01*
X15052809Y-14979124D01*
X15062333Y-14998171D01*
X15062333Y-15017219D01*
X15052809Y-15045790D01*
X14938524Y-15160076D01*
X15062333Y-15160076D01*
X15157571Y-15160076D02*
X15195667Y-15160076D01*
X15214714Y-15150552D01*
X15224238Y-15141028D01*
X15243286Y-15112457D01*
X15252809Y-15074362D01*
X15252809Y-14998171D01*
X15243286Y-14979124D01*
X15233762Y-14969600D01*
X15214714Y-14960076D01*
X15176619Y-14960076D01*
X15157571Y-14969600D01*
X15148048Y-14979124D01*
X15138524Y-14998171D01*
X15138524Y-15045790D01*
X15148048Y-15064838D01*
X15157571Y-15074362D01*
X15176619Y-15083886D01*
X15214714Y-15083886D01*
X15233762Y-15074362D01*
X15243286Y-15064838D01*
X15252809Y-15045790D01*
X15490905Y-15160076D02*
X15490905Y-14960076D01*
X15576619Y-15160076D02*
X15576619Y-15055314D01*
X15567095Y-15036267D01*
X15548048Y-15026743D01*
X15519476Y-15026743D01*
X15500428Y-15036267D01*
X15490905Y-15045790D01*
X15700428Y-15160076D02*
X15681381Y-15150552D01*
X15671857Y-15141028D01*
X15662333Y-15121981D01*
X15662333Y-15064838D01*
X15671857Y-15045790D01*
X15681381Y-15036267D01*
X15700428Y-15026743D01*
X15729000Y-15026743D01*
X15748048Y-15036267D01*
X15757571Y-15045790D01*
X15767095Y-15064838D01*
X15767095Y-15121981D01*
X15757571Y-15141028D01*
X15748048Y-15150552D01*
X15729000Y-15160076D01*
X15700428Y-15160076D01*
X15881381Y-15160076D02*
X15862333Y-15150552D01*
X15852809Y-15131505D01*
X15852809Y-14960076D01*
X16033762Y-15150552D02*
X16014714Y-15160076D01*
X15976619Y-15160076D01*
X15957571Y-15150552D01*
X15948048Y-15131505D01*
X15948048Y-15055314D01*
X15957571Y-15036267D01*
X15976619Y-15026743D01*
X16014714Y-15026743D01*
X16033762Y-15036267D01*
X16043286Y-15055314D01*
X16043286Y-15074362D01*
X15948048Y-15093409D01*
X16119476Y-15150552D02*
X16138524Y-15160076D01*
X16176619Y-15160076D01*
X16195667Y-15150552D01*
X16205190Y-15131505D01*
X16205190Y-15121981D01*
X16195667Y-15102933D01*
X16176619Y-15093409D01*
X16148048Y-15093409D01*
X16129000Y-15083886D01*
X16119476Y-15064838D01*
X16119476Y-15055314D01*
X16129000Y-15036267D01*
X16148048Y-15026743D01*
X16176619Y-15026743D01*
X16195667Y-15036267D01*
X16271857Y-15236267D02*
X16281381Y-15226743D01*
X16300428Y-15198171D01*
X16309952Y-15179124D01*
X16319476Y-15150552D01*
X16329000Y-15102933D01*
X16329000Y-15064838D01*
X16319476Y-15017219D01*
X16309952Y-14988648D01*
X16300428Y-14969600D01*
X16281381Y-14941028D01*
X16271857Y-14931505D01*
D13*
X11119000Y-15333600D02*
G75*
G03*
X11119000Y-15333600I-30000J0D01*
G01*
D11*
X11414714Y-15224076D02*
X11433762Y-15224076D01*
X11452809Y-15233600D01*
X11462333Y-15243124D01*
X11471857Y-15262171D01*
X11481381Y-15300267D01*
X11481381Y-15347886D01*
X11471857Y-15385981D01*
X11462333Y-15405028D01*
X11452809Y-15414552D01*
X11433762Y-15424076D01*
X11414714Y-15424076D01*
X11395667Y-15414552D01*
X11386143Y-15405028D01*
X11376619Y-15385981D01*
X11367095Y-15347886D01*
X11367095Y-15300267D01*
X11376619Y-15262171D01*
X11386143Y-15243124D01*
X11395667Y-15233600D01*
X11414714Y-15224076D01*
X11567095Y-15405028D02*
X11576619Y-15414552D01*
X11567095Y-15424076D01*
X11557571Y-15414552D01*
X11567095Y-15405028D01*
X11567095Y-15424076D01*
X11748048Y-15224076D02*
X11709952Y-15224076D01*
X11690905Y-15233600D01*
X11681381Y-15243124D01*
X11662333Y-15271695D01*
X11652809Y-15309790D01*
X11652809Y-15385981D01*
X11662333Y-15405028D01*
X11671857Y-15414552D01*
X11690905Y-15424076D01*
X11729000Y-15424076D01*
X11748048Y-15414552D01*
X11757571Y-15405028D01*
X11767095Y-15385981D01*
X11767095Y-15338362D01*
X11757571Y-15319314D01*
X11748048Y-15309790D01*
X11729000Y-15300267D01*
X11690905Y-15300267D01*
X11671857Y-15309790D01*
X11662333Y-15319314D01*
X11652809Y-15338362D01*
X11890905Y-15224076D02*
X11909952Y-15224076D01*
X11929000Y-15233600D01*
X11938524Y-15243124D01*
X11948048Y-15262171D01*
X11957571Y-15300267D01*
X11957571Y-15347886D01*
X11948048Y-15385981D01*
X11938524Y-15405028D01*
X11929000Y-15414552D01*
X11909952Y-15424076D01*
X11890905Y-15424076D01*
X11871857Y-15414552D01*
X11862333Y-15405028D01*
X11852809Y-15385981D01*
X11843286Y-15347886D01*
X11843286Y-15300267D01*
X11852809Y-15262171D01*
X11862333Y-15243124D01*
X11871857Y-15233600D01*
X11890905Y-15224076D01*
X12081381Y-15224076D02*
X12100428Y-15224076D01*
X12119476Y-15233600D01*
X12129000Y-15243124D01*
X12138524Y-15262171D01*
X12148048Y-15300267D01*
X12148048Y-15347886D01*
X12138524Y-15385981D01*
X12129000Y-15405028D01*
X12119476Y-15414552D01*
X12100428Y-15424076D01*
X12081381Y-15424076D01*
X12062333Y-15414552D01*
X12052809Y-15405028D01*
X12043286Y-15385981D01*
X12033762Y-15347886D01*
X12033762Y-15300267D01*
X12043286Y-15262171D01*
X12052809Y-15243124D01*
X12062333Y-15233600D01*
X12081381Y-15224076D01*
X12233762Y-15424076D02*
X12233762Y-15290743D01*
X12233762Y-15309790D02*
X12243286Y-15300267D01*
X12262333Y-15290743D01*
X12290905Y-15290743D01*
X12309952Y-15300267D01*
X12319476Y-15319314D01*
X12319476Y-15424076D01*
X12319476Y-15319314D02*
X12329000Y-15300267D01*
X12348048Y-15290743D01*
X12376619Y-15290743D01*
X12395667Y-15300267D01*
X12405190Y-15319314D01*
X12405190Y-15424076D01*
X12500428Y-15424076D02*
X12500428Y-15290743D01*
X12500428Y-15309790D02*
X12509952Y-15300267D01*
X12529000Y-15290743D01*
X12557571Y-15290743D01*
X12576619Y-15300267D01*
X12586143Y-15319314D01*
X12586143Y-15424076D01*
X12586143Y-15319314D02*
X12595667Y-15300267D01*
X12614714Y-15290743D01*
X12643286Y-15290743D01*
X12662333Y-15300267D01*
X12671857Y-15319314D01*
X12671857Y-15424076D01*
X13062333Y-15214552D02*
X12890905Y-15471695D01*
X13319476Y-15224076D02*
X13338524Y-15224076D01*
X13357571Y-15233600D01*
X13367095Y-15243124D01*
X13376619Y-15262171D01*
X13386143Y-15300267D01*
X13386143Y-15347886D01*
X13376619Y-15385981D01*
X13367095Y-15405028D01*
X13357571Y-15414552D01*
X13338524Y-15424076D01*
X13319476Y-15424076D01*
X13300428Y-15414552D01*
X13290905Y-15405028D01*
X13281381Y-15385981D01*
X13271857Y-15347886D01*
X13271857Y-15300267D01*
X13281381Y-15262171D01*
X13290905Y-15243124D01*
X13300428Y-15233600D01*
X13319476Y-15224076D01*
X13471857Y-15405028D02*
X13481381Y-15414552D01*
X13471857Y-15424076D01*
X13462333Y-15414552D01*
X13471857Y-15405028D01*
X13471857Y-15424076D01*
X13605190Y-15224076D02*
X13624238Y-15224076D01*
X13643286Y-15233600D01*
X13652809Y-15243124D01*
X13662333Y-15262171D01*
X13671857Y-15300267D01*
X13671857Y-15347886D01*
X13662333Y-15385981D01*
X13652809Y-15405028D01*
X13643286Y-15414552D01*
X13624238Y-15424076D01*
X13605190Y-15424076D01*
X13586143Y-15414552D01*
X13576619Y-15405028D01*
X13567095Y-15385981D01*
X13557571Y-15347886D01*
X13557571Y-15300267D01*
X13567095Y-15262171D01*
X13576619Y-15243124D01*
X13586143Y-15233600D01*
X13605190Y-15224076D01*
X13748048Y-15243124D02*
X13757571Y-15233600D01*
X13776619Y-15224076D01*
X13824238Y-15224076D01*
X13843286Y-15233600D01*
X13852809Y-15243124D01*
X13862333Y-15262171D01*
X13862333Y-15281219D01*
X13852809Y-15309790D01*
X13738524Y-15424076D01*
X13862333Y-15424076D01*
X13929000Y-15224076D02*
X14052809Y-15224076D01*
X13986143Y-15300267D01*
X14014714Y-15300267D01*
X14033762Y-15309790D01*
X14043286Y-15319314D01*
X14052809Y-15338362D01*
X14052809Y-15385981D01*
X14043286Y-15405028D01*
X14033762Y-15414552D01*
X14014714Y-15424076D01*
X13957571Y-15424076D01*
X13938524Y-15414552D01*
X13929000Y-15405028D01*
X14224238Y-15224076D02*
X14186143Y-15224076D01*
X14167095Y-15233600D01*
X14157571Y-15243124D01*
X14138524Y-15271695D01*
X14129000Y-15309790D01*
X14129000Y-15385981D01*
X14138524Y-15405028D01*
X14148048Y-15414552D01*
X14167095Y-15424076D01*
X14205190Y-15424076D01*
X14224238Y-15414552D01*
X14233762Y-15405028D01*
X14243286Y-15385981D01*
X14243286Y-15338362D01*
X14233762Y-15319314D01*
X14224238Y-15309790D01*
X14205190Y-15300267D01*
X14167095Y-15300267D01*
X14148048Y-15309790D01*
X14138524Y-15319314D01*
X14129000Y-15338362D01*
X14319476Y-15224076D02*
X14319476Y-15262171D01*
X14395667Y-15224076D02*
X14395667Y-15262171D01*
X14690905Y-15500267D02*
X14681381Y-15490743D01*
X14662333Y-15462171D01*
X14652809Y-15443124D01*
X14643286Y-15414552D01*
X14633762Y-15366933D01*
X14633762Y-15328838D01*
X14643286Y-15281219D01*
X14652809Y-15252648D01*
X14662333Y-15233600D01*
X14681381Y-15205028D01*
X14690905Y-15195505D01*
X14805190Y-15224076D02*
X14824238Y-15224076D01*
X14843286Y-15233600D01*
X14852809Y-15243124D01*
X14862333Y-15262171D01*
X14871857Y-15300267D01*
X14871857Y-15347886D01*
X14862333Y-15385981D01*
X14852809Y-15405028D01*
X14843286Y-15414552D01*
X14824238Y-15424076D01*
X14805190Y-15424076D01*
X14786143Y-15414552D01*
X14776619Y-15405028D01*
X14767095Y-15385981D01*
X14757571Y-15347886D01*
X14757571Y-15300267D01*
X14767095Y-15262171D01*
X14776619Y-15243124D01*
X14786143Y-15233600D01*
X14805190Y-15224076D01*
X15109952Y-15424076D02*
X15109952Y-15224076D01*
X15195667Y-15424076D02*
X15195667Y-15319314D01*
X15186143Y-15300267D01*
X15167095Y-15290743D01*
X15138524Y-15290743D01*
X15119476Y-15300267D01*
X15109952Y-15309790D01*
X15319476Y-15424076D02*
X15300428Y-15414552D01*
X15290905Y-15405028D01*
X15281381Y-15385981D01*
X15281381Y-15328838D01*
X15290905Y-15309790D01*
X15300428Y-15300267D01*
X15319476Y-15290743D01*
X15348048Y-15290743D01*
X15367095Y-15300267D01*
X15376619Y-15309790D01*
X15386143Y-15328838D01*
X15386143Y-15385981D01*
X15376619Y-15405028D01*
X15367095Y-15414552D01*
X15348048Y-15424076D01*
X15319476Y-15424076D01*
X15500428Y-15424076D02*
X15481381Y-15414552D01*
X15471857Y-15395505D01*
X15471857Y-15224076D01*
X15652809Y-15414552D02*
X15633762Y-15424076D01*
X15595667Y-15424076D01*
X15576619Y-15414552D01*
X15567095Y-15395505D01*
X15567095Y-15319314D01*
X15576619Y-15300267D01*
X15595667Y-15290743D01*
X15633762Y-15290743D01*
X15652809Y-15300267D01*
X15662333Y-15319314D01*
X15662333Y-15338362D01*
X15567095Y-15357409D01*
X15738524Y-15414552D02*
X15757571Y-15424076D01*
X15795667Y-15424076D01*
X15814714Y-15414552D01*
X15824238Y-15395505D01*
X15824238Y-15385981D01*
X15814714Y-15366933D01*
X15795667Y-15357409D01*
X15767095Y-15357409D01*
X15748048Y-15347886D01*
X15738524Y-15328838D01*
X15738524Y-15319314D01*
X15748048Y-15300267D01*
X15767095Y-15290743D01*
X15795667Y-15290743D01*
X15814714Y-15300267D01*
X16062333Y-15347886D02*
X16214714Y-15347886D01*
X16138524Y-15424076D02*
X16138524Y-15271695D01*
X16548048Y-15290743D02*
X16548048Y-15424076D01*
X16500428Y-15214552D02*
X16452809Y-15357409D01*
X16576619Y-15357409D01*
X16795667Y-15414552D02*
X16814714Y-15424076D01*
X16852810Y-15424076D01*
X16871857Y-15414552D01*
X16881381Y-15395505D01*
X16881381Y-15385981D01*
X16871857Y-15366933D01*
X16852810Y-15357409D01*
X16824238Y-15357409D01*
X16805190Y-15347886D01*
X16795667Y-15328838D01*
X16795667Y-15319314D01*
X16805190Y-15300267D01*
X16824238Y-15290743D01*
X16852810Y-15290743D01*
X16871857Y-15300267D01*
X16995667Y-15424076D02*
X16976619Y-15414552D01*
X16967095Y-15395505D01*
X16967095Y-15224076D01*
X17100429Y-15424076D02*
X17081381Y-15414552D01*
X17071857Y-15405028D01*
X17062333Y-15385981D01*
X17062333Y-15328838D01*
X17071857Y-15309790D01*
X17081381Y-15300267D01*
X17100429Y-15290743D01*
X17129000Y-15290743D01*
X17148048Y-15300267D01*
X17157571Y-15309790D01*
X17167095Y-15328838D01*
X17167095Y-15385981D01*
X17157571Y-15405028D01*
X17148048Y-15414552D01*
X17129000Y-15424076D01*
X17100429Y-15424076D01*
X17224238Y-15290743D02*
X17300429Y-15290743D01*
X17252810Y-15224076D02*
X17252810Y-15395505D01*
X17262333Y-15414552D01*
X17281381Y-15424076D01*
X17300429Y-15424076D01*
X17357571Y-15414552D02*
X17376619Y-15424076D01*
X17414714Y-15424076D01*
X17433762Y-15414552D01*
X17443286Y-15395505D01*
X17443286Y-15385981D01*
X17433762Y-15366933D01*
X17414714Y-15357409D01*
X17386143Y-15357409D01*
X17367095Y-15347886D01*
X17357571Y-15328838D01*
X17357571Y-15319314D01*
X17367095Y-15300267D01*
X17386143Y-15290743D01*
X17414714Y-15290743D01*
X17433762Y-15300267D01*
X17509952Y-15500267D02*
X17519476Y-15490743D01*
X17538524Y-15462171D01*
X17548048Y-15443124D01*
X17557571Y-15414552D01*
X17567095Y-15366933D01*
X17567095Y-15328838D01*
X17557571Y-15281219D01*
X17548048Y-15252648D01*
X17538524Y-15233600D01*
X17519476Y-15205028D01*
X17509952Y-15195505D01*
D14*
X11086500Y-15565100D02*
X11086500Y-15630100D01*
X11054000Y-15597600D02*
X11119000Y-15597600D01*
D11*
X11414714Y-15488076D02*
X11433762Y-15488076D01*
X11452809Y-15497600D01*
X11462333Y-15507124D01*
X11471857Y-15526171D01*
X11481381Y-15564267D01*
X11481381Y-15611886D01*
X11471857Y-15649981D01*
X11462333Y-15669028D01*
X11452809Y-15678552D01*
X11433762Y-15688076D01*
X11414714Y-15688076D01*
X11395667Y-15678552D01*
X11386143Y-15669028D01*
X11376619Y-15649981D01*
X11367095Y-15611886D01*
X11367095Y-15564267D01*
X11376619Y-15526171D01*
X11386143Y-15507124D01*
X11395667Y-15497600D01*
X11414714Y-15488076D01*
X11567095Y-15669028D02*
X11576619Y-15678552D01*
X11567095Y-15688076D01*
X11557571Y-15678552D01*
X11567095Y-15669028D01*
X11567095Y-15688076D01*
X11748048Y-15488076D02*
X11709952Y-15488076D01*
X11690905Y-15497600D01*
X11681381Y-15507124D01*
X11662333Y-15535695D01*
X11652809Y-15573790D01*
X11652809Y-15649981D01*
X11662333Y-15669028D01*
X11671857Y-15678552D01*
X11690905Y-15688076D01*
X11729000Y-15688076D01*
X11748048Y-15678552D01*
X11757571Y-15669028D01*
X11767095Y-15649981D01*
X11767095Y-15602362D01*
X11757571Y-15583314D01*
X11748048Y-15573790D01*
X11729000Y-15564267D01*
X11690905Y-15564267D01*
X11671857Y-15573790D01*
X11662333Y-15583314D01*
X11652809Y-15602362D01*
X11948048Y-15488076D02*
X11852809Y-15488076D01*
X11843286Y-15583314D01*
X11852809Y-15573790D01*
X11871857Y-15564267D01*
X11919476Y-15564267D01*
X11938524Y-15573790D01*
X11948048Y-15583314D01*
X11957571Y-15602362D01*
X11957571Y-15649981D01*
X11948048Y-15669028D01*
X11938524Y-15678552D01*
X11919476Y-15688076D01*
X11871857Y-15688076D01*
X11852809Y-15678552D01*
X11843286Y-15669028D01*
X12081381Y-15488076D02*
X12100428Y-15488076D01*
X12119476Y-15497600D01*
X12129000Y-15507124D01*
X12138524Y-15526171D01*
X12148048Y-15564267D01*
X12148048Y-15611886D01*
X12138524Y-15649981D01*
X12129000Y-15669028D01*
X12119476Y-15678552D01*
X12100428Y-15688076D01*
X12081381Y-15688076D01*
X12062333Y-15678552D01*
X12052809Y-15669028D01*
X12043286Y-15649981D01*
X12033762Y-15611886D01*
X12033762Y-15564267D01*
X12043286Y-15526171D01*
X12052809Y-15507124D01*
X12062333Y-15497600D01*
X12081381Y-15488076D01*
X12233762Y-15688076D02*
X12233762Y-15554743D01*
X12233762Y-15573790D02*
X12243286Y-15564267D01*
X12262333Y-15554743D01*
X12290905Y-15554743D01*
X12309952Y-15564267D01*
X12319476Y-15583314D01*
X12319476Y-15688076D01*
X12319476Y-15583314D02*
X12329000Y-15564267D01*
X12348048Y-15554743D01*
X12376619Y-15554743D01*
X12395667Y-15564267D01*
X12405190Y-15583314D01*
X12405190Y-15688076D01*
X12500428Y-15688076D02*
X12500428Y-15554743D01*
X12500428Y-15573790D02*
X12509952Y-15564267D01*
X12529000Y-15554743D01*
X12557571Y-15554743D01*
X12576619Y-15564267D01*
X12586143Y-15583314D01*
X12586143Y-15688076D01*
X12586143Y-15583314D02*
X12595667Y-15564267D01*
X12614714Y-15554743D01*
X12643286Y-15554743D01*
X12662333Y-15564267D01*
X12671857Y-15583314D01*
X12671857Y-15688076D01*
X13062333Y-15478552D02*
X12890905Y-15735695D01*
X13319476Y-15488076D02*
X13338524Y-15488076D01*
X13357571Y-15497600D01*
X13367095Y-15507124D01*
X13376619Y-15526171D01*
X13386143Y-15564267D01*
X13386143Y-15611886D01*
X13376619Y-15649981D01*
X13367095Y-15669028D01*
X13357571Y-15678552D01*
X13338524Y-15688076D01*
X13319476Y-15688076D01*
X13300428Y-15678552D01*
X13290905Y-15669028D01*
X13281381Y-15649981D01*
X13271857Y-15611886D01*
X13271857Y-15564267D01*
X13281381Y-15526171D01*
X13290905Y-15507124D01*
X13300428Y-15497600D01*
X13319476Y-15488076D01*
X13471857Y-15669028D02*
X13481381Y-15678552D01*
X13471857Y-15688076D01*
X13462333Y-15678552D01*
X13471857Y-15669028D01*
X13471857Y-15688076D01*
X13605190Y-15488076D02*
X13624238Y-15488076D01*
X13643286Y-15497600D01*
X13652809Y-15507124D01*
X13662333Y-15526171D01*
X13671857Y-15564267D01*
X13671857Y-15611886D01*
X13662333Y-15649981D01*
X13652809Y-15669028D01*
X13643286Y-15678552D01*
X13624238Y-15688076D01*
X13605190Y-15688076D01*
X13586143Y-15678552D01*
X13576619Y-15669028D01*
X13567095Y-15649981D01*
X13557571Y-15611886D01*
X13557571Y-15564267D01*
X13567095Y-15526171D01*
X13576619Y-15507124D01*
X13586143Y-15497600D01*
X13605190Y-15488076D01*
X13748048Y-15507124D02*
X13757571Y-15497600D01*
X13776619Y-15488076D01*
X13824238Y-15488076D01*
X13843286Y-15497600D01*
X13852809Y-15507124D01*
X13862333Y-15526171D01*
X13862333Y-15545219D01*
X13852809Y-15573790D01*
X13738524Y-15688076D01*
X13862333Y-15688076D01*
X14043286Y-15488076D02*
X13948048Y-15488076D01*
X13938524Y-15583314D01*
X13948048Y-15573790D01*
X13967095Y-15564267D01*
X14014714Y-15564267D01*
X14033762Y-15573790D01*
X14043286Y-15583314D01*
X14052809Y-15602362D01*
X14052809Y-15649981D01*
X14043286Y-15669028D01*
X14033762Y-15678552D01*
X14014714Y-15688076D01*
X13967095Y-15688076D01*
X13948048Y-15678552D01*
X13938524Y-15669028D01*
X14224238Y-15488076D02*
X14186143Y-15488076D01*
X14167095Y-15497600D01*
X14157571Y-15507124D01*
X14138524Y-15535695D01*
X14129000Y-15573790D01*
X14129000Y-15649981D01*
X14138524Y-15669028D01*
X14148048Y-15678552D01*
X14167095Y-15688076D01*
X14205190Y-15688076D01*
X14224238Y-15678552D01*
X14233762Y-15669028D01*
X14243286Y-15649981D01*
X14243286Y-15602362D01*
X14233762Y-15583314D01*
X14224238Y-15573790D01*
X14205190Y-15564267D01*
X14167095Y-15564267D01*
X14148048Y-15573790D01*
X14138524Y-15583314D01*
X14129000Y-15602362D01*
X14319476Y-15488076D02*
X14319476Y-15526171D01*
X14395667Y-15488076D02*
X14395667Y-15526171D01*
X14690905Y-15764267D02*
X14681381Y-15754743D01*
X14662333Y-15726171D01*
X14652809Y-15707124D01*
X14643286Y-15678552D01*
X14633762Y-15630933D01*
X14633762Y-15592838D01*
X14643286Y-15545219D01*
X14652809Y-15516648D01*
X14662333Y-15497600D01*
X14681381Y-15469028D01*
X14690905Y-15459505D01*
X14757571Y-15507124D02*
X14767095Y-15497600D01*
X14786143Y-15488076D01*
X14833762Y-15488076D01*
X14852809Y-15497600D01*
X14862333Y-15507124D01*
X14871857Y-15526171D01*
X14871857Y-15545219D01*
X14862333Y-15573790D01*
X14748048Y-15688076D01*
X14871857Y-15688076D01*
X15109952Y-15688076D02*
X15109952Y-15488076D01*
X15195667Y-15688076D02*
X15195667Y-15583314D01*
X15186143Y-15564267D01*
X15167095Y-15554743D01*
X15138524Y-15554743D01*
X15119476Y-15564267D01*
X15109952Y-15573790D01*
X15319476Y-15688076D02*
X15300428Y-15678552D01*
X15290905Y-15669028D01*
X15281381Y-15649981D01*
X15281381Y-15592838D01*
X15290905Y-15573790D01*
X15300428Y-15564267D01*
X15319476Y-15554743D01*
X15348048Y-15554743D01*
X15367095Y-15564267D01*
X15376619Y-15573790D01*
X15386143Y-15592838D01*
X15386143Y-15649981D01*
X15376619Y-15669028D01*
X15367095Y-15678552D01*
X15348048Y-15688076D01*
X15319476Y-15688076D01*
X15500428Y-15688076D02*
X15481381Y-15678552D01*
X15471857Y-15659505D01*
X15471857Y-15488076D01*
X15652809Y-15678552D02*
X15633762Y-15688076D01*
X15595667Y-15688076D01*
X15576619Y-15678552D01*
X15567095Y-15659505D01*
X15567095Y-15583314D01*
X15576619Y-15564267D01*
X15595667Y-15554743D01*
X15633762Y-15554743D01*
X15652809Y-15564267D01*
X15662333Y-15583314D01*
X15662333Y-15602362D01*
X15567095Y-15621409D01*
X15738524Y-15678552D02*
X15757571Y-15688076D01*
X15795667Y-15688076D01*
X15814714Y-15678552D01*
X15824238Y-15659505D01*
X15824238Y-15649981D01*
X15814714Y-15630933D01*
X15795667Y-15621409D01*
X15767095Y-15621409D01*
X15748048Y-15611886D01*
X15738524Y-15592838D01*
X15738524Y-15583314D01*
X15748048Y-15564267D01*
X15767095Y-15554743D01*
X15795667Y-15554743D01*
X15814714Y-15564267D01*
X15890905Y-15764267D02*
X15900428Y-15754743D01*
X15919476Y-15726171D01*
X15929000Y-15707124D01*
X15938524Y-15678552D01*
X15948048Y-15630933D01*
X15948048Y-15592838D01*
X15938524Y-15545219D01*
X15929000Y-15516648D01*
X15919476Y-15497600D01*
X15900428Y-15469028D01*
X15890905Y-15459505D01*
D15*
X11107870Y-15888470D02*
X11107870Y-15834730D01*
X11054130Y-15834730D01*
X11054130Y-15888470D01*
X11107870Y-15888470D01*
D11*
X11414714Y-15752076D02*
X11433762Y-15752076D01*
X11452809Y-15761600D01*
X11462333Y-15771124D01*
X11471857Y-15790171D01*
X11481381Y-15828267D01*
X11481381Y-15875886D01*
X11471857Y-15913981D01*
X11462333Y-15933028D01*
X11452809Y-15942552D01*
X11433762Y-15952076D01*
X11414714Y-15952076D01*
X11395667Y-15942552D01*
X11386143Y-15933028D01*
X11376619Y-15913981D01*
X11367095Y-15875886D01*
X11367095Y-15828267D01*
X11376619Y-15790171D01*
X11386143Y-15771124D01*
X11395667Y-15761600D01*
X11414714Y-15752076D01*
X11567095Y-15933028D02*
X11576619Y-15942552D01*
X11567095Y-15952076D01*
X11557571Y-15942552D01*
X11567095Y-15933028D01*
X11567095Y-15952076D01*
X11643286Y-15752076D02*
X11776619Y-15752076D01*
X11690905Y-15952076D01*
X11938524Y-15752076D02*
X11900428Y-15752076D01*
X11881381Y-15761600D01*
X11871857Y-15771124D01*
X11852809Y-15799695D01*
X11843286Y-15837790D01*
X11843286Y-15913981D01*
X11852809Y-15933028D01*
X11862333Y-15942552D01*
X11881381Y-15952076D01*
X11919476Y-15952076D01*
X11938524Y-15942552D01*
X11948048Y-15933028D01*
X11957571Y-15913981D01*
X11957571Y-15866362D01*
X11948048Y-15847314D01*
X11938524Y-15837790D01*
X11919476Y-15828267D01*
X11881381Y-15828267D01*
X11862333Y-15837790D01*
X11852809Y-15847314D01*
X11843286Y-15866362D01*
X12081381Y-15752076D02*
X12100428Y-15752076D01*
X12119476Y-15761600D01*
X12129000Y-15771124D01*
X12138524Y-15790171D01*
X12148048Y-15828267D01*
X12148048Y-15875886D01*
X12138524Y-15913981D01*
X12129000Y-15933028D01*
X12119476Y-15942552D01*
X12100428Y-15952076D01*
X12081381Y-15952076D01*
X12062333Y-15942552D01*
X12052809Y-15933028D01*
X12043286Y-15913981D01*
X12033762Y-15875886D01*
X12033762Y-15828267D01*
X12043286Y-15790171D01*
X12052809Y-15771124D01*
X12062333Y-15761600D01*
X12081381Y-15752076D01*
X12233762Y-15952076D02*
X12233762Y-15818743D01*
X12233762Y-15837790D02*
X12243286Y-15828267D01*
X12262333Y-15818743D01*
X12290905Y-15818743D01*
X12309952Y-15828267D01*
X12319476Y-15847314D01*
X12319476Y-15952076D01*
X12319476Y-15847314D02*
X12329000Y-15828267D01*
X12348048Y-15818743D01*
X12376619Y-15818743D01*
X12395667Y-15828267D01*
X12405190Y-15847314D01*
X12405190Y-15952076D01*
X12500428Y-15952076D02*
X12500428Y-15818743D01*
X12500428Y-15837790D02*
X12509952Y-15828267D01*
X12529000Y-15818743D01*
X12557571Y-15818743D01*
X12576619Y-15828267D01*
X12586143Y-15847314D01*
X12586143Y-15952076D01*
X12586143Y-15847314D02*
X12595667Y-15828267D01*
X12614714Y-15818743D01*
X12643286Y-15818743D01*
X12662333Y-15828267D01*
X12671857Y-15847314D01*
X12671857Y-15952076D01*
X13062333Y-15742552D02*
X12890905Y-15999695D01*
X13319476Y-15752076D02*
X13338524Y-15752076D01*
X13357571Y-15761600D01*
X13367095Y-15771124D01*
X13376619Y-15790171D01*
X13386143Y-15828267D01*
X13386143Y-15875886D01*
X13376619Y-15913981D01*
X13367095Y-15933028D01*
X13357571Y-15942552D01*
X13338524Y-15952076D01*
X13319476Y-15952076D01*
X13300428Y-15942552D01*
X13290905Y-15933028D01*
X13281381Y-15913981D01*
X13271857Y-15875886D01*
X13271857Y-15828267D01*
X13281381Y-15790171D01*
X13290905Y-15771124D01*
X13300428Y-15761600D01*
X13319476Y-15752076D01*
X13471857Y-15933028D02*
X13481381Y-15942552D01*
X13471857Y-15952076D01*
X13462333Y-15942552D01*
X13471857Y-15933028D01*
X13471857Y-15952076D01*
X13605190Y-15752076D02*
X13624238Y-15752076D01*
X13643286Y-15761600D01*
X13652809Y-15771124D01*
X13662333Y-15790171D01*
X13671857Y-15828267D01*
X13671857Y-15875886D01*
X13662333Y-15913981D01*
X13652809Y-15933028D01*
X13643286Y-15942552D01*
X13624238Y-15952076D01*
X13605190Y-15952076D01*
X13586143Y-15942552D01*
X13576619Y-15933028D01*
X13567095Y-15913981D01*
X13557571Y-15875886D01*
X13557571Y-15828267D01*
X13567095Y-15790171D01*
X13576619Y-15771124D01*
X13586143Y-15761600D01*
X13605190Y-15752076D01*
X13748048Y-15771124D02*
X13757571Y-15761600D01*
X13776619Y-15752076D01*
X13824238Y-15752076D01*
X13843286Y-15761600D01*
X13852809Y-15771124D01*
X13862333Y-15790171D01*
X13862333Y-15809219D01*
X13852809Y-15837790D01*
X13738524Y-15952076D01*
X13862333Y-15952076D01*
X13957571Y-15952076D02*
X13995667Y-15952076D01*
X14014714Y-15942552D01*
X14024238Y-15933028D01*
X14043286Y-15904457D01*
X14052809Y-15866362D01*
X14052809Y-15790171D01*
X14043286Y-15771124D01*
X14033762Y-15761600D01*
X14014714Y-15752076D01*
X13976619Y-15752076D01*
X13957571Y-15761600D01*
X13948048Y-15771124D01*
X13938524Y-15790171D01*
X13938524Y-15837790D01*
X13948048Y-15856838D01*
X13957571Y-15866362D01*
X13976619Y-15875886D01*
X14014714Y-15875886D01*
X14033762Y-15866362D01*
X14043286Y-15856838D01*
X14052809Y-15837790D01*
X14148048Y-15952076D02*
X14186143Y-15952076D01*
X14205190Y-15942552D01*
X14214714Y-15933028D01*
X14233762Y-15904457D01*
X14243286Y-15866362D01*
X14243286Y-15790171D01*
X14233762Y-15771124D01*
X14224238Y-15761600D01*
X14205190Y-15752076D01*
X14167095Y-15752076D01*
X14148048Y-15761600D01*
X14138524Y-15771124D01*
X14129000Y-15790171D01*
X14129000Y-15837790D01*
X14138524Y-15856838D01*
X14148048Y-15866362D01*
X14167095Y-15875886D01*
X14205190Y-15875886D01*
X14224238Y-15866362D01*
X14233762Y-15856838D01*
X14243286Y-15837790D01*
X14319476Y-15752076D02*
X14319476Y-15790171D01*
X14395667Y-15752076D02*
X14395667Y-15790171D01*
X14690905Y-16028267D02*
X14681381Y-16018743D01*
X14662333Y-15990171D01*
X14652809Y-15971124D01*
X14643286Y-15942552D01*
X14633762Y-15894933D01*
X14633762Y-15856838D01*
X14643286Y-15809219D01*
X14652809Y-15780648D01*
X14662333Y-15761600D01*
X14681381Y-15733028D01*
X14690905Y-15723505D01*
X14795667Y-15837790D02*
X14776619Y-15828267D01*
X14767095Y-15818743D01*
X14757571Y-15799695D01*
X14757571Y-15790171D01*
X14767095Y-15771124D01*
X14776619Y-15761600D01*
X14795667Y-15752076D01*
X14833762Y-15752076D01*
X14852809Y-15761600D01*
X14862333Y-15771124D01*
X14871857Y-15790171D01*
X14871857Y-15799695D01*
X14862333Y-15818743D01*
X14852809Y-15828267D01*
X14833762Y-15837790D01*
X14795667Y-15837790D01*
X14776619Y-15847314D01*
X14767095Y-15856838D01*
X14757571Y-15875886D01*
X14757571Y-15913981D01*
X14767095Y-15933028D01*
X14776619Y-15942552D01*
X14795667Y-15952076D01*
X14833762Y-15952076D01*
X14852809Y-15942552D01*
X14862333Y-15933028D01*
X14871857Y-15913981D01*
X14871857Y-15875886D01*
X14862333Y-15856838D01*
X14852809Y-15847314D01*
X14833762Y-15837790D01*
X15109952Y-15952076D02*
X15109952Y-15752076D01*
X15195667Y-15952076D02*
X15195667Y-15847314D01*
X15186143Y-15828267D01*
X15167095Y-15818743D01*
X15138524Y-15818743D01*
X15119476Y-15828267D01*
X15109952Y-15837790D01*
X15319476Y-15952076D02*
X15300428Y-15942552D01*
X15290905Y-15933028D01*
X15281381Y-15913981D01*
X15281381Y-15856838D01*
X15290905Y-15837790D01*
X15300428Y-15828267D01*
X15319476Y-15818743D01*
X15348048Y-15818743D01*
X15367095Y-15828267D01*
X15376619Y-15837790D01*
X15386143Y-15856838D01*
X15386143Y-15913981D01*
X15376619Y-15933028D01*
X15367095Y-15942552D01*
X15348048Y-15952076D01*
X15319476Y-15952076D01*
X15500428Y-15952076D02*
X15481381Y-15942552D01*
X15471857Y-15923505D01*
X15471857Y-15752076D01*
X15652809Y-15942552D02*
X15633762Y-15952076D01*
X15595667Y-15952076D01*
X15576619Y-15942552D01*
X15567095Y-15923505D01*
X15567095Y-15847314D01*
X15576619Y-15828267D01*
X15595667Y-15818743D01*
X15633762Y-15818743D01*
X15652809Y-15828267D01*
X15662333Y-15847314D01*
X15662333Y-15866362D01*
X15567095Y-15885409D01*
X15738524Y-15942552D02*
X15757571Y-15952076D01*
X15795667Y-15952076D01*
X15814714Y-15942552D01*
X15824238Y-15923505D01*
X15824238Y-15913981D01*
X15814714Y-15894933D01*
X15795667Y-15885409D01*
X15767095Y-15885409D01*
X15748048Y-15875886D01*
X15738524Y-15856838D01*
X15738524Y-15847314D01*
X15748048Y-15828267D01*
X15767095Y-15818743D01*
X15795667Y-15818743D01*
X15814714Y-15828267D01*
X15890905Y-16028267D02*
X15900428Y-16018743D01*
X15919476Y-15990171D01*
X15929000Y-15971124D01*
X15938524Y-15942552D01*
X15948048Y-15894933D01*
X15948048Y-15856838D01*
X15938524Y-15809219D01*
X15929000Y-15780648D01*
X15919476Y-15761600D01*
X15900428Y-15733028D01*
X15890905Y-15723505D01*
D16*
X11079500Y-16165100D02*
X11119000Y-16125600D01*
X11079500Y-16086100D01*
X11040000Y-16125600D01*
X11079500Y-16165100D01*
D11*
X11414714Y-16016076D02*
X11433762Y-16016076D01*
X11452809Y-16025600D01*
X11462333Y-16035124D01*
X11471857Y-16054171D01*
X11481381Y-16092267D01*
X11481381Y-16139886D01*
X11471857Y-16177981D01*
X11462333Y-16197028D01*
X11452809Y-16206552D01*
X11433762Y-16216076D01*
X11414714Y-16216076D01*
X11395667Y-16206552D01*
X11386143Y-16197028D01*
X11376619Y-16177981D01*
X11367095Y-16139886D01*
X11367095Y-16092267D01*
X11376619Y-16054171D01*
X11386143Y-16035124D01*
X11395667Y-16025600D01*
X11414714Y-16016076D01*
X11567095Y-16197028D02*
X11576619Y-16206552D01*
X11567095Y-16216076D01*
X11557571Y-16206552D01*
X11567095Y-16197028D01*
X11567095Y-16216076D01*
X11643286Y-16016076D02*
X11776619Y-16016076D01*
X11690905Y-16216076D01*
X11862333Y-16216076D02*
X11900428Y-16216076D01*
X11919476Y-16206552D01*
X11929000Y-16197028D01*
X11948048Y-16168457D01*
X11957571Y-16130362D01*
X11957571Y-16054171D01*
X11948048Y-16035124D01*
X11938524Y-16025600D01*
X11919476Y-16016076D01*
X11881381Y-16016076D01*
X11862333Y-16025600D01*
X11852809Y-16035124D01*
X11843286Y-16054171D01*
X11843286Y-16101790D01*
X11852809Y-16120838D01*
X11862333Y-16130362D01*
X11881381Y-16139886D01*
X11919476Y-16139886D01*
X11938524Y-16130362D01*
X11948048Y-16120838D01*
X11957571Y-16101790D01*
X12081381Y-16016076D02*
X12100428Y-16016076D01*
X12119476Y-16025600D01*
X12129000Y-16035124D01*
X12138524Y-16054171D01*
X12148048Y-16092267D01*
X12148048Y-16139886D01*
X12138524Y-16177981D01*
X12129000Y-16197028D01*
X12119476Y-16206552D01*
X12100428Y-16216076D01*
X12081381Y-16216076D01*
X12062333Y-16206552D01*
X12052809Y-16197028D01*
X12043286Y-16177981D01*
X12033762Y-16139886D01*
X12033762Y-16092267D01*
X12043286Y-16054171D01*
X12052809Y-16035124D01*
X12062333Y-16025600D01*
X12081381Y-16016076D01*
X12233762Y-16216076D02*
X12233762Y-16082743D01*
X12233762Y-16101790D02*
X12243286Y-16092267D01*
X12262333Y-16082743D01*
X12290905Y-16082743D01*
X12309952Y-16092267D01*
X12319476Y-16111314D01*
X12319476Y-16216076D01*
X12319476Y-16111314D02*
X12329000Y-16092267D01*
X12348048Y-16082743D01*
X12376619Y-16082743D01*
X12395667Y-16092267D01*
X12405190Y-16111314D01*
X12405190Y-16216076D01*
X12500428Y-16216076D02*
X12500428Y-16082743D01*
X12500428Y-16101790D02*
X12509952Y-16092267D01*
X12529000Y-16082743D01*
X12557571Y-16082743D01*
X12576619Y-16092267D01*
X12586143Y-16111314D01*
X12586143Y-16216076D01*
X12586143Y-16111314D02*
X12595667Y-16092267D01*
X12614714Y-16082743D01*
X12643286Y-16082743D01*
X12662333Y-16092267D01*
X12671857Y-16111314D01*
X12671857Y-16216076D01*
X13062333Y-16006552D02*
X12890905Y-16263695D01*
X13319476Y-16016076D02*
X13338524Y-16016076D01*
X13357571Y-16025600D01*
X13367095Y-16035124D01*
X13376619Y-16054171D01*
X13386143Y-16092267D01*
X13386143Y-16139886D01*
X13376619Y-16177981D01*
X13367095Y-16197028D01*
X13357571Y-16206552D01*
X13338524Y-16216076D01*
X13319476Y-16216076D01*
X13300428Y-16206552D01*
X13290905Y-16197028D01*
X13281381Y-16177981D01*
X13271857Y-16139886D01*
X13271857Y-16092267D01*
X13281381Y-16054171D01*
X13290905Y-16035124D01*
X13300428Y-16025600D01*
X13319476Y-16016076D01*
X13471857Y-16197028D02*
X13481381Y-16206552D01*
X13471857Y-16216076D01*
X13462333Y-16206552D01*
X13471857Y-16197028D01*
X13471857Y-16216076D01*
X13605190Y-16016076D02*
X13624238Y-16016076D01*
X13643286Y-16025600D01*
X13652809Y-16035124D01*
X13662333Y-16054171D01*
X13671857Y-16092267D01*
X13671857Y-16139886D01*
X13662333Y-16177981D01*
X13652809Y-16197028D01*
X13643286Y-16206552D01*
X13624238Y-16216076D01*
X13605190Y-16216076D01*
X13586143Y-16206552D01*
X13576619Y-16197028D01*
X13567095Y-16177981D01*
X13557571Y-16139886D01*
X13557571Y-16092267D01*
X13567095Y-16054171D01*
X13576619Y-16035124D01*
X13586143Y-16025600D01*
X13605190Y-16016076D01*
X13738524Y-16016076D02*
X13862333Y-16016076D01*
X13795667Y-16092267D01*
X13824238Y-16092267D01*
X13843286Y-16101790D01*
X13852809Y-16111314D01*
X13862333Y-16130362D01*
X13862333Y-16177981D01*
X13852809Y-16197028D01*
X13843286Y-16206552D01*
X13824238Y-16216076D01*
X13767095Y-16216076D01*
X13748048Y-16206552D01*
X13738524Y-16197028D01*
X14052809Y-16216076D02*
X13938524Y-16216076D01*
X13995667Y-16216076D02*
X13995667Y-16016076D01*
X13976619Y-16044648D01*
X13957571Y-16063695D01*
X13938524Y-16073219D01*
X14243286Y-16216076D02*
X14129000Y-16216076D01*
X14186143Y-16216076D02*
X14186143Y-16016076D01*
X14167095Y-16044648D01*
X14148048Y-16063695D01*
X14129000Y-16073219D01*
X14319476Y-16016076D02*
X14319476Y-16054171D01*
X14395667Y-16016076D02*
X14395667Y-16054171D01*
X14690905Y-16292267D02*
X14681381Y-16282743D01*
X14662333Y-16254171D01*
X14652809Y-16235124D01*
X14643286Y-16206552D01*
X14633762Y-16158933D01*
X14633762Y-16120838D01*
X14643286Y-16073219D01*
X14652809Y-16044648D01*
X14662333Y-16025600D01*
X14681381Y-15997028D01*
X14690905Y-15987505D01*
X14748048Y-16016076D02*
X14871857Y-16016076D01*
X14805190Y-16092267D01*
X14833762Y-16092267D01*
X14852809Y-16101790D01*
X14862333Y-16111314D01*
X14871857Y-16130362D01*
X14871857Y-16177981D01*
X14862333Y-16197028D01*
X14852809Y-16206552D01*
X14833762Y-16216076D01*
X14776619Y-16216076D01*
X14757571Y-16206552D01*
X14748048Y-16197028D01*
X15109952Y-16216076D02*
X15109952Y-16016076D01*
X15195667Y-16216076D02*
X15195667Y-16111314D01*
X15186143Y-16092267D01*
X15167095Y-16082743D01*
X15138524Y-16082743D01*
X15119476Y-16092267D01*
X15109952Y-16101790D01*
X15319476Y-16216076D02*
X15300428Y-16206552D01*
X15290905Y-16197028D01*
X15281381Y-16177981D01*
X15281381Y-16120838D01*
X15290905Y-16101790D01*
X15300428Y-16092267D01*
X15319476Y-16082743D01*
X15348048Y-16082743D01*
X15367095Y-16092267D01*
X15376619Y-16101790D01*
X15386143Y-16120838D01*
X15386143Y-16177981D01*
X15376619Y-16197028D01*
X15367095Y-16206552D01*
X15348048Y-16216076D01*
X15319476Y-16216076D01*
X15500428Y-16216076D02*
X15481381Y-16206552D01*
X15471857Y-16187505D01*
X15471857Y-16016076D01*
X15652809Y-16206552D02*
X15633762Y-16216076D01*
X15595667Y-16216076D01*
X15576619Y-16206552D01*
X15567095Y-16187505D01*
X15567095Y-16111314D01*
X15576619Y-16092267D01*
X15595667Y-16082743D01*
X15633762Y-16082743D01*
X15652809Y-16092267D01*
X15662333Y-16111314D01*
X15662333Y-16130362D01*
X15567095Y-16149409D01*
X15738524Y-16206552D02*
X15757571Y-16216076D01*
X15795667Y-16216076D01*
X15814714Y-16206552D01*
X15824238Y-16187505D01*
X15824238Y-16177981D01*
X15814714Y-16158933D01*
X15795667Y-16149409D01*
X15767095Y-16149409D01*
X15748048Y-16139886D01*
X15738524Y-16120838D01*
X15738524Y-16111314D01*
X15748048Y-16092267D01*
X15767095Y-16082743D01*
X15795667Y-16082743D01*
X15814714Y-16092267D01*
X15890905Y-16292267D02*
X15900428Y-16282743D01*
X15919476Y-16254171D01*
X15929000Y-16235124D01*
X15938524Y-16206552D01*
X15948048Y-16158933D01*
X15948048Y-16120838D01*
X15938524Y-16073219D01*
X15929000Y-16044648D01*
X15919476Y-16025600D01*
X15900428Y-15997028D01*
X15890905Y-15987505D01*
D17*
X11019000Y-16339600D02*
X11119000Y-16439600D01*
X11119000Y-16339600D02*
X11019000Y-16439600D01*
X11119000Y-16389600D02*
G75*
G03*
X11119000Y-16389600I-50000J0D01*
G01*
D11*
X11481381Y-16480076D02*
X11367095Y-16480076D01*
X11424238Y-16480076D02*
X11424238Y-16280076D01*
X11405190Y-16308648D01*
X11386143Y-16327695D01*
X11367095Y-16337219D01*
X11567095Y-16461028D02*
X11576619Y-16470552D01*
X11567095Y-16480076D01*
X11557571Y-16470552D01*
X11567095Y-16461028D01*
X11567095Y-16480076D01*
X11700428Y-16280076D02*
X11719476Y-16280076D01*
X11738524Y-16289600D01*
X11748048Y-16299124D01*
X11757571Y-16318171D01*
X11767095Y-16356267D01*
X11767095Y-16403886D01*
X11757571Y-16441981D01*
X11748048Y-16461028D01*
X11738524Y-16470552D01*
X11719476Y-16480076D01*
X11700428Y-16480076D01*
X11681381Y-16470552D01*
X11671857Y-16461028D01*
X11662333Y-16441981D01*
X11652809Y-16403886D01*
X11652809Y-16356267D01*
X11662333Y-16318171D01*
X11671857Y-16299124D01*
X11681381Y-16289600D01*
X11700428Y-16280076D01*
X11890905Y-16280076D02*
X11909952Y-16280076D01*
X11929000Y-16289600D01*
X11938524Y-16299124D01*
X11948048Y-16318171D01*
X11957571Y-16356267D01*
X11957571Y-16403886D01*
X11948048Y-16441981D01*
X11938524Y-16461028D01*
X11929000Y-16470552D01*
X11909952Y-16480076D01*
X11890905Y-16480076D01*
X11871857Y-16470552D01*
X11862333Y-16461028D01*
X11852809Y-16441981D01*
X11843286Y-16403886D01*
X11843286Y-16356267D01*
X11852809Y-16318171D01*
X11862333Y-16299124D01*
X11871857Y-16289600D01*
X11890905Y-16280076D01*
X12081381Y-16280076D02*
X12100428Y-16280076D01*
X12119476Y-16289600D01*
X12129000Y-16299124D01*
X12138524Y-16318171D01*
X12148048Y-16356267D01*
X12148048Y-16403886D01*
X12138524Y-16441981D01*
X12129000Y-16461028D01*
X12119476Y-16470552D01*
X12100428Y-16480076D01*
X12081381Y-16480076D01*
X12062333Y-16470552D01*
X12052809Y-16461028D01*
X12043286Y-16441981D01*
X12033762Y-16403886D01*
X12033762Y-16356267D01*
X12043286Y-16318171D01*
X12052809Y-16299124D01*
X12062333Y-16289600D01*
X12081381Y-16280076D01*
X12233762Y-16480076D02*
X12233762Y-16346743D01*
X12233762Y-16365790D02*
X12243286Y-16356267D01*
X12262333Y-16346743D01*
X12290905Y-16346743D01*
X12309952Y-16356267D01*
X12319476Y-16375314D01*
X12319476Y-16480076D01*
X12319476Y-16375314D02*
X12329000Y-16356267D01*
X12348048Y-16346743D01*
X12376619Y-16346743D01*
X12395667Y-16356267D01*
X12405190Y-16375314D01*
X12405190Y-16480076D01*
X12500428Y-16480076D02*
X12500428Y-16346743D01*
X12500428Y-16365790D02*
X12509952Y-16356267D01*
X12529000Y-16346743D01*
X12557571Y-16346743D01*
X12576619Y-16356267D01*
X12586143Y-16375314D01*
X12586143Y-16480076D01*
X12586143Y-16375314D02*
X12595667Y-16356267D01*
X12614714Y-16346743D01*
X12643286Y-16346743D01*
X12662333Y-16356267D01*
X12671857Y-16375314D01*
X12671857Y-16480076D01*
X13062333Y-16270552D02*
X12890905Y-16527695D01*
X13319476Y-16280076D02*
X13338524Y-16280076D01*
X13357571Y-16289600D01*
X13367095Y-16299124D01*
X13376619Y-16318171D01*
X13386143Y-16356267D01*
X13386143Y-16403886D01*
X13376619Y-16441981D01*
X13367095Y-16461028D01*
X13357571Y-16470552D01*
X13338524Y-16480076D01*
X13319476Y-16480076D01*
X13300428Y-16470552D01*
X13290905Y-16461028D01*
X13281381Y-16441981D01*
X13271857Y-16403886D01*
X13271857Y-16356267D01*
X13281381Y-16318171D01*
X13290905Y-16299124D01*
X13300428Y-16289600D01*
X13319476Y-16280076D01*
X13471857Y-16461028D02*
X13481381Y-16470552D01*
X13471857Y-16480076D01*
X13462333Y-16470552D01*
X13471857Y-16461028D01*
X13471857Y-16480076D01*
X13605190Y-16280076D02*
X13624238Y-16280076D01*
X13643286Y-16289600D01*
X13652809Y-16299124D01*
X13662333Y-16318171D01*
X13671857Y-16356267D01*
X13671857Y-16403886D01*
X13662333Y-16441981D01*
X13652809Y-16461028D01*
X13643286Y-16470552D01*
X13624238Y-16480076D01*
X13605190Y-16480076D01*
X13586143Y-16470552D01*
X13576619Y-16461028D01*
X13567095Y-16441981D01*
X13557571Y-16403886D01*
X13557571Y-16356267D01*
X13567095Y-16318171D01*
X13576619Y-16299124D01*
X13586143Y-16289600D01*
X13605190Y-16280076D01*
X13738524Y-16280076D02*
X13862333Y-16280076D01*
X13795667Y-16356267D01*
X13824238Y-16356267D01*
X13843286Y-16365790D01*
X13852809Y-16375314D01*
X13862333Y-16394362D01*
X13862333Y-16441981D01*
X13852809Y-16461028D01*
X13843286Y-16470552D01*
X13824238Y-16480076D01*
X13767095Y-16480076D01*
X13748048Y-16470552D01*
X13738524Y-16461028D01*
X13957571Y-16480076D02*
X13995667Y-16480076D01*
X14014714Y-16470552D01*
X14024238Y-16461028D01*
X14043286Y-16432457D01*
X14052809Y-16394362D01*
X14052809Y-16318171D01*
X14043286Y-16299124D01*
X14033762Y-16289600D01*
X14014714Y-16280076D01*
X13976619Y-16280076D01*
X13957571Y-16289600D01*
X13948048Y-16299124D01*
X13938524Y-16318171D01*
X13938524Y-16365790D01*
X13948048Y-16384838D01*
X13957571Y-16394362D01*
X13976619Y-16403886D01*
X14014714Y-16403886D01*
X14033762Y-16394362D01*
X14043286Y-16384838D01*
X14052809Y-16365790D01*
X14224238Y-16346743D02*
X14224238Y-16480076D01*
X14176619Y-16270552D02*
X14129000Y-16413409D01*
X14252809Y-16413409D01*
X14319476Y-16280076D02*
X14319476Y-16318171D01*
X14395667Y-16280076D02*
X14395667Y-16318171D01*
X14690905Y-16556267D02*
X14681381Y-16546743D01*
X14662333Y-16518171D01*
X14652809Y-16499124D01*
X14643286Y-16470552D01*
X14633762Y-16422933D01*
X14633762Y-16384838D01*
X14643286Y-16337219D01*
X14652809Y-16308648D01*
X14662333Y-16289600D01*
X14681381Y-16261028D01*
X14690905Y-16251505D01*
X14852809Y-16346743D02*
X14852809Y-16480076D01*
X14805190Y-16270552D02*
X14757571Y-16413409D01*
X14881381Y-16413409D01*
X15109952Y-16480076D02*
X15109952Y-16280076D01*
X15195667Y-16480076D02*
X15195667Y-16375314D01*
X15186143Y-16356267D01*
X15167095Y-16346743D01*
X15138524Y-16346743D01*
X15119476Y-16356267D01*
X15109952Y-16365790D01*
X15319476Y-16480076D02*
X15300428Y-16470552D01*
X15290905Y-16461028D01*
X15281381Y-16441981D01*
X15281381Y-16384838D01*
X15290905Y-16365790D01*
X15300428Y-16356267D01*
X15319476Y-16346743D01*
X15348048Y-16346743D01*
X15367095Y-16356267D01*
X15376619Y-16365790D01*
X15386143Y-16384838D01*
X15386143Y-16441981D01*
X15376619Y-16461028D01*
X15367095Y-16470552D01*
X15348048Y-16480076D01*
X15319476Y-16480076D01*
X15500428Y-16480076D02*
X15481381Y-16470552D01*
X15471857Y-16451505D01*
X15471857Y-16280076D01*
X15652809Y-16470552D02*
X15633762Y-16480076D01*
X15595667Y-16480076D01*
X15576619Y-16470552D01*
X15567095Y-16451505D01*
X15567095Y-16375314D01*
X15576619Y-16356267D01*
X15595667Y-16346743D01*
X15633762Y-16346743D01*
X15652809Y-16356267D01*
X15662333Y-16375314D01*
X15662333Y-16394362D01*
X15567095Y-16413409D01*
X15738524Y-16470552D02*
X15757571Y-16480076D01*
X15795667Y-16480076D01*
X15814714Y-16470552D01*
X15824238Y-16451505D01*
X15824238Y-16441981D01*
X15814714Y-16422933D01*
X15795667Y-16413409D01*
X15767095Y-16413409D01*
X15748048Y-16403886D01*
X15738524Y-16384838D01*
X15738524Y-16375314D01*
X15748048Y-16356267D01*
X15767095Y-16346743D01*
X15795667Y-16346743D01*
X15814714Y-16356267D01*
X15890905Y-16556267D02*
X15900428Y-16546743D01*
X15919476Y-16518171D01*
X15929000Y-16499124D01*
X15938524Y-16470552D01*
X15948048Y-16422933D01*
X15948048Y-16384838D01*
X15938524Y-16337219D01*
X15929000Y-16308648D01*
X15919476Y-16289600D01*
X15900428Y-16261028D01*
X15890905Y-16251505D01*
D18*
X10944000Y-16566100D02*
X11119000Y-16741100D01*
X11119000Y-16566100D02*
X10944000Y-16741100D01*
X11031500Y-16566100D02*
X11031500Y-16741100D01*
X10944000Y-16653600D02*
X11119000Y-16653600D01*
D11*
X11481381Y-16744076D02*
X11367095Y-16744076D01*
X11424238Y-16744076D02*
X11424238Y-16544076D01*
X11405190Y-16572648D01*
X11386143Y-16591695D01*
X11367095Y-16601219D01*
X11567095Y-16725028D02*
X11576619Y-16734552D01*
X11567095Y-16744076D01*
X11557571Y-16734552D01*
X11567095Y-16725028D01*
X11567095Y-16744076D01*
X11643286Y-16544076D02*
X11776619Y-16544076D01*
X11690905Y-16744076D01*
X11948048Y-16544076D02*
X11852809Y-16544076D01*
X11843286Y-16639314D01*
X11852809Y-16629790D01*
X11871857Y-16620267D01*
X11919476Y-16620267D01*
X11938524Y-16629790D01*
X11948048Y-16639314D01*
X11957571Y-16658362D01*
X11957571Y-16705981D01*
X11948048Y-16725028D01*
X11938524Y-16734552D01*
X11919476Y-16744076D01*
X11871857Y-16744076D01*
X11852809Y-16734552D01*
X11843286Y-16725028D01*
X12081381Y-16544076D02*
X12100428Y-16544076D01*
X12119476Y-16553600D01*
X12129000Y-16563124D01*
X12138524Y-16582171D01*
X12148048Y-16620267D01*
X12148048Y-16667886D01*
X12138524Y-16705981D01*
X12129000Y-16725028D01*
X12119476Y-16734552D01*
X12100428Y-16744076D01*
X12081381Y-16744076D01*
X12062333Y-16734552D01*
X12052809Y-16725028D01*
X12043286Y-16705981D01*
X12033762Y-16667886D01*
X12033762Y-16620267D01*
X12043286Y-16582171D01*
X12052809Y-16563124D01*
X12062333Y-16553600D01*
X12081381Y-16544076D01*
X12233762Y-16744076D02*
X12233762Y-16610743D01*
X12233762Y-16629790D02*
X12243286Y-16620267D01*
X12262333Y-16610743D01*
X12290905Y-16610743D01*
X12309952Y-16620267D01*
X12319476Y-16639314D01*
X12319476Y-16744076D01*
X12319476Y-16639314D02*
X12329000Y-16620267D01*
X12348048Y-16610743D01*
X12376619Y-16610743D01*
X12395667Y-16620267D01*
X12405190Y-16639314D01*
X12405190Y-16744076D01*
X12500428Y-16744076D02*
X12500428Y-16610743D01*
X12500428Y-16629790D02*
X12509952Y-16620267D01*
X12529000Y-16610743D01*
X12557571Y-16610743D01*
X12576619Y-16620267D01*
X12586143Y-16639314D01*
X12586143Y-16744076D01*
X12586143Y-16639314D02*
X12595667Y-16620267D01*
X12614714Y-16610743D01*
X12643286Y-16610743D01*
X12662333Y-16620267D01*
X12671857Y-16639314D01*
X12671857Y-16744076D01*
X13062333Y-16534552D02*
X12890905Y-16791695D01*
X13319476Y-16544076D02*
X13338524Y-16544076D01*
X13357571Y-16553600D01*
X13367095Y-16563124D01*
X13376619Y-16582171D01*
X13386143Y-16620267D01*
X13386143Y-16667886D01*
X13376619Y-16705981D01*
X13367095Y-16725028D01*
X13357571Y-16734552D01*
X13338524Y-16744076D01*
X13319476Y-16744076D01*
X13300428Y-16734552D01*
X13290905Y-16725028D01*
X13281381Y-16705981D01*
X13271857Y-16667886D01*
X13271857Y-16620267D01*
X13281381Y-16582171D01*
X13290905Y-16563124D01*
X13300428Y-16553600D01*
X13319476Y-16544076D01*
X13471857Y-16725028D02*
X13481381Y-16734552D01*
X13471857Y-16744076D01*
X13462333Y-16734552D01*
X13471857Y-16725028D01*
X13471857Y-16744076D01*
X13605190Y-16544076D02*
X13624238Y-16544076D01*
X13643286Y-16553600D01*
X13652809Y-16563124D01*
X13662333Y-16582171D01*
X13671857Y-16620267D01*
X13671857Y-16667886D01*
X13662333Y-16705981D01*
X13652809Y-16725028D01*
X13643286Y-16734552D01*
X13624238Y-16744076D01*
X13605190Y-16744076D01*
X13586143Y-16734552D01*
X13576619Y-16725028D01*
X13567095Y-16705981D01*
X13557571Y-16667886D01*
X13557571Y-16620267D01*
X13567095Y-16582171D01*
X13576619Y-16563124D01*
X13586143Y-16553600D01*
X13605190Y-16544076D01*
X13843286Y-16544076D02*
X13805190Y-16544076D01*
X13786143Y-16553600D01*
X13776619Y-16563124D01*
X13757571Y-16591695D01*
X13748048Y-16629790D01*
X13748048Y-16705981D01*
X13757571Y-16725028D01*
X13767095Y-16734552D01*
X13786143Y-16744076D01*
X13824238Y-16744076D01*
X13843286Y-16734552D01*
X13852809Y-16725028D01*
X13862333Y-16705981D01*
X13862333Y-16658362D01*
X13852809Y-16639314D01*
X13843286Y-16629790D01*
X13824238Y-16620267D01*
X13786143Y-16620267D01*
X13767095Y-16629790D01*
X13757571Y-16639314D01*
X13748048Y-16658362D01*
X13976619Y-16629790D02*
X13957571Y-16620267D01*
X13948048Y-16610743D01*
X13938524Y-16591695D01*
X13938524Y-16582171D01*
X13948048Y-16563124D01*
X13957571Y-16553600D01*
X13976619Y-16544076D01*
X14014714Y-16544076D01*
X14033762Y-16553600D01*
X14043286Y-16563124D01*
X14052809Y-16582171D01*
X14052809Y-16591695D01*
X14043286Y-16610743D01*
X14033762Y-16620267D01*
X14014714Y-16629790D01*
X13976619Y-16629790D01*
X13957571Y-16639314D01*
X13948048Y-16648838D01*
X13938524Y-16667886D01*
X13938524Y-16705981D01*
X13948048Y-16725028D01*
X13957571Y-16734552D01*
X13976619Y-16744076D01*
X14014714Y-16744076D01*
X14033762Y-16734552D01*
X14043286Y-16725028D01*
X14052809Y-16705981D01*
X14052809Y-16667886D01*
X14043286Y-16648838D01*
X14033762Y-16639314D01*
X14014714Y-16629790D01*
X14148048Y-16744076D02*
X14186143Y-16744076D01*
X14205190Y-16734552D01*
X14214714Y-16725028D01*
X14233762Y-16696457D01*
X14243286Y-16658362D01*
X14243286Y-16582171D01*
X14233762Y-16563124D01*
X14224238Y-16553600D01*
X14205190Y-16544076D01*
X14167095Y-16544076D01*
X14148048Y-16553600D01*
X14138524Y-16563124D01*
X14129000Y-16582171D01*
X14129000Y-16629790D01*
X14138524Y-16648838D01*
X14148048Y-16658362D01*
X14167095Y-16667886D01*
X14205190Y-16667886D01*
X14224238Y-16658362D01*
X14233762Y-16648838D01*
X14243286Y-16629790D01*
X14319476Y-16544076D02*
X14319476Y-16582171D01*
X14395667Y-16544076D02*
X14395667Y-16582171D01*
X14690905Y-16820267D02*
X14681381Y-16810743D01*
X14662333Y-16782171D01*
X14652809Y-16763124D01*
X14643286Y-16734552D01*
X14633762Y-16686933D01*
X14633762Y-16648838D01*
X14643286Y-16601219D01*
X14652809Y-16572648D01*
X14662333Y-16553600D01*
X14681381Y-16525028D01*
X14690905Y-16515505D01*
X14795667Y-16629790D02*
X14776619Y-16620267D01*
X14767095Y-16610743D01*
X14757571Y-16591695D01*
X14757571Y-16582171D01*
X14767095Y-16563124D01*
X14776619Y-16553600D01*
X14795667Y-16544076D01*
X14833762Y-16544076D01*
X14852809Y-16553600D01*
X14862333Y-16563124D01*
X14871857Y-16582171D01*
X14871857Y-16591695D01*
X14862333Y-16610743D01*
X14852809Y-16620267D01*
X14833762Y-16629790D01*
X14795667Y-16629790D01*
X14776619Y-16639314D01*
X14767095Y-16648838D01*
X14757571Y-16667886D01*
X14757571Y-16705981D01*
X14767095Y-16725028D01*
X14776619Y-16734552D01*
X14795667Y-16744076D01*
X14833762Y-16744076D01*
X14852809Y-16734552D01*
X14862333Y-16725028D01*
X14871857Y-16705981D01*
X14871857Y-16667886D01*
X14862333Y-16648838D01*
X14852809Y-16639314D01*
X14833762Y-16629790D01*
X15109952Y-16744076D02*
X15109952Y-16544076D01*
X15195667Y-16744076D02*
X15195667Y-16639314D01*
X15186143Y-16620267D01*
X15167095Y-16610743D01*
X15138524Y-16610743D01*
X15119476Y-16620267D01*
X15109952Y-16629790D01*
X15319476Y-16744076D02*
X15300428Y-16734552D01*
X15290905Y-16725028D01*
X15281381Y-16705981D01*
X15281381Y-16648838D01*
X15290905Y-16629790D01*
X15300428Y-16620267D01*
X15319476Y-16610743D01*
X15348048Y-16610743D01*
X15367095Y-16620267D01*
X15376619Y-16629790D01*
X15386143Y-16648838D01*
X15386143Y-16705981D01*
X15376619Y-16725028D01*
X15367095Y-16734552D01*
X15348048Y-16744076D01*
X15319476Y-16744076D01*
X15500428Y-16744076D02*
X15481381Y-16734552D01*
X15471857Y-16715505D01*
X15471857Y-16544076D01*
X15652809Y-16734552D02*
X15633762Y-16744076D01*
X15595667Y-16744076D01*
X15576619Y-16734552D01*
X15567095Y-16715505D01*
X15567095Y-16639314D01*
X15576619Y-16620267D01*
X15595667Y-16610743D01*
X15633762Y-16610743D01*
X15652809Y-16620267D01*
X15662333Y-16639314D01*
X15662333Y-16658362D01*
X15567095Y-16677409D01*
X15738524Y-16734552D02*
X15757571Y-16744076D01*
X15795667Y-16744076D01*
X15814714Y-16734552D01*
X15824238Y-16715505D01*
X15824238Y-16705981D01*
X15814714Y-16686933D01*
X15795667Y-16677409D01*
X15767095Y-16677409D01*
X15748048Y-16667886D01*
X15738524Y-16648838D01*
X15738524Y-16639314D01*
X15748048Y-16620267D01*
X15767095Y-16610743D01*
X15795667Y-16610743D01*
X15814714Y-16620267D01*
X15890905Y-16820267D02*
X15900428Y-16810743D01*
X15919476Y-16782171D01*
X15929000Y-16763124D01*
X15938524Y-16734552D01*
X15948048Y-16686933D01*
X15948048Y-16648838D01*
X15938524Y-16601219D01*
X15929000Y-16572648D01*
X15919476Y-16553600D01*
X15900428Y-16525028D01*
X15890905Y-16515505D01*
X10919000Y-16848600D02*
X11119000Y-17048600D01*
X11119000Y-16848600D02*
X10919000Y-17048600D01*
X11089711Y-17019311D02*
X11089711Y-16877889D01*
X10948289Y-16877889D01*
X10948289Y-17019311D01*
X11089711Y-17019311D01*
X11367095Y-16858124D02*
X11376619Y-16848600D01*
X11395667Y-16839076D01*
X11443286Y-16839076D01*
X11462333Y-16848600D01*
X11471857Y-16858124D01*
X11481381Y-16877171D01*
X11481381Y-16896219D01*
X11471857Y-16924790D01*
X11357571Y-17039076D01*
X11481381Y-17039076D01*
X11567095Y-17020029D02*
X11576619Y-17029552D01*
X11567095Y-17039076D01*
X11557571Y-17029552D01*
X11567095Y-17020029D01*
X11567095Y-17039076D01*
X11767095Y-17039076D02*
X11652809Y-17039076D01*
X11709952Y-17039076D02*
X11709952Y-16839076D01*
X11690905Y-16867648D01*
X11671857Y-16886695D01*
X11652809Y-16896219D01*
X11890905Y-16839076D02*
X11909952Y-16839076D01*
X11929000Y-16848600D01*
X11938524Y-16858124D01*
X11948048Y-16877171D01*
X11957571Y-16915267D01*
X11957571Y-16962886D01*
X11948048Y-17000981D01*
X11938524Y-17020029D01*
X11929000Y-17029552D01*
X11909952Y-17039076D01*
X11890905Y-17039076D01*
X11871857Y-17029552D01*
X11862333Y-17020029D01*
X11852809Y-17000981D01*
X11843286Y-16962886D01*
X11843286Y-16915267D01*
X11852809Y-16877171D01*
X11862333Y-16858124D01*
X11871857Y-16848600D01*
X11890905Y-16839076D01*
X12081381Y-16839076D02*
X12100428Y-16839076D01*
X12119476Y-16848600D01*
X12129000Y-16858124D01*
X12138524Y-16877171D01*
X12148048Y-16915267D01*
X12148048Y-16962886D01*
X12138524Y-17000981D01*
X12129000Y-17020029D01*
X12119476Y-17029552D01*
X12100428Y-17039076D01*
X12081381Y-17039076D01*
X12062333Y-17029552D01*
X12052809Y-17020029D01*
X12043286Y-17000981D01*
X12033762Y-16962886D01*
X12033762Y-16915267D01*
X12043286Y-16877171D01*
X12052809Y-16858124D01*
X12062333Y-16848600D01*
X12081381Y-16839076D01*
X12233762Y-17039076D02*
X12233762Y-16905743D01*
X12233762Y-16924790D02*
X12243286Y-16915267D01*
X12262333Y-16905743D01*
X12290905Y-16905743D01*
X12309952Y-16915267D01*
X12319476Y-16934314D01*
X12319476Y-17039076D01*
X12319476Y-16934314D02*
X12329000Y-16915267D01*
X12348048Y-16905743D01*
X12376619Y-16905743D01*
X12395667Y-16915267D01*
X12405190Y-16934314D01*
X12405190Y-17039076D01*
X12500428Y-17039076D02*
X12500428Y-16905743D01*
X12500428Y-16924790D02*
X12509952Y-16915267D01*
X12529000Y-16905743D01*
X12557571Y-16905743D01*
X12576619Y-16915267D01*
X12586143Y-16934314D01*
X12586143Y-17039076D01*
X12586143Y-16934314D02*
X12595667Y-16915267D01*
X12614714Y-16905743D01*
X12643286Y-16905743D01*
X12662333Y-16915267D01*
X12671857Y-16934314D01*
X12671857Y-17039076D01*
X13062333Y-16829552D02*
X12890905Y-17086695D01*
X13319476Y-16839076D02*
X13338524Y-16839076D01*
X13357571Y-16848600D01*
X13367095Y-16858124D01*
X13376619Y-16877171D01*
X13386143Y-16915267D01*
X13386143Y-16962886D01*
X13376619Y-17000981D01*
X13367095Y-17020029D01*
X13357571Y-17029552D01*
X13338524Y-17039076D01*
X13319476Y-17039076D01*
X13300428Y-17029552D01*
X13290905Y-17020029D01*
X13281381Y-17000981D01*
X13271857Y-16962886D01*
X13271857Y-16915267D01*
X13281381Y-16877171D01*
X13290905Y-16858124D01*
X13300428Y-16848600D01*
X13319476Y-16839076D01*
X13471857Y-17020029D02*
X13481381Y-17029552D01*
X13471857Y-17039076D01*
X13462333Y-17029552D01*
X13471857Y-17020029D01*
X13471857Y-17039076D01*
X13605190Y-16839076D02*
X13624238Y-16839076D01*
X13643286Y-16848600D01*
X13652809Y-16858124D01*
X13662333Y-16877171D01*
X13671857Y-16915267D01*
X13671857Y-16962886D01*
X13662333Y-17000981D01*
X13652809Y-17020029D01*
X13643286Y-17029552D01*
X13624238Y-17039076D01*
X13605190Y-17039076D01*
X13586143Y-17029552D01*
X13576619Y-17020029D01*
X13567095Y-17000981D01*
X13557571Y-16962886D01*
X13557571Y-16915267D01*
X13567095Y-16877171D01*
X13576619Y-16858124D01*
X13586143Y-16848600D01*
X13605190Y-16839076D01*
X13786143Y-16924790D02*
X13767095Y-16915267D01*
X13757571Y-16905743D01*
X13748048Y-16886695D01*
X13748048Y-16877171D01*
X13757571Y-16858124D01*
X13767095Y-16848600D01*
X13786143Y-16839076D01*
X13824238Y-16839076D01*
X13843286Y-16848600D01*
X13852809Y-16858124D01*
X13862333Y-16877171D01*
X13862333Y-16886695D01*
X13852809Y-16905743D01*
X13843286Y-16915267D01*
X13824238Y-16924790D01*
X13786143Y-16924790D01*
X13767095Y-16934314D01*
X13757571Y-16943838D01*
X13748048Y-16962886D01*
X13748048Y-17000981D01*
X13757571Y-17020029D01*
X13767095Y-17029552D01*
X13786143Y-17039076D01*
X13824238Y-17039076D01*
X13843286Y-17029552D01*
X13852809Y-17020029D01*
X13862333Y-17000981D01*
X13862333Y-16962886D01*
X13852809Y-16943838D01*
X13843286Y-16934314D01*
X13824238Y-16924790D01*
X13938524Y-16858124D02*
X13948048Y-16848600D01*
X13967095Y-16839076D01*
X14014714Y-16839076D01*
X14033762Y-16848600D01*
X14043286Y-16858124D01*
X14052809Y-16877171D01*
X14052809Y-16896219D01*
X14043286Y-16924790D01*
X13929000Y-17039076D01*
X14052809Y-17039076D01*
X14119476Y-16839076D02*
X14252809Y-16839076D01*
X14167095Y-17039076D01*
X14319476Y-16839076D02*
X14319476Y-16877171D01*
X14395667Y-16839076D02*
X14395667Y-16877171D01*
X14690905Y-17115267D02*
X14681381Y-17105743D01*
X14662333Y-17077171D01*
X14652809Y-17058124D01*
X14643286Y-17029552D01*
X14633762Y-16981933D01*
X14633762Y-16943838D01*
X14643286Y-16896219D01*
X14652809Y-16867648D01*
X14662333Y-16848600D01*
X14681381Y-16820029D01*
X14690905Y-16810505D01*
X14757571Y-16858124D02*
X14767095Y-16848600D01*
X14786143Y-16839076D01*
X14833762Y-16839076D01*
X14852809Y-16848600D01*
X14862333Y-16858124D01*
X14871857Y-16877171D01*
X14871857Y-16896219D01*
X14862333Y-16924790D01*
X14748048Y-17039076D01*
X14871857Y-17039076D01*
X15109952Y-17039076D02*
X15109952Y-16839076D01*
X15195667Y-17039076D02*
X15195667Y-16934314D01*
X15186143Y-16915267D01*
X15167095Y-16905743D01*
X15138524Y-16905743D01*
X15119476Y-16915267D01*
X15109952Y-16924790D01*
X15319476Y-17039076D02*
X15300428Y-17029552D01*
X15290905Y-17020029D01*
X15281381Y-17000981D01*
X15281381Y-16943838D01*
X15290905Y-16924790D01*
X15300428Y-16915267D01*
X15319476Y-16905743D01*
X15348048Y-16905743D01*
X15367095Y-16915267D01*
X15376619Y-16924790D01*
X15386143Y-16943838D01*
X15386143Y-17000981D01*
X15376619Y-17020029D01*
X15367095Y-17029552D01*
X15348048Y-17039076D01*
X15319476Y-17039076D01*
X15500428Y-17039076D02*
X15481381Y-17029552D01*
X15471857Y-17010505D01*
X15471857Y-16839076D01*
X15652809Y-17029552D02*
X15633762Y-17039076D01*
X15595667Y-17039076D01*
X15576619Y-17029552D01*
X15567095Y-17010505D01*
X15567095Y-16934314D01*
X15576619Y-16915267D01*
X15595667Y-16905743D01*
X15633762Y-16905743D01*
X15652809Y-16915267D01*
X15662333Y-16934314D01*
X15662333Y-16953362D01*
X15567095Y-16972410D01*
X15738524Y-17029552D02*
X15757571Y-17039076D01*
X15795667Y-17039076D01*
X15814714Y-17029552D01*
X15824238Y-17010505D01*
X15824238Y-17000981D01*
X15814714Y-16981933D01*
X15795667Y-16972410D01*
X15767095Y-16972410D01*
X15748048Y-16962886D01*
X15738524Y-16943838D01*
X15738524Y-16934314D01*
X15748048Y-16915267D01*
X15767095Y-16905743D01*
X15795667Y-16905743D01*
X15814714Y-16915267D01*
X15890905Y-17115267D02*
X15900428Y-17105743D01*
X15919476Y-17077171D01*
X15929000Y-17058124D01*
X15938524Y-17029552D01*
X15948048Y-16981933D01*
X15948048Y-16943838D01*
X15938524Y-16896219D01*
X15929000Y-16867648D01*
X15919476Y-16848600D01*
X15900428Y-16820029D01*
X15890905Y-16810505D01*
M02*
